<svg xmlns="http://www.w3.org/2000/svg" viewBox="0 0 28 28"><defs><style>.cls-1{fill:#0095f6;}</style></defs><title>bantuin-iconmenu-walletcolor</title><g id="Layer_2" data-name="Layer 2"><path class="cls-1" d="M21.77,16.83a1.07,1.07,0,1,1-1.06,1.06A1.07,1.07,0,0,1,21.77,16.83Z"/><path class="cls-1" d="M26,15.58H21.26a2.37,2.37,0,0,0-2.4,2.4,2.4,2.4,0,0,0,2.4,2.41H26v2.13a2.83,2.83,0,0,1-2.82,2.83H4.86A2.83,2.83,0,0,1,2,22.52V13.27a2.82,2.82,0,0,1,2.82-2.82H23.22A2.82,2.82,0,0,1,26,13.27Z"/><path class="cls-1" d="M23.23,10h-.56a1,1,0,0,0,0-.93L21.06,5.56a4.23,4.23,0,0,0-2.42-2.17,3.83,3.83,0,0,0-1.29-.24,4.1,4.1,0,0,0-1.92.5L6.52,8.57A1,1,0,0,0,6,9.7a.71.71,0,0,0,.11.25H5.59a.65.65,0,0,1,0-.13,1.48,1.48,0,0,1,.73-1.68l8.91-4.91a4.51,4.51,0,0,1,2.16-.58,4.66,4.66,0,0,1,4.16,2.68L23.16,8.8A1.49,1.49,0,0,1,23.23,10Z"/><path class="cls-1" d="M22.23,9.71a.49.49,0,0,1-.42.24H7a.48.48,0,0,1-.48-.38A.49.49,0,0,1,6.76,9L15.67,4.1a3.58,3.58,0,0,1,1.68-.45,3.32,3.32,0,0,1,1.12.21,3.75,3.75,0,0,1,2.14,1.91l1.65,3.46A.51.51,0,0,1,22.23,9.71Z"/><polygon class="cls-1" points="2.04 10.4 2.04 10.45 1.96 10.45 2.04 10.4"/><polygon class="cls-1" points="2.04 10.4 2.04 10.45 1.96 10.45 2.04 10.4"/><path class="cls-1" d="M22.83,17.89a1.06,1.06,0,1,1-1.06-1.06A1.06,1.06,0,0,1,22.83,17.89Z"/><path class="cls-1" d="M22.83,17.89a1.06,1.06,0,1,1-1.06-1.06A1.06,1.06,0,0,1,22.83,17.89Z"/></g></svg>