<svg xmlns="http://www.w3.org/2000/svg" viewBox="0 0 28 28"><title>bantuin-iconmenu</title><g id="Layer_2" data-name="Layer 2"><rect x="2" y="2" width="24" height="24" style="fill:none;stroke:#00f9ff;stroke-miterlimit:10;stroke-width:0.10000000149011612px"/><path d="M25.93,6.66a5.21,5.21,0,0,0-4.41-4.4,3.47,3.47,0,0,0-.79-.08H7.27a3.47,3.47,0,0,0-.79.08,5.21,5.21,0,0,0-4.41,4.4A4.15,4.15,0,0,0,2,7.45V16.7A5.27,5.27,0,0,0,7.27,22H9l3,3a2.8,2.8,0,0,0,4,0l3-3h1.71A5.27,5.27,0,0,0,26,16.7V7.45A4.15,4.15,0,0,0,25.93,6.66ZM14,14.53H6a1,1,0,1,1,0-2h8a1,1,0,0,1,0,2ZM22,10H6A1,1,0,0,1,6,8H22a1,1,0,0,1,0,2Z" style="fill:#a7a9ac"/></g></svg>