<svg xmlns="http://www.w3.org/2000/svg" viewBox="0 0 28 28"><defs><style>.cls-1{fill:#a7a9ac;}</style></defs><title>bantuin-iconmenu</title><g id="Layer_2" data-name="Layer 2"><path class="cls-1" d="M26,7.05V8.13H2V7.05A4.75,4.75,0,0,1,6.75,2.3h14.5A4.75,4.75,0,0,1,26,7.05Z"/><path class="cls-1" d="M26,10.13v7.2a4.78,4.78,0,0,1-.75,2.57A6.17,6.17,0,0,0,13,20.73a5.48,5.48,0,0,0,.16,1.35H6.75A4.75,4.75,0,0,1,2,17.33v-7.2Z"/><path class="cls-1" d="M19.14,15.76a5,5,0,1,0,4.95,5.38c0-.14,0-.27,0-.41A5,5,0,0,0,19.14,15.76Zm.6,6.87a.6.6,0,0,1-1.2,0v-1.3H17.08a.6.6,0,0,1,0-1.2h1.46V18.51a.6.6,0,0,1,1.2,0v1.62H21.2a.6.6,0,0,1,0,1.2H19.74Z"/></g></svg>