<svg xmlns="http://www.w3.org/2000/svg" viewBox="0 0 28 28"><defs><style>.cls-1{fill:#a7a9ac;}</style></defs><title>bantuin-iconmenu</title><g id="Layer_2" data-name="Layer 2"><path class="cls-1" d="M12.24,23.61a2.09,2.09,0,1,1-2.11-2.08A2.1,2.1,0,0,1,12.24,23.61Z"/><path class="cls-1" d="M19.87,21.53a2.09,2.09,0,1,1-2.1,2.08A2.08,2.08,0,0,1,19.87,21.53Z"/><path class="cls-1" d="M24.8,11.6A5.18,5.18,0,0,1,19.68,16H8.8l.42,1.57L21,17.71a1,1,0,0,1,0,2h0L8.45,19.56h0a.93.93,0,0,1-.29,0A.31.31,0,0,1,8,19.45a.57.57,0,0,1-.18-.12.58.58,0,0,1-.18-.17A.29.29,0,0,1,7.59,19a.7.7,0,0,1-.11-.27L6.73,16l-1-3.84-2-7.29H2.14a1,1,0,0,1,0-2H4.52l.19,0,.17,0L5,3a.42.42,0,0,1,.12.08l.12.1a1,1,0,0,1,.18.27.52.52,0,0,1,.06.16l0,.08h0L5.85,5H23.47a2,2,0,0,1,2,2.3Z"/><circle class="cls-1" cx="10.15" cy="23.61" r="2.09"/><circle class="cls-1" cx="19.85" cy="23.61" r="2.09"/></g></svg>