<svg xmlns="http://www.w3.org/2000/svg" viewBox="0 0 28 28"><defs><style>.cls-1{fill:#0095f6;}</style></defs><title>bantuin-iconmenu</title><g id="Layer_2" data-name="Layer 2"><path class="cls-1" d="M18.48,2.07h-10A5.82,5.82,0,0,0,2.65,7.89V19a5.83,5.83,0,0,0,5.83,5.81h5.64a7.12,7.12,0,0,1,10.19-9.94V7.89A5.82,5.82,0,0,0,18.48,2.07Zm-7.7,16.27H7.65a1,1,0,0,1,0-2h3.13a1,1,0,0,1,0,2Zm2-4.23H7.27a1,1,0,0,1-1-1,1,1,0,0,1,1-1h5.52a1,1,0,0,1,1,1A1,1,0,0,1,12.79,14.11Zm5.14-4.22H7.65a1,1,0,0,1,0-2H17.93a1,1,0,0,1,0,2Z"/><path class="cls-1" d="M24.31,16.65a5.93,5.93,0,1,0-8.4,8.12,5.79,5.79,0,0,0,3.5,1.16,5.93,5.93,0,0,0,4.9-9.28Zm-2.72,3.94H19.41a.6.6,0,0,1-.6-.6V16.64a.61.61,0,0,1,.6-.6.6.6,0,0,1,.6.6v2.75h1.58a.6.6,0,0,1,.6.6A.6.6,0,0,1,21.59,20.59Z"/></g></svg>