<svg xmlns="http://www.w3.org/2000/svg" viewBox="0 0 962.13 217.92"><title>b+bantuin-blue-black</title><path d="M123.61,121.55A30.35,30.35,0,1,1,93.22,91.16,30.39,30.39,0,0,1,123.61,121.55Z" fill="#0096f9"/><path d="M93.22,29.48A93.3,93.3,0,0,0,36.41,48.8V18.17a17.76,17.76,0,0,0-5.28-12.8A18.07,18.07,0,0,0,18,0,18.35,18.35,0,0,0,0,18.42v106H.08a93.23,93.23,0,1,0,93.14-95Zm0,150.12a56.85,56.85,0,1,1,56.9-56.89A56.72,56.72,0,0,1,93.22,179.6Z" fill="#0096f9"/><path d="M356,97.66a51.27,51.27,0,0,0-18.13-20A46.61,46.61,0,0,0,312,70.31a38.78,38.78,0,0,0-13.87,2.57,43.15,43.15,0,0,0-11.55,6.25c-1.28,1.05-2.49,2-3.61,3.05V45.77A13.52,13.52,0,0,0,279,35.83a14.23,14.23,0,0,0-20,0,13.56,13.56,0,0,0-3.93,9.94V170.08A14.17,14.17,0,0,0,259,180.26a13.87,13.87,0,0,0,10,3.93,13.16,13.16,0,0,0,10-4.09,12.76,12.76,0,0,0,3.61-6.89l1.92,1.44a48.68,48.68,0,0,0,12.68,6.9,45.68,45.68,0,0,0,15.55,2.64,45.1,45.1,0,0,0,25.35-7.38A51.63,51.63,0,0,0,356,156.6c4.41-8.26,6.66-18.2,6.66-29.43S360.4,106,356,97.66Zm-47,60.71a24.9,24.9,0,0,1-14.11-4,26.28,26.28,0,0,1-9.46-11.15,35.09,35.09,0,0,1-3.53-16,36,36,0,0,1,3.45-16,27.51,27.51,0,0,1,9.54-11,24.9,24.9,0,0,1,14.11-4,24,24,0,0,1,14,4,28.11,28.11,0,0,1,9.46,11,38.61,38.61,0,0,1-.08,32.08A28,28,0,0,1,323,154.36,24,24,0,0,1,309,158.37Z" fill="#212121"/><path d="M478.13,74.24a13.91,13.91,0,0,0-9.95-3.93,13.14,13.14,0,0,0-9.94,4.09,13.59,13.59,0,0,0-3.53,6.26l-1-.8a47.94,47.94,0,0,0-29.27-9.55,45.8,45.8,0,0,0-25.26,7.38,52.21,52.21,0,0,0-18,20.13c-4.41,8.5-6.66,18.45-6.66,29.51s2.25,20.85,6.66,29.35a50.56,50.56,0,0,0,18.29,20.13,46.76,46.76,0,0,0,25.74,7.38,39.25,39.25,0,0,0,14.67-2.64,48.64,48.64,0,0,0,11.71-6.26c1.21-1,2.33-1.92,3.29-2.81a14.1,14.1,0,0,0,3.37,5.62,14.14,14.14,0,0,0,19.89,0,13.55,13.55,0,0,0,3.93-9.95V84.43A14.21,14.21,0,0,0,478.13,74.24Zm-26.31,69.05a26.8,26.8,0,0,1-9.54,11.07,24.29,24.29,0,0,1-14.11,4,23.89,23.89,0,0,1-13.88-4,27.12,27.12,0,0,1-9.62-11.07,36.35,36.35,0,0,1-3.37-16,35.77,35.77,0,0,1,3.45-16.12,26.29,26.29,0,0,1,9.54-11.06,23.89,23.89,0,0,1,13.88-4,24.29,24.29,0,0,1,14.11,4,26,26,0,0,1,9.46,11.06,35.55,35.55,0,0,1,3.53,16.12A36.37,36.37,0,0,1,451.82,143.29Z" fill="#212121"/><path d="M600,117.47v50.68a13.59,13.59,0,0,1-3.93,9.95,14.14,14.14,0,0,1-19.89,0,13.55,13.55,0,0,1-3.93-9.95V117.47a34.77,34.77,0,0,0-1.6-11.15,14,14,0,0,0-5.22-7.46c-2.64-1.84-6.41-2.72-11.39-2.72A24.32,24.32,0,0,0,541.72,99a18.67,18.67,0,0,0-7.53,7.62,22.27,22.27,0,0,0-2.65,10.83v50.68a13.55,13.55,0,0,1-3.93,9.95,14.14,14.14,0,0,1-19.89,0,13.55,13.55,0,0,1-3.93-9.95V86.35a13.51,13.51,0,0,1,3.93-9.94,14.14,14.14,0,0,1,19.89,0,13.75,13.75,0,0,1,3.85,8,52,52,0,0,1,7-6.18,42.32,42.32,0,0,1,10.82-5.77,39.2,39.2,0,0,1,13.16-2.17c10.34,0,18,2.17,23.57,6.58a32.62,32.62,0,0,1,11.07,17.32A84.89,84.89,0,0,1,600,117.47Z" fill="#212121"/><path d="M681.43,159.09c1.84,2.09,2.72,4.89,2.72,8.42,0,4.41-2.32,8.1-7,10.83a26.86,26.86,0,0,1-14,3.85,74.16,74.16,0,0,1-9.46-.64,28.5,28.5,0,0,1-10.27-3.69,22.24,22.24,0,0,1-8.1-9c-2.16-4-3.28-9.46-3.28-16.2v-52.6H625a12.63,12.63,0,0,1-9.38-3.77A13,13,0,0,1,611.9,87a12.4,12.4,0,0,1,3.69-9.06A13,13,0,0,1,625,74.24H632V63.58a14,14,0,0,1,14.11-14A12.83,12.83,0,0,1,656,53.63a14.07,14.07,0,0,1,3.85,9.95V74.24h12A13.33,13.33,0,0,1,681.27,78,13.06,13.06,0,0,1,685,87.4a12.46,12.46,0,0,1-3.77,9.06,13.21,13.21,0,0,1-9.31,3.61h-12v51.64a6.39,6.39,0,0,0,.73,3.45,5.59,5.59,0,0,0,2,1.85,10.84,10.84,0,0,0,3.37.64,7.65,7.65,0,0,0,3.53-.8,13.5,13.5,0,0,1,5.37-1C677.26,155.8,679.42,156.93,681.43,159.09Z" fill="#212121"/><path d="M797.23,86.35v50.29c0,14.51-4.09,26.14-12.27,34.64s-19.89,12.91-35.05,12.91-26.94-4.33-35-12.91-12.11-20.13-12.11-34.64V86.35a13.82,13.82,0,0,1,3.93-10,13.32,13.32,0,0,1,9.94-4,13.61,13.61,0,0,1,10,4,13.86,13.86,0,0,1,3.93,10v50.29q0,11.3,4.81,16.6c3.13,3.44,8,5.13,14.59,5.13s11.55-1.69,14.76-5.13,4.81-9.07,4.81-16.6V86.35a13.86,13.86,0,0,1,3.93-10,13.36,13.36,0,0,1,10-4,13.59,13.59,0,0,1,9.94,4A14.15,14.15,0,0,1,797.23,86.35Z" fill="#212121"/><path d="M845.91,47.78v3.77c0,4.49-1.28,7.7-3.85,9.46-2.33,1.6-5.85,2.41-10.83,2.41s-8.5-.81-10.74-2.57-3.53-5-3.53-9.3V47.78c0-4.57,1.36-7.7,3.93-9.47,2.4-1.68,5.85-2.48,10.58-2.48,5.14,0,8.67.88,10.91,2.65S845.91,43.45,845.91,47.78Z" fill="#212121"/><path d="M845.35,86.35v81.8a14.24,14.24,0,0,1-3.93,10,13.65,13.65,0,0,1-9.95,4,13.37,13.37,0,0,1-9.94-4,13.86,13.86,0,0,1-3.93-10V86.35a13.82,13.82,0,0,1,3.93-10,13.34,13.34,0,0,1,9.94-4,13.61,13.61,0,0,1,9.95,4A14.2,14.2,0,0,1,845.35,86.35Z" fill="#212121"/><path d="M962,117.47v50.68A13.55,13.55,0,0,1,958,178.1a13.13,13.13,0,0,1-9.94,4.09,13.3,13.3,0,0,1-10-4.09,13.67,13.67,0,0,1-3.85-9.95V117.47a39.55,39.55,0,0,0-1.61-11.15,14.28,14.28,0,0,0-5.37-7.46C924.74,97.1,921,96.14,916,96.14s-9.14,1-12.35,2.88a18.88,18.88,0,0,0-7.62,7.62,23.25,23.25,0,0,0-2.56,10.83v50.68a13.59,13.59,0,0,1-3.93,9.95,13.16,13.16,0,0,1-9.95,4.09,13.3,13.3,0,0,1-10-4.09,13.55,13.55,0,0,1-3.93-9.95V86.35a13.51,13.51,0,0,1,3.93-9.94,13.27,13.27,0,0,1,10-4.09,13.13,13.13,0,0,1,9.95,4.09,13.75,13.75,0,0,1,3.85,8,51.76,51.76,0,0,1,6.89-6.18,43.06,43.06,0,0,1,10.91-5.77,39.05,39.05,0,0,1,13.07-2.17c10.27,0,18.21,2.17,23.58,6.58A33.34,33.34,0,0,1,959,94.21,84.9,84.9,0,0,1,962,117.47Z" fill="#212121"/></svg>