<?xml version="1.0" encoding="utf-8"?>
<!-- Generator: Adobe Illustrator 23.0.5, SVG Export Plug-In . SVG Version: 6.00 Build 0)  -->
<svg version="1.1" id="Layer_1" xmlns="http://www.w3.org/2000/svg" xmlns:xlink="http://www.w3.org/1999/xlink" x="0px" y="0px"
	 viewBox="0 0 28 28" style="enable-background:new 0 0 28 28;" xml:space="preserve">
<style type="text/css">
	.st0{fill:#0095F6;}
</style>
<title>bantuin-iconmenu</title>
<g>
	<path class="st0" d="M25.9,6.7c-0.3-2.3-2.1-4.1-4.4-4.4c-0.3-0.1-0.5-0.1-0.8-0.1H7.3c-0.3,0-0.5,0-0.8,0.1
		C4.2,2.6,2.4,4.4,2.1,6.7C2,6.9,2,7.2,2,7.4v9.3C2,19.6,4.3,22,7.2,22c0,0,0,0,0,0H9l3,3c1.1,1.1,2.9,1.1,4,0c0,0,0,0,0,0l3-3h1.7
		c2.9,0,5.3-2.3,5.3-5.2c0,0,0,0,0-0.1V7.4C26,7.2,26,6.9,25.9,6.7z M14,14.5H6c-0.6,0-1-0.4-1-1s0.4-1,1-1h8c0.6,0,1,0.4,1,1
		S14.6,14.5,14,14.5z M22,10H6c-0.6,0-1-0.4-1-1s0.4-1,1-1h16c0.6,0,1,0.4,1,1S22.6,10,22,10z"/>
</g>
</svg>
