<svg xmlns="http://www.w3.org/2000/svg" viewBox="0 0 28 28"><defs><style>.cls-1{fill:#a7a9ac;}</style></defs><title>bantuin-iconmenu</title><g id="Layer_2" data-name="Layer 2"><path class="cls-1" d="M26,7.05V8.13H2V7.05A4.76,4.76,0,0,1,6.76,2.3H21.25A4.75,4.75,0,0,1,26,7.05Z"/><path class="cls-1" d="M26,10.13v7.2a4.78,4.78,0,0,1-.75,2.57A6.17,6.17,0,0,0,13,20.73a5.48,5.48,0,0,0,.16,1.35H6.76A4.76,4.76,0,0,1,2,17.33v-7.2Z"/><path class="cls-1" d="M19,23.19l.06,0h.1A.45.45,0,0,1,19,23.19Zm-.1-.05s0,0-.05,0a.14.14,0,0,0,.08.05h0S18.9,23.16,18.88,23.14Zm-.13-.07.06,0-.07-.06Z"/><path class="cls-1" d="M19.14,15.76a5,5,0,1,0,4.95,5.38c0-.14,0-.27,0-.41A5,5,0,0,0,19.14,15.76Zm.52,7.2L19.6,23a.1.1,0,0,1-.05,0,.39.39,0,0,1-.16.1h0a.48.48,0,0,1-.2,0H19l-.06,0h-.07a.14.14,0,0,1-.08-.05s0,0,0,0l-.06,0a.1.1,0,0,1-.05,0l-.88-1-1.18-1.27a.6.6,0,1,1,.88-.82l1,1.13V18.51a.6.6,0,0,1,1.2,0v2.58l1-1.1a.61.61,0,0,1,.85,0,.6.6,0,0,1,0,.85l-1.18,1.27Z"/><path class="cls-1" d="M19.14,23.22H19l-.06,0A.45.45,0,0,0,19.14,23.22Z"/><path class="cls-1" d="M18.81,23.11l-.06,0v0Z"/><path class="cls-1" d="M18.93,23.17h0s0,0,0,0S18.91,23.17,18.93,23.17Z"/><path class="cls-1" d="M18.81,23.11l-.06,0v0Z"/><path class="cls-1" d="M18.94,23.18h0a.14.14,0,0,1-.08-.05s0,0,.05,0,0,0,.05,0Z"/><path class="cls-1" d="M19.14,23.22H19l-.06,0A.45.45,0,0,0,19.14,23.22Z"/></g></svg>