<svg xmlns="http://www.w3.org/2000/svg" viewBox="0 0 28 28"><defs><style>.cls-1{fill:#a7a9ac;}</style></defs><title>bantuin-iconmenu</title><g id="Layer_2" data-name="Layer 2"><path class="cls-1" d="M25,12.25l-.55-.81a3.17,3.17,0,0,1-.54-1.71v-1a3,3,0,0,0-2-2.82L21,5.58a2.94,2.94,0,0,1-1.4-1.06L19,3.72a2.85,2.85,0,0,0-3.2-1.08l-.92.29a2.73,2.73,0,0,1-1.74,0l-.92-.29A2.85,2.85,0,0,0,9,3.72l-.58.8A2.94,2.94,0,0,1,7,5.58l-.91.32a3,3,0,0,0-2,2.82v1a3.17,3.17,0,0,1-.54,1.71L3,12.25a3.11,3.11,0,0,0,0,3.5l.55.81a3.17,3.17,0,0,1,.54,1.71v1a3,3,0,0,0,2,2.82l.91.32a2.94,2.94,0,0,1,1.4,1.06l.58.8a2.85,2.85,0,0,0,3.2,1.08l.92-.29a2.73,2.73,0,0,1,1.74,0l.92.29A2.85,2.85,0,0,0,19,24.28l.58-.8A2.94,2.94,0,0,1,21,22.42l.91-.32a3,3,0,0,0,2-2.82v-1a3.17,3.17,0,0,1,.54-1.71l.55-.81A3.11,3.11,0,0,0,25,12.25ZM11.27,9.79a1.48,1.48,0,1,1-1.48,1.48A1.48,1.48,0,0,1,11.27,9.79Zm5.46,8.42a1.48,1.48,0,1,1,1.48-1.48A1.48,1.48,0,0,1,16.73,18.21Zm1.49-7-7,7a1,1,0,0,1-.71.29,1,1,0,0,1-.71-.29,1,1,0,0,1,0-1.42l7-7a1,1,0,0,1,1.42,1.42Z"/></g></svg>