<svg id="Layer_1" data-name="Layer 1" xmlns="http://www.w3.org/2000/svg" xmlns:xlink="http://www.w3.org/1999/xlink" viewBox="0 0 100 100">
  <defs>
    <linearGradient id="linear-gradient" x1="3.54" y1="47.18" x2="89.82" y2="47.18" gradientUnits="userSpaceOnUse">
      <stop offset="0" stop-color="#c2ecff"/>
      <stop offset="1" stop-color="#e6f9ff"/>
    </linearGradient>
  </defs>
  <title>Untitled-2</title>
  <g>
    <path d="M89.82,47.19a128.69,128.69,0,0,1-4.21,33.2v0c-.25.92-.51,1.82-.78,2.72h0l0,.07,0,.07s0,0,0,0l-.1.16c-.06.1-.13.19-.19.28l-.07.09c-.14.18-.29.35-.45.52a5.76,5.76,0,0,1-.44.41l-.21.17a3.62,3.62,0,0,1-.32.22l-.32.2c-.91.27-1.82.53-2.75.78h0a129.07,129.07,0,0,1-33.2,4.21,129.21,129.21,0,0,1-33.21-4.21h0c-.92-.25-1.84-.51-2.75-.78a5.39,5.39,0,0,1-1.2-.92l-.17-.16-.14-.16a5.3,5.3,0,0,1-.46-.6c-.07-.11-.14-.22-.2-.33-.28-.91-.54-1.83-.79-2.77h0a128.75,128.75,0,0,1-4.21-33.2A128.69,128.69,0,0,1,7.75,14h0q.38-1.38.78-2.73h0l.1-.16.09-.15a1.3,1.3,0,0,1,.1-.15l0,0L9,10.52l0,0,.18-.22A3.45,3.45,0,0,1,9.46,10l.16-.15.15-.15.36-.28.25-.18L10.7,9c.92-.27,1.84-.53,2.78-.78h0A128.31,128.31,0,0,1,46.68,4a128.25,128.25,0,0,1,33.2,4.22h0c.93.25,1.85.51,2.77.78l.32.2.31.22.37.31c.08.08.17.15.25.24l.26.28.24.29.22.32s.07.11.11.17l.09.17h0c.26.9.52,1.8.77,2.72h0A128.71,128.71,0,0,1,89.82,47.19Z" fill="url(#linear-gradient)"/>
    <g>
      <path d="M72.23,82.46c0,.05,0,.13,0,.14.6.4,1,1.05,1.57,1.44a2.9,2.9,0,0,1,1.27,2.2,3.63,3.63,0,0,1-1.19,3.28c-.71.65-1.46,1.27-2.18,1.9a17.54,17.54,0,0,1-2.24,1.72A15,15,0,0,1,63,95.7a11.74,11.74,0,0,1-5.41-.78,29.53,29.53,0,0,1-3.91-1.82c-1.12-.61-2.19-1.31-3.28-2-.69-.41-1.29-1-2-1.4S47,88.67,46.34,88.12s-1.2-1-1.76-1.53-1-.81-1.43-1.24c-1.23-1.16-2.44-2.34-3.57-3.61-.67-.75-1.26-1.57-1.95-2.3-1-1-1.79-2.15-2.65-3.25s-1.47-2-2.21-3.06S31.28,71,30.59,69.82c-.45-.75-.89-1.52-1.35-2.28-.84-1.4-1.58-2.85-2.3-4.31a55.3,55.3,0,0,1-3.52-8.85,45.9,45.9,0,0,1-1.63-8.21,24.67,24.67,0,0,1-.06-4,11.28,11.28,0,0,1,1.37-5,18.09,18.09,0,0,1,1.45-2,10.79,10.79,0,0,1,1.58-1.72,25.64,25.64,0,0,1,6.61-4.32A3.66,3.66,0,0,1,38,31.41c1.43,4.07,2.9,8.13,4.3,12.2a3.68,3.68,0,0,1-.84,4c-.82.84-1.79,1.5-2.67,2.26-.5.42-1,.87-1.44,1.33a4.87,4.87,0,0,1-.93.74,2.35,2.35,0,0,0-1.08,2.1,6.83,6.83,0,0,0,.9,3.44c.62,1.26,1.27,2.5,2,3.72,1,1.68,2,3.28,3.06,4.9.56.87,1.15,1.74,1.78,2.58S44.3,70.4,45,71.23c.4.5.86,1,1.26,1.47a26.12,26.12,0,0,0,2.64,2.72,5,5,0,0,0,4,1.61.67.67,0,0,0,.3-.13,42.11,42.11,0,0,1,4.54-3.08c1.63-1,3.14-1.19,5.29.52.61.49,1.2,1,1.83,1.49.36.27.72.63,1.07.94a7,7,0,0,0,1.38,1.17.46.46,0,0,1,.22.19,2,2,0,0,0,.94.8c.18.5.68.66,1,1Z" fill="#0096f9"/>
      <path d="M72.23,82.46l-2.82-2.55c-.35-.32-.85-.48-1-1,.19-1.16.3-2.33.41-3.5s.29-2.49.43-3.74.23-2.24.35-3.36c.18-1.57.36-3.15.56-4.71.11-.86.13-.85-.69-.85H55a2.64,2.64,0,0,1-.63,0,1.34,1.34,0,0,1-.83-2.12q2.46-4,5-8.08L74.26,26.73a1.39,1.39,0,0,1,1.7-.8,1.43,1.43,0,0,1,.9,1.62c0,.3-.06.59-.09.88-.23,1.9-.45,3.81-.67,5.71-.24,2.12-.46,4.24-.71,6.36-.15,1.21-.32,2.43-.45,3.64-.15,1.41-.32,2.83-.44,4.25a2.77,2.77,0,0,1-.11.87c-.19.45.07.4.35.4,4.73,0,9.45,0,14.18,0A1.49,1.49,0,0,1,90.28,52c-.78,1.27-1.52,2.56-2.28,3.84L72.73,81.68C72.57,81.94,72.4,82.2,72.23,82.46Z" fill="#fec422"/>
    </g>
  </g>
</svg>
