<svg id="Layer_1" data-name="Layer 1" xmlns="http://www.w3.org/2000/svg" xmlns:xlink="http://www.w3.org/1999/xlink" viewBox="0 0 100 100">
  <defs>
    <linearGradient id="linear-gradient" x1="3.58" y1="46.99" x2="89.86" y2="46.99" gradientUnits="userSpaceOnUse">
      <stop offset="0" stop-color="#c2ecff"/>
      <stop offset="1" stop-color="#e6f9ff"/>
    </linearGradient>
  </defs>
  <title>Untitled-2</title>
  <g>
    <path d="M89.86,47a129.14,129.14,0,0,1-4.2,33.2s0,0,0,0c-.25.92-.5,1.82-.77,2.72h0l0,.07,0,.06s0,0,0,0l-.1.17-.19.27-.07.09a5.59,5.59,0,0,1-.45.52,3.44,3.44,0,0,1-.44.41l-.21.17-.31.22a3.62,3.62,0,0,1-.33.2c-.91.27-1.82.53-2.75.78h0a128.71,128.71,0,0,1-33.21,4.21,128.69,128.69,0,0,1-33.2-4.21h0c-.92-.25-1.84-.51-2.75-.78a5.93,5.93,0,0,1-1.2-.91l-.16-.17-.15-.16a6.8,6.8,0,0,1-.46-.6c-.07-.1-.14-.22-.2-.32-.27-.92-.53-1.84-.78-2.78h0A128.25,128.25,0,0,1,3.58,47,128.25,128.25,0,0,1,7.8,13.79h0c.24-.92.5-1.83.77-2.73h0l.1-.17.09-.15.1-.14,0-.05a1.56,1.56,0,0,1,.16-.2v0l.18-.22a3.58,3.58,0,0,1,.26-.28l.16-.16a1.07,1.07,0,0,1,.16-.14,3.07,3.07,0,0,1,.35-.28,1.44,1.44,0,0,1,.25-.18,3.53,3.53,0,0,1,.32-.21c.92-.27,1.84-.53,2.78-.78h0A128.61,128.61,0,0,1,46.72,3.85,128.77,128.77,0,0,1,79.93,8.06h0c.93.25,1.86.51,2.77.78a3.53,3.53,0,0,1,.32.21,2.18,2.18,0,0,1,.31.22,2.17,2.17,0,0,1,.37.31,2.73,2.73,0,0,1,.25.23l.26.28a3.36,3.36,0,0,1,.24.29l.22.32c0,.05.07.11.11.17l.1.18h0c.27.9.53,1.8.77,2.72h0A129.22,129.22,0,0,1,89.86,47Z" fill="url(#linear-gradient)"/>
    <g>
      <path d="M55.87,83.19c.23,6.83-2.51,12.46-6.13,12.57L43.21,96a4.44,4.44,0,0,0,3.21-1.75C48.3,92,49.49,88,49.33,83.4s-1.59-8.53-3.62-10.61a4.49,4.49,0,0,0-3.33-1.55L48.92,71C52.54,70.92,55.65,76.36,55.87,83.19Z" fill="#373b45"/>
      <path d="M49.33,83.4c.16,4.58-1,8.61-2.91,10.82A4.44,4.44,0,0,1,43.21,96c-3.62.12-6.73-5.32-7-12.15s2.51-12.46,6.12-12.58a4.49,4.49,0,0,1,3.33,1.55C47.74,74.87,49.18,78.82,49.33,83.4Z" fill="#2b2c2f"/>
      <ellipse cx="42.23" cy="83.7" rx="3.6" ry="7.38" transform="translate(-2.79 1.47) rotate(-1.92)" fill="#fff"/>
      <path d="M95.22,79.4c.22,6.83-2.52,12.46-6.13,12.58l-6.54.2a4.46,4.46,0,0,0,3.22-1.75c1.88-2.21,3.06-6.24,2.91-10.82S87.08,71.08,85.05,69a4.47,4.47,0,0,0-3.32-1.55l6.54-.21C91.88,67.13,95,72.57,95.22,79.4Z" fill="#373b45"/>
      <path d="M88.68,79.61c.15,4.58-1,8.61-2.91,10.82a4.46,4.46,0,0,1-3.22,1.75c-3.61.12-6.72-5.32-7-12.15s2.52-12.46,6.13-12.58A4.47,4.47,0,0,1,85.05,69C87.08,71.08,88.53,75,88.68,79.61Z" fill="#2b2c2f"/>
      <ellipse cx="81.57" cy="79.91" rx="3.6" ry="7.38" transform="translate(-2.64 2.78) rotate(-1.92)" fill="#fff"/>
      <path d="M20.24,76.16c.16,5.49-1.81,10-4.4,10.1l-4.69.17A3.11,3.11,0,0,0,13.45,85c1.36-1.77,2.2-5,2.09-8.69s-1.14-6.85-2.6-8.52a3.07,3.07,0,0,0-2.38-1.24l4.69-.17C17.84,66.31,20.08,70.68,20.24,76.16Z" fill="#373b45"/>
      <path d="M15.54,76.33c.11,3.68-.73,6.92-2.09,8.69a3.11,3.11,0,0,1-2.3,1.41c-2.6.09-4.83-4.28-5-9.76s1.8-10,4.4-10.1a3.07,3.07,0,0,1,2.38,1.24C14.4,69.48,15.44,72.65,15.54,76.33Z" fill="#2b2c2f"/>
      <ellipse cx="10.44" cy="76.57" rx="2.59" ry="5.93" transform="translate(-2.16 0.33) rotate(-1.62)" fill="#fff"/>
      <path d="M12.05,67a2.53,2.53,0,0,0-1.49-.45c-2.52.09-4.45,4.35-4.41,9.62l-.09,0-.2-1.22A16.19,16.19,0,0,1,6.93,67a2.86,2.86,0,0,1,2.88-1.83,2.28,2.28,0,0,1,.77.18A5.54,5.54,0,0,1,12.05,67Z" fill="#026cbc"/>
      <path d="M15.48,80.06,15.32,80c0-.16,0-.32.07-.48Z" fill="#026cbc"/>
      <path d="M40.4,69.52a8.71,8.71,0,0,1,4.14,2.33,3.88,3.88,0,0,0-2.16-.61C38.77,71.36,36,77,36.26,83.82c0,.66.07,1.3.14,1.93l-.27,0C33.56,70.08,40.4,69.52,40.4,69.52Z" fill="#026cbc"/>
      <path d="M49.11,87.48a22.27,22.27,0,0,0,.23-3.71c.25,1.25.41,2.13.41,2.13a3.28,3.28,0,0,0,.72,1.76Z" fill="#026cbc"/>
      <path d="M6.06,76.15a33.14,33.14,0,0,1,.51-17.32,6,6,0,0,1,2.1-2.59h0A4.94,4.94,0,0,0,10,54.72l2.77-4.85,2.05-2.5A17.47,17.47,0,0,1,25.2,41.24l.16,0a112.31,112.31,0,0,1,27.2-.8s10.37.8,15.61,6.57l6.14,5.87a.75.75,0,0,0,.59.2c1-.12,3.75-.25,4.23,1.93a4.3,4.3,0,0,1-.24,1.9.37.37,0,0,0,.22.5c2,.66,10.53,3.55,13.1,6,.35.34.7.68,1.07,1a6.56,6.56,0,0,1,2.27,4.52,8.63,8.63,0,0,0,.68,2.65l.85,2,.2,4.12a8.05,8.05,0,0,1-.18,3.27,3,3,0,0,0-.17,1.34,3,3,0,0,1-.1,1.37A3.43,3.43,0,0,1,93.69,86s-14.1,2.29-31.59,3.25c0,0-7.24,0-9.25-.34a3.36,3.36,0,0,1-3.1-3s-1.46-8.12-2.47-10c0,0-2-5.25-6.88-6.38,0,0-6.84.56-4.27,16.19L15.48,80.06l-.73-4.66s-1.15-8-4.17-10a2.13,2.13,0,0,0-.77-.19A2.88,2.88,0,0,0,6.92,67,16.22,16.22,0,0,0,6.06,76.15Z" fill="#0096f9"/>
      <path d="M65.31,69.23c1.11,2.29-2.84,3.31-6.79,2.94s-7.21-2.33-7.21-4.87S55.05,65,59.1,65.18C63,65.37,64.22,67,65.31,69.23Z" fill="#f1f4f2"/>
      <path d="M95.23,70.06c-3.8.33-7.56-.66-6.49-2.86a6,6,0,0,1,3.19-3.39l.23.21c.29.28.58.56.89.82a5.47,5.47,0,0,1,1.89,3.78A7.82,7.82,0,0,0,95.23,70.06Z" fill="#f1f4f2"/>
      <path d="M37.25,44l-1.32.21a.3.3,0,0,0-.22.42L42,57.25a2.43,2.43,0,0,0,2.28,1.34l32.21-1.38a.15.15,0,0,0,.11-.25c-1.37-1.53-9.12-10-13.85-13.14a2.83,2.83,0,0,0-1.46-.46C57.82,43.23,43,42.8,37.25,44Z" fill="#3a3d47"/>
      <path d="M38.06,56.78,35,48.36a7.64,7.64,0,0,0-7.87-5l-3.95.36a9.15,9.15,0,0,0-7.08,4.55L12.22,55s0,0,0,0l23.2,4.64.07,0A2.22,2.22,0,0,0,38.06,56.78Z" fill="#3a3d47"/>
      <polygon points="25.06 43.57 21.85 56.99 23.04 57.23 26.56 43.43 25.06 43.57" fill="#31353b"/>
      <path d="M36.19,57.8C36,59.69,35.25,60,33.62,60,31.16,60,27,59.53,27,57.53s1.9-3.05,4.36-3.05S36.39,55.8,36.19,57.8Z" fill="#0082f7"/>
      <path d="M71,70.62l15.78-.73A1.07,1.07,0,0,1,87.89,71v.72a3.66,3.66,0,0,1-3.66,3.66h0a34.19,34.19,0,0,1-4.28.49L76,76l-3.59-.43-1.71-.52L70.39,75h0a4,4,0,0,1-1.27-1h0a1.27,1.27,0,0,1-.43-1h0A2.42,2.42,0,0,1,71,70.62Z" fill="#31353b"/>
      <path d="M87.89,71v.72a3.1,3.1,0,0,1,0,.43l-.46-.44L71.55,73a4.6,4.6,0,0,1-2.36,1.07.23.23,0,0,1-.07-.07,1.3,1.3,0,0,1-.32-.42,1.36,1.36,0,0,1-.11-.53A2.41,2.41,0,0,1,71,70.62l15.78-.73A1.07,1.07,0,0,1,87.89,71Z" fill="#3a424d"/>
    </g>
  </g>
</svg>
