<svg id="Layer_1" data-name="Layer 1" xmlns="http://www.w3.org/2000/svg" xmlns:xlink="http://www.w3.org/1999/xlink" viewBox="0 0 100 100"><defs><style>.cls-1{fill:url(#linear-gradient);}.cls-2{fill:#fdb450;}.cls-3{fill:#cb5731;}.cls-4{fill:#0096f9;}</style><linearGradient id="linear-gradient" x1="3.54" y1="55.25" x2="89.82" y2="55.25" gradientTransform="matrix(1, 0, 0, -1, 0, 102.39)" gradientUnits="userSpaceOnUse"><stop offset="0" stop-color="#c2ecff"/><stop offset="1" stop-color="#e6f9ff"/></linearGradient></defs><title>BiClean</title><path class="cls-1" d="M89.82,47.19a128.73,128.73,0,0,1-4.21,33.2h0c-.25.92-.51,1.82-.78,2.72h0v.14h0l-.1.16c-.06.1-.13.19-.19.28l-.07.09c-.14.18-.29.35-.45.52l-.44.41-.21.17a3.62,3.62,0,0,1-.32.22l-.32.2c-.91.27-1.82.53-2.75.78h0a129.17,129.17,0,0,1-33.2,4.21,129.19,129.19,0,0,1-33.21-4.21h0c-.92-.25-1.84-.51-2.75-.78a5.39,5.39,0,0,1-1.2-.92l-.17-.16-.14-.16a5.3,5.3,0,0,1-.46-.6c-.07-.11-.14-.22-.2-.33-.28-.91-.54-1.83-.79-2.77h0a128.73,128.73,0,0,1-4.21-33.2A128.81,128.81,0,0,1,7.75,14h0q.38-1.38.78-2.73h0l.1-.16L8.72,11a1.3,1.3,0,0,1,.1-.15h0L9,10.52H9l.18-.22a2.68,2.68,0,0,1,.28-.3l.16-.15.15-.15.36-.28.25-.18L10.7,9c.92-.27,1.84-.53,2.78-.78h0A128.25,128.25,0,0,1,46.68,4a128.25,128.25,0,0,1,33.2,4.22h0c.93.25,1.85.51,2.77.78l.32.2.31.22.37.31c.08.08.17.15.25.24l.26.28.24.29.22.32.11.17.09.17h0c.26.9.52,1.8.77,2.72h0A128.79,128.79,0,0,1,89.82,47.19Z"/><path class="cls-2" d="M75.2,89.55c.82-2.27,1.51-4.23,2.24-6.18,2.92-7.8,1.87-15.44-1-23a5.39,5.39,0,0,0-5-3.87,2,2,0,0,1-1.23-.89c-1.86-2.86-2.45-3.12-5.63-2.3-2.41-2.61-3.61-2.58-6.16.13a1.46,1.46,0,0,1-.76.43c-3.86.65-5.21,2.07-5.26,6,0,2.72.23,5.45.37,8.29-.6-.24-1.25-.57-1.93-.78a4.4,4.4,0,0,0-4.75,1.17,3.57,3.57,0,0,0-.52,4.44,18.81,18.81,0,0,1,2,7.68c.13,1.45,1.18,2.9,2,4.18,1,1.5,2.3,2.83,3.47,4.23l-.23.61c-3.19-.39-6.46-.44-9.54-1.23-5.52-1.43-7.64-5.71-6.16-11.66a51.23,51.23,0,0,1,1.54-5.13,15.63,15.63,0,0,0,.07-10.11,48.81,48.81,0,0,1-2.06-10.24c-.31-4.49,2.36-7.4,6.8-8A26.94,26.94,0,0,1,50,43.32a17.38,17.38,0,0,0,11.1-1.89,15.4,15.4,0,0,1,10.34-1.89c2.55.4,4.83,1.27,6.3,3.52a15.31,15.31,0,0,0,10,6.8C92,50.8,95,55.05,95.35,60a12.39,12.39,0,0,1-3,9.77c-3.19,3.5-4.54,7.76-5.38,12.27-.12.69-.26,1.38-.42,2.06-.83,3.46-2,4.62-5.54,5.07C79.19,89.43,77.34,89.43,75.2,89.55Z"/><path class="cls-3" d="M56.16,74.63a9.31,9.31,0,0,0,.39-2.3c-.23-2.54-.61-5.06-.88-7.6a17.91,17.91,0,0,1-.26-4.18,13.41,13.41,0,0,1,1.37-3.31l3,1.55c.51-1.09-.56-3.66,1.9-3.72,1,0,2.05,1.62,3,2.39.5-.26,1.45-1.18,2.19-1,2.28.43,2,2.73,2.7,4.37,1.83-1.39,2.86-1.14,4,1.2a25.4,25.4,0,0,1,2.3,13.61c-.21,2.87-1.33,5.67-1.93,8.52-.65,3-1.28,6.07-1.71,9.14a2.37,2.37,0,0,1-1.75,2.34,15.89,15.89,0,0,1-11.93-.33c-.48-.22-1.11-.84-1.1-1.26.13-4.25-2.05-7.43-4.68-10.38a8.77,8.77,0,0,1-2-4.61,31.68,31.68,0,0,0-2.09-6.49c-.65-1.62-.37-2.46,1.34-2.19a7.9,7.9,0,0,1,3.37,1.82,15.52,15.52,0,0,1,2.17,2.58Z"/><path class="cls-4" d="M25.52,72.59c-1.13-5.31-4.06-8.72-9.47-10,5.46-1.37,8.42-4.79,9.44-10.28,1.21,5.22,3.88,8.94,9.51,10.15C29.64,63.86,26.57,67.19,25.52,72.59Z"/><path class="cls-4" d="M42.71,24.11C43.67,28.23,46,31,50.13,32a9.56,9.56,0,0,0-7.38,7.84c-1-4.11-3.2-6.75-7.37-7.83A9.52,9.52,0,0,0,42.71,24.11Z"/></svg>