<svg id="Layer_1" data-name="Layer 1" xmlns="http://www.w3.org/2000/svg" xmlns:xlink="http://www.w3.org/1999/xlink" viewBox="0 0 100 100">
  <defs>
    <linearGradient id="linear-gradient" x1="3.58" y1="46.99" x2="89.86" y2="46.99" gradientUnits="userSpaceOnUse">
      <stop offset="0" stop-color="#c2ecff"/>
      <stop offset="1" stop-color="#e6f9ff"/>
    </linearGradient>
  </defs>
  <title>Untitled-2</title>
  <g>
    <path d="M89.86,47a129.14,129.14,0,0,1-4.2,33.2s0,0,0,0c-.25.92-.5,1.82-.77,2.72h0l0,.07,0,.06s0,0,0,0l-.1.17-.19.27-.07.09a5.59,5.59,0,0,1-.45.52,3.44,3.44,0,0,1-.44.41l-.21.17-.31.22a3.62,3.62,0,0,1-.33.2c-.91.27-1.82.53-2.75.78h0a128.71,128.71,0,0,1-33.21,4.21,128.69,128.69,0,0,1-33.2-4.21h0c-.92-.25-1.84-.51-2.75-.78a5.93,5.93,0,0,1-1.2-.91l-.16-.17-.15-.16a6.8,6.8,0,0,1-.46-.6c-.07-.1-.14-.22-.2-.32-.27-.92-.53-1.84-.78-2.78h0A128.25,128.25,0,0,1,3.58,47,128.25,128.25,0,0,1,7.8,13.79h0c.24-.92.5-1.83.77-2.73h0l.1-.17.09-.15.1-.14,0-.05a1.56,1.56,0,0,1,.16-.2v0l.18-.22a3.58,3.58,0,0,1,.26-.28l.16-.16a1.07,1.07,0,0,1,.16-.14,3.07,3.07,0,0,1,.35-.28,1.44,1.44,0,0,1,.25-.18,3.53,3.53,0,0,1,.32-.21c.92-.27,1.84-.53,2.78-.78h0A128.61,128.61,0,0,1,46.72,3.85,128.77,128.77,0,0,1,79.93,8.06h0c.93.25,1.86.51,2.77.78a3.53,3.53,0,0,1,.32.21,2.18,2.18,0,0,1,.31.22,2.17,2.17,0,0,1,.37.31,2.73,2.73,0,0,1,.25.23l.26.28a3.36,3.36,0,0,1,.24.29l.22.32c0,.05.07.11.11.17l.1.18h0c.27.9.53,1.8.77,2.72h0A129.22,129.22,0,0,1,89.86,47Z" fill="url(#linear-gradient)"/>
    <g>
      <path d="M30.23,19.64a.51.51,0,0,1,.17-.07Z" fill="#0096f9"/>
      <ellipse cx="29.01" cy="78.35" rx="10.85" ry="13.26" fill="#3a424d"/>
      <ellipse cx="28.43" cy="77.21" rx="5.78" ry="8.7" fill="#fefefe"/>
      <path d="M34.33,72.75a.56.56,0,0,1,0-.12S34.32,72.71,34.33,72.75Z" fill="#2d3541"/>
      <path d="M72,81a17.66,17.66,0,0,0,.56,4.42A21.68,21.68,0,0,1,63,86.8l-23.3-2.08a2.52,2.52,0,0,1-1.6-.8,5.16,5.16,0,0,0-2.86-1.43,6.89,6.89,0,0,0-2.48,0c-.2,0-.45.06-.73.08a7.52,7.52,0,0,1-4.21-1l-9.28-5.43a2.52,2.52,0,0,1-1.12-1.29,3.74,3.74,0,0,1,.26-2.71,2.83,2.83,0,0,1,3-2,3.8,3.8,0,0,1,1.1.29l7.21,3a5.06,5.06,0,0,1,.69-1.59,1.78,1.78,0,0,1,1-.7c1.34.86,2.65,1.64,4,2.36a11.24,11.24,0,0,0,6.66,6.32s14.44,5.42,21.37,3.32c0,0,4.73-1.89,7.15-9.82.05-.18.11-.36.16-.55a3.8,3.8,0,0,0,1.33,2.06c.44.26.78-.65.78-.65a7.46,7.46,0,0,1,3.83-3.83A16.31,16.31,0,0,0,72,81Z" fill="#2d3541"/>
      <ellipse cx="84.26" cy="80.98" rx="12.24" ry="14.78" fill="#3a424d"/>
      <ellipse cx="83.13" cy="80.91" rx="6.96" ry="9.22" fill="#fefefe"/>
      <ellipse cx="82.63" cy="81" rx="3.6" ry="4.4" fill="#3a424d"/>
      <path d="M59.12,73.56h-.21a60.9,60.9,0,0,1-18.54-2.38A15,15,0,0,0,35.24,55,34.91,34.91,0,0,0,41.68,57s10.46,2.77,15.71.73Z" fill="#0161ad"/>
      <path d="M82.53,80c-.31,2.74-2.45,2.76-2.45,2.76l-1-3L76,70.17a13.25,13.25,0,0,1,2.87-.89h0Z" fill="#2d3541"/>
      <path d="M95,69a3.55,3.55,0,0,1-1.25.47,9.41,9.41,0,0,1-2.37.26,35.86,35.86,0,0,1-6.37-.5c-2.24-.54-10.64-.71-13,4.88,0,0-.34.91-.78.65a3.8,3.8,0,0,1-1.33-2.06l.15-.55h0a22.09,22.09,0,0,1,1.33-2.88,24.59,24.59,0,0,1,1.69-2.68c2.83-3.86,7.74-7.87,15.12-5.15h0s.32.13.76.36h0c1.35.73,3.79,2.73,6.07,6.61C95,68.38,95.32,68.8,95,69Z" fill="#0096f9"/>
      <path d="M59.12,73.56h-.21a59.87,59.87,0,0,1-22.85-3.86l-16.7-8.07a.56.56,0,0,1-.31-.42c-.14-1-.26-4.64,3.8-7.35a10.81,10.81,0,0,1,6.63-1.55s7.31,3.81,12.2,4.71c0,0,10.46,2.77,15.71.73Z" fill="#0096f9"/>
      <path d="M19.14,62.1h0l.08.75a1.16,1.16,0,0,1-.15.68l-4,6.69c-.93,1.73.43,1.48.43,1.48l.73-.24A7.64,7.64,0,0,0,19,69.88l4.47-4.06Z" fill="#2d3541"/>
      <path d="M62.58,73.81c-.06.18-.11.36-.17.54a7.24,7.24,0,0,1-8.48,4.74c-5.11-1.16-15.41-3.76-19.72-6.8a6.56,6.56,0,0,0,.35,1.12A78.44,78.44,0,0,1,18.89,61.87a.21.21,0,0,1,.21-.36h0s17,8.2,17,8.2a59.87,59.87,0,0,0,22.85,3.86h.21Z" fill="#3a424d"/>
      <path d="M78.76,38.12a10.7,10.7,0,0,0-6.36-.63l-1.42.3a10.54,10.54,0,0,0-4.34,2h0l-.08.07-.18,0a12.65,12.65,0,0,1-2.18-5.57,3.85,3.85,0,0,1,.46-2.55C69.22,25,75.78,29,75.78,29,80.18,31.37,79,37.12,78.76,38.12Z" fill="#0096f9"/>
      <path d="M57.39,57.76c-5.25,2-15.71-.73-15.71-.73-4.89-.9-12.2-4.71-12.2-4.71a9.9,9.9,0,0,0-5.43.92c-1-.69-2.41-2.05-2.07-3.89a1.48,1.48,0,0,1,.94-1,4.27,4.27,0,0,0,1.93-1.53s.69-1.46,4.09-1.46c.42,0,.89,0,1.41.07,0,0,14,6.29,24.39,5.59C54.74,51,59.31,51.34,57.39,57.76Z" fill="#2d3541"/>
      <path d="M88.21,60.71c0,.1,0,.19,0,.28s0,.28,0,.42c-7.38-2.72-12.29,1.29-15.12,5.15a24.59,24.59,0,0,0-1.69,2.68,22.09,22.09,0,0,0-1.33,2.88h0c-.1.38-.2.74-.31,1.1-2.42,7.93-7.15,9.82-7.15,9.82-6.93,2.1-21.37-3.32-21.37-3.32a10.9,10.9,0,0,1-7-7.44c4.31,3,14.61,5.64,19.72,6.8a7.24,7.24,0,0,0,8.48-4.75c2.08-6.28,1-16.18.43-19.31A28.41,28.41,0,0,1,62.53,47V46.9A10.7,10.7,0,0,1,71,37.79l1.42-.3a10.71,10.71,0,0,1,11.17,4.68A28,28,0,0,1,87.78,54c.13.88.23,1.78.31,2.7A39,39,0,0,1,88.21,60.71Z" fill="#0096f9"/>
      <ellipse cx="78.58" cy="45.63" rx="4.03" ry="5.24" transform="translate(-11.58 34.34) rotate(-23)" fill="#fefefe"/>
      <path d="M88.22,60.09c0,.31,0,.61,0,.9s0,.28,0,.42c-7.38-2.72-12.29,1.29-15.12,5.15a24.59,24.59,0,0,0-1.69,2.68,22.09,22.09,0,0,0-1.33,2.88h0l-.15.55h0l-.06.19a1.82,1.82,0,0,1-.07.25l0,.11c-2.42,7.93-7.15,9.82-7.15,9.82a12.17,12.17,0,0,1-3,.46c3.45-1.47,6.83-4.44,8.16-10.28C67.78,73.23,71.42,53.66,88.22,60.09Z" fill="#0082f7"/>
      <path d="M69.77,73.12l0,.11h0Z" fill="#0161ad"/>
      <path d="M59.12,73.56h-.21a60.9,60.9,0,0,1-18.54-2.38A15,15,0,0,0,35.24,55,34.91,34.91,0,0,0,41.68,57s10.46,2.77,15.71.73Z" fill="#0082f7"/>
      <path d="M19.14,62.1c1.44,1.33,2.86,2.57,4.28,3.72Z" fill="#2d3541"/>
      <g>
        <path d="M48.55,35l.47,14c0,.4-.34.66-.81.62L38.17,52h0a1.13,1.13,0,0,1-.45,0L27.33,49.91l-6.94-1.37-.1,0a1.18,1.18,0,0,1-.91-1l-.48-14a.6.6,0,0,1,.54-.61h0l10.22-2.41h0l.16,0L47.53,34A1.22,1.22,0,0,1,48.55,35Z" fill="#fdb450"/>
        <path d="M48.9,45.46,49,48.91c0,.4-.34.66-.81.62L38.17,52h0a1.13,1.13,0,0,1-.45,0L27.33,49.91l-6.94-1.37-.1,0a1.18,1.18,0,0,1-.91-1l-.12-3.5,18.67,3.24Z" fill="#f49731"/>
      </g>
      <path d="M66.61,39.79a10.91,10.91,0,0,0-2.3,2.45l-1.16-4.06L58,39.53l-6,2.15a2,2,0,0,1-1.13.72,2,2,0,0,1-2.47-2.08A2,2,0,0,1,50,38.48h.08l6.76-2.19a1.4,1.4,0,0,0,1-1.34V34.1a1.54,1.54,0,0,0-1.12-1.47l-4.33-1.21a.83.83,0,0,0-.9.32,3.69,3.69,0,0,1-3.12,1.57,3.44,3.44,0,0,1-3.68-3.13c0-1.73,2.17-3.13,4.2-3.13,2.71,0,3.33,1.41,3.16,3.13h0a.68.68,0,0,0,.48.72l4.89,1.4a1.55,1.55,0,0,1,1.07,1.08l.39,1.36a.82.82,0,0,0,1,.57l4.27-1.06a12.65,12.65,0,0,0,2.18,5.57l.18,0Z" fill="#3a424d"/>
      <path d="M78.76,38.12a10.7,10.7,0,0,0-6.36-.63l-1.42.3a10.54,10.54,0,0,0-4.34,2h0l-.08.07-.18,0a20.35,20.35,0,0,1-1.12-2,13.3,13.3,0,0,1,13.85-2.73A12.88,12.88,0,0,1,78.76,38.12Z" fill="#0161ad"/>
      <path d="M78.76,38.12a10.7,10.7,0,0,0-6.36-.63l-1.42.3a10.54,10.54,0,0,0-4.34,2h0l-.08.07-.18,0a20.35,20.35,0,0,1-1.12-2,13.3,13.3,0,0,1,13.85-2.73A12.88,12.88,0,0,1,78.76,38.12Z" fill="#0082f7"/>
      <path d="M88.12,27.91c-1.07,1.85-3,2.73-4.37,2l-.15-.09a.35.35,0,0,0-.45,0L80.87,32.2a2,2,0,0,0-.55,1.28h0a1.34,1.34,0,0,0,1,1.37L85.56,36a.69.69,0,0,1,.53.9c-.07.35,0,1.26-.85,1.25l-5.8-1.67-.68,1.61L79,36.39a11.2,11.2,0,0,0,0-2.17h0a.4.4,0,0,0,.49-.3l.16-.71a3.48,3.48,0,0,1,.95-1.69l1.93-1.87a.83.83,0,0,0,.19-.93,4.13,4.13,0,0,1,.3-3.68c1.08-1.85,2.66-2.66,4-1.88A3.51,3.51,0,0,1,88.12,27.91Z" fill="#3a424d"/>
      <path d="M69.9,72.68c0-.09,0-.18.07-.27,0,.09,0,.18-.07.27Z" fill="#0185cf"/>
      <g>
        <path d="M28.67,44.07a.92.92,0,0,1-1.19,1,1.69,1.69,0,0,1-1.2-1.56.93.93,0,0,1,1.2-1A1.68,1.68,0,0,1,28.67,44.07Z" fill="#fff"/>
        <path d="M27.48,40a3,3,0,0,0-2.24.24V38.92a1,1,0,0,0-.21-.59.93.93,0,0,0-.51-.35.56.56,0,0,0-.71.59V43h0a5.16,5.16,0,0,0,3.74,4.74,2.84,2.84,0,0,0,3.6-3A5.16,5.16,0,0,0,27.48,40Zm0,6.23a3.14,3.14,0,0,1-2.24-2.92,1.73,1.73,0,0,1,2.24-1.8,3.15,3.15,0,0,1,2.24,2.92,1.73,1.73,0,0,1-2.23,1.81Z" fill="#fff"/>
      </g>
    </g>
  </g>
</svg>
