<svg id="Layer_1" data-name="Layer 1" xmlns="http://www.w3.org/2000/svg" xmlns:xlink="http://www.w3.org/1999/xlink" viewBox="0 0 100 100">
  <defs>
    <linearGradient id="linear-gradient" x1="3.58" y1="46.99" x2="89.86" y2="46.99" gradientUnits="userSpaceOnUse">
      <stop offset="0" stop-color="#c2ecff"/>
      <stop offset="1" stop-color="#e6f9ff"/>
    </linearGradient>
  </defs>
  <title>Untitled-2</title>
  <g>
    <path d="M89.86,47a129.14,129.14,0,0,1-4.2,33.2s0,0,0,0c-.25.92-.5,1.82-.77,2.72h0l0,.07,0,.06s0,0,0,0l-.1.17-.19.27-.07.09a5.59,5.59,0,0,1-.45.52,3.44,3.44,0,0,1-.44.41l-.21.17-.31.22a3.62,3.62,0,0,1-.33.2c-.91.27-1.82.53-2.75.78h0a128.71,128.71,0,0,1-33.21,4.21,128.69,128.69,0,0,1-33.2-4.21h0c-.92-.25-1.84-.51-2.75-.78a5.93,5.93,0,0,1-1.2-.91l-.16-.17-.15-.16a6.8,6.8,0,0,1-.46-.6c-.07-.1-.14-.22-.2-.32-.27-.92-.53-1.84-.78-2.78h0A128.25,128.25,0,0,1,3.58,47,128.25,128.25,0,0,1,7.8,13.79h0c.24-.92.5-1.83.77-2.73h0l.1-.17.09-.15.1-.14,0-.05a1.56,1.56,0,0,1,.16-.2v0l.18-.22a3.58,3.58,0,0,1,.26-.28l.16-.16a1.07,1.07,0,0,1,.16-.14,3.07,3.07,0,0,1,.35-.28,1.44,1.44,0,0,1,.25-.18,3.53,3.53,0,0,1,.32-.21c.92-.27,1.84-.53,2.78-.78h0A128.61,128.61,0,0,1,46.72,3.85,128.77,128.77,0,0,1,79.93,8.06h0c.93.25,1.86.51,2.77.78a3.53,3.53,0,0,1,.32.21,2.18,2.18,0,0,1,.31.22,2.17,2.17,0,0,1,.37.31,2.73,2.73,0,0,1,.25.23l.26.28a3.36,3.36,0,0,1,.24.29l.22.32c0,.05.07.11.11.17l.1.18h0c.27.9.53,1.8.77,2.72h0A129.22,129.22,0,0,1,89.86,47Z" fill="url(#linear-gradient)"/>
    <g>
      <path d="M18.45,79.24A15.34,15.34,0,0,1,24.9,66.43c.11-.08.25-.14.31-.28a13,13,0,0,0,1.62-.92c.78-.39,1.56-.8,2.34-1.21a4.83,4.83,0,0,0,1-.4c.76-.23,1.51-.5,2.26-.76a.7.7,0,0,0,.42-.37,10.87,10.87,0,0,1,3.93-4.23,13.35,13.35,0,0,1,7.39-2.42,15.21,15.21,0,0,0,4.24,3.37,4.91,4.91,0,0,1-.66-.06,14,14,0,0,0-1.69-.33,12.79,12.79,0,0,0-5.3.86,7.08,7.08,0,0,0-2.37,1.44c-.28.26-.77.58-.69.9s.68.22,1,.25a30,30,0,0,1,4.9.79,19.33,19.33,0,0,1,5.25,2.06,5.57,5.57,0,0,0,2.6,1.2,11.82,11.82,0,0,1,4.17,1.36,8.76,8.76,0,0,1,3.2,2.11c.1.12.29.28.45.15s0-.29-.07-.43a40.45,40.45,0,0,0-2.88-4.87A12.14,12.14,0,0,0,52,60.75c-.31-.17-.69-.24-.91-.57a13.91,13.91,0,0,0,4.41.29L57,60.28a20.85,20.85,0,0,1,2.37,3,18.41,18.41,0,0,0,1.33,2.16c.41.51.88,1,1.25,1.51s.33.55.71.12c1.18-1.33,2.34-2.67,3.52-4,.29-.33.14-.56-.11-.8a7.61,7.61,0,0,0-4-2.27,4.92,4.92,0,0,1-.77-.24c-.53-.19-1.13-.07-1.62-.37a15.11,15.11,0,0,0,3-2,13.46,13.46,0,0,0,4.06-6.32A15.43,15.43,0,0,1,73,53.94c.58.44.56.46,1-.09q3.27-3.93,6.55-7.87c.21-.25.35-.28.61-.09A17.65,17.65,0,0,1,88.52,56.2a15.37,15.37,0,0,1,.41,5.89,15.85,15.85,0,0,1-1.51,5.11.54.54,0,0,0,.1.71,16.61,16.61,0,0,1,3.29,5.59,15.48,15.48,0,0,1,.86,4.16c0,.52.06,1,.13,1.57a14.14,14.14,0,0,1-2,.19c-1.88.16-3.77.3-5.65.43-2.24.16-4.48.32-6.72.44-1.83.1-3.65.16-5.48.22-4.3.14-8.59.31-12.89.27H58.05c-.77,0-1.54,0-2.3,0a.4.4,0,0,1-.47-.29A6.52,6.52,0,0,0,53,77.4a4.65,4.65,0,0,0-3.54-1,5.36,5.36,0,0,0-4.49,4.28l-.59,0a.61.61,0,0,0-.4,0c-1.33,0-2.67,0-4-.13.31-.17.65-.06,1-.08a.35.35,0,0,0,.38-.27,11.28,11.28,0,0,1,4.85-6,6.57,6.57,0,0,1,4.14-1,10.62,10.62,0,0,1,4.51,1.62c.16.1.35.23.53.13a7.86,7.86,0,0,0,2-1.34c.17-.17.18-.28,0-.47a10.66,10.66,0,0,0-6.7-3.4,10.21,10.21,0,0,0-6.15,1.32,15.79,15.79,0,0,0-5.31,4.54,10.65,10.65,0,0,0-2.08,4.78c-1.31,0-2.62-.1-3.93-.18.07,0,.14-.09.21-.08.38,0,.51-.12.61-.48a26.94,26.94,0,0,1,1.5-3.89,15.83,15.83,0,0,1,2.55-4,.7.7,0,0,0-.47-.17,11.73,11.73,0,0,0-1.57,0,8.35,8.35,0,0,0-3,.8,12,12,0,0,0-3.88,3.14,7.59,7.59,0,0,0-1.81,4.44l-3.07-.2a7.73,7.73,0,0,0,.29-1.35,11.59,11.59,0,0,1,2.79-5.7,11.09,11.09,0,0,1,4-2.73A15.8,15.8,0,0,1,37,68.65a12.19,12.19,0,0,1,3.43.61.67.67,0,0,0,.61-.11,29.74,29.74,0,0,1,3.46-1.88,2.13,2.13,0,0,0,.69-.38,23.87,23.87,0,0,0-6.42-1.39,14.4,14.4,0,0,0-4.44.2A18.18,18.18,0,0,0,29,67.46,17.29,17.29,0,0,0,23.68,72a12.56,12.56,0,0,0-2.42,7.48,14.32,14.32,0,0,1-1.48-.1A5,5,0,0,1,18.45,79.24ZM74.89,69a2.05,2.05,0,0,0-.09-.76,25.06,25.06,0,0,0-2-4,1,1,0,0,0-1.75.06,17.64,17.64,0,0,0-1.68,4.07,1.37,1.37,0,0,0,1,1.89,7.39,7.39,0,0,0,3.59.1C74.7,70.19,74.9,69.87,74.89,69Zm3.73-8.15c-.35,0-.73,0-1.11,0a.92.92,0,0,0-.66,1.55,21.24,21.24,0,0,0,2.89,3.38A1.42,1.42,0,0,0,82,65.76a4.07,4.07,0,0,0,1.18-2.56c.17-1.4-.32-2-1.73-2.15A23.35,23.35,0,0,0,78.62,60.85Zm-.26-3.17a19.51,19.51,0,0,0,2.44-.1,1.44,1.44,0,0,0,1.32-1.45,3.15,3.15,0,0,0-.72-2.22,1.92,1.92,0,0,0-3-.43,14.62,14.62,0,0,0-2.77,3.1c-.36.52-.16.87.48,1A15.66,15.66,0,0,0,78.36,57.68Z" fill="#f49731"/>
      <path d="M44.35,80.63l.59,0h.69l1.53,0a4.67,4.67,0,0,0,1.24,0h.21c2,0,4.09.09,6.14.12,1.1,0,2.2,0,3.3-.06h.17a2.6,2.6,0,0,0,.88,0c4.3,0,8.59-.13,12.89-.27,1.83-.06,3.65-.12,5.48-.22,2.24-.12,4.48-.28,6.72-.44,1.88-.13,3.77-.27,5.65-.43a14.14,14.14,0,0,0,2-.19,7.58,7.58,0,0,0,1.72-.12,1.92,1.92,0,0,1,2.06.79,2.21,2.21,0,0,1-.2,2.39,9,9,0,0,1-2.26,1.92,26.46,26.46,0,0,1-6.72,3.37.79.79,0,0,0-.53.49,10.18,10.18,0,0,1-5.63,5.42,15.42,15.42,0,0,1-6.35,1.26c-12.6,0-25.2,0-37.79,0A14.14,14.14,0,0,1,27,91.64a9.33,9.33,0,0,1-2.68-3.59.67.67,0,0,0-.46-.42,25.2,25.2,0,0,1-7.1-3.57,7.77,7.77,0,0,1-1.95-1.76,2.35,2.35,0,0,1-.37-1.88,1.72,1.72,0,0,1,1.95-1.34c.68,0,1.36.17,2.05.16a5,5,0,0,0,1.33.16,14.32,14.32,0,0,0,1.48.1l3,.19,3.07.2,1.1.07,4.79.23c1.31.08,2.62.19,3.93.18.94,0,1.87.15,2.81.11,1.33.08,2.67.13,4,.13A.61.61,0,0,0,44.35,80.63Z" fill="#0096f9"/>
      <path d="M66.72,51.11a13.46,13.46,0,0,1-4.06,6.32,15.11,15.11,0,0,1-3,2,18.42,18.42,0,0,1-2.69.89l-1.47.19a13.91,13.91,0,0,1-4.41-.29,21.44,21.44,0,0,1-2.68-1,15.21,15.21,0,0,1-4.24-3.37,16.52,16.52,0,0,1-2-3.19A12.9,12.9,0,0,1,43.8,39.78a12.48,12.48,0,0,1,9.08-5.14A12.86,12.86,0,0,1,67,45,11.21,11.21,0,0,1,67,49.47C66.93,50,66.83,50.56,66.72,51.11Z" fill="#cb5731"/>
      <path d="M29.17,64c-.78.41-1.56.82-2.34,1.21a13,13,0,0,1-1.62.92c.07-1.28.14-2.56.22-3.83.11-1.84.24-3.68.35-5.52.14-2.49.3-5,.45-7.47a38.2,38.2,0,0,0,.22-4.41A3.76,3.76,0,0,0,24.6,42a9.06,9.06,0,0,1-3.39-4.26,8.7,8.7,0,0,1-.41-3.4c.09-3.35.32-6.69.38-10a7.31,7.31,0,0,1,.32-2.74,1.37,1.37,0,0,1,.9-.91,1.47,1.47,0,0,1,1.85.77,2.2,2.2,0,0,1,.19,1c0,3.9,0,7.8,0,11.7a1.59,1.59,0,0,0,.81,1.56,1.67,1.67,0,0,0,1.81-.15,1.27,1.27,0,0,0,.46-1,4.24,4.24,0,0,0,0-.62V22.22a1.57,1.57,0,0,1,1.65-1.64,1.62,1.62,0,0,1,1.5,1.58,3.85,3.85,0,0,1,0,.48V34.29a1.44,1.44,0,0,0,1,1.45,1.52,1.52,0,0,0,1.62-.29,1.65,1.65,0,0,0,.52-1.34c0-3.78,0-7.57,0-11.35a6.11,6.11,0,0,1,.06-.86,1.51,1.51,0,0,1,1.6-1.35,1.53,1.53,0,0,1,1.42,1.51c.15,1.55.09,3.11.2,4.66.19,2.62.21,5.24.38,7.86a8,8,0,0,1-3.72,7.35,4.24,4.24,0,0,0-1.92,2.53,8.44,8.44,0,0,0,0,2.3c.09,1.78.22,3.55.28,5.32s.24,3.53.37,5.29c-.26.32-.55.62-.8,1A12.06,12.06,0,0,0,29.17,64Z" fill="#464a52"/>
      <path d="M29.17,64a12.06,12.06,0,0,1,2.47-5.7c.25-.33.54-.63.8-1A15.34,15.34,0,0,1,38.1,53.6a15.89,15.89,0,0,1,4.13-1,16.52,16.52,0,0,0,2,3.19,13.35,13.35,0,0,0-7.39,2.42,10.87,10.87,0,0,0-3.93,4.23.7.7,0,0,1-.42.37c-.75.26-1.5.53-2.26.76A4.83,4.83,0,0,1,29.17,64Z" fill="#fdb450"/>
      <path d="M24.25,79.69l-3-.19A12.56,12.56,0,0,1,23.68,72,17.29,17.29,0,0,1,29,67.46a18.18,18.18,0,0,1,5.35-1.76,14.4,14.4,0,0,1,4.44-.2,23.87,23.87,0,0,1,6.42,1.39,2.13,2.13,0,0,1-.69.38,29.74,29.74,0,0,0-3.46,1.88.67.67,0,0,1-.61.11A12.19,12.19,0,0,0,37,68.65a15.8,15.8,0,0,0-5.67,1.26,11.09,11.09,0,0,0-4,2.73,11.59,11.59,0,0,0-2.79,5.7A7.73,7.73,0,0,1,24.25,79.69Z" fill="#fdb450"/>
      <path d="M48.42,59.21a21.44,21.44,0,0,0,2.68,1c.22.33.6.4.91.57a12.14,12.14,0,0,1,4.35,3.89,40.45,40.45,0,0,1,2.88,4.87c.06.14.24.3.07.43s-.35,0-.45-.15a8.76,8.76,0,0,0-3.2-2.11,11.82,11.82,0,0,0-4.17-1.36,5.57,5.57,0,0,1-2.6-1.2,19.33,19.33,0,0,0-5.25-2.06,30,30,0,0,0-4.9-.79c-.35,0-.93.12-1-.25s.41-.64.69-.9a7.08,7.08,0,0,1,2.37-1.44,12.79,12.79,0,0,1,5.3-.86,14,14,0,0,1,1.69.33A4.91,4.91,0,0,0,48.42,59.21Z" fill="#fdb450"/>
      <path d="M40,80.48c-.94,0-1.87-.1-2.81-.11a10.65,10.65,0,0,1,2.08-4.78,15.79,15.79,0,0,1,5.31-4.54,10.21,10.21,0,0,1,6.15-1.32,10.66,10.66,0,0,1,6.7,3.4c.17.19.16.3,0,.47a7.86,7.86,0,0,1-2,1.34c-.18.1-.37,0-.53-.13a10.62,10.62,0,0,0-4.51-1.62,6.57,6.57,0,0,0-4.14,1,11.28,11.28,0,0,0-4.85,6,.35.35,0,0,1-.38.27C40.6,80.42,40.26,80.31,40,80.48Z" fill="#fdb450"/>
      <path d="M33.21,80.19,28.42,80l-1.1-.07a7.59,7.59,0,0,1,1.81-4.44A12,12,0,0,1,33,72.31a8.35,8.35,0,0,1,3-.8,11.73,11.73,0,0,1,1.57,0,.7.7,0,0,1,.47.17,15.83,15.83,0,0,0-2.55,4A26.94,26.94,0,0,0,34,79.63c-.1.36-.23.53-.61.48C33.35,80.1,33.28,80.16,33.21,80.19Z" fill="#fdb450"/>
      <path d="M57,60.28a18.42,18.42,0,0,0,2.69-.89c.49.3,1.09.18,1.62.37a4.92,4.92,0,0,0,.77.24,7.61,7.61,0,0,1,4,2.27c.25.24.4.47.11.8-1.18,1.33-2.34,2.67-3.52,4-.38.43-.36.38-.71-.12s-.84-1-1.25-1.51a18.41,18.41,0,0,1-1.33-2.16A20.85,20.85,0,0,0,57,60.28Z" fill="#fdb450"/>
      <path d="M58.05,80.79c-1.1.08-2.2.07-3.3.06-2,0-4.09-.08-6.14-.12.15-.11.12-.15-.06-.15-.49,0-1,0-1.47,0a5,5,0,0,0-1.45.07h-.69a5.36,5.36,0,0,1,4.49-4.28,4.65,4.65,0,0,1,3.54,1,6.52,6.52,0,0,1,2.31,3.09.4.4,0,0,0,.47.29C56.51,80.77,57.28,80.79,58.05,80.79Z" fill="#fdb450"/>
      <path d="M74.89,69c0,.87-.19,1.19-1,1.39a7.39,7.39,0,0,1-3.59-.1,1.37,1.37,0,0,1-1-1.89A17.64,17.64,0,0,1,71,64.33a1,1,0,0,1,1.75-.06,25.06,25.06,0,0,1,2,4A2.05,2.05,0,0,1,74.89,69Z" fill="#cb5731"/>
      <path d="M78.62,60.85a23.35,23.35,0,0,1,2.8.2c1.41.18,1.9.75,1.73,2.15A4.07,4.07,0,0,1,82,65.76a1.42,1.42,0,0,1-2.23.07,21.24,21.24,0,0,1-2.89-3.38.92.92,0,0,1,.66-1.55C77.89,60.87,78.27,60.89,78.62,60.85Z" fill="#cb5731"/>
      <path d="M78.36,57.68a15.66,15.66,0,0,1-2.25-.1c-.64-.13-.84-.48-.48-1a14.62,14.62,0,0,1,2.77-3.1,1.92,1.92,0,0,1,3,.43,3.15,3.15,0,0,1,.72,2.22,1.44,1.44,0,0,1-1.32,1.45A19.51,19.51,0,0,1,78.36,57.68Z" fill="#cb5731"/>
      <path d="M59.1,80.78a2.6,2.6,0,0,1-.88,0Z" fill="#fdb450"/>
      <path d="M44.35,80.63a.61.61,0,0,1-.4,0A.61.61,0,0,1,44.35,80.63Z" fill="#fdb450"/>
      <path d="M45.63,80.66a5,5,0,0,1,1.45-.07c.49,0,1,0,1.47,0,.18,0,.21,0,.06.15H48.4a5.16,5.16,0,0,0-1.24,0Z" fill="#f49731"/>
      <path d="M47.16,80.68a5.16,5.16,0,0,1,1.24,0A4.67,4.67,0,0,1,47.16,80.68Z" fill="#fdb450"/>
    </g>
  </g>
</svg>
