<svg id="Layer_1" data-name="Layer 1" xmlns="http://www.w3.org/2000/svg" xmlns:xlink="http://www.w3.org/1999/xlink" viewBox="0 0 100 100"><defs><style>.cls-1{fill:url(#linear-gradient);}.cls-2{fill:#fec422;}.cls-3{fill:#0096f9;}.cls-4{fill:#cb5731;}.cls-5{fill:#fdb450;}.cls-6{fill:#f49731;}</style><linearGradient id="linear-gradient" x1="3.54" y1="55.25" x2="89.82" y2="55.25" gradientTransform="matrix(1, 0, 0, -1, 0, 102.39)" gradientUnits="userSpaceOnUse"><stop offset="0" stop-color="#c2ecff"/><stop offset="1" stop-color="#e6f9ff"/></linearGradient></defs><title>BiLaundry</title><path class="cls-1" d="M89.82,47.19a128.73,128.73,0,0,1-4.21,33.2h0c-.25.92-.51,1.82-.78,2.72h0v.14h0l-.1.16c-.06.1-.13.19-.19.28l-.07.09c-.14.18-.29.35-.45.52l-.44.41-.21.17a3.62,3.62,0,0,1-.32.22l-.32.2c-.91.27-1.82.53-2.75.78h0a129.17,129.17,0,0,1-33.2,4.21,129.19,129.19,0,0,1-33.21-4.21h0c-.92-.25-1.84-.51-2.75-.78a5.39,5.39,0,0,1-1.2-.92l-.17-.16-.14-.16a5.3,5.3,0,0,1-.46-.6c-.07-.11-.14-.22-.2-.33-.28-.91-.54-1.83-.79-2.77h0a128.73,128.73,0,0,1-4.21-33.2A128.81,128.81,0,0,1,7.75,14h0q.38-1.38.78-2.73h0l.1-.16L8.72,11a1.3,1.3,0,0,1,.1-.15h0L9,10.52H9l.18-.22a2.68,2.68,0,0,1,.28-.3l.16-.15.15-.15.36-.28.25-.18L10.7,9c.92-.27,1.84-.53,2.78-.78h0A128.25,128.25,0,0,1,46.68,4a128.25,128.25,0,0,1,33.2,4.22h0c.93.25,1.85.51,2.77.78l.32.2.31.22.37.31c.08.08.17.15.25.24l.26.28.24.29.22.32.11.17.09.17h0c.26.9.52,1.8.77,2.72h0A128.79,128.79,0,0,1,89.82,47.19Z"/><path class="cls-2" d="M73.32,38.86v.72c0,6.86,0,13.73,0,20.59,0,.45-.11.64-.59.73a5.33,5.33,0,0,0-3,2,.92.92,0,0,1-.59.35,3.67,3.67,0,0,0-3.26,2A5.71,5.71,0,0,0,65,69.09c0,.09,0,.18,0,.32h-.59a1.48,1.48,0,0,0-1.58,1.91c.54,3,1.1,5.93,1.65,8.89,0,.23.07.46.12.74H23.81V38.86Zm-24.77,6.7c-8.28,0-14.74,6-14.8,14.94a14.8,14.8,0,0,0,29.59-.31C63.1,51.36,56.63,45.6,48.55,45.56Z"/><path class="cls-3" d="M76.39,70.16H87.92c1.13,0,1.42.34,1.22,1.44q-1.87,10.14-3.76,20.28a2.48,2.48,0,0,1-2.76,2.28q-6.28,0-12.56,0A2.41,2.41,0,0,1,67.46,92q-1.3-7-2.59-13.92c-.4-2.19-.81-4.38-1.21-6.56-.19-1,.13-1.38,1.14-1.38Z"/><path class="cls-4" d="M23.81,37.18c0-2.72-.09-5.42,0-8.1A3.08,3.08,0,0,1,27,26.45H69.8A3.28,3.28,0,0,1,73.32,30v7.19ZM62.56,34.7h0c1.33,0,2.66,0,4,0a.81.81,0,0,0,.93-.92V29.9c0-.66-.28-.94-1-.94q-3.93,0-7.86,0c-.72,0-1,.28-1,1q0,1.83,0,3.66c0,.79.26,1,1.07,1.06Zm-22.7-4.07a1.15,1.15,0,0,0-1.16,1.16,1.18,1.18,0,1,0,2.36,0A1.16,1.16,0,0,0,39.86,30.63Zm-8.71,1.2a1.18,1.18,0,1,0-2.36,0A1.17,1.17,0,0,0,30,33,1.16,1.16,0,0,0,31.15,31.83Zm5,0a1.16,1.16,0,0,0-1.2-1.18,1.21,1.21,0,0,0-1.18,1.21A1.24,1.24,0,0,0,34.94,33,1.17,1.17,0,0,0,36.1,31.81Z"/><path class="cls-4" d="M65.85,87.58H27.27a3.31,3.31,0,0,1-3.51-3.52V82.54H64.33c.45,0,.62.1.7.57C65.27,84.56,65.56,86,65.85,87.58Z"/><path class="cls-5" d="M83.26,69.41H66.7c-.9,0-.93,0-1-.93a4.88,4.88,0,0,1,1-3.31,2.74,2.74,0,0,1,2.6-1.09.58.58,0,0,0,.65-.32,4.22,4.22,0,0,1,6.28-1.33,7.89,7.89,0,0,1,2.48,2.5,2,2,0,0,0,1.49,1A3.75,3.75,0,0,1,83.26,69.41Z"/><path class="cls-6" d="M86.54,69.41H84.49c-.27,0-.39-.09-.46-.38-.13-.52-.35-1-.5-1.53a.48.48,0,0,1,0-.41,6.86,6.86,0,0,1,8.31-1.2,7.1,7.1,0,0,1,2.71,3.53,16.56,16.56,0,0,1,1,4.44A2,2,0,0,1,95,75.41a3,3,0,0,1-4.46.21,1.53,1.53,0,0,1-.4-.63A7.19,7.19,0,0,1,89.83,72a8,8,0,0,0,.16-.85,1.45,1.45,0,0,0-1.46-1.77c-.66,0-1.33,0-2,0Z"/><path class="cls-6" d="M86.5,64.31l-3.65,2.22A5.53,5.53,0,0,0,80,65.07a1,1,0,0,1-.43-1.54,4.27,4.27,0,0,1,6-.49A9,9,0,0,1,86.5,64.31Z"/><path class="cls-3" d="M48.6,48A12.05,12.05,0,0,1,60.93,60.3,12.38,12.38,0,0,1,48.54,72.73c-6.71,0-12.47-5.6-12.39-12.21C36.24,52.7,41.93,47.91,48.6,48ZM59.2,59.54a10.67,10.67,0,0,0-21.3,0c.53.31,1.05.59,1.55.91a2.16,2.16,0,0,0,2.78,0,3.87,3.87,0,0,1,5,0,2.1,2.1,0,0,0,2.68,0,6.44,6.44,0,0,1,1.79-.82,3.88,3.88,0,0,1,3.36.9,2,2,0,0,0,2.42,0Z"/></svg>