<svg id="Layer_1" data-name="Layer 1" xmlns="http://www.w3.org/2000/svg" xmlns:xlink="http://www.w3.org/1999/xlink" viewBox="0 0 100 100"><defs><style>.cls-1{fill:url(#linear-gradient);}.cls-2{fill:#fdb450;}.cls-3{fill:#0096f9;}.cls-4{fill:#cb5731;}</style><linearGradient id="linear-gradient" x1="3.54" y1="55.25" x2="89.82" y2="55.25" gradientTransform="matrix(1, 0, 0, -1, 0, 102.39)" gradientUnits="userSpaceOnUse"><stop offset="0" stop-color="#c2ecff"/><stop offset="1" stop-color="#e6f9ff"/></linearGradient></defs><title>BiMart</title><path class="cls-1" d="M89.82,47.19a128.73,128.73,0,0,1-4.21,33.2h0c-.25.92-.51,1.82-.78,2.72h0v.14h0l-.1.16c-.06.1-.13.19-.19.28l-.07.09c-.14.18-.29.35-.45.52l-.44.41-.21.17a3.62,3.62,0,0,1-.32.22l-.32.2c-.91.27-1.82.53-2.75.78h0a129.17,129.17,0,0,1-33.2,4.21,129.19,129.19,0,0,1-33.21-4.21h0c-.92-.25-1.84-.51-2.75-.78a5.39,5.39,0,0,1-1.2-.92l-.17-.16-.14-.16a5.3,5.3,0,0,1-.46-.6c-.07-.11-.14-.22-.2-.33-.28-.91-.54-1.83-.79-2.77h0a128.73,128.73,0,0,1-4.21-33.2A128.81,128.81,0,0,1,7.75,14h0q.38-1.38.78-2.73h0l.1-.16L8.72,11a1.3,1.3,0,0,1,.1-.15h0L9,10.52H9l.18-.22a2.68,2.68,0,0,1,.28-.3l.16-.15.15-.15.36-.28.25-.18L10.7,9c.92-.27,1.84-.53,2.78-.78h0A128.25,128.25,0,0,1,46.68,4a128.25,128.25,0,0,1,33.2,4.22h0c.93.25,1.85.51,2.77.78l.32.2.31.22.37.31c.08.08.17.15.25.24l.26.28.24.29.22.32.11.17.09.17h0c.26.9.52,1.8.77,2.72h0A128.79,128.79,0,0,1,89.82,47.19Z"/><path class="cls-2" d="M32.34,61.81A10.53,10.53,0,0,0,46.4,58.52c.24.33.46.66.69,1a9.21,9.21,0,0,0,14.83,0c.33-.44.45-.58.86,0A9.19,9.19,0,0,0,78,58.9l.27-.39c.14.17.26.31.37.46a10.25,10.25,0,0,0,13,3.12c.57-.28.74-.31.74.42q0,13.63,0,27.26a3.4,3.4,0,0,1-3.56,3.54c-4.5,0-9,0-13.5,0-.54,0-.74-.1-.73-.69,0-2.28,0-4.56,0-6.83,0-.58.17-.71.72-.7,2.84,0,5.69,0,8.54,0a3.44,3.44,0,0,0,3.74-3.71c0-2.56,0-5.13,0-7.69A3.41,3.41,0,0,0,84,70.07q-4.48,0-9,0a.91.91,0,0,1-1-.6A5.86,5.86,0,0,0,68.66,66q-6.28-.1-12.56,0a5.9,5.9,0,0,0-5.51,3.54.82.82,0,0,1-.89.56q-4.44,0-8.88,0a3.45,3.45,0,0,0-3.76,3.77v7.44c0,2.47,1.37,3.83,3.88,3.83,2.79,0,5.58,0,8.37,0,.6,0,.77.15.76.75,0,2.25,0,4.5,0,6.75,0,.52-.08.74-.68.74-4.56,0-9.11,0-13.67,0A3.33,3.33,0,0,1,32.29,90q0-13.94,0-27.86A2,2,0,0,1,32.34,61.81Z"/><path class="cls-3" d="M62.27,36.57h-20c-2.5,0-3.86-1.36-3.86-3.85,0-1.42,0-2.85,0-4.27A3.4,3.4,0,0,1,41.94,25H82.77a3.39,3.39,0,0,1,3.51,3.5c0,1.51,0,3,0,4.53a3.4,3.4,0,0,1-3.59,3.58Z"/><path class="cls-4" d="M71.93,82.33c0,3.42,0,6.83,0,10.25,0,.6-.15.75-.75.75q-8.84,0-17.67,0c-.61,0-.75-.16-.75-.76,0-6.8,0-13.6,0-20.4a3.29,3.29,0,0,1,3.42-3.46q6.15,0,12.3,0a3.3,3.3,0,0,1,3.42,3.46C71.94,75.56,71.93,79,71.93,82.33Z"/><path class="cls-3" d="M45.27,46.66c0,2.05,0,4.09,0,6.14a7.57,7.57,0,0,1-8,7.68,7.68,7.68,0,0,1-7.13-8.38c.37-5.19.66-10.39,1-15.59.11-2,.75-2.68,2.78-2.68a4.51,4.51,0,0,1,1.69.07c.5.21.34,1,.53,1.44a6.25,6.25,0,0,0,5.68,4c1,0,1.93,0,2.9,0,.49,0,.62.14.62.62C45.25,42.16,45.27,44.41,45.27,46.66Z"/><path class="cls-3" d="M79.45,46.65c0-2.22,0-4.44,0-6.66,0-.57.17-.7.71-.7a18.33,18.33,0,0,0,3.92-.13,5.93,5.93,0,0,0,4.77-4.66c.13-.49.28-.73.83-.68s1.08,0,1.62,0A2.1,2.1,0,0,1,93.61,36c.25,4,.5,8.06.71,12.09a34,34,0,0,1,.2,5.88,7.57,7.57,0,0,1-15-.68c-.07-2.21,0-4.43,0-6.65Z"/><path class="cls-3" d="M61,47.16c0,2.22,0,4.44,0,6.66a6.5,6.5,0,1,1-13,0c0-4.58,0-9.16,0-13.74,0-.62.11-.82.78-.82q5.71.06,11.44,0c.63,0,.81.14.8.79C61,42.44,61,44.8,61,47.16Z"/><path class="cls-3" d="M63.73,47.17c0-2.39,0-4.78,0-7.17,0-.56.15-.71.71-.71q5.81,0,11.61,0c.58,0,.7.18.7.72,0,4.66,0,9.33,0,14a6.49,6.49,0,0,1-13,0C63.71,51.72,63.73,49.44,63.73,47.17Z"/></svg>