<svg id="Layer_1" data-name="Layer 1" xmlns="http://www.w3.org/2000/svg" xmlns:xlink="http://www.w3.org/1999/xlink" viewBox="0 0 100 100"><defs><style>.cls-1{fill:url(#linear-gradient);}.cls-2{fill:#f49731;}.cls-3{fill:#cb5731;}.cls-4{fill:#0096f9;}.cls-5{fill:#fdb450;}</style><linearGradient id="linear-gradient" x1="3.54" y1="55.25" x2="89.82" y2="55.25" gradientTransform="matrix(1, 0, 0, -1, 0, 102.39)" gradientUnits="userSpaceOnUse"><stop offset="0" stop-color="#c2ecff"/><stop offset="1" stop-color="#e6f9ff"/></linearGradient></defs><title>BiMassage</title><path class="cls-1" d="M89.82,47.19a128.73,128.73,0,0,1-4.21,33.2h0c-.25.92-.51,1.82-.78,2.72h0v.14h0l-.1.16c-.06.1-.13.19-.19.28l-.07.09c-.14.18-.29.35-.45.52l-.44.41-.21.17a3.62,3.62,0,0,1-.32.22l-.32.2c-.91.27-1.82.53-2.75.78h0a129.17,129.17,0,0,1-33.2,4.21,129.19,129.19,0,0,1-33.21-4.21h0c-.92-.25-1.84-.51-2.75-.78a5.39,5.39,0,0,1-1.2-.92l-.17-.16-.14-.16a5.3,5.3,0,0,1-.46-.6c-.07-.11-.14-.22-.2-.33-.28-.91-.54-1.83-.79-2.77h0a128.73,128.73,0,0,1-4.21-33.2A128.81,128.81,0,0,1,7.75,14h0q.38-1.38.78-2.73h0l.1-.16L8.72,11a1.3,1.3,0,0,1,.1-.15h0L9,10.52H9l.18-.22a2.68,2.68,0,0,1,.28-.3l.16-.15.15-.15.36-.28.25-.18L10.7,9c.92-.27,1.84-.53,2.78-.78h0A128.25,128.25,0,0,1,46.68,4a128.25,128.25,0,0,1,33.2,4.22h0c.93.25,1.85.51,2.77.78l.32.2.31.22.37.31c.08.08.17.15.25.24l.26.28.24.29.22.32.11.17.09.17h0c.26.9.52,1.8.77,2.72h0A128.79,128.79,0,0,1,89.82,47.19Z"/><path class="cls-2" d="M42.18,82.67H23.59c-1.16,0-1.56-.39-1.56-1.54q0-6.21,0-12.44a1.37,1.37,0,0,1,1.2-1.58,8.83,8.83,0,0,1,4.12.23c1.53.3,3.08.52,4.62.71,1,.12,2.05,0,3.07,0,1.2,0,2.37-.15,3.55-.21a8.11,8.11,0,0,1,2.82.69c2.12.7,4.22,1.45,6.33,2.14a45.65,45.65,0,0,0,5.57,1.78,3.53,3.53,0,0,0,2-.47,4.26,4.26,0,0,0,2.26-4.7c-.24-1.13.13-1.65,1.26-1.71a29.2,29.2,0,0,1,5.45.11,9.82,9.82,0,0,1,7.19,4.92A28.2,28.2,0,0,1,75,80.17c.41,1.92.74,3.87,1,5.81.08.51.27.6.72.61l15.77.56c1.34,0,2.6.4,3.21,1.71a2.86,2.86,0,0,1-2.57,4.23c-2.57.17-5.14.42-7.71.56-3.86.22-7.73.37-11.6.37a15.31,15.31,0,0,1-2.34-.14,3.49,3.49,0,0,1-3.37-3A33.18,33.18,0,0,0,67,87a6.26,6.26,0,0,0-6-4.23c-4.48-.23-9,0-13.43-.1C45.77,82.65,44,82.67,42.18,82.67Z"/><path class="cls-3" d="M65.9,59.19c0,1.16,0,2.32,0,3.49a1,1,0,0,1-1.26,1.14c-1.25-.15-2.51-.27-3.77-.32-.59,0-.81-.44-.8-1,0-1.22.07-2.43.11-3.64,0-.36,0-.71,0-1.06s-.18-.74-.62-.72-.51.35-.54.7c-.1,1.18-.18,2.37-.31,3.55,0,.55-.18,1.1-.28,1.64a.8.8,0,0,1-.69.72,5.44,5.44,0,0,1-3.18-.25c-4.22-2.22-8.48-4.38-12.73-6.57a3.15,3.15,0,0,0-.75-.34,1.08,1.08,0,0,0-1.37.65,1.15,1.15,0,0,0,.66,1.5c1.21.63,2.44,1.24,3.65,1.86,3.48,1.79,7,3.57,10.45,5.37a2.47,2.47,0,0,1,1.12,3.53,2.39,2.39,0,0,1-3,1q-4.77-1.47-9.54-3c-2.76-.88-5.57-1.65-8.26-2.77l-.55-.24c-3.07-1.5-3.85-3.09-3.18-6.42.77-3.84,1.51-7.69,2.3-11.52A6.22,6.22,0,0,1,37,41.86c2-.92,4.08-1.75,6.13-2.62a1.12,1.12,0,0,1,1.3.35,22.44,22.44,0,0,1,2,2.49,14.45,14.45,0,0,0,1.12,1.34,1.07,1.07,0,0,0,1.76-.07,15.37,15.37,0,0,0,1.45-2.13,13.1,13.1,0,0,1,1.4-2,1.14,1.14,0,0,1,1.35-.34c1.94.67,3.93,1.19,5.81,2a9,9,0,0,1,5.31,6.5A45.54,45.54,0,0,1,65.9,59.19Z"/><path class="cls-4" d="M42,94H23.68c-1.39,0-1.66-.28-1.67-1.7q0-3.19,0-6.37c0-1.14.36-1.5,1.49-1.5q18.33,0,36.64,0a4.79,4.79,0,1,1,0,9.57Z"/><path class="cls-5" d="M88.08,62.26a8.33,8.33,0,0,1-2.25,6.24c-1.53,1.62-3.06,3.22-4.61,4.82-2,2.11-4.26,2.17-6.22,0a15.77,15.77,0,0,1-4-7.55A7.43,7.43,0,0,1,71.66,61c1.21-2.49,2.78-4.68,5.51-5.66A7.77,7.77,0,0,1,85,56.58,7.63,7.63,0,0,1,88.08,62.26Z"/><path class="cls-2" d="M47.54,36.65a4.77,4.77,0,0,1-2.52-1c-2.77-2-4.72-7-3.93-10.27a6.39,6.39,0,0,1,5.38-5.22c4.29-.72,8.15,1.89,8.25,6.82a11.47,11.47,0,0,1-2.46,7.42A5.5,5.5,0,0,1,47.54,36.65Z"/></svg>