<svg id="Layer_1" data-name="Layer 1" xmlns="http://www.w3.org/2000/svg" viewBox="0 0 100 100"><title>Untitled-2</title><ellipse cx="26.08" cy="80.19" rx="9.74" ry="11.91" style="fill:#3a424d"/><ellipse cx="25.55" cy="79.17" rx="5.19" ry="7.81" style="fill:#fefefe"/><path d="M30.85,75.16l0-.1Z" style="fill:#2d3541"/><path d="M64.71,82.55a16.13,16.13,0,0,0,.5,4,19.52,19.52,0,0,1-8.62,1.25L35.66,85.91a2.22,2.22,0,0,1-1.44-.72,4.65,4.65,0,0,0-2.57-1.28,6.13,6.13,0,0,0-2.22,0,5.15,5.15,0,0,1-.66.07A6.71,6.71,0,0,1,25,83l-8.34-4.88a2.31,2.31,0,0,1-1-1.15,3.37,3.37,0,0,1,.24-2.44,2.53,2.53,0,0,1,2.67-1.83,3.35,3.35,0,0,1,1,.25L26,75.69a4.56,4.56,0,0,1,.62-1.43,1.63,1.63,0,0,1,.87-.62c1.2.76,2.38,1.47,3.55,2.11a10.12,10.12,0,0,0,6,5.68s13,4.87,19.2,3c0,0,4.24-1.69,6.42-8.82l.15-.49A3.33,3.33,0,0,0,64,76.94c.39.24.7-.57.7-.57a6.7,6.7,0,0,1,3.44-3.45A14.67,14.67,0,0,0,64.71,82.55Z" style="fill:#2d3541"/><ellipse cx="75.71" cy="82.55" rx="11" ry="13.28" style="fill:#3a424d"/><ellipse cx="74.69" cy="82.49" rx="6.25" ry="8.29" style="fill:#fefefe"/><ellipse cx="74.24" cy="82.57" rx="3.23" ry="3.96" style="fill:#3a424d"/><path d="M34.2,62.82v0h0Zm-4.55-2.76c0-.15.07-.29.09-.44ZM35,54.19s0,0,0-.08S35,54.16,35,54.19ZM35,54a.17.17,0,0,1,0,.1A.17.17,0,0,0,35,54Zm-.74,1.22c0,.24-.07.47-.11.73h0l.14-.85A.22.22,0,0,0,34.27,55.23ZM33.19,59l0,.09s0,0,0,0l.07-.17S33.2,59,33.19,59Zm.11-.13.08,0Zm-3.91,1.48a.26.26,0,0,1,.24-.2C29.46,60.14,29.42,60.25,29.39,60.36Zm4.2-9.22h0a1.8,1.8,0,0,0,.45-.09Z" style="fill:#ebf2f7"/><path d="M53.13,75.89h-.19a54.8,54.8,0,0,1-16.66-2.14,13.49,13.49,0,0,0-4.61-14.57A31.32,31.32,0,0,0,37.45,61s9.4,2.49,14.12.65Z" style="fill:#0161ad"/><path d="M70.23,38.44l-.67,3.26L58.3,39.48l-.76-.82-.88-1-1.39-1.5a22.74,22.74,0,0,0,2-9.05,45.52,45.52,0,0,1,2.93,4l1,1.46,1.12,1.7Z" style="fill:#2d3541"/><path d="M74.15,81.65c-.27,2.46-2.2,2.47-2.2,2.47l-.9-2.69L68.3,72.85A11.36,11.36,0,0,1,70.88,72h0Z" style="fill:#2d3541"/><path d="M85.32,71.78a3.22,3.22,0,0,1-1.11.41,8.57,8.57,0,0,1-2.14.24A32.23,32.23,0,0,1,76.35,72c-2-.48-9.55-.64-11.65,4.39,0,0-.31.81-.7.57a3.33,3.33,0,0,1-1.19-1.84c0-.17.09-.33.13-.5h0A19.68,19.68,0,0,1,64.14,72a21.14,21.14,0,0,1,1.52-2.4c2.54-3.47,7-7.07,13.57-4.62h0a6.63,6.63,0,0,1,.68.32h0a15.93,15.93,0,0,1,5.45,5.93S85.64,71.62,85.32,71.78Z" style="fill:#0096f9"/><path d="M53.13,75.89h-.19a53.87,53.87,0,0,1-20.53-3.47l-15-7.25a.48.48,0,0,1-.28-.38c-.12-.94-.24-4.16,3.41-6.6a9.67,9.67,0,0,1,5.95-1.39s6.58,3.42,11,4.23c0,0,9.39,2.49,14.11.65Z" style="fill:#0096f9"/><path d="M17.21,65.59h0l.07.67a1,1,0,0,1-.13.61l-3.56,6c-.83,1.55.39,1.33.39,1.33l.65-.22A6.77,6.77,0,0,0,17,72.58l4-3.64Z" style="fill:#2d3541"/><path d="M56.23,76.11q-.07.26-.15.48a6.51,6.51,0,0,1-7.62,4.27c-4.59-1-13.84-3.38-17.72-6.11a6.74,6.74,0,0,0,.32,1A70.36,70.36,0,0,1,17,65.38a.19.19,0,0,1,.18-.32h0l15.24,7.37A53.87,53.87,0,0,0,52.94,75.9h.19Z" style="fill:#3a424d"/><path d="M70.76,44.05a9.6,9.6,0,0,0-5.71-.56l-1.28.27a9.44,9.44,0,0,0-3.89,1.78h0l0,0-.07.06-.17,0a11.46,11.46,0,0,1-2-5,3.41,3.41,0,0,1,.41-2.28c4.13-6.06,10-2.42,10-2.42C72,38,71,43.16,70.76,44.05Z" style="fill:#0096f9"/><path d="M51.57,61.69C46.85,63.53,37.45,61,37.45,61c-4.38-.81-11-4.23-11-4.23a9,9,0,0,0-4.88.82c-.86-.61-2.16-1.84-1.86-3.49a1.35,1.35,0,0,1,.84-.91,3.85,3.85,0,0,0,1.74-1.37S23,50.55,26,50.55c.38,0,.8,0,1.27.06,0,0,12.58,5.65,21.91,5C49.19,55.63,53.29,55.93,51.57,61.69Z" style="fill:#2d3541"/><path d="M53.13,75.89h-.19a54.8,54.8,0,0,1-16.66-2.14,13.49,13.49,0,0,0-4.61-14.57A31.32,31.32,0,0,0,37.45,61s9.4,2.49,14.12.65Z" style="fill:#0082f7"/><path d="M55.68,80.14,45.23,77.85l.48-3.65,4.92.89c0,.12,0,.18,0,.18l2,.68C56.5,77.75,56.21,79.34,55.68,80.14Z" style="fill:#0161ad"/><path d="M55.69,80.13a2.26,2.26,0,0,1-.53.56l-10-2.17.09-.68Z" style="fill:#fefefe"/><path d="M60.2,77.52l-4.71-.73-.08-2.27-1-16.21c-.41-.51-2.37-.45-2.37-.45l.05.48c.18,5.72-1.25,15.33-1.47,16.75l-4.92-.89.08-.61-.94-12.27c.24-3.8-1.07-3.7-1.07-3.7-13.07.51-10.15-7.39-10.15-7.39l.09-.78,0-.12.06-.5a26.61,26.61,0,0,0,5.41.12h0c.17,0,.73-.07,1.51-.12a31.86,31.86,0,0,1,5.92.06,6.11,6.11,0,0,1,1.83.49L53.19,49l0,.23h.08c3,.64,6.4,1.45,6.4,1.45Z" style="fill:#3a424d"/><path d="M79.25,64.35v.25c0,.13,0,.25,0,.38-6.62-2.45-11,1.15-13.57,4.62A21.14,21.14,0,0,0,64.14,72a19.68,19.68,0,0,0-1.2,2.59h0c-.09.34-.18.67-.28,1-2.18,7.13-6.42,8.82-6.42,8.82-6.22,1.89-19.2-3-19.2-3a9.78,9.78,0,0,1-6.3-6.68c3.88,2.73,13.13,5.07,17.72,6.11a6.51,6.51,0,0,0,7.62-4.27c1.86-5.64.88-14.53.38-17.34A25.71,25.71,0,0,1,56.19,52v0a9.59,9.59,0,0,1,7.57-8.18l1.28-.27a9.61,9.61,0,0,1,10,4.21,25.18,25.18,0,0,1,3.78,10.61q.18,1.19.27,2.43A34,34,0,0,1,79.25,64.35Z" style="fill:#0096f9"/><ellipse cx="70.6" cy="50.8" rx="3.62" ry="4.71" transform="translate(-14.24 31.63) rotate(-23)" style="fill:#fefefe"/><path d="M79.26,63.79c0,.27,0,.54,0,.81s0,.25,0,.38c-6.62-2.45-11,1.15-13.57,4.62A21.14,21.14,0,0,0,64.14,72a19.68,19.68,0,0,0-1.2,2.59h0c0,.17-.09.33-.13.5h0l-.06.17-.06.22,0,.1c-2.17,7.13-6.42,8.82-6.42,8.82a11.31,11.31,0,0,1-2.67.42c3.1-1.33,6.14-4,7.33-9.24C60.9,75.59,64.17,58,79.26,63.79Z" style="fill:#0082f7"/><path d="M62.69,75.49l0,.1h0Z" style="fill:#0161ad"/><path d="M17.21,65.59c1.29,1.2,2.57,2.31,3.84,3.35Z" style="fill:#2d3541"/><path d="M79.17,34.88c-1,1.67-2.72,2.46-3.92,1.76l-.13-.08a.32.32,0,0,0-.41,0l-2,2.13a1.83,1.83,0,0,0-.5,1.16h0a1.2,1.2,0,0,0,.89,1.22l3.83,1.07a.62.62,0,0,1,.47.81c-.06.31,0,1.12-.76,1.11l-5.22-1.49-.61,1.44L71,42.5a9.8,9.8,0,0,0,0-2h0a.37.37,0,0,0,.45-.27l.14-.63a3.15,3.15,0,0,1,.85-1.53l1.74-1.68a.74.74,0,0,0,.17-.83,3.66,3.66,0,0,1,.27-3.3c1-1.67,2.39-2.39,3.6-1.7A3.16,3.16,0,0,1,79.17,34.88Z" style="fill:#3a424d"/><path d="M22.32,62.59a.31.31,0,0,1-.39.16.32.32,0,0,1-.16-.4.3.3,0,0,1,.39-.16A.32.32,0,0,1,22.32,62.59Z" style="fill:#fff"/><path d="M22.38,61.63a.83.83,0,0,0-.58-.05l.12-.28a.33.33,0,0,0,0-.14.19.19,0,0,0-.1-.1.17.17,0,0,0-.23.09l-.39,1h0a1,1,0,0,0,.51,1.21.88.88,0,0,0,1.17-.5,1,1,0,0,0-.5-1.21ZM21.83,63a.58.58,0,0,1-.3-.75.55.55,0,0,1,.72-.29.59.59,0,0,1,.3.75.54.54,0,0,1-.72.29Z" style="fill:#fff"/><path d="M24.49,63.3A.43.43,0,0,0,24.4,63a.55.55,0,0,0-.2-.17.32.32,0,0,0-.14,0h-.17l.14-.33a.2.2,0,0,0,0-.11.15.15,0,0,0-.18-.08.18.18,0,0,0-.07.08l-.46,1.14a.11.11,0,0,0,0,.11.12.12,0,0,0,.07.07.14.14,0,0,0,.11,0l.05,0,0,0a.44.44,0,0,0,.08.11.51.51,0,0,0,.13.09.47.47,0,0,0,.49-.08.58.58,0,0,0,.17-.25A.61.61,0,0,0,24.49,63.3Zm-.64.37a.23.23,0,0,1-.12-.1.33.33,0,0,1,0-.14.45.45,0,0,1,0-.16.38.38,0,0,1,.09-.13.27.27,0,0,1,.12-.06.26.26,0,0,1,.15,0,.31.31,0,0,1,.11.09.33.33,0,0,1,0,.14.35.35,0,0,1-.12.29.29.29,0,0,1-.12.07A.32.32,0,0,1,23.85,63.67Z" style="fill:#fff"/><path d="M25.68,63.57a.16.16,0,0,0-.08-.08.17.17,0,0,0-.1,0l-.06,0h0a.55.55,0,0,0-.23-.2.39.39,0,0,0-.26,0,.45.45,0,0,0-.23.11.61.61,0,0,0-.17.24.63.63,0,0,0-.05.3.62.62,0,0,0,.09.26.55.55,0,0,0,.2.17.4.4,0,0,0,.15,0h.16s0,0,0,.06a.14.14,0,0,0,.18.08.1.1,0,0,0,.07-.07l.31-.77A.14.14,0,0,0,25.68,63.57Zm-.5.53a.23.23,0,0,1-.12.06.22.22,0,0,1-.14,0,.2.2,0,0,1-.11-.09.24.24,0,0,1,0-.14.41.41,0,0,1,0-.16.3.3,0,0,1,.09-.13.23.23,0,0,1,.27,0,.31.31,0,0,1,.11.09.23.23,0,0,1,0,.14.22.22,0,0,1,0,.16.26.26,0,0,1-.09.14Z" style="fill:#fff"/><path d="M26.61,64.45l-.19.46a.11.11,0,0,1-.07.08.14.14,0,0,1-.18-.08.2.2,0,0,1,0-.11l.19-.46a.2.2,0,0,0,0-.11.15.15,0,0,0,0-.09.22.22,0,0,0-.09-.07.25.25,0,0,0-.12,0,.18.18,0,0,0-.1,0,.15.15,0,0,0-.06.09l-.19.46a.14.14,0,0,1-.07.08.14.14,0,0,1-.18-.08.11.11,0,0,1,0-.11l.3-.75a.12.12,0,0,1,.07-.07.13.13,0,0,1,.18.08.11.11,0,0,1,0,.08l.08,0a.25.25,0,0,1,.12,0,.28.28,0,0,1,.13,0,.42.42,0,0,1,.19.15.39.39,0,0,1,0,.21A.9.9,0,0,1,26.61,64.45Z" style="fill:#fff"/><path d="M27.19,65.16a.12.12,0,0,1,0,.08.12.12,0,0,1-.1.08.32.32,0,0,1-.14,0l-.08,0a.27.27,0,0,1-.08-.07.19.19,0,0,1,0-.12.25.25,0,0,1,0-.16l.19-.48-.06,0a.12.12,0,0,1-.07-.07.17.17,0,0,1,0-.1.12.12,0,0,1,.07-.07.17.17,0,0,1,.1,0l.06,0,0-.1a.14.14,0,0,1,.18-.07h0a.14.14,0,0,1,.07.08.17.17,0,0,1,0,.1l0,.1.11,0a.16.16,0,0,1,.07.07.17.17,0,0,1,0,.1.16.16,0,0,1-.07.07.17.17,0,0,1-.1,0l-.11,0L27,65v.06l0,0h.08A.1.1,0,0,1,27.19,65.16Z" style="fill:#fff"/><path d="M28.5,65l-.19.46a.46.46,0,0,1-.24.27.42.42,0,0,1-.36,0,.46.46,0,0,1-.27-.26.5.5,0,0,1,0-.36l.19-.47a.12.12,0,0,1,.07-.07.13.13,0,0,1,.18.08.2.2,0,0,1,0,.11l-.19.46a.25.25,0,0,0,0,.17.16.16,0,0,0,.11.1.16.16,0,0,0,.15,0,.18.18,0,0,0,.1-.13l.19-.46a.18.18,0,0,1,.07-.08.14.14,0,0,1,.11,0,.12.12,0,0,1,.07.07A.2.2,0,0,1,28.5,65Z" style="fill:#fff"/><path d="M29.08,64.79l0,0a.1.1,0,0,1-.07.07.22.22,0,0,1-.1,0,.17.17,0,0,1-.09-.07.17.17,0,0,1,0-.1l0,0a.1.1,0,0,1,.07-.08.2.2,0,0,1,.1,0,.17.17,0,0,1,.09.07A.17.17,0,0,1,29.08,64.79Z" style="fill:#fff"/><path d="M28.93,65.14l-.3.75a.19.19,0,0,1-.07.08.14.14,0,0,1-.11,0,.12.12,0,0,1-.07-.07.11.11,0,0,1,0-.11l.3-.75a.12.12,0,0,1,.07-.07.11.11,0,0,1,.11,0,.12.12,0,0,1,.07.07A.14.14,0,0,1,28.93,65.14Z" style="fill:#fff"/><path d="M29.86,65.89l-.18.47a.14.14,0,0,1-.08.07.09.09,0,0,1-.1,0s-.06,0-.08-.08a.12.12,0,0,1,0-.1l.18-.47a.2.2,0,0,0,0-.11.15.15,0,0,0,0-.09.35.35,0,0,0-.09-.07.3.3,0,0,0-.12,0,.18.18,0,0,0-.1,0,.15.15,0,0,0-.06.09l-.19.46a.14.14,0,0,1-.07.08.21.21,0,0,1-.11,0,.18.18,0,0,1-.07-.08.14.14,0,0,1,0-.11l.3-.75a.16.16,0,0,1,.07-.07.11.11,0,0,1,.11,0,.11.11,0,0,1,.07.08.1.1,0,0,1,0,.09.13.13,0,0,1,.08,0,.25.25,0,0,1,.12,0,.28.28,0,0,1,.13,0,.42.42,0,0,1,.19.15.39.39,0,0,1,0,.21A.9.9,0,0,1,29.86,65.89Z" style="fill:#fff"/><path d="M73.39,43.18c-3.25,1-3.83-1.48-3.83-1.48l.67-3.26c.84-1,3.25-.69,3.25-.69C77.82,39.94,73.39,43.18,73.39,43.18Z" style="fill:#da8e68"/><path d="M70.76,44.05a9.6,9.6,0,0,0-5.71-.56l-1.28.27a9.44,9.44,0,0,0-3.89,1.78h0l0,0-.07.06-.17,0a18.87,18.87,0,0,1-1-1.8,12,12,0,0,1,12.44-2.45A10.78,10.78,0,0,1,70.76,44.05Z" style="fill:#0161ad"/><path d="M70.76,44.05a9.6,9.6,0,0,0-5.71-.56l-1.28.27a9.44,9.44,0,0,0-3.89,1.78h0l0,0-.07.06-.17,0a18.87,18.87,0,0,1-1-1.8,12,12,0,0,1,12.44-2.45A10.78,10.78,0,0,1,70.76,44.05Z" style="fill:#0082f7"/><path d="M62.81,75.1l.06-.25-.06.25Z" style="fill:#0185cf"/><path d="M57.27,27.15a22.74,22.74,0,0,1-2,9.05l-.05-.05a9.14,9.14,0,0,0-3.11-1.73c-.3-.11-.6-.2-.9-.29L52,26.62a1.29,1.29,0,0,0,.61-.2l.12-.08.09-.06.12-.09A7,7,0,0,0,54.09,25l2.83,1.87A1.52,1.52,0,0,1,57.27,27.15Z" style="fill:#0096f9"/><line x1="53.16" y1="35.32" x2="53.16" y2="35.33" style="fill:none;stroke:#0096f9;stroke-miterlimit:10"/><path d="M51.2,26.51l-.8,7.4a24.88,24.88,0,0,0-2.71-.51h0a43.59,43.59,0,0,0-7.63-.33,15.37,15.37,0,0,0-2.59-8.58,16,16,0,0,1,5.32-2l.2-.08h0a5.2,5.2,0,0,1,4.81,1.84,1.12,1.12,0,0,0,.13.15l0,0,.43.44.06,0,.12.12.34.28.06.05.32.24.07.05.11.08.08.05.09.06.13.08.08,0L50,26l.25.13.15.07h0l.16.07.36.13.09,0,.1,0,.08,0Z" style="fill:#0096f9"/><path d="M40.06,33.07l-1.2,3.87c-4.18.8-5,2.9-5,4.35a4.26,4.26,0,0,0,.27,1.51h0A3.9,3.9,0,0,1,33,42.09L33,42a4.82,4.82,0,0,1-1.15-3.9,11.67,11.67,0,0,1,.74-3.4c1.14-3.53,3.21-8.09,3.21-8.09a3.88,3.88,0,0,1,1.72-2.15A15.37,15.37,0,0,1,40.06,33.07Z" style="fill:#2d3541"/><path d="M51.08,42.09a9.47,9.47,0,0,0-4.48,3.08,4.5,4.5,0,0,0-.52,0l-.63-.06a12.14,12.14,0,0,1,3.95-3.4A16.64,16.64,0,0,0,51.08,42.09Z" style="fill:none;stroke:#0096f9;stroke-miterlimit:10"/><path d="M39.61,43.42,39.25,49h0a26.61,26.61,0,0,1-5.41-.12l0-.15L34,46.86l.37-3.06.11-.86,4.77.45Z" style="fill:#0096f9"/><path d="M54.16,24.88l-.07.09a7,7,0,0,1-1.17,1.22l-.12.09-.09.06-.12.08a1.29,1.29,0,0,1-.61.2h-.1l-.06,0a2.69,2.69,0,0,1-.4,0l-.21,0h-.06l-.08,0-.1,0-.09,0-.36-.13-.16-.07h0l-.15-.07L50,26,49.87,26l-.08,0-.13-.08-.09-.06-.08-.05-.11-.08-.07-.05L49,25.38l-.06-.05-.34-.28-.12-.12-.06,0L48,24.45l0,0a1.12,1.12,0,0,1-.13-.15A5.2,5.2,0,0,0,43,22.42h0a7.17,7.17,0,0,0,1.33-.65h0a3.19,3.19,0,0,0,1.18-1.1c.44.36,3.07,2.39,8.6,4.19h0Z" style="fill:#2d3541"/><path d="M51.89,26.65l-.77,7.51-.34-.1-.36-.1-.11,0,.8-7.4h0l.22,0a2.58,2.58,0,0,0,.4,0l0,0Z" style="fill:#3a424d"/><path d="M60,13.4a23.31,23.31,0,0,1-1.82,7.69l-.31,0-.3,0-.2,0-.23,0-.25,0-1-.13-.26,0h0l-.26,0-.23,0-.75-.16-.24-.06-.23-.05-.22-.06-.22-.06-.17-.05L53,20.21l-.21-.07a11.8,11.8,0,0,1-1.28-.49l-.7-.33-.06-.27A28.08,28.08,0,0,1,51.1,12l.72.13.21,0,.24.05.24,0h.05l.38.06.19,0,.76.13H54l.3.05.18,0,.38.06h.1l.27,0,.48.07c1.26.2,2.41.36,3.2.48H59l.17,0h.1l.19,0h.08l.32,0H60Z" style="fill:#da8e68"/><path d="M50.76,19.05l.06.27c-3.23-1.66-3.92-3.86-3.92-3.86-.38-3.25,1.31-4.14,1.31-4.14.71.21,1.74.44,2.89.67A28.08,28.08,0,0,0,50.76,19.05Z" style="fill:#3a424d"/><path d="M61.55,13.08a.49.49,0,0,1-.1.23L60,13.4h-.17l-.32,0h-.08l-.19,0h-.1l-.17,0h-.07c-.79-.12-1.94-.28-3.2-.48l-.48-.07-.27,0h-.1l-.38-.06-.18,0L54,12.5h-.08l-.76-.13-.19,0-.38-.06h-.05l-.24,0L52,12.16l-.21,0L51.1,12c-1.15-.23-2.18-.46-2.89-.67,0,0-1.69.89-1.31,4.14,0,0,.69,2.2,3.92,3.86l.7.33a11.8,11.8,0,0,0,1.28.49l.21.07.26.08.17.05.22.06.22.06.23.05.24.06.75.16.23,0,.26,0h0l.26,0,1,.13.25,0,.23,0,.2,0,.3,0,.31,0,1.39.05a6.54,6.54,0,0,1-.39,1,5,5,0,0,1-1.08,1.47,4.88,4.88,0,0,1-.45.37,4.58,4.58,0,0,1-1,.55,5.23,5.23,0,0,1-.71.22,5.4,5.4,0,0,1-1.68.14H54.1c-5.53-1.8-8.16-3.83-8.6-4.19l0-.06a7.48,7.48,0,0,1-1.19-1.31l-.15-.2L44.11,19a8.84,8.84,0,0,1-.85-8.46c.06-.17.13-.33.2-.5a9.55,9.55,0,0,1,8.6-5.82,7.34,7.34,0,0,1,1,0C60.82,5.38,61.55,13.08,61.55,13.08Z" style="fill:#0096f9"/><path d="M46.75,40.31a12.07,12.07,0,0,0-4,3.4l-.69-.06-.49,0-1.9-.17h-.1l-.32,0-4.77-.45-.36-.13h0a4.26,4.26,0,0,1-.27-1.51c0-1.45.79-3.55,5-4.35l0,0h0L39,37l.06,0,1.06.55.14.08.44.22.12.06L41,38l.13.07.28.13h0l.26.12.83.38.29.13.9.38.71.28C45.14,39.82,46,40.09,46.75,40.31Z" style="fill:#0096f9"/><path d="M55.22,36.15l-2,13.05h-.08l0-.23-4.68.42a6.11,6.11,0,0,0-1.83-.49,31.86,31.86,0,0,0-5.92-.06c-.78.05-1.34.1-1.51.12l.36-5.53h.1l1.9.17.49,0,.69.06.64.06a4.51,4.51,0,0,1,.52,0,3.31,3.31,0,0,1,2.42,1.48,5.55,5.55,0,0,1,.76,1.5l.36,0a14.63,14.63,0,0,0,4.25-1.17c1.5-3.27-.2-4.29-1.35-4.61a4.39,4.39,0,0,0-.69-.13h-.16a11,11,0,0,1-1.11-.12,15.49,15.49,0,0,1-1.68-.38c-.8-.22-1.61-.49-2.39-.79l-.71-.28-.9-.38-.29-.13-.83-.38-.26-.12h0l-.28-.13L41,38,40.83,38l-.12-.06-.44-.22-.14-.08-1.06-.55L39,37l-.08,0h0l0,0,1.2-3.87a43.59,43.59,0,0,1,7.63.33h0a24.88,24.88,0,0,1,2.71.51l.1,0,.37.1.34.1c.3.09.6.18.9.29A9.14,9.14,0,0,1,55.22,36.15Z" style="fill:#2d3541"/><path d="M48.43,40.69A9.36,9.36,0,0,0,44,43.77a4.51,4.51,0,0,0-.52,0l-.64-.06a12.07,12.07,0,0,1,4-3.4A15.49,15.49,0,0,0,48.43,40.69Z" style="fill:#2d3541"/><path d="M59.85,45.56a9.51,9.51,0,0,0-2.06,2.19l-1-3.65-4.6,1.22-5.36,1.93A1.81,1.81,0,0,1,43.56,46,1.77,1.77,0,0,1,45,44.38H45l6.08-2A1.28,1.28,0,0,0,52,41.19v-.75a1.38,1.38,0,0,0-1-1.32L47.1,38a.72.72,0,0,0-.81.28,3.34,3.34,0,0,1-2.8,1.41,3.09,3.09,0,0,1-3.31-2.81c0-1.56,2-2.81,3.77-2.81,2.44,0,3,1.27,2.84,2.81h0a.6.6,0,0,0,.43.64l4.39,1.27a1.4,1.4,0,0,1,1,1L52.93,41a.73.73,0,0,0,.89.52l3.84-1a11.46,11.46,0,0,0,2,5l.17,0Z" style="fill:#3a424d"/><path d="M51.74,45.56a14.63,14.63,0,0,1-4.25,1.17l-.36,0a5.55,5.55,0,0,0-.76-1.5A3.31,3.31,0,0,0,44,43.77a9.36,9.36,0,0,1,4.48-3.08,11,11,0,0,0,1.11.12h.16a4.39,4.39,0,0,1,.69.13C51.54,41.27,53.24,42.29,51.74,45.56Z" style="fill:#da8e68"/><path d="M34,51.05a1.8,1.8,0,0,1-.45.09h0Z" style="fill:#edf5f9"/><path d="M34.2,62.82v0h0Zm-4.81-2.46a.26.26,0,0,1,.24-.2C29.46,60.14,29.42,60.25,29.39,60.36Z" style="fill:#010101"/><path d="M34.23,62.87h0v0Z" style="fill:#ebf2f7"/><path d="M34,51.05a1.8,1.8,0,0,1-.45.09h0Z" style="fill:#010101"/></svg>