<svg id="Layer_1" data-name="Layer 1" xmlns="http://www.w3.org/2000/svg" xmlns:xlink="http://www.w3.org/1999/xlink" viewBox="0 0 100 100">
  <defs>
    <linearGradient id="linear-gradient" x1="3.58" y1="46.99" x2="89.86" y2="46.99" gradientUnits="userSpaceOnUse">
      <stop offset="0" stop-color="#c2ecff"/>
      <stop offset="1" stop-color="#e6f9ff"/>
    </linearGradient>
  </defs>
  <title>Untitled-2</title>
  <g>
    <path d="M89.86,47a129.14,129.14,0,0,1-4.2,33.2s0,0,0,0c-.25.92-.5,1.82-.77,2.72h0l0,.07,0,.06s0,0,0,0l-.1.17-.19.27-.07.09a5.59,5.59,0,0,1-.45.52,3.44,3.44,0,0,1-.44.41l-.21.17-.31.22a3.62,3.62,0,0,1-.33.2c-.91.27-1.82.53-2.75.78h0a128.71,128.71,0,0,1-33.21,4.21,128.69,128.69,0,0,1-33.2-4.21h0c-.92-.25-1.84-.51-2.75-.78a5.93,5.93,0,0,1-1.2-.91l-.16-.17-.15-.16a6.8,6.8,0,0,1-.46-.6c-.07-.1-.14-.22-.2-.32-.27-.92-.53-1.84-.78-2.78h0A128.25,128.25,0,0,1,3.58,47,128.25,128.25,0,0,1,7.8,13.79h0c.24-.92.5-1.83.77-2.73h0l.1-.17.09-.15.1-.14,0-.05a1.56,1.56,0,0,1,.16-.2v0l.18-.22a3.58,3.58,0,0,1,.26-.28l.16-.16a1.07,1.07,0,0,1,.16-.14,3.07,3.07,0,0,1,.35-.28,1.44,1.44,0,0,1,.25-.18,3.53,3.53,0,0,1,.32-.21c.92-.27,1.84-.53,2.78-.78h0A128.61,128.61,0,0,1,46.72,3.85,128.77,128.77,0,0,1,79.93,8.06h0c.93.25,1.86.51,2.77.78a3.53,3.53,0,0,1,.32.21,2.18,2.18,0,0,1,.31.22,2.17,2.17,0,0,1,.37.31,2.73,2.73,0,0,1,.25.23l.26.28a3.36,3.36,0,0,1,.24.29l.22.32c0,.05.07.11.11.17l.1.18h0c.27.9.53,1.8.77,2.72h0A129.22,129.22,0,0,1,89.86,47Z" fill="url(#linear-gradient)"/>
    <g>
      <path d="M49.07,30.14l.15-.07Z" fill="#0096f9"/>
      <g>
        <ellipse cx="28.67" cy="78.68" rx="10.89" ry="13.31" fill="#3a424d"/>
        <ellipse cx="28.09" cy="77.54" rx="5.8" ry="8.73" fill="#fefefe"/>
        <path d="M34,73.06s0-.08,0-.12S34,73,34,73.06Z" fill="#2d3541"/>
        <path d="M71.84,81.32a17.37,17.37,0,0,0,.57,4.44,21.88,21.88,0,0,1-9.64,1.4L39.38,85.07a2.45,2.45,0,0,1-1.61-.8,5.05,5.05,0,0,0-2.87-1.44,7.12,7.12,0,0,0-2.48,0,4.78,4.78,0,0,1-.74.08,7.47,7.47,0,0,1-4.22-1l-9.32-5.45A2.59,2.59,0,0,1,17,75.1a3.78,3.78,0,0,1,.27-2.72,2.84,2.84,0,0,1,3-2,3.8,3.8,0,0,1,1.1.29l7.24,3a5.06,5.06,0,0,1,.69-1.6,1.81,1.81,0,0,1,1-.7q2,1.29,4,2.37a11.31,11.31,0,0,0,6.69,6.35s14.49,5.44,21.45,3.32c0,0,4.74-1.89,7.17-9.85.06-.18.11-.37.17-.55a3.74,3.74,0,0,0,1.33,2.06c.44.26.79-.64.79-.64a7.39,7.39,0,0,1,3.83-3.85A16.41,16.41,0,0,0,71.84,81.32Z" fill="#2d3541"/>
        <ellipse cx="84.13" cy="81.32" rx="12.29" ry="14.84" fill="#3a424d"/>
        <ellipse cx="83" cy="81.25" rx="6.99" ry="9.26" fill="#fefefe"/>
        <ellipse cx="82.5" cy="81.34" rx="3.61" ry="4.42" fill="#3a424d"/>
        <path d="M58.9,73.87h-.21a60.87,60.87,0,0,1-18.62-2.39,15.09,15.09,0,0,0-5.14-16.28,34.91,34.91,0,0,0,6.46,2.07s10.5,2.78,15.77.73Z" fill="#0161ad"/>
        <path d="M82.39,80.3c-.3,2.75-2.45,2.77-2.45,2.77l-1-3-3.07-9.6a12.91,12.91,0,0,1,2.87-.9h0Z" fill="#2d3541"/>
        <path d="M94.88,69.28a3.74,3.74,0,0,1-1.25.46,9.55,9.55,0,0,1-2.38.27,37,37,0,0,1-6.39-.5c-2.26-.54-10.68-.72-13,4.9,0,0-.35.9-.79.64A3.84,3.84,0,0,1,69.71,73c.06-.19.11-.37.16-.56h0a22.54,22.54,0,0,1,1.33-2.89,23.32,23.32,0,0,1,1.7-2.68c2.84-3.89,7.77-7.91,15.17-5.17h0a6.34,6.34,0,0,1,.75.36h0c1.36.73,3.8,2.74,6.09,6.63C94.93,68.67,95.23,69.1,94.88,69.28Z" fill="#0096f9"/>
        <path d="M58.9,73.87h-.21A59.86,59.86,0,0,1,35.75,70L19,61.91a.58.58,0,0,1-.31-.43c-.14-1-.26-4.65,3.82-7.38a10.87,10.87,0,0,1,6.65-1.55s7.34,3.83,12.25,4.73c0,0,10.5,2.78,15.77.73Z" fill="#0096f9"/>
        <path d="M18.76,62.36h0l.08.76a1,1,0,0,1-.14.67l-4,6.71c-.93,1.75.43,1.49.43,1.49l.73-.24a7.59,7.59,0,0,0,2.69-1.57l4.49-4.07Z" fill="#2d3541"/>
        <path d="M62.36,74.12c0,.18-.11.36-.16.54a7.26,7.26,0,0,1-8.51,4.76c-5.14-1.16-15.48-3.77-19.8-6.83a6.79,6.79,0,0,0,.35,1.13A78.69,78.69,0,0,1,18.51,62.13a.22.22,0,0,1,.21-.36h0l17,8.23a59.86,59.86,0,0,0,22.94,3.88h.21Z" fill="#3a424d"/>
        <path d="M78.6,38.3a10.66,10.66,0,0,0-6.37-.63L70.8,38a10.64,10.64,0,0,0-4.36,2h0l0,0-.09.06-.18,0A12.71,12.71,0,0,1,64,34.41a3.89,3.89,0,0,1,.46-2.56c4.61-6.77,11.2-2.7,11.2-2.7C80,31.52,78.85,37.3,78.6,38.3Z" fill="#0096f9"/>
        <path d="M57.16,58c-5.27,2.05-15.77-.73-15.77-.73-4.91-.9-12.25-4.73-12.25-4.73a10,10,0,0,0-5.44.92c-1-.69-2.42-2.06-2.09-3.9a1.52,1.52,0,0,1,.95-1A4.29,4.29,0,0,0,24.5,47s.68-1.47,4.1-1.47c.42,0,.9,0,1.41.08,0,0,14.06,6.3,24.49,5.61C54.5,51.24,59.08,51.57,57.16,58Z" fill="#2d3541"/>
        <path d="M88.09,61v.28c0,.14,0,.28,0,.42C80.67,58.94,75.74,63,72.9,66.85a23.32,23.32,0,0,0-1.7,2.68,22.54,22.54,0,0,0-1.33,2.89h0c-.1.38-.21.75-.32,1.11-2.43,8-7.17,9.85-7.17,9.85-7,2.12-21.45-3.32-21.45-3.32a10.94,10.94,0,0,1-7-7.48c4.32,3.06,14.66,5.67,19.8,6.83a7.26,7.26,0,0,0,8.51-4.76c2.08-6.31,1-16.25.43-19.39a28.21,28.21,0,0,1-.31-8.11v0A10.75,10.75,0,0,1,70.8,38l1.43-.29a10.74,10.74,0,0,1,11.21,4.7,28,28,0,0,1,4.22,11.86c.14.89.24,1.79.31,2.71A39.52,39.52,0,0,1,88.09,61Z" fill="#0096f9"/>
        <ellipse cx="78.43" cy="45.84" rx="4.05" ry="5.26" transform="translate(-11.68 34.3) rotate(-23)" fill="#fefefe"/>
        <path d="M88.1,60.35c0,.31,0,.61,0,.91,0,.14,0,.28,0,.42C80.67,58.94,75.74,63,72.9,66.85a23.32,23.32,0,0,0-1.7,2.68,22.54,22.54,0,0,0-1.33,2.89h0c-.05.19-.1.37-.16.56h0a1.33,1.33,0,0,1,0,.19l-.07.25s0,.07,0,.11c-2.43,8-7.17,9.85-7.17,9.85a12.32,12.32,0,0,1-3,.47c3.47-1.48,6.86-4.46,8.2-10.32C67.59,73.54,71.24,53.9,88.1,60.35Z" fill="#0082f7"/>
        <path d="M69.59,73.43s0,.07,0,.11h0S69.58,73.46,69.59,73.43Z" fill="#0161ad"/>
        <path d="M58.9,73.87h-.21a60.87,60.87,0,0,1-18.62-2.39,15.09,15.09,0,0,0-5.14-16.28,34.91,34.91,0,0,0,6.46,2.07s10.5,2.78,15.77.73Z" fill="#0082f7"/>
        <path d="M18.76,62.36c1.44,1.34,2.88,2.59,4.3,3.75Z" fill="#2d3541"/>
        <path d="M66.42,40a10.53,10.53,0,0,0-2.31,2.45l-1.17-4.08-5.13,1.36-6,2.16a2,2,0,0,1-3.61-1.37,2,2,0,0,1,1.56-1.84h.08l6.79-2.2a1.42,1.42,0,0,0,1-1.35v-.84a1.53,1.53,0,0,0-1.12-1.47l-4.35-1.22a.84.84,0,0,0-.91.32,3.71,3.71,0,0,1-3.12,1.58,3.46,3.46,0,0,1-3.7-3.15c0-1.73,2.18-3.14,4.22-3.14,2.72,0,3.33,1.42,3.17,3.14h0a.67.67,0,0,0,.48.71l4.91,1.41a1.58,1.58,0,0,1,1.08,1.09l.39,1.36a.82.82,0,0,0,1,.58L64,34.41A12.71,12.71,0,0,0,66.15,40l.18,0Z" fill="#3a424d"/>
        <path d="M78.6,38.3a10.66,10.66,0,0,0-6.37-.63L70.8,38a10.64,10.64,0,0,0-4.36,2h0l0,0-.09.06-.18,0A19.34,19.34,0,0,1,65,38a13.35,13.35,0,0,1,13.9-2.74A12.32,12.32,0,0,1,78.6,38.3Z" fill="#0161ad"/>
        <path d="M78.6,38.3a10.66,10.66,0,0,0-6.37-.63L70.8,38a10.64,10.64,0,0,0-4.36,2h0l0,0-.09.06-.18,0A19.34,19.34,0,0,1,65,38a13.35,13.35,0,0,1,13.9-2.74A12.32,12.32,0,0,1,78.6,38.3Z" fill="#0082f7"/>
        <path d="M88,28c-1.08,1.87-3,2.75-4.39,2l-.15-.09A.34.34,0,0,0,83,30l-2.29,2.38a2,2,0,0,0-.56,1.29h0a1.36,1.36,0,0,0,1,1.37l4.28,1.19a.69.69,0,0,1,.53.9c-.07.36,0,1.26-.85,1.25l-5.83-1.67L78.6,38.3l.28-1.74a11.31,11.31,0,0,0,0-2.18h0a.4.4,0,0,0,.49-.3l.16-.71a3.41,3.41,0,0,1,1-1.7l1.94-1.88a.81.81,0,0,0,.18-.93,4.12,4.12,0,0,1,.31-3.69c1.07-1.86,2.67-2.67,4-1.89A3.53,3.53,0,0,1,88,28Z" fill="#3a424d"/>
        <path d="M69.71,73a2.76,2.76,0,0,0,.08-.27c0,.09-.05.18-.07.27Z" fill="#0185cf"/>
      </g>
    </g>
  </g>
</svg>
