<svg id="Layer_1" data-name="Layer 1" xmlns="http://www.w3.org/2000/svg" viewBox="0 0 250 300"><defs><style>.cls-1{fill:#0096f9;}.cls-2{fill:#2d3541;}.cls-3{fill:#141619;}.cls-4{fill:#3a424d;}.cls-5{fill:#da8e68;}.cls-6{fill:#0185cf;}.cls-7{fill:#0082f7;}.cls-8{fill:#64cefc;}.cls-9{fill:#fefefe;}.cls-10{fill:#0161ad;}</style></defs><title>BiRideDriver</title><path class="cls-1" d="M198.11,131.14c7.25,6.54,11.11,15.17,14.67,24a121.76,121.76,0,0,1,7.35,27.6,45,45,0,0,1,.71,11.76,1.71,1.71,0,0,1-.47-.12c-7.55-4-15.58-4.7-23.82-3.11-9.75,1.87-17.93,6.44-24,14.51-4.51,6-7.1,12.83-9.25,19.89-2.59,8.49-5.24,16.95-10,24.58-3.79,6.06-8.81,10.53-15.8,12.45-5,1.36-10.12.79-15.2.81-3.08-.32-6-1.23-9.06-1.84a203.8,203.8,0,0,1-28.08-7.93c-6.47-2.29-12.37-5.32-17-10.59a34.11,34.11,0,0,1-6.75-11.88.42.42,0,0,1,.17-.56l0,0a81.07,81.07,0,0,0,9.11,4.26l0,0a.89.89,0,0,0,.91.38l.09,0a3.41,3.41,0,0,0,1.91,1l0,0c.37.2.72.44,1.1.6a161.19,161.19,0,0,0,21.79,7.53c2.68.74,5.26,2,8.15,1.62.79.54,1.85.34,2.6,1-.27,1.15.75,1,1.31,1.21,5.67,1.88,11.31,4,17.34,4.43,3.4.26,6.79.14,9.63-2.19a10.74,10.74,0,0,0,5.79-5.55,27.33,27.33,0,0,0,2.37-5.3c2.95-9.36,3.84-19,4.19-28.76.17-4.71,0-9.42-.21-14.14-.34-7.41-1.18-14.76-2.13-22.1s-1.41-14.5-.25-21.78A30.37,30.37,0,0,1,150,141c.31-.62,1.15-1,.91-1.87l4.23-4a2,2,0,0,0,1.36-.88v0l.6-.43A42.94,42.94,0,0,1,180.21,128c4.47.15,8.63,1.75,12.95,2.6A11.1,11.1,0,0,0,198.11,131.14Zm-18.24,18.74a14,14,0,0,0,.35,4.15c1,4.63,2.76,8.89,6.78,11.64a10.61,10.61,0,0,0,12.09.35c4.28-2.54,5.94-6.65,5.7-11.3a21.78,21.78,0,0,0-7.18-15,10.1,10.1,0,0,0-15,.68C180.41,143.06,179.75,146.28,179.87,149.88Z"/><path class="cls-2" d="M69.85,148.65a159.71,159.71,0,0,1,3.08-16.81c.15-.69.83-1.54-.58-2-7.93-2.8-10.16-10.74-8.62-17.91A168,168,0,0,1,74.4,80c3.35-7.68,8.84-12.69,17-14.88,4-1.09,8-2.52,12-3.89.81-.28,1.64-.31,2.45-.56,2.23-.71,1.88-2.9,2.78-4.35.45,0,.76.19.8.69,1,1.89,2,3.77,3.13,5.57,3.9,6,9.34,10.08,15.55,13.33,1,.52,1.38.26,1.66-.76a25,25,0,0,1,2.7-5.84c1.1.9,2.61.6,3.8,1.27l.19.1c.14.69.71.45,1.14.52,6.89,3.23,11.85,8.43,15.58,15a84.06,84.06,0,0,0,10.11,14c.29.33.61.63.5,1.12-.47.13-.72.57-1.21.73a19,19,0,0,0-11.63,9.79s-.06-.09-.1-.12-.14,0-.15,0a5.6,5.6,0,0,0-.76,2.55c0,.66-.14,1.31-1,1.44-3.25-2-5.58-5.09-8.28-8.06-.29,2.44-.54,4.56-.78,6.68l-.72,6.44a14,14,0,0,1-4.86,1.35l0-.92c.07-2-.57-3.91-.83-5.88-.06-.47-.06-1.11-.73-1.3h0c.14-.35-.06-.52-.34-.65h0A.34.34,0,0,0,132,113h0a1.45,1.45,0,0,0-1.3-.66l0,0a33.82,33.82,0,0,0-7.81-2.29h0a62.74,62.74,0,0,0-6.82-2.42c-.57-.2-1.12-.31-.94-1.18.75-3.68-1.52-6-4-8.06a11.52,11.52,0,0,0-5.5-2.17,10.88,10.88,0,0,0-12.17,6.63A9,9,0,0,0,96,112.49c4.82,4.09,10.66,3.89,15.86-.52a2.08,2.08,0,0,1,2.23-.52l0,0a2.38,2.38,0,0,0,1.64.57l2.84.74a7.35,7.35,0,0,0,1.29.57c3.92.82,7.66,2.21,11.48,3.35h0c.29,2.15-.29,4.27-.33,6.41l-2.56,1.1a2.5,2.5,0,0,0-1.33,0,19.36,19.36,0,0,0-2.87-1c-5.3-1.08-10.15.43-14.73,2.91a11.57,11.57,0,0,0-5.83,6.84,8.64,8.64,0,0,0-.42,3.19c0,4.93,3.8,7.85,8.55,6.6a8.52,8.52,0,0,1,2.06-.33c5.39,0,10.27-2,15.18-3.88,2.11.06,4.09-.79,6.17-.92-.08.86-.13,1.72-.25,2.57-.48,3.42-.55,6.89-1.29,10.27-2.49.05-5,0-7.47.18-4,.37-7.93,1.11-11.85-.38a11.55,11.55,0,0,0-2.23-.39c-3.21-.5-6.46-.47-9.68-.73a83.52,83.52,0,0,0-9.22-.15c-4.29.14-8.57.53-12.85.87-2.44.19-4.84-.31-7.27-.32v0C72.1,148.76,70.92,149,69.85,148.65Z"/><polygon class="cls-3" points="131.31 116.64 131.3 116.64 131.3 116.63 131.31 116.64"/><path class="cls-4" d="M140.64,107.6c-9.29-6.82-21.36-9.45-31.31-10.34a16.93,16.93,0,0,0-3.66-1,10.92,10.92,0,0,0-6.18.62h0a83.48,83.48,0,0,0-8.9.45c4-12.21-4-23.09-4-23.09L113.4,63.85c3.81,5.29,8.91,9,14.65,12,1,.52,1.39.27,1.67-.76a24.56,24.56,0,0,1,2.7-5.84c1.1.9,2.61.6,3.8,1.27l.09,0,.1,0a.11.11,0,0,0,0,.06.49.49,0,0,0,.42.43l8.24,8.32C136.62,88.12,140.64,107.6,140.64,107.6Z"/><path class="cls-2" d="M232.8,224l-.28-.12c0,.09-.12.2-.1.27s.17.08.26.12ZM14.4,226.47l-.11-.1a1.14,1.14,0,0,0-.1.19s.06.07.09.1ZM234,226c-.53-.28-1.49-.91,0-1.26,0-.74-.58-1.12-.92-1.66-.91,0-1.82,0-2.73,0-6.15.19-12.19-.86-18.27-1.46-7.32-.73-14.64-.85-21.8,1-7.58,1.94-13.05,6.76-17,13.39-.17.28-.3.58-.48.85-1,1.52-1.54,1.57-2.84.23-2.4-1.93-2.9-4.7-3.16-7.52a25,25,0,0,1,0-4.58c-.67,2.52-1.33,5-2,7.56-2,7.33-4.48,14.46-9,20.64-6.74,9.13-15.54,13.59-27.08,11.69a41.69,41.69,0,0,1-6.46-1.37c-3.08-.32-6-1.23-9.06-1.84a203.27,203.27,0,0,1-28.07-7.93c-6.48-2.29-12.38-5.31-17-10.59a33.93,33.93,0,0,1-6.74-11.88.41.41,0,0,1,.16-.56,2,2,0,0,0-1.33-1,35.79,35.79,0,0,1-7.48-3.33,1.7,1.7,0,0,0-1.24-.23c-.24,1.34-1.85,1.41-2.33,2.53.16,0,.37.08.48,0,1.86-1.27,2-.54,1.6,1.25a5.22,5.22,0,0,0,.26,2.55c1.29,5.13,2.49,10.27,5,15a12.15,12.15,0,0,0,6.21,5.86,4.31,4.31,0,0,1,1.74,1c-5.05.67-7.83-2.37-10.28-6.06a124.38,124.38,0,0,1-7.26-13c-.26-.5,0-.82.14-1.2.24-.55.45-1-.43-1.19-.13,1-.5,1.15-1.4.61C41.52,231.2,37.76,229,34,226.87c-.41-.24-.86-.42-1.29-.63-.08.35-.13.77-.64.65s-.33-.55-.37-.89c-1.91.17-3.64-.68-5.41-1.15s-3.73-.52-5.53-1.09a3.31,3.31,0,0,0-2.06.33,2.17,2.17,0,0,1-1.81.11,3.36,3.36,0,0,1,1.16-1.62c4.13-3.43,7.57-7.56,11.64-11.05a16.84,16.84,0,0,1,5.67-3.25l-17.49-9.6c-.28-.15-.73-.76-.92.12a8.81,8.81,0,0,0,.45,3.19,2.19,2.19,0,0,1-.32,2.39c-2.15,3.36-4.23,6.76-6.32,10.16a110.46,110.46,0,0,0-6.39,11.58,1.94,1.94,0,0,0,.3,2.37c.68.69,1.44.5,2.25.21,1.86-.67,3.74-1.3,5.62-1.9a1.91,1.91,0,0,1,1.54-.06,2.69,2.69,0,0,1-.16.5c-3.38,6.43-2.86,10.71,2,16a1.78,1.78,0,0,1,.48,1.45,49.5,49.5,0,0,0,1.31,14c1.64,6.82,4.37,13.15,9,18.5.31-1.19-.73-1.75-1.26-2.48a46.05,46.05,0,0,1-7.79-19.14,53.75,53.75,0,0,1-.62-11,15.57,15.57,0,0,1,5.19,2.48c1.74,1.27,4,1.61,5.57,3.06,3.55.63,6.43,2.55,9.2,4.72A31.29,31.29,0,0,0,55.5,261.5c1,0,1.36.19.71,1.15a14.37,14.37,0,0,0-.68,1.29.69.69,0,0,0,.9-.49c.88-2.76,3.32-2.71,5.18-2.16,2.61.79,5.51.77,7.83,2.25,1.71,1.09,3.9,1.57,5,3.53a1.25,1.25,0,0,1,1.34-.23,74.51,74.51,0,0,0,15.62,1.49c4.49.08,9,.13,13.45.62,4.29.47,8.59.81,12.87,1.34s8.8.9,13.2,1.4c5.25.59,10.47,1.47,15.73,1.82a64.55,64.55,0,0,0,23.77-2.94c1.67-.53,3.31-1.29,5.13-1.22h0c.11-1.93-.82-3.64-1.19-5.48-1.59-8-1.48-15.84,1.72-23.47,1.47-3.49,4.4-5.62,7.25-7.87,1.2-.94,2.92-1.29,3.58-3.25.88,3.68,2.82,6.78,2.75,10.44h0c1.26,2.35,1.77,5,2.83,7.43.3.68.42,1.44.74,2.11a10.9,10.9,0,0,1,.89,6.77,10.59,10.59,0,0,0,2.27,8.45,1.79,1.79,0,0,0-.29-1.55c-1-1.53,0-1.45,1.08-1.45,2.9,0,5.71-3,6.54-5.69.94-3-.54-5.33-1.36-7.87-.17-.52-.4-1-.57-1.52-.27-.85-.18-1.38.9-1.61a12,12,0,0,1,5.4-.08,3,3,0,0,0,1.43.1h0c-1.84-1.23-3.87-1-5.9-.76-2.73.38-2,.91-3-1.8-1.2-3.26-2.29-6.56-3.5-9.82-.27-.72-.34-1,.53-1.22,5.89-1.63,11.58-1.47,17,1.73,0-1-.83-1.12-1.48-1.43a18.68,18.68,0,0,0-7-1.72c2.56-1.76,4.93-1.05,7.18-.35a24.82,24.82,0,0,0,13.19.32c2.11-.48,4.31-.1,6.47-.17.88,0,1.92,0,2.14-1A2.14,2.14,0,0,0,234,226Z"/><path class="cls-4" d="M26.79,161.12l.27-.27c1.22.23,1.92-1,3.16-1,1.77.08,2.64-1.1,2.49-3a.2.2,0,0,1,.15-.18,3.7,3.7,0,0,0,2.7-2.7h0c.31,0,.63.05.49-.44l.11-.07a.78.78,0,0,0,1-.06c2.53-1.91,5.65-1.2,8.45-1.89,1.41-.35,3,.07,4.5.15,6,.35,11.89,1.24,17.81,2,2,.27,2.18.1,2.19-2s0-2.17,2.12-2.2l.81,0v0a4.32,4.32,0,0,0,2.73.7c4,.07,8-.34,12-.56a122.54,122.54,0,0,1,12.28-.18,105.48,105.48,0,0,1,15,1.4c4,.76,7.4,2.41,9.83,5.93a27.55,27.55,0,0,1,4,7.58c1.59,5.28,2.8,10.61,1.4,16.16a6.58,6.58,0,0,0-.14,1.6c.05,3.79.06,7.57.24,11.36.4,8.43-.43,16.84-.93,25.25a44.89,44.89,0,0,1-.71,6.58c-.33,1.56.22,3.29-.86,4.7l0,0a4.71,4.71,0,0,0-2.34.47c-3.56,1.1-7.13,1.9-10.9,1.14a26.81,26.81,0,0,0-5-1l-.09,0c0-2.43.54-4.88-.52-7.23a14,14,0,0,0-.28-3.93c.27,0,.6-.17.51-.47a16.94,16.94,0,0,1-.26-4.26c0-.42-.13-.72-.59-.78l-.37-2.3c1.11-.33.66-1.27.59-1.9-.45-4.22-.59-8.47-1-12.69-.14-1.41.32-3-.85-4.28a9.16,9.16,0,0,0-.7-3.65,90.93,90.93,0,0,0-1.06-9.46c-.14-1.16-.92-1.48-2.06-1.59-3.8-.35-7.59-.79-11.35-1.47-3-.53-6-.94-9-1.4a159.76,159.76,0,0,0,16.64,13c-1.77-.16-3.18-.2-4.55-.43A111.09,111.09,0,0,1,75.44,183a3.27,3.27,0,0,0-1.74-.28l0,0c-.59-1-1.6-1-2.59-1v0c-.21-.47-.61-.37-1-.35v0c-.48-1-1.4-.93-2.27-1h0c-2.11-1-4.13-2.3-6.54-2.56l0,0c-.41-1.09-1.37-1-2.25-1v0a8.38,8.38,0,0,0-5.19-2.3l0,0a9.49,9.49,0,0,0-5.83-2.32v0a1.9,1.9,0,0,0-2.53-.78c-.24,1.09,1.13.89,1.31,1.65a10.77,10.77,0,0,1-3.91.78c-4,.28-8,.63-11.79-1.25a.59.59,0,0,0-.73.13.19.19,0,0,1-.17-.14c.22-.52-.15-.45-.44-.46l-.92-.93c0-.3,0-.65-.46-.46a.23.23,0,0,1-.12-.15c.41-.84,0-1-.78-1l.07-.05-.06.06c.22-.71-.22-1.23-.5-1.81-.76-1.55-1.53-3.11-.81-4.9C26.34,162.4,27,161.93,26.79,161.12Z"/><path class="cls-4" d="M239.19,281.75c4.19-6.63,6-14,6.43-21.7a53,53,0,0,0-.58-12,47.37,47.37,0,0,0-5.83-16.27h0l-.06,0,.05-.06c-1.05.08-1.06-.93-1.39-1.47-.7-1.17-1.94-2.06-1.94-3.6l-1.78-2c-1.53.35-.57,1,0,1.26a2.14,2.14,0,0,1,1.07,2.6c-.22,1-1.26,1-2.14,1-2.16.07-4.36-.31-6.47.17a24.82,24.82,0,0,1-13.19-.32c-2.25-.7-4.62-1.41-7.18.35a18.68,18.68,0,0,1,7,1.72c.65.31,1.48.44,1.48,1.43h0l1.35,1,.61.55L218,235.9a.2.2,0,0,0,.13.14l.46.46.54.62a1.68,1.68,0,0,0,.76,1l.23.29c.24.32.47.66.7,1h0a33.46,33.46,0,0,1,4.66,18.14,43.27,43.27,0,0,1-2.73,13.64h0c-.26.14-.25.41-.32.66h0c-.27.13-.27.41-.34.65l0,0h0l-.34.64h0l0,.16,0-.16h0a4.28,4.28,0,0,0-1,1.62h0l.06.08-.06-.07h0c-.31.44-.62.88-.94,1.31h0a3.36,3.36,0,0,0-1,1.32l-2.21,2.21-.39.34a0,0,0,0,1,0,0h0v0a1.69,1.69,0,0,0-.95.69h0v0h0l-.95.64v0h0l-1,.62h0l.06.05-.07-.05h0c-5.1,2.45-10.16,2.17-15.19-.28h0l-.64-.36,0,0h0a0,0,0,0,0,0,0l-1-.64h0v0l-1.65-1.33L193,277.41l-.41-.4-.21-.26-.74-1h0v0l-1.29-1.94h0l-.62-1h0c-.16-.39-.31-.8-.5-1.17a30.77,30.77,0,0,1-3.36-11.29,36,36,0,0,1,3.21-19.64h0c-.1-.52-.14-1,.62-1,.07-3.66-1.87-6.76-2.75-10.44-.66,2-2.38,2.31-3.58,3.25-2.85,2.25-5.78,4.38-7.25,7.87-3.2,7.63-3.31,15.48-1.72,23.47.37,1.84,1.3,3.55,1.19,5.48h0a45.78,45.78,0,0,0,9.16,18l.24.27a7.81,7.81,0,0,0,1.72,2l1.6,1.57a5.18,5.18,0,0,0,1.61,1.37,14.72,14.72,0,0,0,3.57,2.6h0l.06-.05-.05.05h0a16,16,0,0,0,4.31,2.21l.11,0c9.36,4,18.46,3.48,27.28-1.63h0a4.24,4.24,0,0,0,1.63-1h0l1.3-.95h0a3.21,3.21,0,0,0,1.3-1v0h0v0a5.93,5.93,0,0,0,1.65-1.34l.93-.9c.58-.56,1.15-1.13,1.72-1.7l1.2-1.28,1.08-1.32.23-.27a17.8,17.8,0,0,0,3-4.27Zm-49.3,10.75h0l.06-.05Z"/><polygon class="cls-4" points="175.56 269.35 175.56 269.35 175.55 269.34 175.56 269.35"/><polygon class="cls-4" points="189.06 240.72 189.05 240.73 189.05 240.72 189.05 240.72 189.06 240.72"/><polygon class="cls-4" points="189.67 239.71 189.68 239.71 189.67 239.72 189.67 239.71"/><path class="cls-4" d="M189.71,272.82h0Z"/><polygon class="cls-4" points="189.94 292.44 189.89 292.5 189.88 292.5 189.88 292.5 189.87 292.5 189.88 292.49 189.94 292.44"/><path class="cls-4" d="M190.34,273.82h0Z"/><path class="cls-4" d="M191.64,275.78h0v0Z"/><polygon class="cls-4" points="193.52 295.06 193.47 295.11 193.46 295.12 193.46 295.11 193.45 295.11 193.46 295.11 193.52 295.06"/><path class="cls-4" d="M196.54,280.64h0v0Z"/><path class="cls-4" d="M197.52,281.29h0a0,0,0,0,0,0,0h0Z"/><polygon class="cls-4" points="198.15 281.64 198.13 281.64 198.13 281.63 198.15 281.64"/><polygon class="cls-4" points="213.39 281.97 213.32 281.92 213.31 281.92 213.31 281.91 213.31 281.91 213.32 281.91 213.33 281.92 213.39 281.97"/><path class="cls-4" d="M214.33,281.29h0v0h0Z"/><path class="cls-4" d="M215.3,280.63v0h0Z"/><path class="cls-4" d="M216.24,280h0v0h0A0,0,0,0,1,216.24,280Z"/><path class="cls-4" d="M219.86,276.09h0Z"/><polygon class="cls-4" points="220.86 274.84 220.8 274.77 220.79 274.76 220.79 274.76 220.79 274.75 220.8 274.76 220.86 274.84"/><path class="cls-4" d="M220.83,239.41h0Z"/><path class="cls-4" d="M221.76,273.13h0Z"/><path class="cls-4" d="M221.79,273.29l0-.16h0Z"/><path class="cls-4" d="M222.11,272.49h0l0,0Z"/><path class="cls-4" d="M222.45,271.85h0l0,0Z"/><path class="cls-4" d="M222.77,271.19h0l0,0Z"/><path class="cls-4" d="M225.18,295.72h0Z"/><path class="cls-4" d="M226.81,294.75h0Z"/><polygon class="cls-4" points="228.12 293.79 228.11 293.8 228.11 293.79 228.12 293.79"/><path class="cls-4" d="M229.42,292.8v0Z"/><polygon class="cls-4" points="239.2 281.74 239.19 281.75 239.19 281.75 239.19 281.75 239.2 281.74"/><polygon class="cls-4" points="239.21 231.79 239.21 231.79 239.2 231.8 239.14 231.85 239.19 231.79 239.2 231.78 239.2 231.79 239.21 231.79"/><path class="cls-1" d="M46.71,173.25c-.18-.76-1.55-.56-1.31-1.65l2.53.78v0a39.54,39.54,0,0,0,5.83,2.32l0,0a31.65,31.65,0,0,0,5.19,2.3v0a6.58,6.58,0,0,0,2.25,1l0,0,4.55,2.19c.1.19.16.43.32.55a32.39,32.39,0,0,1,6.53,7,45.62,45.62,0,0,1,9,20.94,31.2,31.2,0,0,1,.31,9.2c-.44,3.08-.94,6.16-1.42,9.24-1.33,0-2.52-.81-3.88-.69h0a33.5,33.5,0,0,0-5.3-1.73c-6.06-2-11.89-4.65-17.78-7.12v0c-.14-.3-.43-.27-.69-.32l0,0c-2-.89-3.66-2.34-5.89-2.57a4,4,0,0,0-2-1l-.29-.37,0,0c-.13-.27-.39-.31-.65-.35h0a15.19,15.19,0,0,0-3.88-2h0a10.68,10.68,0,0,0-2.95-1.6l0,0a.76.76,0,0,0-.66-.36h0c-.13-.29-.4-.3-.66-.35l-.07.08.08-.07c-.14-.28-.4-.29-.66-.33l0,0-17.49-9.6c-.28-.15-.73-.76-.92.12-1.63-2.15-.85-4.41-.23-6.61a27.29,27.29,0,0,1,11.31-16,31.45,31.45,0,0,1,4.06-1.92c2.13.14,4.26.31,6.39.42a27.84,27.84,0,0,0,6.88-.52C45.82,174.07,46.83,174.35,46.71,173.25Z"/><path class="cls-1" d="M109.38,57c0-.5-.35-.67-.8-.69a38.22,38.22,0,0,1-6.43-8.11c-4.76-8.87-4.44-17.83-.37-26.79,3-6.6,7.35-12.09,13.86-15.62C126,.16,139.88,1.46,149.22,8.93A31.18,31.18,0,0,1,161,30c.35,2.62.35,2.62-2.24,2.6l-3.58,0c-1.78-.87-3.73-.3-5.6-.56A204,204,0,0,1,127,27.67c-2.57-.59-5.14-1.2-7.72-1.75-2.31-.5-3.16,0-4,2.1a39,39,0,0,0-2,6.33c-.48,2.18-.83,4.52.55,6.4a37.32,37.32,0,0,0,12,10.45,24.76,24.76,0,0,0,4.05,2.34c6.4,3.17,13.07,5.07,20.3,4.37,1,0,2.06.09,3.08,0,1.24-.06,1.33.39.93,1.44-2.47,6.6-7.92,11.63-16.46,11-.49,0-1,0-1.46,0,0-.17,0-.26-.18-.17l.19.16a.28.28,0,0,1,0,.2c-1.19-.67-2.7-.37-3.8-1.27-.44-.19-.86-.41-1.31-.58a79.77,79.77,0,0,1-19.36-10.12C111,58,110.38,57.2,109.38,57Z"/><path class="cls-1" d="M233.16,223c-.91,0-1.82,0-2.73,0-6.14.19-12.19-.86-18.27-1.46-7.32-.73-14.64-.85-21.8,1-7.58,1.94-13.05,6.76-17,13.39-.17.28-.3.58-.48.85-1,1.52-1.54,1.57-2.84.24a16.62,16.62,0,0,1,.49-8,49.63,49.63,0,0,1,14.5-24.7,31.67,31.67,0,0,1,21.75-8.68,41.54,41.54,0,0,1,14.09,2.67c9.29,4.23,15.73,11.32,20.26,20.29,1,1.91.89,1.94-1.11,2.71C237.79,222.2,235.42,222.39,233.16,223Z"/><path class="cls-4" d="M55.53,263.94a.7.7,0,0,0,.9-.49c.88-2.76,3.32-2.71,5.18-2.16,2.61.79,5.51.77,7.83,2.25,1.71,1.09,3.89,1.57,5,3.53l-.73,1.59a5.83,5.83,0,0,0-1.88,4h0a3,3,0,0,0-2,2.95l-.06-.08.07.07c-1-.09-1.12.52-1,1.3h0c-1,.16-1.74.47-1.41,1.69l-.24.19c-.05-.17-.11-.18-.18,0l.14.06-.3.3c0-.18-.1-.19-.17,0l.13.08-.25.25-.17-.07.07.17a.19.19,0,0,1-.17.2c-1.27-.32-1.56.5-1.72,1.47l-.27.24a4,4,0,0,0-3.28,2.34l-.06-.07.07.06c-.33-.07-.62-.07-.61.39l-.07-.11.06.12c-1.43-.37-2.44.7-3.61,1.14a25.72,25.72,0,0,1-17.7.41c-1.36-.46-2.54-1.52-4.11-1.32l-.08,0-.44-.29,0,0c-.18-1.12-.94-1.41-2-1.33h0c.07-.8-.49-.72-1-.7l-.29-.24c-.35-1.2-.86-2.23-2.38-2.13a.18.18,0,0,1-.11-.14l0-.21-.2.06a.17.17,0,0,1-.18-.16c.18-1.33-.65-1.8-1.75-2h0c.31-1.19-.73-1.75-1.26-2.48a46.05,46.05,0,0,1-7.79-19.14,54.47,54.47,0,0,1-.62-11,15.57,15.57,0,0,1,5.19,2.48c1.74,1.27,4,1.6,5.57,3.06a1.65,1.65,0,0,1-.07.32,1.34,1.34,0,0,0-.28,1.36,27.53,27.53,0,0,0,4.75,12.31,1.17,1.17,0,0,0,1.22.61l2.2,2.21c0,1,.51,1.16,1.33,1h0c-.06.82.46.74,1,.65h0c-.09.37.08.59.39.8,3,2,9.58,2,12.44,0a.67.67,0,0,0,.35-.81l.11.07-.11-.07c.83.2,1.38,0,1.36-1L54.06,266c1.22-.16,1.74-.8,1.46-2Z"/><path class="cls-5" d="M127,27.67A204,204,0,0,0,149.58,32c1.87.26,3.82-.31,5.6.56-.17,7.91-2.31,15.44-4.42,23l-.63,2.35c-7.23.7-13.9-1.2-20.3-4.37a24.76,24.76,0,0,1-4.05-2.34c-.1-1-.21-2-.3-3.05a56.56,56.56,0,0,1,.22-11.41C126,33.7,126.6,30.7,127,27.67Z"/><path class="cls-6" d="M150.9,111.81a19,19,0,0,1,11.63-9.8c.49-.16.74-.6,1.21-.73,2.11,0,4.06-.81,6.13-1a23.73,23.73,0,0,1,16.93,3.88c.27.19.57.33.85.49l1.92,2v0l.35.36h0c0,.54.42.78.83,1l.1.06a.6.6,0,0,0,.36.57v0c.69,1,.88,2.32,1.87,3.16.13.67,0,1.42.51,2l.51,3.84a15.26,15.26,0,0,1-1.79,0,61.46,61.46,0,0,0-18.51.87,72.76,72.76,0,0,0-20.52,7.3l-2.64-7.3a4.28,4.28,0,0,0-.39-2A10.66,10.66,0,0,1,150.9,111.81Z"/><path class="cls-7" d="M220.86,198.35a41.54,41.54,0,0,0-14.09-2.67A31.67,31.67,0,0,0,185,204.36a49.63,49.63,0,0,0-14.5,24.7,16.62,16.62,0,0,0-.49,8c-2.4-1.94-2.9-4.71-3.16-7.53a25,25,0,0,1,0-4.58c-.67,2.52-1.33,5-2,7.55-2,7.34-4.48,14.47-9,20.65-6.74,9.13-15.54,13.59-27.08,11.69a41.69,41.69,0,0,1-6.46-1.37c5.08,0,10.21.55,15.2-.81,7-1.92,12-6.39,15.8-12.45,4.76-7.63,7.41-16.09,10-24.58,2.15-7.06,4.74-13.9,9.25-19.89,6.08-8.07,14.26-12.64,24-14.51,8.24-1.59,16.27-.93,23.82,3.11a1.71,1.71,0,0,0,.47.12A19.55,19.55,0,0,1,220.86,198.35Z"/><path class="cls-4" d="M199.37,82.34l.88-.94.41-.42.26-.23.41-.35,0,0a3.16,3.16,0,0,0,.94-.1,7,7,0,0,1,6.36,0,3.15,3.15,0,0,0,.94.12,2.17,2.17,0,0,1,1,.92c0,.52-.09,1.06.71,1l0,0c-.05.32,0,.6.36.68l0,0c0,.62-.47,1.41.55,1.7,0,.67.75,1.23.33,2-.61,1.92-.09,4-.92,5.93a4.32,4.32,0,0,0-.61,2.6h0c-1.06.08-1,.85-1,1.62l0,0-.33.38,0,0-.36.36,0,0c-.73-.06-1.07.27-1,1h0c-.27,0-.6-.1-.8,0a7.41,7.41,0,0,1-7.08.66c-.48-.21-.65.22-.64.66L198.52,101a8.9,8.9,0,0,0-4.3,4.3L193,106.85c-1.1.05-.67,1.69-1.79,1.72v0c.08-.32.14-.62-.36-.57l-.1-.06c.33-.84-.13-1-.83-1h0a.37.37,0,0,0-.35-.36v0c.16-1-1.22-1.38-1-2.41h0c.28,0,.64.06.42-.43a.19.19,0,0,1,.22-.16c.06.18.13.18.2,0l-.14-.08.18-.25c.49.24.43-.13.44-.41l0,0,.36-.37.29-.27c.29,0,.64,0,.46-.47l.1-.09c1.56-.1,2.29-1.11,2.72-2.46L195.09,98c.72,0,1.55.09,1.07-1.09a.19.19,0,0,1,.22-.17l.17.07-.06-.17a.17.17,0,0,1,.16-.19c1.75.11,1.88-.09,1.28-1.59a8.25,8.25,0,0,1-.51-2.53,37.57,37.57,0,0,1,.63-7.71l0,0c.38-.11.39-.41.36-.73a.53.53,0,0,1,.3-.57C199.44,83.38,199.41,82.86,199.37,82.34Z"/><path class="cls-5" d="M194.05,117.55l-.51-3.84c1.8-.53,3.53-1.39,5.47-1.23a7.84,7.84,0,0,1,7.55,8.28c0,.43,0,.86,0,1.29-.69,1-.62,2.2-1.08,3.25-.17.36-.34.72-.52,1.07-1.58,2.61-4.09,3.89-6.86,4.78a11.25,11.25,0,0,1-5-.58A45.2,45.2,0,0,0,194.05,117.55Z"/><polygon class="cls-2" points="239.21 231.79 239.21 231.79 239.2 231.8 239.2 231.79 239.2 231.78 239.21 231.79"/><path class="cls-2" d="M73.07,149.46l-.81,0c-2.11,0-2.11,0-2.12,2.2S70,154,68,153.7c-5.92-.79-11.83-1.68-17.81-2-1.5-.08-3.09-.5-4.5-.15-2.8.69-5.92,0-8.45,1.89a.78.78,0,0,1-1,.06,16.18,16.18,0,0,1,9.22-2.5,89.53,89.53,0,0,1,13.58,1c3.46.47,6.92.91,10.42,1.36l.48-4.65C70.92,149,72.1,148.76,73.07,149.46Z"/><path class="cls-2" d="M225.18,295.72h0Z"/><path class="cls-2" d="M35.06,284.35c1.57-.2,2.75.86,4.11,1.32a25.72,25.72,0,0,0,17.7-.41c1.17-.44,2.18-1.51,3.61-1.14C52,288.7,43.57,289.1,35.06,284.35Z"/><polygon class="cls-2" points="175.56 269.35 175.56 269.35 175.55 269.35 175.55 269.34 175.56 269.35"/><path class="cls-2" d="M205.49,125.3c.46-1,.39-2.27,1.08-3.25,2.21.47,4.44.85,6.61,1.44s2.29,1.54.93,3.26l-.07-.07c.27-2.28.07-2.51-2.2-2.93-1.21-.23-2.42-.46-3.6-.8-1-.29-1.63-.24-1.81,1-.08.53-.16,1.21-.84,1.46Z"/><path class="cls-2" d="M198.05,84.63a37.57,37.57,0,0,0-.63,7.71,8.25,8.25,0,0,0,.51,2.53c.6,1.5.47,1.7-1.28,1.59a1.65,1.65,0,0,0,.55-1.94C196.46,91.16,196.39,87.81,198.05,84.63Z"/><path class="cls-2" d="M46.71,173.25c.12,1.1-.89.82-1.34.91a27.84,27.84,0,0,1-6.88.52c-2.13-.11-4.26-.28-6.39-.42l-1.82-1.35a.59.59,0,0,1,.73-.13c3.77,1.88,7.79,1.53,11.79,1.25A10.77,10.77,0,0,0,46.71,173.25Z"/><path class="cls-2" d="M26.79,161.12c.23.81-.45,1.28-.7,1.92-.72,1.79.05,3.35.81,4.9.28.58.72,1.1.5,1.81a8.65,8.65,0,0,1-2.21-4.51A4.26,4.26,0,0,1,26.79,161.12Z"/><path class="cls-2" d="M205,126.37c.18-.35.35-.71.52-1.07l.1.09a.64.64,0,0,0,.59.64c2.61.39,5.18,1.14,7.86.65l.07.07c-.43.74-1.15.69-1.85.66A49.8,49.8,0,0,1,205,126.37Z"/><path class="cls-2" d="M199.75,99.76c0-.44.16-.87.64-.66a7.41,7.41,0,0,0,7.08-.66c.2-.11.53,0,.8,0a6.92,6.92,0,0,1-7.47,1.37A1.09,1.09,0,0,0,199.75,99.76Z"/><path class="cls-2" d="M210.86,95.18a4.32,4.32,0,0,1,.61-2.6c.83-1.92.31-4,.92-5.93C213.28,89.75,212.31,92.51,210.86,95.18Z"/><path class="cls-2" d="M32.71,156.85c.15,1.91-.72,3.09-2.49,3-1.24-.05-1.94,1.22-3.16,1a3,3,0,0,1,2.3-1.35C31.24,159.46,32,158.2,32.71,156.85Z"/><path class="cls-2" d="M191.16,108.57c1.12,0,.69-1.67,1.79-1.72a22.12,22.12,0,0,0,.08,4.88C192,110.89,191.85,109.58,191.16,108.57Z"/><path class="cls-2" d="M209.54,80.44a3.15,3.15,0,0,1-.94-.12,7,7,0,0,0-6.36,0,3.16,3.16,0,0,1-.94.1A6.85,6.85,0,0,1,209.54,80.44Z"/><path class="cls-2" d="M194.22,105.3a8.9,8.9,0,0,1,4.3-4.3A31.2,31.2,0,0,1,194.22,105.3Z"/><path class="cls-2" d="M239.21,231.79c-1.07.1-1.08-.93-1.41-1.47-.7-1.17-1.94-2.06-1.94-3.6A21.76,21.76,0,0,1,239.21,231.79Z"/><polygon class="cls-2" points="239.2 281.74 239.19 281.75 239.19 281.75 239.19 281.75 239.2 281.74"/><polygon class="cls-2" points="193.47 295.11 193.46 295.12 193.45 295.11 193.47 295.11"/><polygon class="cls-2" points="189.89 292.5 189.88 292.5 189.87 292.5 189.88 292.5 189.89 292.5"/><polygon class="cls-2" points="193.46 295.12 193.45 295.11 193.46 295.11 193.46 295.11 193.46 295.12"/><path class="cls-2" d="M71.83,272.64a5.83,5.83,0,0,1,1.88-4A10.08,10.08,0,0,1,71.83,272.64Z"/><path class="cls-2" d="M35.56,154a3.7,3.7,0,0,1-2.7,2.7A7.76,7.76,0,0,1,35.56,154Z"/><path class="cls-2" d="M61.09,283.73a4,4,0,0,1,3.28-2.34A11.55,11.55,0,0,1,61.09,283.73Z"/><path class="cls-2" d="M193.82,99.23c-.43,1.35-1.16,2.36-2.72,2.46A17.14,17.14,0,0,1,193.82,99.23Z"/><path class="cls-2" d="M29,279.66c1.52-.1,2,.93,2.38,2.13A9.13,9.13,0,0,1,29,279.66Z"/><path class="cls-2" d="M69.89,275.58a3,3,0,0,1,2-2.95A12.59,12.59,0,0,1,69.89,275.58Z"/><path class="cls-2" d="M26.75,277.18c1.1.23,1.93.7,1.75,2A8.29,8.29,0,0,1,26.75,277.18Z"/><path class="cls-2" d="M64.64,281.15c.16-1,.45-1.79,1.72-1.47Z"/><path class="cls-2" d="M67.5,278.55c-.33-1.22.46-1.53,1.41-1.69Z"/><path class="cls-2" d="M188.6,104.16c-.25,1,1.13,1.41,1,2.41l-1.92-2Z"/><path class="cls-2" d="M32.61,282.72c1-.08,1.77.21,2,1.33A5.93,5.93,0,0,1,32.61,282.72Z"/><path class="cls-2" d="M229.42,292.8v0Z"/><polygon class="cls-2" points="189.88 292.49 189.88 292.5 189.88 292.5 189.87 292.5 189.88 292.49"/><path class="cls-2" d="M225.18,295.72h0Z"/><path class="cls-2" d="M226.81,294.75h0Z"/><path class="cls-2" d="M209.85,96.79c0-.77,0-1.54,1-1.62A4.25,4.25,0,0,1,209.85,96.79Z"/><path class="cls-2" d="M196.16,96.92c.48,1.18-.35,1.08-1.07,1.09Z"/><path class="cls-2" d="M68.89,276.87c-.11-.78,0-1.39,1-1.3A2.88,2.88,0,0,1,68.89,276.87Z"/><polygon class="cls-2" points="228.12 293.79 228.11 293.8 228.11 293.79 228.12 293.79"/><path class="cls-2" d="M229.42,292.8v0Z"/><path class="cls-2" d="M226.81,294.75h0Z"/><polygon class="cls-2" points="228.12 293.79 228.11 293.8 228.11 293.79 228.12 293.79"/><path class="cls-8" d="M137.55,71.18c-.43-.07-1,.17-1.14-.52A1.53,1.53,0,0,1,137.55,71.18Z"/><path class="cls-2" d="M212.06,84.68c-1-.29-.51-1.08-.55-1.7A3,3,0,0,1,212.06,84.68Z"/><path class="cls-2" d="M27.39,169.74c.74,0,1.19.19.78,1Z"/><path class="cls-2" d="M208.25,98.44c-.08-.73.26-1.06,1-1A2,2,0,0,1,208.25,98.44Z"/><path class="cls-2" d="M211.2,82.35c-.8.07-.74-.47-.71-1A1.66,1.66,0,0,1,211.2,82.35Z"/><path class="cls-2" d="M31.63,282c.51,0,1.07-.1,1,.7Z"/><path class="cls-2" d="M199.37,82.34c0,.52.07,1-.69,1A2,2,0,0,1,199.37,82.34Z"/><path class="cls-2" d="M198.38,83.93c0,.32,0,.62-.36.73C198.07,84.38,198.06,84.07,198.38,83.93Z"/><path class="cls-2" d="M191,101.78c.18.48-.17.45-.46.47Z"/><path class="cls-2" d="M189.91,102.86c0,.28.05.65-.44.41Z"/><path class="cls-2" d="M189,103.74c.22.49-.14.43-.42.43Z"/><path class="cls-2" d="M29.67,172.31c.29,0,.66-.06.44.46Z"/><path class="cls-2" d="M28.29,170.92c.49-.19.45.16.46.46Z"/><path class="cls-2" d="M36,153.54c.14.49-.18.47-.49.44Z"/><path class="cls-2" d="M60.49,284.11c0-.46.28-.46.61-.39Z"/><path class="cls-2" d="M211.54,83c-.39-.08-.41-.36-.36-.68C211.47,82.47,211.47,82.76,211.54,83Z"/><path class="cls-2" d="M209.21,97.47l.36-.36Z"/><path class="cls-2" d="M209.54,97.14l.33-.38Z"/><path class="cls-2" d="M196.49,96.65l.06.17-.17-.07Z"/><path class="cls-2" d="M200.66,81l-.41.42Z"/><path class="cls-2" d="M201.33,80.4l-.41.35Z"/><path class="cls-2" d="M34.54,284l.44.29Z"/><path class="cls-2" d="M190.25,102.52l-.36.37Z"/><path class="cls-2" d="M189.29,103.52l.14.08c-.07.16-.14.16-.2,0Z"/><path class="cls-2" d="M67.22,278.78l-.14-.06c.07-.16.13-.15.18,0Z"/><path class="cls-2" d="M66.88,279.13l-.13-.08c.07-.16.14-.15.17,0Z"/><path class="cls-2" d="M28.68,279.37l.2-.06,0,.21A.61.61,0,0,1,28.68,279.37Z"/><path class="cls-2" d="M66.53,279.48l-.07-.17.17.07Z"/><path class="cls-7" d="M80.54,227c.48-3.08,1-6.16,1.42-9.24a31.2,31.2,0,0,0-.31-9.2,45.62,45.62,0,0,0-9-20.94,32.39,32.39,0,0,0-6.53-7c-.16-.12-.22-.36-.32-.54.69,0,1.26.61,2,.36h0c.57.77,1.47.77,2.27,1v0c.23.38.61.34,1,.35v0a5.28,5.28,0,0,0,2.59,1l0,0c.11.11.2.26.33.31a99.49,99.49,0,0,0,23,5.56,68.92,68.92,0,0,0,9,.56,9.16,9.16,0,0,1,.7,3.65,15,15,0,0,0,.22,3.21c.39,5.22.71,10.44,1,15.66l.37,2.3c-.22,1.85.4,3.66.34,5.51a14,14,0,0,1,.28,3.93,44.43,44.43,0,0,0,0,4.47c.08.91-.12,1.93.52,2.76l.09,0c1.54,1.27,3.49,1.2,5.29,1.45a22,22,0,0,0,13-2.1l0,0c.78,0,1-.44,1-1.15a9.72,9.72,0,0,1,0-1.62,206.75,206.75,0,0,0,1.93-27.35c.49,1,.2,2.13.32,3.19.76,6.64,1.42,13.29,2.23,19.92a85.07,85.07,0,0,0,1.91,11.44c2.06,3.46,3.84,7.07,6.12,10.4a10.74,10.74,0,0,1-5.79,5.55c-6-1.17-11.92-2.3-17.87-3.52-3.25-.68-6.47-1.52-9.71-2.29l-.12,0c.35-3.65.66-7.3,1.06-11,.13-1.26-.07-1.77-1.56-1.79a68.28,68.28,0,0,1-6.94-.71c-2.51-.3-5-1.11-7.51-1.13l-.28,0a3.61,3.61,0,0,0-1.93-.63C87.32,228.52,83.87,228,80.54,227Z"/><path class="cls-4" d="M130.79,199.84a206.75,206.75,0,0,1-1.93,27.35,9.72,9.72,0,0,0,0,1.62c0,.71-.24,1.16-1,1.15,1.08-1.41.53-3.14.86-4.7a44.89,44.89,0,0,0,.71-6.58c.5-8.41,1.33-16.82.93-25.25-.18-3.79-.19-7.57-.24-11.36a6.58,6.58,0,0,1,.14-1.6c1.4-5.55.19-10.88-1.4-16.16a27.55,27.55,0,0,0-4-7.58c-2.43-3.52-5.82-5.17-9.83-5.93a105.48,105.48,0,0,0-15-1.4,122.54,122.54,0,0,0-12.28.18c-4,.22-8,.63-12,.56a4.32,4.32,0,0,1-2.73-.7c2.43,0,4.83.5,7.27.31,4.28-.34,8.56-.73,12.85-.87a83.52,83.52,0,0,1,9.22.15c3.22.26,6.47.23,9.68.73a11.55,11.55,0,0,1,2.23.39c3.92,1.49,7.88.75,11.85.38,2.48-.22,5-.13,7.47-.18a44,44,0,0,1,11.69,2.36c-1.16,7.28-.69,14.52.25,21.78s1.79,14.69,2.13,22.1c.21,4.72.38,9.43.21,14.14-.35,9.73-1.24,19.4-4.19,28.76a27.33,27.33,0,0,1-2.37,5.3c-2.28-3.33-4.06-6.94-6.12-10.4a17.55,17.55,0,0,0,4.68.4c.81,0,1.14-.21,1.16-1.09.15-7-.14-14-.45-21-.33-7.51-.81-15-1.52-22.52-.29-3-.66-6-1-9a1.41,1.41,0,0,0-1.55-1.45,35.11,35.11,0,0,1-4.68-.44c-.65-.1-.84,0-.85.69Q130.92,189.92,130.79,199.84Z"/><path class="cls-4" d="M92.65,229.89l.28,0a1.41,1.41,0,0,0,1.14.52c4.35.64,8.64,1.74,13.08,1.76.71,0,1.49-.09,1.39,1q-.41,4.24-.83,8.49c-.09.94-.44,1.89.17,2.79l.12,0c-.23.79-.47,1.58-.7,2.36-.75-.63-1.81-.43-2.6-1-.51-.69-1.31-.35-2-.51a206.53,206.53,0,0,1-24.68-7.77c-1.44-.54-2.73-1.6-4.4-1.47l0,0a1.46,1.46,0,0,0-1.91-1l-.09,0c-.09-.65-.53-.43-.91-.38l0,0c0-.54-.45-.68-.83-.87-2-.94-4-1.91-6-2.82a3.58,3.58,0,0,0-2.3-.57l0,0a2,2,0,0,0-1.33-1,35.79,35.79,0,0,1-7.48-3.33,1.7,1.7,0,0,0-1.24-.23h0c0-.78-.51-.73-1-.62l0,0c-.06-.41-.34-.43-.66-.38v0c0-1.06-.76-.68-1.33-.66l0,0c-1-1.52-2.79-1.68-4.18-2.52-2.7-1.64-5.4-2.09-7.86.49-.52.55-1.61.58-1.53,1.67h0c-.6-.1-1.07,0-1,.76l-.3.19c-.79.08-1.68-.06-2,.95h0c-1.92.17-3.64-.68-5.41-1.15s-3.73-.52-5.53-1.09a3.31,3.31,0,0,0-2.06.33,2.17,2.17,0,0,1-1.81.11,3.31,3.31,0,0,1,1.16-1.62c4.13-3.43,7.57-7.56,11.64-11.05a16.84,16.84,0,0,1,5.67-3.25l0,0c.07.42.33.43.66.33l-.08.07.07-.07c.06.41.33.43.66.34h0c.07.4.35.42.66.36l0,0a3.44,3.44,0,0,0,2.95,1.6h0a4.94,4.94,0,0,0,3.88,2h0c.05.43.32.43.65.34l0,0,.29.37a4,4,0,0,1,2,1c1.84,1.15,3.63,2.38,5.89,2.57l0,0c.1.39.37.42.69.32v0c.06.78.76.87,1.26,1.08,5.75,2.44,11.44,5.05,17.45,6.83,1.42.43,2.8,1.2,4.37.94h0c1.48,1.1,3.28,1.21,5,1.54C85.31,228.51,88.87,229.81,92.65,229.89Z"/><path class="cls-9" d="M179.87,149.88c-.12-3.6.54-6.82,2.76-9.48a10.1,10.1,0,0,1,15-.68,21.78,21.78,0,0,1,7.18,15c.24,4.65-1.42,8.76-5.7,11.3a10.61,10.61,0,0,1-12.09-.35c-4-2.75-5.81-7-6.78-11.64A14,14,0,0,1,179.87,149.88Z"/><path class="cls-10" d="M194.05,117.55a45.2,45.2,0,0,1-.89,13c-4.32-.85-8.48-2.45-12.95-2.6a42.94,42.94,0,0,0-23.14,5.85,2.49,2.49,0,0,0-.93-1.63h0a.72.72,0,0,0-.34-.66v0a.72.72,0,0,0-.34-.67l0,0-.35-.67v0c-.05-.18-.07-.38-.34-.34h0c0-.3,0-.56-.33-.64h0a1.73,1.73,0,0,0-.65-1.63h0a2.8,2.8,0,0,0-.68-1.63h0a1.67,1.67,0,0,1,0-.31,72.76,72.76,0,0,1,20.52-7.3,61.46,61.46,0,0,1,18.51-.87A15.26,15.26,0,0,0,194.05,117.55Z"/><path class="cls-4" d="M128.41,124.14,131,123c.7.63.68,0,.69-.42a25.14,25.14,0,0,1,.31-4.82c.11-.48.18-1.14-.67-1.17h0c0-.88-.79-.8-1.28-1-2.14-.7-4.3-1.36-6.47-2-1.65-.45-3.25-1.15-5-1l-2.84-.74c-.27-1-1.06-.47-1.64-.57l0,0c-.36-2.18,1.12-3.51,3.15-2.9,1.88.56,3.64,1.61,5.69,1.51h0a22.76,22.76,0,0,0,7.81,2.29l0,0c.19.69.71.76,1.3.66h0l.33.34h0c0,.29,0,.55.34.65h0c.19,2.26,1.08,4.41,1,6.71,0,.31.29.42.57.47l0,.92c.64.71,1.37.34,2.09.18l12.88-2.89c.53-.12,1-.37,1.29.43.45,1.43.94,2.85,1.47,4.25.27.73.28,1.64,1.2,2h0c0,.65-.19,1.36.68,1.63h0a1.54,1.54,0,0,0,.65,1.63h0c0,.29,0,.55.33.64h0l.33.34v0c0,.29,0,.56.35.67l0,0c0,.29,0,.56.34.67v0c0,.29,0,.56.34.66h0l.33,2.06v0c-.65,0-1.2.13-1.36.88l-4.23,4c-.39.09-.34.71-.78.69-.55-1.53-1.09-3-1.64-4.55-.36-1-.26-1.62.86-2a19.55,19.55,0,0,0,2.72-1.42c.32-.18.7-.42.62-.86s-.54-.23-.81-.34c-1.53-.67-3.29.47-4.79-.6-.15-.11-.51.07-.77.14-4.39,1.1-8.78,2.19-13.16,3.32-1,.27-1.56.24-1.5-1.1s.23-2.69-1-3.62l.06-.05c0-.38.13-.78-.34-1h0l-.34-.34v0c0-.3,0-.56-.34-.67v0c.05-.3,0-.56-.34-.65l0,0c.11-.52-.13-.71-.62-.66h0l-.35-.35v0Z"/><path class="cls-9" d="M107.3,246.89c.23-.78.47-1.57.7-2.36,3.24.77,6.46,1.61,9.71,2.29,6,1.22,11.91,2.35,17.87,3.52-2.84,2.33-6.23,2.45-9.63,2.19-6-.45-11.67-2.55-17.34-4.43C108.05,247.92,107,248,107.3,246.89Z"/><path class="cls-2" d="M150,141c-1-1.84-1.36-3.93-2.12-5.87-.17-.43-.23-1.11-1.06-.87-3.86,1.12-7.85,1.81-11.6,3.3-2.09.13-4.07,1-6.18.92a10.77,10.77,0,0,0,1.58-9.71c1.27.93,1.09,2.35,1,3.62s.46,1.37,1.5,1.1c4.38-1.13,8.77-2.22,13.16-3.32.26-.07.62-.25.77-.14,1.5,1.07,3.26-.07,4.79.6.27.11.73-.08.81.34s-.3.68-.62.86a19.55,19.55,0,0,1-2.72,1.42c-1.12.4-1.22,1.06-.86,2,.55,1.51,1.09,3,1.64,4.55.44,0,.39-.6.78-.69C151.13,140,150.29,140.33,150,141Z"/><path class="cls-2" d="M73.66,236.17c1.67-.13,3,.93,4.4,1.47a206.53,206.53,0,0,0,24.68,7.77c.65.16,1.45-.18,2,.51-2.89.36-5.47-.88-8.15-1.62a161.19,161.19,0,0,1-21.79-7.53C74.38,236.61,74,236.37,73.66,236.17Z"/><path class="cls-2" d="M61.6,230.63a3.58,3.58,0,0,1,2.3.57c2,.91,4,1.88,6,2.82.38.19.82.33.83.87A81.07,81.07,0,0,1,61.6,230.63Z"/><path class="cls-2" d="M156.47,134.25l-.33-2.06a2.49,2.49,0,0,1,.93,1.63Z"/><path class="cls-2" d="M71.73,235.23a1.46,1.46,0,0,1,1.91,1A3.41,3.41,0,0,1,71.73,235.23Z"/><path class="cls-2" d="M155.12,135.11c.16-.75.71-.89,1.36-.88A2,2,0,0,1,155.12,135.11Z"/><path class="cls-2" d="M70.73,234.87c.38-.05.82-.27.91.38A.89.89,0,0,1,70.73,234.87Z"/><path class="cls-5" d="M130.6,128.72a10.77,10.77,0,0,1-1.58,9.71c-4.91,1.89-9.79,3.85-15.18,3.88-.88-.66-1-1.73-1.33-2.65-1.63-4.18-4.91-6.71-8.86-6.81a11.57,11.57,0,0,1,5.83-6.84c4.58-2.48,9.43-4,14.73-2.91a19.36,19.36,0,0,1,2.87,1l1.29,1v0l.35.35h0c.13.29.21.62.62.66l0,0c-.11.33.08.51.34.65v0a.74.74,0,0,0,.34.67v0c.05.17.06.39.34.34h0a.85.85,0,0,0,.34,1Z"/><path class="cls-4" d="M122.89,110.06c-2,.1-3.81-1-5.69-1.51-2-.61-3.51.72-3.15,2.9a2.08,2.08,0,0,0-2.23.52c-5.2,4.41-11,4.61-15.86.52a9,9,0,0,1-2.46-9.63,10.88,10.88,0,0,1,12.17-6.63,11.52,11.52,0,0,1,5.5,2.17c2.44,2.08,4.71,4.38,4,8.06-.18.87.37,1,.94,1.18A62.74,62.74,0,0,1,122.89,110.06Z"/><path class="cls-2" d="M109.38,57c1,.21,1.59,1,2.37,1.6a79.77,79.77,0,0,0,19.36,10.12c.45.17.87.39,1.31.58a25,25,0,0,0-2.7,5.84c-.28,1-.68,1.28-1.66.76-6.21-3.25-11.65-7.35-15.55-13.33C111.34,60.76,110.37,58.88,109.38,57Z"/><path class="cls-4" d="M103.65,132.85c3.95.1,7.23,2.63,8.86,6.81.36.92.45,2,1.33,2.65a8.52,8.52,0,0,0-2.06.33c-4.75,1.25-8.53-1.67-8.55-6.6A8.64,8.64,0,0,1,103.65,132.85Z"/><path class="cls-2" d="M139.14,120.72c2.38,0,4.58-1,6.9-1.33,1.53-.24,3-.64,4.55-1l2.64,7.3a1.67,1.67,0,0,0,0,.31c-.92-.34-.93-1.25-1.2-2-.53-1.4-1-2.82-1.47-4.25-.26-.8-.76-.55-1.29-.43l-12.88,2.89c-.72.16-1.45.53-2.09-.18A14,14,0,0,0,139.14,120.72Z"/><path class="cls-2" d="M118.55,112.72c1.77-.14,3.37.56,5,1,2.17.59,4.33,1.25,6.47,2,.49.16,1.29.08,1.28,1-3.82-1.14-7.56-2.53-11.48-3.35A7.35,7.35,0,0,1,118.55,112.72Z"/><path class="cls-2" d="M130.71,112.34a22.76,22.76,0,0,1-7.81-2.29A33.82,33.82,0,0,1,130.71,112.34Z"/><path class="cls-2" d="M134.24,121.15c-.28-.05-.59-.16-.57-.47.09-2.3-.8-4.45-1-6.71.67.19.67.83.73,1.3C133.67,117.24,134.31,119.14,134.24,121.15Z"/><path class="cls-2" d="M131.3,116.63c.85,0,.78.69.67,1.17a25.14,25.14,0,0,0-.31,4.82c0,.39,0,1-.69.42C131,120.9,131.59,118.78,131.3,116.63Z"/><path class="cls-4" d="M150.2,116.45a2.77,2.77,0,0,1-1.28-.79c.83-.13.93-.78,1-1.44a5.6,5.6,0,0,1,.76-2.55s.11,0,.15,0,.06.08.1.12A10.73,10.73,0,0,0,150.2,116.45Z"/><path class="cls-2" d="M128.37,125.11l-1.29-1a2.5,2.5,0,0,1,1.33,0Z"/><path class="cls-2" d="M114.07,111.41c.58.1,1.37-.43,1.64.57A2.38,2.38,0,0,1,114.07,111.41Z"/><path class="cls-2" d="M132,113c-.59.1-1.11,0-1.3-.66A1.45,1.45,0,0,1,132,113Z"/><path class="cls-2" d="M132.7,114c-.35-.1-.38-.36-.34-.65C132.64,113.44,132.84,113.61,132.7,114Z"/><path class="cls-2" d="M132.35,113.32,132,113A.34.34,0,0,1,132.35,113.32Z"/><polygon class="cls-9" points="213.39 281.97 213.32 281.92 213.31 281.92 213.31 281.92 213.31 281.91 213.32 281.91 213.33 281.92 213.39 281.97"/><polygon class="cls-9" points="220.86 274.84 220.8 274.77 220.79 274.76 220.79 274.76 220.79 274.75 220.8 274.76 220.86 274.84"/><path class="cls-9" d="M222.44,271.84l0,0h0Z"/><polygon class="cls-9" points="222.76 271.18 222.74 271.2 222.74 271.19 222.76 271.18"/><path class="cls-9" d="M225.47,257.55a43.27,43.27,0,0,1-2.73,13.64c-.26.14-.25.41-.32.66-.27.13-.27.41-.34.65l0,0h0l-.34.64h0a4.28,4.28,0,0,0-1,1.62c-.31.44-.62.88-.94,1.31h0a3.36,3.36,0,0,0-1,1.32l-2.21,2.21-.39.34v0a1.69,1.69,0,0,0-.95.69h0l-.95.64h0l-1,.62h0c-5.1,2.45-10.16,2.17-15.19-.28h0l-.64-.36,0,0,0,0-1-.64h0l-1.65-1.33L193,277.41l-.41-.4-.21-.26-.74-1v0l-1.29-1.94h0l-.62-1h0c-.16-.39-.31-.8-.5-1.17a30.77,30.77,0,0,1-3.36-11.29,36,36,0,0,1,3.21-19.64h0c.21-.33.42-.66.62-1,1.26,2.35,1.77,5,2.83,7.43.3.68.42,1.44.74,2.11a10.9,10.9,0,0,1,.89,6.77,10.59,10.59,0,0,0,2.27,8.45h0c.06.11.13.21.2.32s.11.17.17.26l.23.32.24.31.24.27.22.24c.11.11.22.23.34.33a3.65,3.65,0,0,0,.36.31l.3.25a7.36,7.36,0,0,0,.88.57l.1.06h0a10.1,10.1,0,0,0,1.36.75l.28.13.26.11.26.09a1.14,1.14,0,0,0,.26.09,1.43,1.43,0,0,0,.27.09c.1,0,.21.06.31.09l.26.07.25.05h0l.15,0,.36.06.3,0,.26,0,.24,0h.93l.31,0c.24,0,.49-.05.73-.09l.2,0,.19,0,.19-.05.57-.16.25-.09a9.28,9.28,0,0,0,.86-.37l.21-.11.34-.18.24-.15.35-.23.27-.2q.21-.15.42-.33l.3-.26.27-.25a1.38,1.38,0,0,0,.76-.72l.53-.6a3.21,3.21,0,0,0,1-1.65h0c.15-.21.28-.42.4-.62a6.89,6.89,0,0,0,.34-.66c.05-.11.09-.21.14-.31a.88.88,0,0,0,0-.15,10.07,10.07,0,0,0,.42-1.28c0-.12,0-.24.08-.36.07-.34.14-.69.19-1l.06-.42c0-.24.06-.49.08-.73a21,21,0,0,0,.12-2.84c0-.16,0-.32,0-.48,0-.31,0-.62-.07-.93,0,0,0,0,0,0l0-.31c0-.16,0-.31-.07-.47s0-.26-.07-.39c-.06-.31-.13-.62-.22-.93,0-.09-.05-.19-.08-.29l-.12-.37a.7.7,0,0,0-.06-.17c-.05-.15-.1-.29-.16-.43s-.07-.18-.11-.27-.13-.32-.21-.47-.16-.33-.25-.49-.13-.25-.2-.37l-.08-.12a2.39,2.39,0,0,0-.13-.21c-.13-.21-.27-.42-.42-.62s-.16-.21-.24-.32l0,0c-.09-.11-.19-.22-.28-.34h0a4.08,4.08,0,0,0-2-1.95l0,0h0l-.26-.22-.08-.07h0l-.64-.37h0c-1.84-1.23-3.87-1-5.9-.76-2.73.38-2,.91-3-1.8-1.2-3.26-2.29-6.56-3.5-9.82-.27-.72-.34-1,.53-1.22,5.89-1.63,11.58-1.47,17,1.73h0l1.35,1,.61.55L218,235.9a.2.2,0,0,0,.13.14l.46.46.54.62a1.68,1.68,0,0,0,.76,1l.23.29c.24.32.47.66.7,1A33.46,33.46,0,0,1,225.47,257.55Z"/><polygon class="cls-4" points="199.69 267.73 199.68 267.73 199.68 267.72 199.67 267.72 199.68 267.72 199.69 267.73"/><polygon class="cls-4" points="209.53 244.8 209.53 244.81 209.53 244.8 209.53 244.8"/><path class="cls-4" d="M210.55,245.48h0Z"/><path class="cls-4" d="M212.51,247.41h0v0A0,0,0,0,0,212.51,247.41Z"/><path class="cls-4" d="M212.82,247.78h0v0Z"/><path class="cls-4" d="M213.49,263.84h0Z"/><path class="cls-9" d="M35.66,266.92l-2.2-2.21a29.23,29.23,0,0,1-5.69-14.28,1.65,1.65,0,0,0,.07-.32c3.55.63,6.43,2.55,9.2,4.72A31.27,31.27,0,0,0,55.5,261.5c1,0,1.36.19.71,1.15a14.37,14.37,0,0,0-.68,1.29v0c-.48.68-1,1.35-1.46,2l-1.55,1.57-1.36,1,.11.07-.11-.07c-.77.35-1.52.76-2.32,1.05-3.78,1.38-7.37.65-10.86-1h0l-1-.65h0Z"/><path class="cls-9" d="M33.73,225.05l.3-.19,1-.76h0c1.31-.84,2.63-1.66,3.91-2.54a2.22,2.22,0,0,1,2.48-.28c2.36,1.13,4.78,2.13,7.18,3.18l0,0a2.7,2.7,0,0,0,1.33.66v0l.66.38,0,0a1.27,1.27,0,0,0,1,.62h0c-.24,1.34-1.85,1.41-2.33,2.52l-.26.28a1.73,1.73,0,0,0-.73,1l0,0-.33.39,0,0-.35.36,0,0c-.31.13-.31.43-.4.69l-.56,1.64c-.13,1-.5,1.15-1.4.61C41.53,231.2,37.76,229,34,226.87c-.41-.24-.86-.42-1.29-.63a.22.22,0,0,0-.08-.24Z"/><path class="cls-4" d="M48.94,228.85l.26-.28c.16,0,.37.09.48,0,1.86-1.26,2-.54,1.59,1.25a5.35,5.35,0,0,0,.27,2.55c1.29,5.13,2.49,10.27,5,15a12.11,12.11,0,0,0,6.21,5.86,4.31,4.31,0,0,1,1.74,1c-5.06.67-7.83-2.37-10.28-6.06a124.38,124.38,0,0,1-7.26-13c-.26-.5,0-.82.14-1.2.24-.55.45-1-.43-1.19l.56-1.64c.38-.09.45-.35.4-.69l0,0,.35-.36,0,0a.37.37,0,0,0,.33-.39l0,0C49,229.93,49,229.38,48.94,228.85Z"/><path class="cls-4" d="M32.64,226a.22.22,0,0,1,.08.24c-.08.35-.13.77-.64.65s-.33-.55-.37-.89h.93Z"/><path class="cls-4" d="M232.8,224l-.12.27c-.09,0-.23-.06-.26-.12s.07-.18.1-.27Z"/><path class="cls-9" d="M14.4,226.47l-.12.19s-.1-.08-.09-.1a1.14,1.14,0,0,1,.1-.19Z"/><path class="cls-2" d="M106,189.15a68.92,68.92,0,0,1-9-.56A99.49,99.49,0,0,1,74,183c-.13-.05-.22-.2-.33-.31a3.27,3.27,0,0,1,1.74.28,111.09,111.09,0,0,0,19.1,4.82c1.37.23,2.78.27,4.55.43a159.76,159.76,0,0,1-16.64-13c3,.46,6,.87,9,1.4,3.76.68,7.55,1.12,11.35,1.47,1.14.11,1.92.43,2.06,1.59A90.93,90.93,0,0,1,106,189.15Z"/><path class="cls-2" d="M107.92,211.67c-.34-5.22-.66-10.44-1-15.66a15,15,0,0,1-.22-3.21c1.17,1.24.71,2.87.85,4.28.42,4.22.56,8.47,1,12.69C108.58,210.4,109,211.34,107.92,211.67Z"/><path class="cls-2" d="M127.78,229.94a22,22,0,0,1-13,2.1c-1.8-.25-3.75-.18-5.29-1.45a26.81,26.81,0,0,1,5,1c3.77.76,7.34,0,10.9-1.14A4.71,4.71,0,0,1,127.78,229.94Z"/><path class="cls-2" d="M109.43,230.64c-.64-.83-.44-1.85-.52-2.76a44.43,44.43,0,0,1,0-4.47C110,225.76,109.47,228.21,109.43,230.64Z"/><path class="cls-2" d="M67.83,180.45c-.73.25-1.3-.39-2-.36l-4.55-2.2C63.7,178.15,65.72,179.42,67.83,180.45Z"/><path class="cls-2" d="M53.77,174.66a39.54,39.54,0,0,1-5.83-2.32A9.49,9.49,0,0,1,53.77,174.66Z"/><path class="cls-2" d="M108.63,219.48c.06-1.85-.56-3.66-.34-5.51.46.06.57.36.59.78a16.94,16.94,0,0,0,.26,4.26C109.23,219.31,108.9,219.43,108.63,219.48Z"/><path class="cls-2" d="M59,176.93a31.65,31.65,0,0,1-5.19-2.3A8.38,8.38,0,0,1,59,176.93Z"/><path class="cls-2" d="M73.68,182.74a5.28,5.28,0,0,1-2.59-1C72.08,181.75,73.09,181.71,73.68,182.74Z"/><path class="cls-2" d="M70.1,181.45c-.8-.23-1.7-.23-2.27-1C68.7,180.52,69.62,180.49,70.1,181.45Z"/><path class="cls-2" d="M47.93,172.38l-2.53-.78A1.9,1.9,0,0,1,47.93,172.38Z"/><path class="cls-2" d="M61.26,177.93a6.58,6.58,0,0,1-2.25-1C59.89,176.94,60.85,176.84,61.26,177.93Z"/><path class="cls-2" d="M71.09,181.77c-.37,0-.75,0-1-.35C70.48,181.4,70.88,181.3,71.09,181.77Z"/><path class="cls-2" d="M220.83,239.41h0Z"/><path class="cls-2" d="M222.77,271.19h0Z"/><polygon class="cls-2" points="189.06 240.72 189.05 240.73 189.05 240.72 189.05 240.72 189.06 240.72"/><path class="cls-2" d="M189.71,272.82h0Z"/><polygon class="cls-2" points="198.15 281.64 198.13 281.64 198.13 281.63 198.15 281.64"/><polygon class="cls-2" points="213.31 281.91 213.31 281.92 213.31 281.92 213.31 281.91"/><path class="cls-2" d="M190.34,273.82h0Z"/><path class="cls-2" d="M191.64,275.78h0v0Z"/><path class="cls-2" d="M196.54,280.64h0v0Z"/><path class="cls-2" d="M218,235.9l-1.42-1.41C217.47,234.53,218.4,234.55,218,235.9Z"/><polygon class="cls-2" points="220.8 274.76 220.79 274.76 220.79 274.75 220.8 274.76"/><path class="cls-2" d="M221.79,273.29l0-.16h0Z"/><path class="cls-2" d="M216,233.94l-1.35-1C215.44,232.75,216,233,216,233.94Z"/><path class="cls-2" d="M219.86,276.09h0Z"/><path class="cls-2" d="M219.86,276.09h0Z"/><polygon class="cls-2" points="220.8 274.77 220.79 274.76 220.79 274.76 220.79 274.75 220.79 274.76 220.8 274.77"/><path class="cls-2" d="M215.3,280.63v0h0Z"/><path class="cls-2" d="M216.24,280h0v0h0A0,0,0,0,1,216.24,280Z"/><path class="cls-2" d="M196.52,280.63h0Z"/><path class="cls-2" d="M197.52,281.29h0a0,0,0,0,0,0,0Z"/><path class="cls-2" d="M220.82,239.42l-.71-1C220.9,238.36,220.92,238.85,220.82,239.42Z"/><polygon class="cls-2" points="213.33 281.92 213.31 281.92 213.31 281.92 213.31 281.91 213.32 281.91 213.33 281.92"/><path class="cls-2" d="M214.33,281.29h0v0h0Z"/><path class="cls-2" d="M189.68,239.71l-.63,1C189,240.2,188.91,239.7,189.68,239.71Z"/><path class="cls-2" d="M191.64,275.78h0v0Z"/><path class="cls-2" d="M189.71,272.82h0Z"/><path class="cls-2" d="M190.34,273.82h0Z"/><path class="cls-2" d="M214.33,281.29v0h0Z"/><path class="cls-2" d="M215.3,280.63v0h0Z"/><path class="cls-2" d="M219.88,238.13a1.68,1.68,0,0,1-.76-1C219.91,237.05,219.94,237.55,219.88,238.13Z"/><path class="cls-2" d="M197.48,281.27l0,0h0a0,0,0,0,0,0,0Z"/><path class="cls-2" d="M198.15,281.64h0Z"/><path class="cls-2" d="M218.58,236.5l-.46-.46C218.61,235.85,218.56,236.21,218.58,236.5Z"/><path class="cls-2" d="M222.45,271.85h0Z"/><path class="cls-2" d="M222.77,271.19h0Z"/><path class="cls-2" d="M222.11,272.49h0l0,0Z"/><path class="cls-2" d="M222.45,271.85h0Z"/><path class="cls-2" d="M221.77,273.13h0Z"/><path class="cls-2" d="M222.11,272.49h0Z"/><path class="cls-2" d="M216.24,280h0v0A0,0,0,0,1,216.24,280Z"/><path class="cls-2" d="M76.68,226.28c-1.57.26-3-.51-4.37-.94-6-1.78-11.7-4.39-17.45-6.83-.5-.21-1.2-.3-1.26-1.08,5.89,2.47,11.72,5.08,17.78,7.12A33.5,33.5,0,0,1,76.68,226.28Z"/><path class="cls-2" d="M92.65,229.89c-3.78-.08-7.34-1.38-11-2.08-1.7-.33-3.5-.44-5-1.54,1.36-.12,2.55.67,3.88.69,3.33,1,6.78,1.56,10.18,2.3A3.61,3.61,0,0,1,92.65,229.89Z"/><path class="cls-2" d="M52.92,217.16c-2.26-.19-4.05-1.42-5.89-2.57C49.26,214.82,51,216.27,52.92,217.16Z"/><path class="cls-2" d="M44.14,212.87a4.94,4.94,0,0,1-3.88-2A15.19,15.19,0,0,1,44.14,212.87Z"/><path class="cls-2" d="M40.23,210.92a3.44,3.44,0,0,1-2.95-1.6A10.68,10.68,0,0,1,40.23,210.92Z"/><path class="cls-2" d="M44.81,213.21c-.33.09-.6.09-.65-.34C44.42,212.9,44.68,212.94,44.81,213.21Z"/><path class="cls-2" d="M37.3,209.34c-.31.06-.59,0-.66-.36A.76.76,0,0,1,37.3,209.34Z"/><path class="cls-2" d="M53.59,217.45c-.32.1-.59.07-.69-.32C53.16,217.18,53.45,217.15,53.59,217.45Z"/><path class="cls-2" d="M36.66,209c-.33.09-.6.07-.66-.34C36.26,208.69,36.53,208.7,36.66,209Z"/><path class="cls-2" d="M36,208.65c-.33.1-.59.09-.66-.33C35.61,208.36,35.87,208.37,36,208.65Z"/><path class="cls-2" d="M45.07,213.61l-.29-.37Z"/><path class="cls-2" d="M127,27.67c-.37,3-.93,6-1.27,9.07a56.56,56.56,0,0,0-.22,11.41c.09,1,.2,2,.3,3.05a37.32,37.32,0,0,1-12-10.45c-1.38-1.88-1-4.22-.55-6.4a39,39,0,0,1,2-6.33c.88-2.13,1.73-2.6,4-2.1C121.83,26.47,124.4,27.08,127,27.67Z"/><path class="cls-9" d="M136.23,70.36,136,70.2c.2-.09.22,0,.18.17Z"/><path class="cls-2" d="M27.77,250.43a29.23,29.23,0,0,0,5.69,14.28,1.17,1.17,0,0,1-1.22-.61,27.53,27.53,0,0,1-4.75-12.31A1.34,1.34,0,0,1,27.77,250.43Z"/><path class="cls-2" d="M38,268.57c3.49,1.68,7.08,2.41,10.86,1,.8-.29,1.55-.7,2.32-1.05a.67.67,0,0,1-.35.81c-2.86,2-9.49,2-12.44,0C38.05,269.16,37.88,268.94,38,268.57Z"/><path class="cls-2" d="M54.06,266c.49-.68,1-1.35,1.46-2C55.8,265.21,55.28,265.85,54.06,266Z"/><path class="cls-2" d="M51.15,268.55l1.36-1C52.53,268.56,52,268.75,51.15,268.55Z"/><path class="cls-2" d="M35.66,266.92l1.33,1C36.17,268.08,35.62,267.89,35.66,266.92Z"/><path class="cls-2" d="M37,267.93l1,.65C37.44,268.67,36.92,268.75,37,267.93Z"/><path class="cls-2" d="M189.87,106.9c.7,0,1.16.16.83,1C190.29,107.68,189.89,107.44,189.87,106.9Z"/><path class="cls-2" d="M190.8,108c.5,0,.44.25.36.57A.6.6,0,0,1,190.8,108Z"/><path class="cls-2" d="M189.56,106.54a.37.37,0,0,1,.35.36Z"/><path class="cls-4" d="M214,126.68c-2.68.49-5.25-.26-7.86-.65a.64.64,0,0,1-.59-.64c.68-.25.76-.93.84-1.46.18-1.22.82-1.27,1.81-1,1.18.34,2.39.57,3.6.8C214.11,124.17,214.31,124.4,214,126.68Z"/><path class="cls-2" d="M107.88,244.49c-.61-.9-.26-1.85-.17-2.79q.42-4.24.83-8.49c.1-1.11-.68-1-1.39-1-4.44,0-8.73-1.12-13.08-1.76a1.41,1.41,0,0,1-1.14-.52c2.56,0,5,.83,7.51,1.13a68.28,68.28,0,0,0,6.94.71c1.49,0,1.69.53,1.56,1.79C108.54,237.19,108.23,240.84,107.88,244.49Z"/><path class="cls-2" d="M48.58,224.47c-2.4-1.05-4.82-2.05-7.18-3.18a2.22,2.22,0,0,0-2.48.28c-1.28.88-2.6,1.7-3.91,2.54-.08-1.09,1-1.12,1.53-1.67,2.46-2.58,5.16-2.13,7.86-.49C45.79,222.79,47.6,223,48.58,224.47Z"/><path class="cls-2" d="M32.64,226h-.93c.34-1,1.23-.87,2-.95Z"/><path class="cls-2" d="M49.88,225.11a2.7,2.7,0,0,1-1.33-.66C49.12,224.43,49.85,224.05,49.88,225.11Z"/><path class="cls-2" d="M51.54,226.06a1.27,1.27,0,0,1-1-.62C51,225.33,51.53,225.28,51.54,226.06Z"/><path class="cls-2" d="M35,224.1l-1,.76C34,224.07,34.43,224,35,224.1Z"/><path class="cls-2" d="M50.53,225.47l-.66-.38C50.19,225,50.47,225.06,50.53,225.47Z"/><path class="cls-2" d="M154.5,129.27a1.54,1.54,0,0,1-.65-1.63A1.73,1.73,0,0,1,154.5,129.27Z"/><path class="cls-2" d="M153.87,127.64c-.87-.27-.7-1-.68-1.63A2.8,2.8,0,0,1,153.87,127.64Z"/><path class="cls-2" d="M156.14,132.2c-.34-.1-.37-.37-.34-.66A.72.72,0,0,1,156.14,132.2Z"/><path class="cls-2" d="M155.81,131.56c-.33-.11-.36-.38-.34-.67A.72.72,0,0,1,155.81,131.56Z"/><path class="cls-2" d="M155.49,130.91c-.34-.11-.37-.38-.35-.67Z"/><path class="cls-2" d="M154.84,129.91c-.34-.09-.37-.35-.33-.64C154.87,129.35,154.89,129.61,154.84,129.91Z"/><path class="cls-2" d="M155.15,130.26l-.33-.34C155.08,129.88,155.1,130.08,155.15,130.26Z"/><path class="cls-2" d="M129.3,126.1c-.41,0-.49-.37-.62-.66C129.17,125.39,129.41,125.58,129.3,126.1Z"/><path class="cls-2" d="M130.66,128.67a.85.85,0,0,1-.34-1C130.79,127.89,130.69,128.29,130.66,128.67Z"/><path class="cls-2" d="M130,127.38a.74.74,0,0,1-.34-.67C130,126.82,130,127.08,130,127.38Z"/><path class="cls-2" d="M129.67,126.73c-.26-.14-.45-.32-.34-.65C129.69,126.17,129.72,126.43,129.67,126.73Z"/><path class="cls-2" d="M128.72,125.43l-.35-.35Z"/><path class="cls-2" d="M130.34,127.7c-.28,0-.29-.17-.34-.34C130.11,127.47,130.22,127.59,130.34,127.7Z"/><path class="cls-2" d="M212.81,247.78h0v0Z"/><path class="cls-2" d="M213.48,263.84h0Z"/><path class="cls-2" d="M215.34,255c0-.31,0-.62-.07-.93C215.3,254.33,215.33,254.65,215.34,255Z"/><polygon class="cls-2" points="199.69 267.73 199.68 267.73 199.68 267.72 199.67 267.72 199.68 267.72 199.69 267.73"/><path class="cls-2" d="M206.5,269.27c-.24,0-.49.07-.73.09C206,269.34,206.26,269.31,206.5,269.27Z"/><path class="cls-4" d="M215.24,258.28c0,.24-.05.49-.08.73l-.06.42c0,.34-.12.69-.19,1,0,.12,0,.24-.08.36a10.07,10.07,0,0,1-.42,1.28.88.88,0,0,1,0,.15c-.05.1-.09.2-.14.31a6.89,6.89,0,0,1-.34.66c-.12.2-.25.41-.4.62h0a3.21,3.21,0,0,1-1,1.65l-.53.6a1.38,1.38,0,0,1-.76.72l-.27.25-.3.26q-.21.18-.42.33l-.27.2-.35.23-.24.15-.34.18-.21.11a9.28,9.28,0,0,1-.86.37l-.25.09-.57.16-.19.05-.19,0-.2,0c-.24,0-.49.07-.73.09l-.31,0h-.93l-.24,0-.26,0-.3,0-.36-.06-.15,0h0l-.25-.05-.26-.07c-.1,0-.21-.05-.31-.09a1.43,1.43,0,0,1-.27-.09,1.14,1.14,0,0,1-.26-.09l-.26-.09-.26-.11-.28-.13a10.1,10.1,0,0,1-1.36-.75h0l-.1-.06a7.36,7.36,0,0,1-.88-.57l-.3-.25a3.65,3.65,0,0,1-.36-.31c-.12-.1-.23-.22-.34-.33l-.22-.24-.24-.27-.24-.31-.23-.32c-.06-.09-.12-.17-.17-.26s-.14-.21-.2-.32h0a1.79,1.79,0,0,0-.29-1.55c-1-1.53,0-1.45,1.08-1.45,2.9,0,5.71-3,6.54-5.69.94-3-.54-5.33-1.36-7.87-.17-.52-.4-1-.57-1.52-.27-.85-.18-1.38.9-1.61a12,12,0,0,1,5.4-.08,3,3,0,0,0,1.43.1h0l.64.37h0l.08.07.26.22h0l0,0a4.08,4.08,0,0,1,2,1.95h0a0,0,0,0,1,0,0v0h0c.09.12.19.23.28.34v0h0c.08.11.17.21.24.32s.29.41.42.62a2.39,2.39,0,0,1,.13.21l.08.12c.07.12.14.24.2.37s.17.32.25.49.14.31.21.47.08.18.11.27.11.28.16.43a.7.7,0,0,1,.06.17l.12.37c0,.1.06.2.08.29.09.31.16.62.22.93,0,.13,0,.26.07.39s.05.31.07.47l0,.31s0,0,0,0c0,.31.06.62.07.93,0,.16,0,.32,0,.48A21,21,0,0,1,215.24,258.28Z"/><polygon class="cls-2" points="199.69 267.73 199.68 267.73 199.68 267.72 199.67 267.72 199.68 267.72 199.69 267.73"/><path class="cls-2" d="M210.55,245.48h0Z"/><path class="cls-2" d="M212.51,247.41h0v0A0,0,0,0,0,212.51,247.41Z"/><path class="cls-2" d="M213.49,263.84h0Z"/><polygon class="cls-2" points="209.53 244.8 209.53 244.81 209.53 244.8 209.53 244.8"/><path class="cls-2" d="M212.51,247.41h0v0A0,0,0,0,0,212.51,247.41Z"/><path class="cls-2" d="M212.82,247.78h0v0Z"/><path class="cls-2" d="M48.94,228.85c0,.53.09,1.08-.73,1A1.73,1.73,0,0,1,48.94,228.85Z"/><path class="cls-2" d="M47.61,230.49c0,.34,0,.6-.4.69C47.3,230.92,47.3,230.62,47.61,230.49Z"/><path class="cls-2" d="M47.94,230.16l-.35.36Z"/><path class="cls-2" d="M48.24,229.8a.37.37,0,0,1-.33.39Z"/><path class="cls-7" d="M140.64,107.6c-9.29-6.82-21.36-9.45-31.31-10.34-3.64-.33-7-.42-9.84-.41h0a83.48,83.48,0,0,0-8.9.45c4-12.21-8.92-27.3-8.92-27.3l7.74-4.29,10.88-3.43c7.67-1.25,9.76,1,12.63,3.48a85.36,85.36,0,0,0,15.14,10.13c1,.52,2.55,0,3.58-.28,1.63-.37,3.2-5.51,5.35-5.26,4.47.52,9.53,7.06,9.53,7.06C149.61,86.46,140.64,107.6,140.64,107.6Z"/><path class="cls-1" d="M86.63,110.05S66.12,112,71.18,129.33l3.29,1,27.19,2.16s7.78-15.22,23.27-10.31C124.93,122.22,88.05,114.72,86.63,110.05Z"/><path class="cls-1" d="M86.63,110.05s-11.88,1.8-14.28,19.75-2.5,18.85-2.5,18.85,6.21,1.64,17.93.93l2-24.47Z"/><polygon class="cls-4" points="128.05 75.89 124.94 104.95 125.56 104.95 129.27 76.01 128.05 75.89"/><path class="cls-7" d="M89.28,131.55,72.35,129.8,70.94,142S72.25,130.68,89.28,131.55Z"/></svg>