<svg id="Layer_1" data-name="Layer 1" xmlns="http://www.w3.org/2000/svg" xmlns:xlink="http://www.w3.org/1999/xlink" viewBox="0 0 100 100"><defs><style>.cls-1{fill:url(#linear-gradient);}.cls-2{fill:#0096f9;}.cls-3{fill:#cb5731;}.cls-4{fill:#fdb450;}.cls-5{fill:#f49731;}</style><linearGradient id="linear-gradient" x1="3.54" y1="55.25" x2="89.82" y2="55.25" gradientTransform="matrix(1, 0, 0, -1, 0, 102.39)" gradientUnits="userSpaceOnUse"><stop offset="0" stop-color="#c2ecff"/><stop offset="1" stop-color="#e6f9ff"/></linearGradient></defs><title>BiService</title><path class="cls-1" d="M89.82,47.19a128.73,128.73,0,0,1-4.21,33.2h0c-.25.92-.51,1.82-.78,2.72h0v.14h0l-.1.16c-.06.1-.13.19-.19.28l-.07.09c-.14.18-.29.35-.45.52l-.44.41-.21.17a3.62,3.62,0,0,1-.32.22l-.32.2c-.91.27-1.82.53-2.75.78h0a129.17,129.17,0,0,1-33.2,4.21,129.19,129.19,0,0,1-33.21-4.21h0c-.92-.25-1.84-.51-2.75-.78a5.39,5.39,0,0,1-1.2-.92l-.17-.16-.14-.16a5.3,5.3,0,0,1-.46-.6c-.07-.11-.14-.22-.2-.33-.28-.91-.54-1.83-.79-2.77h0a128.73,128.73,0,0,1-4.21-33.2A128.81,128.81,0,0,1,7.75,14h0q.38-1.38.78-2.73h0l.1-.16L8.72,11a1.3,1.3,0,0,1,.1-.15h0L9,10.52H9l.18-.22a2.68,2.68,0,0,1,.28-.3l.16-.15.15-.15.36-.28.25-.18L10.7,9c.92-.27,1.84-.53,2.78-.78h0A128.25,128.25,0,0,1,46.68,4a128.25,128.25,0,0,1,33.2,4.22h0c.93.25,1.85.51,2.77.78l.32.2.31.22.37.31c.08.08.17.15.25.24l.26.28.24.29.22.32.11.17.09.17h0c.26.9.52,1.8.77,2.72h0A128.79,128.79,0,0,1,89.82,47.19Z"/><path class="cls-2" d="M86.72,60.42,83.63,70.66a20.73,20.73,0,0,0-2.53.49,7.81,7.81,0,0,0-4.5,10.94c1.19,2.23,3.22,3.19,5.59,3.59.64.11,1.31.11,2,.21.18,0,.47.25.49.42.36,2.22.67,4.45,1,6.74a1,1,0,0,1-.29,0c-6.61-3-13.34-3-20.14-.78-1.76.56-3.42,1.42-5.14,2.1a1,1,0,0,1-.86,0A21.48,21.48,0,0,0,49,90.73a35.12,35.12,0,0,0-14.9,1.91l-1,.31,1.05-7.06c.84,0,1.61,0,2.37-.16A7.51,7.51,0,0,0,43.11,78a7.25,7.25,0,0,0-6.38-7.41c-.48-.09-1-.09-1.46-.2a.72.72,0,0,1-.48-.43,24.31,24.31,0,0,0-2.92-9,3.65,3.65,0,0,1-.12-.36c1.63-.16,3.21-.36,4.79-.47a55.64,55.64,0,0,1,14.12.49,19.54,19.54,0,0,1,8.26,3.21.67.67,0,0,0,.6,0A21,21,0,0,1,69,60.33a62.74,62.74,0,0,1,17.42,0A1.18,1.18,0,0,1,86.72,60.42Z"/><path class="cls-3" d="M54.83,28.34V14.12h9v14h1.92V16.57c.47.14.83.23,1.17.36a18.78,18.78,0,0,1,9.31,8.16A24.91,24.91,0,0,1,79,31.6c.19.72.48,1.06,1.23.92a3.29,3.29,0,0,1,.59,0c0,1.14,0,2.26,0,3.37,0,.13-.23.3-.39.36a1.72,1.72,0,0,1-.56,0h-41c-1,0-1,0-1-.95v-3c.55,0,1,0,1.48,0s.55-.12.64-.53c1.51-7.18,5.73-12.14,12.39-15.1.1-.05.22-.08.44-.16,0,.31,0,.57,0,.83,0,3.34,0,6.67,0,10,0,.7.17,1,.9.89A9,9,0,0,1,54.83,28.34Z"/><path class="cls-4" d="M65.31,53.26c3.31.85,6.7,1.32,8.82,4.27l-.06.25h-.79a24,24,0,0,0-11.82,2.38c-.7.36-1.35.84-2,1.24a.69.69,0,0,1-.59,0,16.32,16.32,0,0,0-8.14-3.08c-1.92-.28-3.88-.37-5.82-.55l-.44-.08a16.16,16.16,0,0,1,9-4.85C46.62,50.42,43.21,45.5,42.1,38.64H76.62C75.94,45.92,71.41,50.13,65.31,53.26Z"/><path class="cls-5" d="M41.18,78.21A6.14,6.14,0,1,1,35,72.11,6.11,6.11,0,0,1,41.18,78.21Z"/><path class="cls-5" d="M77.54,78.23a6.14,6.14,0,1,1,6,6.23A6.12,6.12,0,0,1,77.54,78.23Z"/></svg>