<svg id="Layer_1" data-name="Layer 1" xmlns="http://www.w3.org/2000/svg" xmlns:xlink="http://www.w3.org/1999/xlink" viewBox="0 0 100 100">
  <defs>
    <linearGradient id="linear-gradient" x1="6.5" y1="47.28" x2="92.78" y2="47.28" gradientUnits="userSpaceOnUse">
      <stop offset="0" stop-color="#c2ecff"/>
      <stop offset="1" stop-color="#e6f9ff"/>
    </linearGradient>
  </defs>
  <title>Untitled-2</title>
  <g>
    <path d="M92.78,47.29a128.69,128.69,0,0,1-4.21,33.2s0,0,0,0c-.25.92-.5,1.82-.77,2.72h0a.25.25,0,0,1,0,.07.16.16,0,0,1,0,.07h0l-.1.16a2.75,2.75,0,0,1-.19.28l-.06.09c-.15.18-.29.35-.45.52a5.92,5.92,0,0,1-.45.41,1.93,1.93,0,0,1-.21.17l-.31.22-.32.2c-.92.27-1.83.53-2.76.78h0a129.14,129.14,0,0,1-33.2,4.2,129.22,129.22,0,0,1-33.21-4.2h0c-.92-.25-1.84-.51-2.74-.78a5.45,5.45,0,0,1-1.21-.92l-.16-.16-.14-.16a5.39,5.39,0,0,1-.47-.6c-.06-.11-.13-.22-.2-.33-.27-.91-.53-1.83-.78-2.77h0A128.75,128.75,0,0,1,6.5,47.29a128.69,128.69,0,0,1,4.21-33.2h0c.24-.92.5-1.83.77-2.73h0a.86.86,0,0,0,.1-.16,1.19,1.19,0,0,0,.09-.15,1.3,1.3,0,0,0,.1-.15l0,0,.16-.21v0l.19-.22a3.33,3.33,0,0,1,.25-.28l.16-.15.16-.15c.11-.1.23-.19.35-.28a2.27,2.27,0,0,1,.25-.18,3.62,3.62,0,0,1,.33-.2c.91-.27,1.83-.53,2.77-.78h0a128.19,128.19,0,0,1,33.2-4.22,128.31,128.31,0,0,1,33.2,4.22h0c.94.25,1.86.51,2.77.78l.32.2.31.22a3.93,3.93,0,0,1,.38.31l.25.24c.08.09.17.18.25.28a3.36,3.36,0,0,1,.24.29c.08.1.15.21.22.31a1.74,1.74,0,0,1,.11.18l.1.17h0c.27.9.53,1.8.77,2.72h0A128.71,128.71,0,0,1,92.78,47.29Z" fill="url(#linear-gradient)"/>
    <g>
      <path d="M77.92,87.37a1.5,1.5,0,0,1-.59.1c-.62,0-.6,0-.62.61a2.94,2.94,0,0,1-1.24,2.48,3,3,0,0,1-4.23-.28,3.38,3.38,0,0,1-.9-2.42c0-.29-.06-.39-.37-.39q-9.09,0-18.17,0c-.27,0-.35,0-.36.35a3.34,3.34,0,0,1-2,3.23A3.19,3.19,0,0,1,45,88.3c0-.83,0-.83-.92-.83a5.33,5.33,0,0,1-5.32-4.93c-.12-1.63-.05-3.26-.05-4.89q0-16.73,0-33.44A5.24,5.24,0,0,1,40.41,40a4.89,4.89,0,0,1,2.12-1,13.06,13.06,0,0,1,2.85-.16c1.2,0,2.4,0,3.59,0,.3,0,.36-.08.35-.36q0-3.24,0-6.48c0-.26-.06-.37-.33-.33-1.11.18-1.51-.66-1.47-1.58a4.31,4.31,0,0,1,3.23-4,8.68,8.68,0,0,1,1.84-.25c5.53,0,11,0,16.58,0a4.56,4.56,0,0,1,4.09,2,4.06,4.06,0,0,1,.75,2.8,1,1,0,0,1-1.18,1c-.43,0-.53.11-.52.53q0,3.12,0,6.24c0,.33.07.41.4.41,1.74,0,3.48,0,5.22,0a4.9,4.9,0,0,1,4.95,4.32,20.48,20.48,0,0,1,.08,2.6h-.7A16.54,16.54,0,0,0,65.64,67.27,31.28,31.28,0,0,0,69.5,75C72.24,79.16,75.09,83.26,77.92,87.37ZM60.77,38.81h7.59c.38,0,.46-.1.45-.46q0-3.16,0-6.33c0-.3-.07-.39-.38-.38q-7.64,0-15.27,0c-.31,0-.38.08-.38.38,0,2.13,0,4.25,0,6.38,0,.32.07.41.4.41C55.71,38.8,58.24,38.81,60.77,38.81Z" fill="#0096f9"/>
      <path d="M77.92,87.37C75.09,83.26,72.24,79.16,69.5,75a31.28,31.28,0,0,1-3.86-7.71A16.54,16.54,0,0,1,82.26,45.72H83a19,19,0,0,1,3.33.73A16.12,16.12,0,0,1,97.38,58.72a17.11,17.11,0,0,1-1.6,11.51A78.91,78.91,0,0,1,90,79.68c-2.17,3.2-4.32,6.41-6.48,9.61-.27.39-.57.77-.88,1.14a1.39,1.39,0,0,1-2.34.07c-.73-.8-1.27-1.76-1.93-2.61C78.18,87.72,78.05,87.54,77.92,87.37Zm13-32.2a5.11,5.11,0,0,0,0-.55c-.38-2-2.15-2.74-3.59-1.86a11.55,11.55,0,0,0-1.13.81,30.63,30.63,0,0,0-3,2.9c-.2.21-.35.5-.75.43a66.27,66.27,0,0,1-7.11-1.43,2,2,0,0,0-2.28.58c-.18.21-.4.39-.59.6a1.07,1.07,0,0,0,.18,1.78,12,12,0,0,0,1.76,1c1.29.68,2.59,1.34,3.88,2,.11.06.41.07.16.33-1,1-1.86,2.13-2.75,3.23a.45.45,0,0,1-.4.17c-.77,0-1.55,0-2.33-.07a2.06,2.06,0,0,0-.74,0A1.62,1.62,0,0,0,71,66.45c-.09.67.46.74.85.91A8.92,8.92,0,0,1,76,71a7.68,7.68,0,0,0,.66,1,1,1,0,0,0,1.65-.11,1.78,1.78,0,0,0,.27-.88,12.84,12.84,0,0,0-.14-2.55.64.64,0,0,1,.25-.67c.93-.81,1.86-1.61,2.75-2.45.3-.28.42-.33.65.08q1.49,2.66,3.05,5.28c.58,1,1.28,1,1.94,0,.29-.41.55-.83.86-1.22a1.11,1.11,0,0,0,.2-1.13,48.89,48.89,0,0,1-1.52-6.46A1.76,1.76,0,0,1,87.19,60a30.41,30.41,0,0,0,3.12-3.2A2.48,2.48,0,0,0,90.92,55.17Z" fill="#fdb450"/>
      <path d="M90.92,55.17a2.48,2.48,0,0,1-.61,1.63A30.41,30.41,0,0,1,87.19,60a1.76,1.76,0,0,0-.56,1.86,48.89,48.89,0,0,0,1.52,6.46,1.11,1.11,0,0,1-.2,1.13c-.31.39-.57.81-.86,1.22-.66.94-1.36.94-1.94,0Q83.59,68,82.1,65.35c-.23-.41-.35-.36-.65-.08-.89.84-1.82,1.64-2.75,2.45a.64.64,0,0,0-.25.67,12.84,12.84,0,0,1,.14,2.55,1.78,1.78,0,0,1-.27.88,1,1,0,0,1-1.65.11A7.68,7.68,0,0,1,76,71a8.92,8.92,0,0,0-4.15-3.62c-.39-.17-.94-.24-.85-.91a1.62,1.62,0,0,1,1.15-1.27,2.06,2.06,0,0,1,.74,0c.78.09,1.56,0,2.33.07a.45.45,0,0,0,.4-.17c.89-1.1,1.77-2.21,2.75-3.23.25-.26,0-.27-.16-.33-1.29-.67-2.59-1.33-3.88-2a12,12,0,0,1-1.76-1,1.07,1.07,0,0,1-.18-1.78c.19-.21.41-.39.59-.6a2,2,0,0,1,2.28-.58,66.27,66.27,0,0,0,7.11,1.43c.4.07.55-.22.75-.43a30.63,30.63,0,0,1,3-2.9,11.55,11.55,0,0,1,1.13-.81c1.44-.88,3.21-.15,3.59,1.86A5.11,5.11,0,0,1,90.92,55.17Z" fill="#f49731"/>
    </g>
  </g>
</svg>
