<svg id="Layer_1" data-name="Layer 1" xmlns="http://www.w3.org/2000/svg" xmlns:xlink="http://www.w3.org/1999/xlink" viewBox="0 0 100 100"><defs><style>.cls-1{fill:url(#linear-gradient);}.cls-2{fill:#cb5731;}.cls-3{fill:#fdb450;}.cls-4{fill:#3c9ce7;}.cls-5{fill:#0096f9;}</style><linearGradient id="linear-gradient" x1="3.58" y1="55.42" x2="89.86" y2="55.42" gradientTransform="matrix(1, 0, 0, -1, 0, 102.39)" gradientUnits="userSpaceOnUse"><stop offset="0" stop-color="#c2ecff"/><stop offset="1" stop-color="#e6f9ff"/></linearGradient></defs><title>BiUMKM</title><path class="cls-1" d="M89.86,47a129.16,129.16,0,0,1-4.2,33.2h0c-.25.92-.5,1.82-.77,2.72h0v.13h0l-.1.17-.19.27-.07.09a5.59,5.59,0,0,1-.45.52,2.85,2.85,0,0,1-.44.41l-.21.17-.31.22-.33.2c-.91.27-1.82.53-2.75.78h0a128.75,128.75,0,0,1-33.21,4.21,128.73,128.73,0,0,1-33.2-4.21h0c-.92-.25-1.84-.51-2.75-.78a5.93,5.93,0,0,1-1.2-.91L9.52,84l-.15-.16a6.8,6.8,0,0,1-.46-.6c-.07-.1-.14-.22-.2-.32-.27-.92-.53-1.84-.78-2.78h0A128.45,128.45,0,0,1,3.58,47,128.33,128.33,0,0,1,7.8,13.79h0c.24-.92.5-1.83.77-2.73h0l.1-.17.09-.15.1-.14v0a1.56,1.56,0,0,1,.16-.2H9l.18-.22a3.45,3.45,0,0,1,.26-.28l.16-.16a1.07,1.07,0,0,1,.16-.14,3.07,3.07,0,0,1,.35-.28,1.44,1.44,0,0,1,.25-.18,2.2,2.2,0,0,1,.32-.21c.92-.27,1.84-.53,2.78-.78h0A128.59,128.59,0,0,1,46.72,3.85,128.75,128.75,0,0,1,79.93,8.06h0c.93.25,1.86.51,2.77.78a2.2,2.2,0,0,1,.32.21,2.18,2.18,0,0,1,.31.22,2.17,2.17,0,0,1,.37.31,2.73,2.73,0,0,1,.25.23l.26.28a2.17,2.17,0,0,1,.24.29l.22.32c0,.05.07.11.11.17l.1.18h0c.27.9.53,1.8.77,2.72h0A129.4,129.4,0,0,1,89.86,47Z"/><path class="cls-2" d="M50.5,65c0,1.57,0,3.15,0,4.72v0H38.87c0-1.44,0-2.87,0-4.3a8.16,8.16,0,0,1,3-6.52c.11,0,.21,0,.24-.16v0l.13-.16.38-.37A.83.83,0,0,0,43,57.05c0-.14,0-.28,0-.41.2-.18.1-.32,0-.45a2.68,2.68,0,0,0-.85-.89,1.7,1.7,0,0,1-.65-1.92A1.8,1.8,0,0,1,42.94,52a12.17,12.17,0,0,1,2.56-.1,3.71,3.71,0,0,1,1.1.16,1.68,1.68,0,0,1,1.2,1.36,1.81,1.81,0,0,1-.7,1.85c-1,.71-1.12,2.32-.3,2.92A9.1,9.1,0,0,1,50.5,65Z"/><path class="cls-3" d="M73.86,64a8.54,8.54,0,0,1,.51,5.74H55.7c0-.38-.25-.72-.25-1.11,0-1,.14-2,.15-2.93a4.35,4.35,0,0,1,1.39-3,3.41,3.41,0,0,1,2.36-1.23c.22,0,.46.09.62-.14a.41.41,0,0,1,.39-.09,9.57,9.57,0,0,0,2.45.08c.12,0,.14-.15.18-.25-.43-.73-.87-1.46-1.27-2.22a4.31,4.31,0,0,1-.59-2.19,1,1,0,0,1,1.34-.89,3.22,3.22,0,0,1,1.27.92,7.12,7.12,0,0,1,1.14,1.7,6.1,6.1,0,0,1,1.53-1.82,4.75,4.75,0,0,1,4-1.21.83.83,0,0,1,.75.91,4.35,4.35,0,0,1-.68,2.49A12.15,12.15,0,0,1,68.58,61l1.23.15A4.66,4.66,0,0,1,73.86,64Z"/><path class="cls-3" d="M31.71,69.7H26.82q0-10.76,0-21.51a15.36,15.36,0,0,0,4.88,0Q31.7,59,31.71,69.7Z"/><path class="cls-3" d="M83.49,69.7q0-10.74,0-21.48a17.41,17.41,0,0,0,4.89,0q0,10.73,0,21.47Z"/><path class="cls-4" d="M88.36,48.22a17,17,0,0,1-4.89,0H83.2a11.37,11.37,0,0,1-5.57-3.79c-.34-.44-.65-.91-1-1.43a11,11,0,0,1-3.1,3.68,10.05,10.05,0,0,1-12.79-.43,19.64,19.64,0,0,1-3-3.32,12.23,12.23,0,0,1-8,5.47,18.17,18.17,0,0,1-3.13,0c-3.7-.52-6-3-8.24-5.76a11.68,11.68,0,0,1-6.44,5.54l-.1,0a.17.17,0,0,0-.12,0,15.36,15.36,0,0,1-4.88,0l-.12,0-.13,0h-.27a11.27,11.27,0,0,1-5.47-4.46,8.37,8.37,0,0,1-.36-9c2.53-4.64,5-9.3,7.54-14,.14-.27.3-.54.46-.8a2.08,2.08,0,0,1,1.92-1h33.4c7,0,14.1,0,21.15,0a2,2,0,0,1,2,1.2c2.76,5.17,5.48,10.35,8.36,15.45a6.17,6.17,0,0,1,.59,2.93c.19,4.52-2.31,7.3-6,9.3-.4.21-.83.36-1.24.54h0l0,0Z"/><rect class="cls-5" x="22.03" y="69.7" width="71.13" height="24.92" rx="5.12"/></svg>