<svg id="Layer_1" data-name="Layer 1" xmlns="http://www.w3.org/2000/svg" viewBox="0 0 24 24">
  <title>icon</title>
  <g>
    <path d="M17.74,5.23H6.24A3.24,3.24,0,0,0,3,8.47v7a3.25,3.25,0,0,0,3.23,3.25h11.5A3.26,3.26,0,0,0,21,15.52v-7A3.25,3.25,0,0,0,17.74,5.23Zm1.75,10.29a1.75,1.75,0,0,1-1.75,1.75H6.24a1.74,1.74,0,0,1-1.73-1.75V10.77h15Zm0-6.25h-15v-.8A1.74,1.74,0,0,1,6.24,6.73h11.5a1.75,1.75,0,0,1,1.75,1.74Z" fill="#231f20"/>
    <path d="M12.74,13.76a.76.76,0,0,1-.75.75H7a.76.76,0,0,1-.75-.75A.74.74,0,0,1,7,13h5A.74.74,0,0,1,12.74,13.76Z" fill="#231f20"/>
  </g>
</svg>
