<svg id="Layer_1" data-name="Layer 1" xmlns="http://www.w3.org/2000/svg" viewBox="0 0 24 24">
  <title>icon</title>
  <g>
    <path d="M17.26,5.07l0,0-.33-.22L14.34,3.08,14.2,3H7.43A2.73,2.73,0,0,0,4.7,5.73V18.27A2.74,2.74,0,0,0,7.43,21h9.14a2.74,2.74,0,0,0,2.73-2.74V6.46Zm.26,13.2a1,1,0,0,1-.95,1H7.43a1,1,0,0,1-.95-1V5.73a1,1,0,0,1,.95-1h5.13V7.92A1.58,1.58,0,0,0,14.14,9.5h3.38ZM14.34,7.72V5.24l3.18,2.17.45.31Z" fill="#231f20"/>
    <path d="M15.08,12.75H8.25a.75.75,0,0,1,0-1.5h6.83a.75.75,0,0,1,0,1.5Z" fill="#231f20"/>
    <path d="M15.08,15.05H8.25a.75.75,0,0,1,0-1.5h6.83a.75.75,0,1,1,0,1.5Z" fill="#231f20"/>
    <path d="M15.08,17.35H8.25a.75.75,0,1,1,0-1.5h6.83a.75.75,0,1,1,0,1.5Z" fill="#231f20"/>
  </g>
</svg>
