<svg id="Layer_1" data-name="Layer 1" xmlns="http://www.w3.org/2000/svg" viewBox="0 0 24 24">
  <title>icon</title>
  <path d="M17.26,5.07l0,0-.33-.22L14.34,3.09,14.2,3H7.43A2.74,2.74,0,0,0,4.7,5.73V18.27A2.74,2.74,0,0,0,7.43,21h9.14a2.74,2.74,0,0,0,2.73-2.75V6.46Zm-9,10.78h6.83a.75.75,0,1,1,0,1.5H8.25a.75.75,0,1,1,0-1.5ZM7.5,14.3a.75.75,0,0,1,.75-.75h6.83a.75.75,0,1,1,0,1.5H8.25A.74.74,0,0,1,7.5,14.3Zm7.58-1.56H8.25A.74.74,0,0,1,7.5,12a.76.76,0,0,1,.75-.75h6.83a.76.76,0,0,1,.75.75A.75.75,0,0,1,15.08,12.74Zm-.74-5V5.24l3.18,2.17.45.31Z" fill="#0096f9"/>
</svg>
