<svg xmlns="http://www.w3.org/2000/svg" viewBox="0 0 59 59">
  <title>driver icon peta</title>
  <g id="Layer_2" data-name="Layer 2">
    <g>
      <path d="M38.42,47.33c-.16,1.81-.44,5-2.9,7.09a7.84,7.84,0,0,1-2.12,1.25,2.44,2.44,0,0,0-1.28-.36H26.9a2.42,2.42,0,0,0-1.28.36,7.58,7.58,0,0,1-2.14-1.25c-2.47-2.05-2.74-5.28-2.91-7.09A15.19,15.19,0,0,1,21.13,42,9.65,9.65,0,0,1,23,37.92a7.61,7.61,0,0,1,1.52-1.37l-.09-18.3-2-2.68a9.66,9.66,0,0,1,3.37-5.68A9,9,0,0,1,29.47,8h.06a9.07,9.07,0,0,1,3.73,1.85,9.59,9.59,0,0,1,3.35,5.68l-2,2.68-.08,18.3A8.2,8.2,0,0,1,36,37.92,9.78,9.78,0,0,1,37.87,42,15,15,0,0,1,38.42,47.33Z" style="fill: #ccccd4"/>
      <path d="M24.84,42.45h9.32a0,0,0,0,1,0,0v9.79A3.17,3.17,0,0,1,31,55.41H28a3.17,3.17,0,0,1-3.17-3.17V42.45a0,0,0,0,1,0,0Z" style="fill: #434656"/>
      <g>
        <path d="M20.75,18.45s.08.11-.11.25l-4.82,1.94s-1.5.49-1.8-.65c0,0-.57-1,.71-1.69l5.51-1.51a4.31,4.31,0,0,1,.56,1.64Z" style="fill: #2f3145"/>
        <path d="M38.76,16.79a4.31,4.31,0,0,0-.56,1.64,8.29,8.29,0,0,0-3.32-.18h-1c-1.37-1.19-4.4-1.46-4.4-1.46s-3,.27-4.4,1.46h-1a8.29,8.29,0,0,0-3.32.18,4.31,4.31,0,0,0-.56-1.64h0a2.51,2.51,0,0,0,1.86-1.22A4.54,4.54,0,0,1,24.27,14a13,13,0,0,1,5.23-.88,13,13,0,0,1,5.23.88,4.54,4.54,0,0,1,2.16,1.57,2.51,2.51,0,0,0,1.86,1.22Z" style="fill: #434656"/>
        <path d="M38.25,18.45s-.08.11.11.25l4.82,1.94s1.5.49,1.8-.65c0,0,.57-1-.71-1.69l-5.51-1.51a4.31,4.31,0,0,0-.56,1.64Z" style="fill: #2f3145"/>
      </g>
      <path d="M29.51,8h0Z" style="fill: #ccccd4"/>
      <path d="M29.22,2.59h.5a2.62,2.62,0,0,1,2.62,2.62v5.2a0,0,0,0,1,0,0H26.6a0,0,0,0,1,0,0V5.21A2.62,2.62,0,0,1,29.22,2.59Z" style="fill: #2f3145"/>
      <path d="M29.33,4.74h.36A1.86,1.86,0,0,1,31.55,6.6v6a0,0,0,0,1,0,0H27.47a0,0,0,0,1,0,0v-6A1.86,1.86,0,0,1,29.33,4.74Z" style="fill: #ccccd4"/>
      <g>
        <g>
          <path d="M38.63,33.55l-1.42,6.09a7.22,7.22,0,0,1-1.65,3.2,5.14,5.14,0,0,1-3.46,1.72l-2.59,0-2.59,0a5.16,5.16,0,0,1-3.47-1.72,7.2,7.2,0,0,1-1.64-3.2l-1.43-6.09.45.49c.55.52,1.09,1.06,1.62,1.59a5.94,5.94,0,0,1,1.14,2.47,6.22,6.22,0,0,0,.85,2.29,1.4,1.4,0,0,0,.2.26c1,1.06,2.83,1.21,4,1.3l.57,0h.62l.57,0c1.15-.09,3-.24,4-1.3a2,2,0,0,0,.2-.26,6.16,6.16,0,0,0,.84-2.29,6.08,6.08,0,0,1,1.14-2.47L38.18,34C38.35,33.87,38.49,33.71,38.63,33.55Z" style="fill: #2f3145"/>
          <g>
            <g>
              <path d="M20.92,29.66a3.43,3.43,0,0,0-.54,3.3A5.45,5.45,0,0,0,20.82,34a18.33,18.33,0,0,1-2.21-2.73c-.62-.95-.95-1.69-1.08-1.9a5.67,5.67,0,0,1-.63-1.55,37.27,37.27,0,0,1-.65-7.29l1.83-.44a1.07,1.07,0,0,1,1.28.78,9.85,9.85,0,0,0,1.41,5.73,9.64,9.64,0,0,0,1.44,2.25A2.74,2.74,0,0,0,20.92,29.66Z" style="fill: #298dd7"/>
              <path d="M42.75,20.57a37.05,37.05,0,0,1-.66,7.29,5.58,5.58,0,0,1-.62,1.55c-.13.21-.46.95-1.09,1.9A17.55,17.55,0,0,1,38.18,34,5.45,5.45,0,0,0,38.62,33a3.45,3.45,0,0,0-.54-3.3,2.8,2.8,0,0,0-1.29-.77,9.34,9.34,0,0,0,1.43-2.25,9.88,9.88,0,0,0,1.42-5.73,1.07,1.07,0,0,1,1.28-.78Z" style="fill: #298dd7"/>
              <path d="M38.62,33a7.07,7.07,0,0,1-1.9.43l-.23,0H36a10.65,10.65,0,0,0-4.42.92,8.91,8.91,0,0,0-1.76,1l-.27.21-.28-.21a8.55,8.55,0,0,0-1.75-1A10.69,10.69,0,0,0,23,33.35h-.53l-.23,0a7,7,0,0,1-1.9-.43,3.43,3.43,0,0,1,.54-3.3,2.74,2.74,0,0,1,1.29-.77,14.86,14.86,0,0,0,7.29.54,14.86,14.86,0,0,0,7.29-.54,2.8,2.8,0,0,1,1.29.77A3.45,3.45,0,0,1,38.62,33Z" style="fill: #2f3145"/>
              <path d="M38.62,33A5.45,5.45,0,0,1,38.18,34l-1.62,1.59a6,6,0,0,0-1.14,2.48,6.28,6.28,0,0,1-.85,2.29,1.84,1.84,0,0,1-.19.25c-1,1.07-2.84,1.22-4,1.31l-.78,0h-.22l-.78,0c-1.15-.09-3-.24-4-1.31a2,2,0,0,1-.2-.25,6.22,6.22,0,0,1-.84-2.29,6.16,6.16,0,0,0-1.14-2.48L20.82,34A5.45,5.45,0,0,1,20.38,33a7,7,0,0,0,1.9.43l.23,0H23a10.69,10.69,0,0,1,4.43.92,8.55,8.55,0,0,1,1.75,1l.28.21.27-.21a8.91,8.91,0,0,1,1.76-1A10.65,10.65,0,0,1,36,33.35h.54l.23,0A7.07,7.07,0,0,0,38.62,33Z" style="fill: #298dd7"/>
            </g>
            <path d="M42.75,20.58l-1.83-.44a1.07,1.07,0,0,0-1.28.78l-.08-.55a1.46,1.46,0,0,1-1.21-1.49s1.15-.08,1.81-1.94c0,0,2.33-1.27,3.14.47C43.3,17.41,44.56,19.6,42.75,20.58Z" style="fill: #eac88d"/>
            <path d="M16.25,20.57l1.83-.44a1.07,1.07,0,0,1,1.28.78l.08-.55a1.46,1.46,0,0,0,1.21-1.49s-1.15-.07-1.81-1.94c0,0-2.33-1.27-3.14.47C15.7,17.4,14.44,19.6,16.25,20.57Z" style="fill: #eac88d"/>
          </g>
        </g>
        <g>
          <g>
            <path d="M29.51,19.71c-3.27,0-5.93,3.22-5.93,7.19a7.88,7.88,0,0,0,2.05,5.44c.16.16.31.31.47.45a1.6,1.6,0,0,0,.23.16.67.67,0,0,0,.14.11,5,5,0,0,0,6.07,0,.67.67,0,0,0,.14-.11,1.53,1.53,0,0,0,.22-.16,4.94,4.94,0,0,0,.47-.45,7.89,7.89,0,0,0,2.06-5.45C35.43,22.93,32.78,19.71,29.51,19.71Zm4.61,7.37S34,27,34,26.93l-.16-.13-.14-.11,0,0-.23-.13-.24-.13-.1-.05-.25-.1h0a1,1,0,0,0-.21-.08A4.32,4.32,0,0,0,31.8,26a7.79,7.79,0,0,0-1.43-.22c-.28,0-.56,0-.86,0a9.69,9.69,0,0,0-2.89.41.86.86,0,0,0-.21.07,1.11,1.11,0,0,0-.21.08l-.08,0a.65.65,0,0,0-.17.08l-.1,0-.21.1-.26.15-.34.26-.14.15-.12.14a4,4,0,0,1-.22-1.28c0-2.39,2.21-4.32,5-4.32s4.95,1.93,4.95,4.32a4,4,0,0,1-.22,1.28Z" style="fill: #298dd7"/>
            <path d="M31.8,26a8.75,8.75,0,0,0-1.43-.22A7.79,7.79,0,0,1,31.8,26Z" style="fill: #2f3145"/>
          </g>
          <path d="M32.9,32.8a1.53,1.53,0,0,1-.22.16,9.45,9.45,0,0,1,.12-6.7h0l.25.1A9.23,9.23,0,0,0,32.9,32.8Z" style="fill: #fefefe"/>
          <path d="M34.46,25.94a4,4,0,0,1-.22,1.28l-.12-.14S34,27,34,26.93l-.16-.13-.14-.11,0,0-.23-.13-.24-.13-.1-.05-.25-.1h0a1,1,0,0,0-.21-.08A4.32,4.32,0,0,0,31.8,26a7.79,7.79,0,0,0-1.43-.22c-.28,0-.56,0-.86,0a9.69,9.69,0,0,0-2.89.41.86.86,0,0,0-.21.07,1.11,1.11,0,0,0-.21.08l-.08,0a.65.65,0,0,0-.17.08l-.1,0a2,2,0,0,0-.21.1l-.26.15-.34.26-.14.15-.12.14a4,4,0,0,1-.22-1.28c0-2.39,2.21-4.32,5-4.32S34.46,23.55,34.46,25.94Z" style="fill: #2f3145"/>
          <path d="M26.33,33a1.6,1.6,0,0,1-.23-.16A9.17,9.17,0,0,0,26,26.38a.65.65,0,0,1,.17-.08l.08,0A9.39,9.39,0,0,1,26.33,33Z" style="fill: #fefefe"/>
        </g>
      </g>
      <path d="M29.48,8h0Z" style="fill: #ccccd4"/>
      <path d="M33.26,9.89a4.46,4.46,0,0,1-3.76,1.86,4.41,4.41,0,0,1-3.75-1.86A9,9,0,0,1,29.47,8h.06A9.07,9.07,0,0,1,33.26,9.89Z" style="fill: #e1ebf4"/>
      <path d="M33.4,55.67a10.42,10.42,0,0,1-1.73.53,9.41,9.41,0,0,1-2.17.21,9.37,9.37,0,0,1-2.17-.21,10.07,10.07,0,0,1-1.71-.53,2.42,2.42,0,0,1,1.28-.36h5.22A2.44,2.44,0,0,1,33.4,55.67Z" style="fill: #ce0934"/>
    </g>
    <g>
      <g>
        <path d="M27.49,37.36a.17.17,0,0,1-.34,0,.17.17,0,0,1,.34,0Z" style="fill: #fff"/>
        <path d="M27.32,36.85A.47.47,0,0,0,27,37v-.17a.09.09,0,0,0,0-.07.11.11,0,0,0-.07,0,.1.1,0,0,0-.1.1v.58h0a.51.51,0,1,0,.51-.52Zm0,.83a.32.32,0,1,1,.31-.32A.31.31,0,0,1,27.32,37.68Z" style="fill: #fff"/>
      </g>
      <g>
        <path d="M28.05,36.92h.14a.05.05,0,0,1,0,0s0,0,0,0,0,0,0,0v.12l0,0h.06l.11,0a.15.15,0,0,1,.09.06.26.26,0,0,1,.07.1.43.43,0,0,1,0,.26.36.36,0,0,1-.07.1.21.21,0,0,1-.1.06l-.14,0-.13,0a.19.19,0,0,1-.09-.05.1.1,0,0,1-.06-.09Zm.28.64a.1.1,0,0,0,.09,0,.18.18,0,0,0,0-.11.16.16,0,0,0,0-.11.09.09,0,0,0-.08,0h-.05l0,0v.26h.07Z" style="fill: #fff"/>
        <path d="M29,37.1h.12l.09,0,.06.07a.3.3,0,0,1,0,.1v.27s0,0,0,0l0,0a.45.45,0,0,1-.22,0h-.12l-.08,0-.06-.06a.24.24,0,0,1,0-.09.17.17,0,0,1,.05-.12.26.26,0,0,1,.15-.06l.16,0h0a0,0,0,0,0,0,0l-.09,0h-.09l-.08,0s0,0,0,0a.06.06,0,0,1,0,0,.07.07,0,0,1,0-.05.1.1,0,0,1,0,0H29Zm0,.47h0l0,0v-.09H29s0,0,0,0,0,0,0,0Z" style="fill: #fff"/>
        <path d="M29.78,37.33a.08.08,0,0,0,0,0s0,0-.06,0h-.05l0,0v.42h-.17s0,0,0,0a.07.07,0,0,1,0,0v-.36a.43.43,0,0,1,0,0l0,0,.1,0,.14,0a.33.33,0,0,1,.21.06.19.19,0,0,1,.07.16v.38h-.17s0,0,0,0a.07.07,0,0,1,0,0Z" style="fill: #fff"/>
        <path d="M30.31,37.5a.05.05,0,0,0,0,0,.08.08,0,0,0,.06,0h.07l0,0v0a.11.11,0,0,1,0,.08.17.17,0,0,1-.12,0,.25.25,0,0,1-.16,0,.18.18,0,0,1-.06-.16V37h.09l.08,0s0,0,0,.08v.07h.16s0,0,0,0,0,0,0,0a.08.08,0,0,1,0,.06l0,0h-.11Z" style="fill: #fff"/>
        <path d="M30.59,37.13h.17l0,0a.07.07,0,0,1,0,.05v.26a.14.14,0,0,0,0,.07l.07,0H31v-.41s0,0,0,0h.14l0,0a.07.07,0,0,1,0,.05v.36a.11.11,0,0,1-.05.09.18.18,0,0,1-.1,0l-.13,0-.12,0-.09,0a.16.16,0,0,1-.06-.08.2.2,0,0,1,0-.11Z" style="fill: #fff"/>
        <path d="M31.28,37a.11.11,0,1,1,.22,0,.09.09,0,0,1,0,.07.12.12,0,0,1-.16,0A.09.09,0,0,1,31.28,37Zm.21.74h-.17s0,0,0,0a.07.07,0,0,1,0,0v-.48h.17l0,0a.07.07,0,0,1,0,.05Z" style="fill: #fff"/>
        <path d="M32,37.33a.08.08,0,0,0,0,0s0,0-.06,0h-.05l0,0v.42h-.17s0,0,0,0a.07.07,0,0,1,0,0v-.36a.43.43,0,0,1,0,0l0,0,.1,0,.14,0a.33.33,0,0,1,.21.06.19.19,0,0,1,.07.16v.38H32s0,0,0,0a.07.07,0,0,1,0,0Z" style="fill: #fff"/>
      </g>
    </g>
    <g>
      <path d="M29.85,31.82a.34.34,0,0,1-.34.34.32.32,0,0,1-.34-.33.34.34,0,0,1,.33-.35A.35.35,0,0,1,29.85,31.82Z" style="fill: #fff"/>
      <path d="M29.49,30.79a1.08,1.08,0,0,0-.63.23v-.35a.25.25,0,0,0-.06-.14.2.2,0,0,0-.15-.06.21.21,0,0,0-.2.21v1.19h0a1,1,0,1,0,1-1.08Zm0,1.69a.64.64,0,0,1-.64-.63.64.64,0,0,1,.63-.65.64.64,0,0,1,0,1.28Z" style="fill: #fff"/>
    </g>
  </g>
</svg>
