<svg xmlns="http://www.w3.org/2000/svg" xmlns:xlink="http://www.w3.org/1999/xlink" viewBox="0 0 750 672.71"><defs><radialGradient id="radial-gradient" cx="372.83" cy="476.92" r="483.27" gradientUnits="userSpaceOnUse"><stop offset="0" stop-color="#fdefbe"/><stop offset="0.24" stop-color="#f9edc1"/><stop offset="0.51" stop-color="#ebe8c9"/><stop offset="0.78" stop-color="#d6dfd7"/><stop offset="1" stop-color="#bfd6e6"/></radialGradient><clipPath id="clip-path"><rect width="750" height="500" style="fill:none"/></clipPath><radialGradient id="radial-gradient-2" cx="516.75" cy="285.5" r="224.81" gradientUnits="userSpaceOnUse"><stop offset="0" stop-color="#fff"/><stop offset="0" stop-color="#f8f8f8"/><stop offset="0.24" stop-color="#f8f8f8" stop-opacity="0.99"/><stop offset="0.38" stop-color="#f8f8f8" stop-opacity="0.96"/><stop offset="0.49" stop-color="#f8f8f8" stop-opacity="0.9"/><stop offset="0.59" stop-color="#f8f8f8" stop-opacity="0.82"/><stop offset="0.68" stop-color="#f8f8f8" stop-opacity="0.72"/><stop offset="0.76" stop-color="#f8f8f8" stop-opacity="0.59"/><stop offset="0.84" stop-color="#f8f8f8" stop-opacity="0.44"/><stop offset="0.91" stop-color="#f8f8f8" stop-opacity="0.26"/><stop offset="0.98" stop-color="#f8f8f8" stop-opacity="0.07"/><stop offset="1" stop-color="#f8f8f8" stop-opacity="0"/></radialGradient><linearGradient id="linear-gradient" x1="533.91" y1="545.26" x2="513.03" y2="261.17" gradientTransform="translate(371.82 -274.08) rotate(45)" gradientUnits="userSpaceOnUse"><stop offset="0.01" stop-color="#fff"/><stop offset="0.24" stop-color="#fff" stop-opacity="0.99"/><stop offset="0.38" stop-color="#fff" stop-opacity="0.96"/><stop offset="0.49" stop-color="#fefefe" stop-opacity="0.9"/><stop offset="0.59" stop-color="#fefefe" stop-opacity="0.83"/><stop offset="0.67" stop-color="#fdfdfd" stop-opacity="0.72"/><stop offset="0.75" stop-color="#fcfcfc" stop-opacity="0.6"/><stop offset="0.83" stop-color="#fbfbfb" stop-opacity="0.45"/><stop offset="0.9" stop-color="#fafafa" stop-opacity="0.28"/><stop offset="0.97" stop-color="#f9f9f9" stop-opacity="0.09"/><stop offset="1" stop-color="#f8f8f8" stop-opacity="0"/></linearGradient><radialGradient id="radial-gradient-3" cx="567.19" cy="122.4" r="157.38" gradientTransform="translate(371.82 -274.08) rotate(45)" gradientUnits="userSpaceOnUse"><stop offset="0" stop-color="#fff"/><stop offset="0" stop-color="#f8f89a"/><stop offset="0.24" stop-color="#f8f89b" stop-opacity="0.99"/><stop offset="0.38" stop-color="#f8f89e" stop-opacity="0.96"/><stop offset="0.49" stop-color="#f8f8a3" stop-opacity="0.9"/><stop offset="0.59" stop-color="#f8f8ab" stop-opacity="0.82"/><stop offset="0.68" stop-color="#f8f8b5" stop-opacity="0.72"/><stop offset="0.76" stop-color="#f8f8c1" stop-opacity="0.59"/><stop offset="0.84" stop-color="#f8f8cf" stop-opacity="0.44"/><stop offset="0.91" stop-color="#f8f8e0" stop-opacity="0.26"/><stop offset="0.98" stop-color="#f8f8f2" stop-opacity="0.07"/><stop offset="1" stop-color="#f8f8f8" stop-opacity="0"/></radialGradient><radialGradient id="radial-gradient-4" cx="544.36" cy="183.88" r="136.84" gradientTransform="matrix(1, 0, 0, 1, 0, 0)" xlink:href="#radial-gradient-3"/><radialGradient id="radial-gradient-5" cx="521.23" cy="318.67" r="132.89" gradientTransform="translate(157.73 -173.34) rotate(22.39)" gradientUnits="userSpaceOnUse"><stop offset="0" stop-color="#fff"/><stop offset="0" stop-color="#f8f89a"/><stop offset="0.09" stop-color="#f8f89d" stop-opacity="0.97"/><stop offset="0.22" stop-color="#f8f8a6" stop-opacity="0.88"/><stop offset="0.39" stop-color="#f8f8b4" stop-opacity="0.73"/><stop offset="0.59" stop-color="#f8f8c7" stop-opacity="0.52"/><stop offset="0.81" stop-color="#f8f8e0" stop-opacity="0.26"/><stop offset="1" stop-color="#f8f8f8" stop-opacity="0"/></radialGradient><linearGradient id="linear-gradient-2" x1="173.41" y1="276.43" x2="153.41" y2="322.43" gradientUnits="userSpaceOnUse"><stop offset="0.01" stop-color="#fff"/><stop offset="0.99" stop-color="#b9dae2"/></linearGradient><linearGradient id="linear-gradient-3" x1="86.17" y1="311.28" x2="66.17" y2="357.28" xlink:href="#linear-gradient-2"/><clipPath id="clip-path-2"><path d="M515,340.2c10.11-11.14,19.18-23.14,28.7-34.77,4.18-5.09,7.39-11.13,12.45-15.45,4.58-3.91,9.84-4.35,15.57-4.34,6.35,0,11.53-2.54,16-6.89,3.51-3.43,6.46-7.46,10.43-10.4,4.33-3.19,9.36-4.53,14.65-5.1a17.73,17.73,0,0,0,9.75-3.78c2.6-2.07,4-5.1,5.6-7.9,2.92-5,8.38-8.26,13-11.55,5.35-3.81,9.63-7.93,12.9-13.69,6.26-11,11.1-22.8,17.51-33.76a.51.51,0,0,1,.88,0c4.52,6.6,7.48,15.94,14.72,20.14,2.42,1.4,6.42.68,9,.16,1.89-.38,7.45-1.89,4.64-4.52-.49-.47.22-1.12.73-.73,6,4.73,11.12,10.56,16.59,15.91,5.62,5.5,12.6,12.09,20.77,13.12,2.59.32,5-.61,7.49-1.08a12.64,12.64,0,0,1,7.59,1.22c3.67,1.63,6.68,4.37,9.92,6.66,4.19,3,8.17,3.18,12.24-.19a.53.53,0,0,1,.62-.08l66,34.85,3.22,1.7a.52.52,0,0,1,.19.7C832.69,301.52,819,322.5,804.9,343.16c-4.13,6-8.3,12.07-12.63,18a92.72,92.72,0,0,1-8.46,10.58,5.38,5.38,0,0,1-3.75,1.69c-2.92.43-5.82.94-8.72,1.45-27.57,4.78-55.07,10-82.58,15.1q-46.82,8.74-93.58,17.74c-7.91,1.53-15.84,3-23.71,4.74-1.91.42-2.88.54-4.56-.79-4.07-3.21-7.33-7.63-10.51-11.66-14.91-18.87-28.32-39-41.48-59.16A.52.52,0,0,1,515,340.2Z" style="fill:none"/></clipPath><clipPath id="clip-path-3"><path d="M326,421.89c10.11-11.14,19.18-23.14,28.7-34.77,4.18-5.1,7.39-11.13,12.45-15.46,4.58-3.91,9.84-4.35,15.57-4.33,6.35,0,11.53-2.54,16-6.9C402.26,357,405.2,353,409.18,350c4.33-3.2,9.36-4.54,14.65-5.1a17.75,17.75,0,0,0,9.75-3.79c2.6-2.06,4-5.1,5.6-7.9,2.92-5,8.38-8.25,13-11.54,16.74-11.94,25.28-21.82,35.76-40.25,4.61,2.57,6,8.26,7.35,14.07,2.52-1.82,6.59-2.56,8.81-5.86,6.27,12.35,18.28,28.07,29.67,10.23,10.23,20.48,26.15,14.68,41.12,25.24,4.19,3,8.16,3.18,12.24-.19a.51.51,0,0,1,.62-.08l66,34.84,3.22,1.71a.52.52,0,0,1,.19.7c-13.46,21.09-27.14,42.06-41.25,62.72-4.13,6.05-8.3,12.07-12.63,18a92.72,92.72,0,0,1-8.46,10.58,5.42,5.42,0,0,1-3.75,1.69c-2.92.42-5.82.94-8.72,1.44-27.57,4.78-55.08,10-82.58,15.11q-46.82,8.73-93.58,17.74c-7.91,1.53-15.84,3-23.71,4.73-1.91.43-2.88.55-4.56-.78-4.07-3.22-7.33-7.63-10.52-11.67-14.9-18.87-28.31-39-41.47-59.15A.51.51,0,0,1,326,421.89Z" style="fill:none"/></clipPath><linearGradient id="linear-gradient-4" x1="5757.72" y1="138.24" x2="5757.72" y2="106.32" gradientTransform="matrix(-1, 0, 0, 1, 6056, 0)" gradientUnits="userSpaceOnUse"><stop offset="0" stop-color="#fff" stop-opacity="0"/><stop offset="0.01" stop-color="#fff" stop-opacity="0.01"/><stop offset="0.17" stop-color="#fff" stop-opacity="0.27"/><stop offset="0.33" stop-color="#fff" stop-opacity="0.49"/><stop offset="0.48" stop-color="#fff" stop-opacity="0.67"/><stop offset="0.62" stop-color="#fff" stop-opacity="0.82"/><stop offset="0.76" stop-color="#fff" stop-opacity="0.92"/><stop offset="0.88" stop-color="#fff" stop-opacity="0.98"/><stop offset="0.97" stop-color="#fff"/></linearGradient><linearGradient id="linear-gradient-5" x1="5357.54" y1="96.43" x2="5357.54" y2="72.26" xlink:href="#linear-gradient-4"/><linearGradient id="linear-gradient-6" x1="5947.15" y1="96.43" x2="5947.15" y2="72.26" xlink:href="#linear-gradient-4"/><linearGradient id="linear-gradient-7" x1="-532.07" y1="196.21" x2="-532.07" y2="146.93" gradientTransform="matrix(-1, 0, 0, 1, -373.09, 0)" xlink:href="#linear-gradient-4"/><linearGradient id="linear-gradient-8" x1="270.63" y1="146.93" x2="270.63" y2="97.64" gradientTransform="translate(340.55)" xlink:href="#linear-gradient-4"/><linearGradient id="linear-gradient-9" x1="539.1" y1="357.19" x2="541.28" y2="352.58" gradientUnits="userSpaceOnUse"><stop offset="0" stop-color="#592a1f"/><stop offset="0.99" stop-color="#864d3a"/></linearGradient><linearGradient id="linear-gradient-10" x1="539.85" y1="351.49" x2="539.85" y2="334.27" gradientUnits="userSpaceOnUse"><stop offset="0.01" stop-color="#184733"/><stop offset="1" stop-color="#016741"/></linearGradient><linearGradient id="linear-gradient-11" x1="686.09" y1="333.92" x2="688.28" y2="329.31" xlink:href="#linear-gradient-9"/><linearGradient id="linear-gradient-12" x1="686.85" y1="328.22" x2="686.85" y2="311" xlink:href="#linear-gradient-10"/><linearGradient id="linear-gradient-13" x1="663.83" y1="337.13" x2="665.1" y2="334.44" xlink:href="#linear-gradient-9"/><linearGradient id="linear-gradient-14" x1="664.27" y1="333.8" x2="664.27" y2="323.74" xlink:href="#linear-gradient-10"/><linearGradient id="linear-gradient-15" x1="721.61" y1="331.84" x2="722.89" y2="329.15" xlink:href="#linear-gradient-9"/><linearGradient id="linear-gradient-16" x1="722.05" y1="328.52" x2="722.05" y2="318.46" xlink:href="#linear-gradient-10"/><linearGradient id="linear-gradient-17" x1="467.01" y1="368.44" x2="468.28" y2="365.75" xlink:href="#linear-gradient-9"/><linearGradient id="linear-gradient-18" x1="467.45" y1="365.12" x2="467.45" y2="355.06" xlink:href="#linear-gradient-10"/><linearGradient id="linear-gradient-19" x1="-749.78" y1="354.89" x2="-749.78" y2="305.8" gradientTransform="matrix(-1, 0, 0, 1, -163.72, 0)" gradientUnits="userSpaceOnUse"><stop offset="0" stop-color="#fffcf7"/><stop offset="0.97" stop-color="#c6d2a0"/><stop offset="0.99" stop-color="#c5d19e"/></linearGradient><linearGradient id="linear-gradient-20" x1="-744.73" y1="322.35" x2="-744.73" y2="304.66" gradientTransform="matrix(-1, 0, 0, 1, -163.72, 0)" gradientUnits="userSpaceOnUse"><stop offset="0.01" stop-color="#0494f7"/><stop offset="1" stop-color="#0680f5"/></linearGradient><linearGradient id="linear-gradient-21" x1="-722.98" y1="352.84" x2="-722.98" y2="334.02" gradientTransform="matrix(-1, 0, 0, 1, -163.72, 0)" gradientUnits="userSpaceOnUse"><stop offset="0.01" stop-color="#572121"/><stop offset="1" stop-color="#735f5d"/></linearGradient><linearGradient id="linear-gradient-22" x1="-774.9" y1="337.5" x2="-774.9" y2="328.64" xlink:href="#linear-gradient-21"/><linearGradient id="linear-gradient-23" x1="-763.01" y1="337.5" x2="-763.01" y2="328.64" xlink:href="#linear-gradient-21"/><linearGradient id="linear-gradient-24" x1="-751.35" y1="337.5" x2="-751.35" y2="328.64" xlink:href="#linear-gradient-21"/><linearGradient id="linear-gradient-25" x1="-739.46" y1="337.5" x2="-739.46" y2="328.64" xlink:href="#linear-gradient-21"/><linearGradient id="linear-gradient-26" x1="-754.13" y1="322.35" x2="-754.13" y2="304.66" xlink:href="#linear-gradient-20"/><clipPath id="clip-path-4"><polygon points="560.02 305.8 607.78 305.8 619.58 322.3 619.58 354.89 552.53 354.89 552.53 322.3 560.02 305.8" style="fill:none"/></clipPath><linearGradient id="linear-gradient-27" x1="-757.7" y1="358.86" x2="-757.7" y2="342.46" xlink:href="#linear-gradient-21"/><clipPath id="clip-path-5"><rect x="576.09" y="342.46" width="35.78" height="16.4" style="fill:none"/></clipPath><clipPath id="clip-path-6"><polygon points="596.51 308.52 596.51 298.73 604.86 298.73 604.86 314.24 599.07 314.24 596.51 308.52" style="fill:none"/></clipPath><linearGradient id="linear-gradient-28" x1="-764.41" y1="314.24" x2="-764.41" y2="298.73" gradientTransform="matrix(-1, 0, 0, 1, -163.72, 0)" gradientUnits="userSpaceOnUse"><stop offset="0.01" stop-color="#c5d19e"/><stop offset="0.03" stop-color="#c6d2a0"/><stop offset="1" stop-color="#fffcf7"/></linearGradient><linearGradient id="linear-gradient-29" x1="-754.57" y1="328.15" x2="-754.57" y2="285.41" gradientTransform="matrix(-1, 0, 0, 1, -163.72, 0)" gradientUnits="userSpaceOnUse"><stop offset="0" stop-color="#fbf4be"/><stop offset="1" stop-color="#fffcf7"/></linearGradient><linearGradient id="linear-gradient-30" x1="596.01" y1="298.33" x2="605.36" y2="298.33" gradientTransform="matrix(1, 0, 0, 1, 0, 0)" xlink:href="#linear-gradient-20"/><linearGradient id="linear-gradient-31" x1="508.97" y1="359.92" x2="514.06" y2="414.48" gradientUnits="userSpaceOnUse"><stop offset="0" stop-color="#ffc15c"/><stop offset="0.98" stop-color="#f28733"/></linearGradient><clipPath id="clip-path-8"><path d="M190.44,471.1H834.93V328.23C558.6,334.38,320.33,390.33,190.44,471.1Z" style="fill:none"/></clipPath><linearGradient id="linear-gradient-32" x1="640.85" y1="447.08" x2="846.34" y2="550.58" xlink:href="#linear-gradient-31"/><linearGradient id="linear-gradient-33" x1="504.08" y1="335.76" x2="511.72" y2="392.51" gradientUnits="userSpaceOnUse"><stop offset="0" stop-color="#f5ef65" stop-opacity="0"/><stop offset="0.19" stop-color="#f5ef65" stop-opacity="0.17"/><stop offset="0.61" stop-color="#f5ef65" stop-opacity="0.59"/><stop offset="1" stop-color="#f5ef65"/></linearGradient><clipPath id="clip-path-9"><rect width="750" height="672.71" style="fill:none"/></clipPath><linearGradient id="linear-gradient-34" x1="1444.02" y1="553.49" x2="1293.96" y2="198.66" gradientTransform="matrix(-1, 0, 0, 1, 1426.79, 0)" gradientUnits="userSpaceOnUse"><stop offset="0" stop-color="#068e5c"/><stop offset="0.49" stop-color="#5db05f"/><stop offset="1" stop-color="#b4d262"/></linearGradient><clipPath id="clip-path-10"><ellipse cx="-24.44" cy="570.54" rx="610.67" ry="234.41" style="fill:none"/></clipPath><linearGradient id="linear-gradient-35" x1="254.07" y1="450.22" x2="320.07" y2="399.22" gradientUnits="userSpaceOnUse"><stop offset="0.02" stop-color="#6bc654"/><stop offset="0.14" stop-color="#78c957"/><stop offset="1" stop-color="#cfe06d"/></linearGradient><linearGradient id="linear-gradient-36" x1="3496.87" y1="646.79" x2="3346.81" y2="291.97" gradientTransform="translate(-2703.89)" xlink:href="#linear-gradient-34"/><linearGradient id="linear-gradient-37" x1="3404.16" y1="442.59" x2="3123.73" y2="583.43" gradientTransform="translate(-2703.89)" xlink:href="#linear-gradient-34"/><linearGradient id="linear-gradient-38" x1="3387.85" y1="426.38" x2="3110.81" y2="565.52" gradientTransform="translate(-2703.89)" xlink:href="#linear-gradient-34"/><linearGradient id="linear-gradient-39" x1="3637.45" y1="517.05" x2="3551.12" y2="553.74" gradientTransform="translate(-2703.89)" xlink:href="#linear-gradient-34"/><linearGradient id="linear-gradient-40" x1="2273.55" y1="542.56" x2="2166.51" y2="605.07" gradientTransform="matrix(-1, 0, 0, 1, 3302.32, 0)" gradientUnits="userSpaceOnUse"><stop offset="0" stop-color="#b4d262"/><stop offset="0.51" stop-color="#5db05f"/><stop offset="1" stop-color="#068e5c"/></linearGradient><linearGradient id="linear-gradient-41" x1="2366.25" y1="661.79" x2="3112.8" y2="661.79" gradientTransform="matrix(-1, 0, 0, 1, 3302.32, 0)" xlink:href="#linear-gradient-33"/><linearGradient id="linear-gradient-42" x1="640.64" y1="461.92" x2="647.83" y2="446.73" xlink:href="#linear-gradient-9"/><linearGradient id="linear-gradient-43" x1="643.11" y1="443.13" x2="643.11" y2="386.37" xlink:href="#linear-gradient-10"/><linearGradient id="linear-gradient-44" x1="643.11" y1="457.12" x2="643.11" y2="444.5" xlink:href="#linear-gradient-10"/><linearGradient id="linear-gradient-45" x1="654.04" y1="413.5" x2="654.04" y2="369.95" xlink:href="#linear-gradient-10"/><linearGradient id="linear-gradient-46" x1="418.79" y1="513.51" x2="418.79" y2="511.25" gradientTransform="translate(137.81 -43.74) rotate(-11.06)" xlink:href="#linear-gradient-10"/><linearGradient id="linear-gradient-47" x1="-237.12" y1="621.94" x2="-237.12" y2="619.68" gradientTransform="matrix(0.78, -0.62, 0.62, 0.78, 442.48, -249.02)" xlink:href="#linear-gradient-10"/><linearGradient id="linear-gradient-48" x1="1153.3" y1="-294.37" x2="1153.3" y2="-296.63" gradientTransform="translate(-469.69 -44.18) rotate(36.93)" xlink:href="#linear-gradient-10"/><linearGradient id="linear-gradient-49" x1="1187.66" y1="-290.98" x2="1187.66" y2="-293.24" gradientTransform="translate(-469.69 -44.18) rotate(36.93)" xlink:href="#linear-gradient-10"/><linearGradient id="linear-gradient-50" x1="713.54" y1="489.32" x2="720.73" y2="474.13" xlink:href="#linear-gradient-9"/><linearGradient id="linear-gradient-51" x1="716.02" y1="470.54" x2="716.02" y2="413.77" xlink:href="#linear-gradient-10"/><linearGradient id="linear-gradient-52" x1="716.02" y1="484.52" x2="716.02" y2="471.9" xlink:href="#linear-gradient-10"/><linearGradient id="linear-gradient-53" x1="726.94" y1="440.9" x2="726.94" y2="397.35" xlink:href="#linear-gradient-10"/><linearGradient id="linear-gradient-54" x1="485.09" y1="554.39" x2="485.09" y2="552.13" gradientTransform="translate(137.81 -43.74) rotate(-11.06)" xlink:href="#linear-gradient-10"/><linearGradient id="linear-gradient-55" x1="-197.16" y1="688.8" x2="-197.16" y2="686.54" gradientTransform="matrix(0.78, -0.62, 0.62, 0.78, 442.48, -249.02)" xlink:href="#linear-gradient-10"/><linearGradient id="linear-gradient-56" x1="1228.04" y1="-316.27" x2="1228.04" y2="-318.53" gradientTransform="translate(-469.69 -44.18) rotate(36.93)" xlink:href="#linear-gradient-10"/><linearGradient id="linear-gradient-57" x1="1262.4" y1="-312.88" x2="1262.4" y2="-315.15" gradientTransform="translate(-469.69 -44.18) rotate(36.93)" xlink:href="#linear-gradient-10"/><linearGradient id="linear-gradient-58" x1="-49.07" y1="493.99" x2="360.58" y2="493.99" gradientUnits="userSpaceOnUse"><stop offset="0" stop-color="#e4d485"/><stop offset="1" stop-color="#fbeba2"/></linearGradient><linearGradient id="linear-gradient-59" x1="110.45" y1="372.32" x2="114.29" y2="364.21" xlink:href="#linear-gradient-9"/><linearGradient id="linear-gradient-60" x1="111.77" y1="362.29" x2="111.77" y2="332" xlink:href="#linear-gradient-10"/><linearGradient id="linear-gradient-61" x1="320.83" y1="459.66" x2="324.67" y2="451.55" xlink:href="#linear-gradient-9"/><linearGradient id="linear-gradient-62" x1="322.15" y1="449.64" x2="322.15" y2="419.34" xlink:href="#linear-gradient-10"/><linearGradient id="linear-gradient-63" x1="290.83" y1="417.99" x2="294.67" y2="409.88" xlink:href="#linear-gradient-9"/><linearGradient id="linear-gradient-64" x1="292.16" y1="407.96" x2="292.16" y2="377.67" xlink:href="#linear-gradient-10"/><linearGradient id="linear-gradient-65" x1="357.24" y1="409.99" x2="361.08" y2="401.88" xlink:href="#linear-gradient-9"/><linearGradient id="linear-gradient-66" x1="358.56" y1="399.96" x2="358.56" y2="369.67" xlink:href="#linear-gradient-10"/><linearGradient id="linear-gradient-67" x1="46.1" y1="463.66" x2="49.94" y2="455.55" xlink:href="#linear-gradient-9"/><linearGradient id="linear-gradient-68" x1="47.43" y1="453.64" x2="47.43" y2="423.34" xlink:href="#linear-gradient-10"/><linearGradient id="linear-gradient-69" x1="91.1" y1="404.19" x2="94.94" y2="396.08" xlink:href="#linear-gradient-9"/><linearGradient id="linear-gradient-70" x1="92.42" y1="394.17" x2="92.42" y2="363.87" xlink:href="#linear-gradient-10"/><linearGradient id="linear-gradient-71" x1="65.45" y1="356.15" x2="69.29" y2="348.04" xlink:href="#linear-gradient-9"/><linearGradient id="linear-gradient-72" x1="66.77" y1="346.12" x2="66.77" y2="315.83" xlink:href="#linear-gradient-10"/></defs><title>headerbiride</title><g style="isolation:isolate"><g id="BACKGROUND"><rect width="750" height="500" style="fill:url(#radial-gradient)"/></g><g id="OBJECTS"><g style="clip-path:url(#clip-path)"><path d="M544.45,60.18,506.38,508.76h36.88L505.19,60.18Zm-252,249.3L741.05,271.4v36.89L292.46,270.21Zm53.82-169.73L690.41,430l-26.08,26.08L374.05,112ZM379.43,463,669.7,118.88,695.79,145,351.66,435.24ZM420.78,82.41,621,485.62l-34.31,13.56L457.3,68ZM315.36,394.56,718.58,194.31l13.55,34.3L300.93,358ZM303.83,216.62,730.54,360.14,715.87,394,319.45,180.59ZM450.92,510.83,601.26,64.11l35,20.14-221.42,411Z" style="opacity:0.5;mix-blend-mode:screen;fill:url(#radial-gradient-2)"/><circle cx="516.75" cy="311.79" r="182.08" transform="translate(-69.11 456.72) rotate(-45)" style="mix-blend-mode:screen;fill:url(#linear-gradient)"/><circle cx="516.75" cy="311.79" r="182.08" transform="translate(-69.11 456.72) rotate(-45)" style="opacity:0.30000000000000004;mix-blend-mode:screen;fill:url(#radial-gradient-3)"/><circle cx="516.75" cy="311.79" r="119.46" style="opacity:0.5;mix-blend-mode:screen;fill:url(#radial-gradient-4)"/><circle cx="516.75" cy="311.79" r="75.4" transform="translate(-79.81 220.35) rotate(-22.39)" style="mix-blend-mode:screen;fill:url(#radial-gradient-5)"/><path d="M-195.69,431.6a24.08,24.08,0,0,1,21.35-6.17,32.34,32.34,0,0,1,4-42.29,32.35,32.35,0,0,1,44-.52A45.24,45.24,0,0,1-112.8,343,45.3,45.3,0,0,1-58.13,337,24.06,24.06,0,0,1-50.7,321.2a24,24,0,0,1,11.45-6.09c-.72-.63-1.42-1.29-2.1-2a32.35,32.35,0,0,1,1.13-45.73,32.77,32.77,0,0,1,5.41-4.16,44.06,44.06,0,0,1-5.41-18.75c-.72-14,5.88-28.24,23.12-35.71,19-8.24,43.54,4.87,49.79,24.06a32.17,32.17,0,0,1,13.64-.47.78.78,0,0,1,.23.07,30.34,30.34,0,0,1,17.11,8.2l.62-.82a56.42,56.42,0,0,1,20.49-16.71,48.63,48.63,0,0,1,28.74-3.35,1.07,1.07,0,0,1,.37.12c24.37,3,40.89,24.47,45.5,47.46a32.34,32.34,0,0,1,50.13,36.45c-.32.92-.69,1.81-1.08,2.69a24.09,24.09,0,0,1,26.2,12.24,45.27,45.27,0,0,1,80.9,13.62,32.32,32.32,0,0,1,61.57,17.89A34,34,0,1,1,361.37,390L217.52,537.53c-52.34-21.2-98.81-39.95-128.36-51.72C76.09,499.43,62,514.18,47.21,529.59l-244.41-96.4C-196.72,432.64-196.22,432.11-195.69,431.6Z" style="fill:url(#linear-gradient-2)"/><path d="M-282.93,466.45a24.08,24.08,0,0,1,21.35-6.17,32.34,32.34,0,0,1,4-42.29,32.34,32.34,0,0,1,44-.52A45.24,45.24,0,0,1-200,377.81a45.3,45.3,0,0,1,54.67-5.94,24.06,24.06,0,0,1,7.43-15.82A24,24,0,0,1-126.49,350c-.72-.63-1.42-1.29-2.1-2a32.35,32.35,0,0,1,1.13-45.73,32.77,32.77,0,0,1,5.41-4.16,44.06,44.06,0,0,1-5.41-18.75c-.72-14,5.88-28.24,23.12-35.71,19-8.24,43.54,4.87,49.8,24.06a32.12,32.12,0,0,1,13.63-.47.78.78,0,0,1,.23.07,30.34,30.34,0,0,1,17.11,8.2l.62-.82A56.42,56.42,0,0,1-2.46,257.94a48.63,48.63,0,0,1,28.74-3.35,1.07,1.07,0,0,1,.37.12c24.37,3,40.89,24.47,45.5,47.46a32.34,32.34,0,0,1,50.13,36.45c-.32.92-.69,1.81-1.08,2.68a24.12,24.12,0,0,1,26.2,12.25,45.27,45.27,0,0,1,80.9,13.62,32.32,32.32,0,0,1,61.57,17.89,34,34,0,1,1-15.74,39.74L130.28,572.38c-52.34-21.2-98.81-40-128.36-51.72C-11.15,534.28-25.28,549-40,564.44L-284.44,468C-284,467.49-283.46,467-282.93,466.45Z" style="fill:url(#linear-gradient-3)"/><path d="M515,340.2c10.11-11.14,19.18-23.14,28.7-34.77,4.18-5.09,7.39-11.13,12.45-15.45,4.58-3.91,9.84-4.35,15.57-4.34,6.35,0,11.53-2.54,16-6.89,3.51-3.43,6.46-7.46,10.43-10.4,4.33-3.19,9.36-4.53,14.65-5.1a17.73,17.73,0,0,0,9.75-3.78c2.6-2.07,4-5.1,5.6-7.9,2.92-5,8.38-8.26,13-11.55,5.35-3.81,9.63-7.93,12.9-13.69,6.26-11,11.1-22.8,17.51-33.76a.51.51,0,0,1,.88,0c4.52,6.6,7.48,15.94,14.72,20.14,2.22,1.29,4.82.37,7.09,1.11,1.33.43.53,3.57,2.75,3.82,3.26.36,6-3.48,9.12-2.85,2.71.56,8,8.31,10.84,10.26,6.12,4.29,14.33,10.65,21.9,11.6,2.59.32,5-.61,7.49-1.08a12.64,12.64,0,0,1,7.59,1.22c3.67,1.63,6.68,4.37,9.92,6.66,4.19,3,8.17,3.18,12.24-.19a.53.53,0,0,1,.62-.08l66,34.85,3.22,1.7a.52.52,0,0,1,.19.7C832.69,301.52,819,322.5,804.9,343.16c-4.13,6-8.3,12.07-12.63,18a92.72,92.72,0,0,1-8.46,10.58,5.38,5.38,0,0,1-3.75,1.69c-2.92.43-5.82.94-8.72,1.45-27.57,4.78-55.07,10-82.58,15.1q-46.82,8.74-93.58,17.74c-7.91,1.53-15.84,3-23.71,4.74-1.91.42-2.88.54-4.56-.79-4.07-3.21-7.33-7.63-10.51-11.66-14.91-18.87-28.32-39-41.48-59.16A.52.52,0,0,1,515,340.2Z" style="fill:#a1b5ca"/><g style="clip-path:url(#clip-path-2)"><path d="M670.2,162.05c-5,9.68.47,23.09.95,33.51.24,13.66-5.23,17.12-10.95,28-6.22,13.15-3.51,28.29-13.45,39.2-13.92,16.12-30.56,25.54-42.74,44.39-11.94,19.84-20.64,27.28-43,30.73-18.37,2.46-47.92,10.87-50.13-14.95-1.46-18.62,6-39.46,11-57.58,5.49-20.34,11.71-41.93,17.94-63.52,7.73-24.07,17.69-56.08,41.54-70.45,22.85-14.12,36.73,7.74,56.58,15.45,11.9,5.48,27.55.53,27.78,18.4" style="fill:#c1c5cd"/></g><path d="M326,421.89c10.11-11.14,19.18-23.14,28.7-34.77,4.18-5.1,7.39-11.13,12.45-15.46,4.58-3.91,9.84-4.35,15.57-4.33,6.35,0,11.53-2.54,16-6.9C402.26,357,405.2,353,409.18,350c4.33-3.2,9.36-4.54,14.65-5.1a17.75,17.75,0,0,0,9.75-3.79c2.6-2.06,4-5.1,5.6-7.9,2.92-5,8.38-8.25,13-11.54,16.74-11.94,25.28-21.82,35.76-40.25,4.61,2.57,6,8.26,7.35,14.07,2.52-1.82,6.59-2.56,8.81-5.86,6.27,12.35,18.28,28.07,29.67,10.23,10.23,20.48,26.15,14.68,41.12,25.24,4.19,3,8.16,3.18,12.24-.19a.51.51,0,0,1,.62-.08l66,34.84,3.22,1.71a.52.52,0,0,1,.19.7c-13.46,21.09-27.14,42.06-41.25,62.72-4.13,6.05-8.3,12.07-12.63,18a92.72,92.72,0,0,1-8.46,10.58,5.42,5.42,0,0,1-3.75,1.69c-2.92.42-5.82.94-8.72,1.44-27.57,4.78-55.08,10-82.58,15.11q-46.82,8.73-93.58,17.74c-7.91,1.53-15.84,3-23.71,4.73-1.91.43-2.88.55-4.56-.78-4.07-3.22-7.33-7.63-10.52-11.67-14.9-18.87-28.31-39-41.47-59.15A.51.51,0,0,1,326,421.89Z" style="fill:#a1b5ca"/><g style="clip-path:url(#clip-path-3)"><path d="M521.37,205.26c-5,9.68.47,23.09,1,33.52.23,13.65-5.23,17.12-11,28-6.34,13.41-3.66,33.78-19,40.82-10.65,4.88-10.79,3.63-16.34,14.45-4.16,8.1-11.43,11.25-15.91,18.72-5.64,9.4-1.47,18.75-12,24.88-11.53,6.67-13.57,4.42-19.38,17.62-3.41,7.75-6.61,13.94-16.66,12.19-6.54-1.13-10.44-6.52-17.52-7.29-7.34-.79-16,1.13-23.4,1-7.08-.14-20,4.79-23.59-1.49-5.48-9.63,5-26.38,9.32-34.64,7.69-14.55,11.8-28.4,16.22-44.45,5.48-20.35,11.72-41.94,17.94-63.53,7.73-24.07,17.69-56.08,41.54-70.45,22.85-14.12,36.73,7.74,56.57,15.46,11.91,5.47,27.56.52,27.78,18.4" style="fill:#c1c5cd"/></g></g><path d="M242.5,138.24a19.5,19.5,0,0,1,17-10,20.22,20.22,0,0,1,2.47.16,13.42,13.42,0,0,1,21.15-6.38,22.57,22.57,0,0,1,43.73,2.83,17.08,17.08,0,0,1,27.19,13.34Z" style="fill:url(#linear-gradient-4)"/><path d="M656.23,96.43a14.76,14.76,0,0,1,12.88-7.54A14.32,14.32,0,0,1,671,89a10.15,10.15,0,0,1,16-4.83,17.09,17.09,0,0,1,33.12,2.14,12.93,12.93,0,0,1,20.59,10.1Z" style="fill:url(#linear-gradient-5)"/><path d="M66.62,96.43A14.76,14.76,0,0,1,79.5,88.89a14.6,14.6,0,0,1,1.88.13,10.15,10.15,0,0,1,16-4.83,17.09,17.09,0,0,1,33.11,2.14,12.93,12.93,0,0,1,20.59,10.1Z" style="fill:url(#linear-gradient-6)"/><path d="M37.69,196.21A20.22,20.22,0,0,1,75,196.14a15.07,15.07,0,0,1,25.06-5.2,20.22,20.22,0,0,1,22.37-9.07,28.31,28.31,0,0,1,54.48-15.29A20.24,20.24,0,0,1,213,177.88c.25-.07.49-.15.75-.21a15.07,15.07,0,0,1,18.45,10.69,14.24,14.24,0,0,1,.4,2.11,28.31,28.31,0,0,1,47.65,5.74Z" style="fill:url(#linear-gradient-7)"/><path d="M732.48,146.93a20.22,20.22,0,0,0-37.31-.08,15.08,15.08,0,0,0-25.06-5.2,20.22,20.22,0,0,0-22.37-9.07,28.31,28.31,0,0,0-54.48-15.28,20.24,20.24,0,0,0-36.12,11.3l-.75-.22a15.08,15.08,0,0,0-18.45,10.69,14.49,14.49,0,0,0-.4,2.11,28.31,28.31,0,0,0-47.65,5.75Z" style="fill:url(#linear-gradient-8)"/><path d="M541,361a1.14,1.14,0,0,1-1.14,1.15h0A1.14,1.14,0,0,1,538.7,361V350.21a1.15,1.15,0,0,1,1.15-1.15h0a1.15,1.15,0,0,1,1.14,1.15Z" style="fill:url(#linear-gradient-9)"/><path d="M550,349.54c-.71-1-2.15-1.29-2.78-2.36-.74-1.23.15-2.84.52-4.05a3.33,3.33,0,0,0-.42-3.24c-.42-.52-1-.91-1.42-1.4a2.33,2.33,0,0,1-.15-2.7,4.66,4.66,0,0,0,.3-3.22c-.6-2.31-2.42-4.15-3.57-6.19a7.06,7.06,0,0,1-1-2.95c-.08-1.09.48-2,.59-3a9,9,0,0,0-.82-3.45c-.23-.73-.55-1.43-.75-2.17a6.63,6.63,0,0,0-.66-1.84.12.12,0,0,0-.23,0,29.46,29.46,0,0,1-1.77,5.14,5.5,5.5,0,0,0-.42,2.23,20.53,20.53,0,0,0,.48,2.17c.44,2.52-1.51,4.83-2.81,6.76s-2.48,4-1.54,6.2a3,3,0,0,1,.33,2.56,7.35,7.35,0,0,1-1.53,1.62,3.17,3.17,0,0,0-.74,3.19,24.14,24.14,0,0,1,.87,3c.14,1.24-.63,1.89-1.57,2.51a4.16,4.16,0,0,0-1.77,1.8c-.4,1-.67,4.05.4,4.76.75.5,1.35.13,2.08.36s.52.35,1,.72a3.3,3.3,0,0,0,2.35,1c2,0,3.76-1.16,5.7-1.14,1.39,0,2.62.83,4,.91,1.63.1,2.4-1.65,3.71-1.42C551.62,355.84,551.07,351,550,349.54Z" style="fill:url(#linear-gradient-10)"/><path d="M688,337.73a1.14,1.14,0,0,1-1.14,1.14h0a1.14,1.14,0,0,1-1.15-1.14V326.94a1.14,1.14,0,0,1,1.15-1.14h0a1.14,1.14,0,0,1,1.14,1.14Z" style="fill:url(#linear-gradient-11)"/><path d="M697,326.28c-.71-1-2.15-1.3-2.78-2.36-.74-1.23.15-2.85.52-4.05a3.34,3.34,0,0,0-.42-3.25c-.42-.51-1-.91-1.42-1.39a2.33,2.33,0,0,1-.15-2.7,4.68,4.68,0,0,0,.3-3.23c-.6-2.31-2.42-4.15-3.57-6.18a7.06,7.06,0,0,1-1-2.95c-.08-1.09.48-2,.59-3.05a9.08,9.08,0,0,0-.82-3.45c-.23-.73-.55-1.43-.75-2.16a6.7,6.7,0,0,0-.66-1.85c0-.08-.21-.08-.23,0a29.46,29.46,0,0,1-1.77,5.14,5.53,5.53,0,0,0-.42,2.23,20.17,20.17,0,0,0,.48,2.18c.44,2.51-1.51,4.82-2.81,6.76s-2.48,4-1.54,6.2a2.93,2.93,0,0,1,.33,2.55,7.39,7.39,0,0,1-1.53,1.63,3.15,3.15,0,0,0-.74,3.18,24.66,24.66,0,0,1,.87,3c.14,1.24-.63,1.9-1.57,2.51a4.21,4.21,0,0,0-1.77,1.8c-.4,1-.67,4,.4,4.76.75.5,1.35.14,2.08.36s.52.35,1,.73a3.34,3.34,0,0,0,2.35,1c2,0,3.76-1.16,5.7-1.13,1.39,0,2.62.83,4,.91,1.63.1,2.4-1.65,3.71-1.43C698.62,332.57,698.07,327.78,697,326.28Z" style="fill:url(#linear-gradient-12)"/><path d="M664.94,339.35a.67.67,0,0,1-.67.67h0a.67.67,0,0,1-.67-.67v-6.3a.67.67,0,0,1,.67-.67h0a.67.67,0,0,1,.67.67Z" style="fill:url(#linear-gradient-13)"/><path d="M670.22,332.66c-.42-.59-1.25-.75-1.63-1.37s.09-1.67.31-2.37a1.94,1.94,0,0,0-.25-1.89c-.24-.31-.56-.54-.82-.82a1.37,1.37,0,0,1-.09-1.58,2.71,2.71,0,0,0,.17-1.88c-.35-1.35-1.41-2.42-2.08-3.61a4.23,4.23,0,0,1-.58-1.72,10.58,10.58,0,0,1,.35-1.78,5.29,5.29,0,0,0-.48-2c-.13-.42-.32-.83-.44-1.26a4,4,0,0,0-.38-1.08.07.07,0,0,0-.13,0,18.06,18.06,0,0,1-1,3,3.07,3.07,0,0,0-.24,1.3,10.6,10.6,0,0,0,.27,1.27c.26,1.47-.88,2.82-1.64,3.95s-1.44,2.34-.9,3.62a1.72,1.72,0,0,1,.2,1.49,4.26,4.26,0,0,1-.9.95,1.86,1.86,0,0,0-.43,1.86,13.79,13.79,0,0,1,.51,1.74c.08.73-.37,1.11-.92,1.47a2.43,2.43,0,0,0-1,1.05c-.23.57-.39,2.36.23,2.78.44.29.79.08,1.22.21s.3.2.6.42a2,2,0,0,0,1.37.58c1.14,0,2.2-.68,3.33-.66.81,0,1.53.48,2.33.53,1,.05,1.41-1,2.17-.84C671.14,336.34,670.82,333.54,670.22,332.66Z" style="fill:url(#linear-gradient-14)"/><path d="M722.72,334.07a.66.66,0,0,1-.67.66h0a.66.66,0,0,1-.67-.66v-6.3a.67.67,0,0,1,.67-.67h0a.67.67,0,0,1,.67.67Z" style="fill:url(#linear-gradient-15)"/><path d="M728,327.38c-.41-.6-1.25-.76-1.62-1.38s.09-1.66.31-2.36a2,2,0,0,0-.25-1.9c-.24-.3-.57-.53-.83-.81a1.37,1.37,0,0,1-.09-1.58,2.66,2.66,0,0,0,.17-1.88c-.35-1.35-1.4-2.43-2.08-3.62a4,4,0,0,1-.57-1.72,9.81,9.81,0,0,1,.34-1.78,5.23,5.23,0,0,0-.47-2c-.14-.43-.32-.84-.44-1.27a3.72,3.72,0,0,0-.39-1.07c0-.05-.12-.05-.13,0a17.82,17.82,0,0,1-1,3,2.9,2.9,0,0,0-.25,1.3,11.55,11.55,0,0,0,.28,1.27c.26,1.47-.89,2.82-1.64,4s-1.45,2.33-.9,3.62a1.72,1.72,0,0,1,.19,1.49,4.45,4.45,0,0,1-.89,1,1.84,1.84,0,0,0-.43,1.86,15,15,0,0,1,.5,1.74c.08.72-.36,1.1-.91,1.46a2.37,2.37,0,0,0-1,1c-.24.58-.4,2.37.22,2.78.44.3.79.08,1.22.22s.3.2.6.42a1.92,1.92,0,0,0,1.37.57c1.14,0,2.2-.67,3.33-.66.82,0,1.54.49,2.34.53,1,.06,1.4-1,2.16-.83C728.93,331.06,728.6,328.25,728,327.38Z" style="fill:url(#linear-gradient-16)"/><path d="M468.12,370.67a.66.66,0,0,1-.67.66h0a.66.66,0,0,1-.67-.66v-6.3a.67.67,0,0,1,.67-.67h0a.67.67,0,0,1,.67.67Z" style="fill:url(#linear-gradient-17)"/><path d="M473.4,364c-.41-.6-1.25-.76-1.62-1.38s.09-1.66.3-2.36a2,2,0,0,0-.25-1.9c-.24-.3-.56-.53-.82-.81a1.37,1.37,0,0,1-.09-1.58,2.71,2.71,0,0,0,.17-1.88c-.35-1.35-1.41-2.43-2.08-3.62a4,4,0,0,1-.57-1.72,9.81,9.81,0,0,1,.34-1.78,5.24,5.24,0,0,0-.48-2c-.13-.43-.32-.84-.43-1.27a4.42,4.42,0,0,0-.39-1.07c0-.05-.12-.05-.13,0a17,17,0,0,1-1,3,3,3,0,0,0-.24,1.3,11.5,11.5,0,0,0,.27,1.27c.26,1.47-.88,2.82-1.64,3.95s-1.44,2.33-.9,3.62a1.72,1.72,0,0,1,.2,1.49,4.26,4.26,0,0,1-.9.95,1.86,1.86,0,0,0-.43,1.86,13.32,13.32,0,0,1,.51,1.74c.08.72-.37,1.1-.92,1.46a2.48,2.48,0,0,0-1,1.05c-.23.58-.39,2.37.23,2.78.44.29.79.08,1.22.21s.3.21.6.43a1.92,1.92,0,0,0,1.37.57c1.14,0,2.2-.67,3.33-.66.81,0,1.53.49,2.34.53s1.4-1,2.16-.83C474.32,367.66,474,364.85,473.4,364Z" style="fill:url(#linear-gradient-18)"/><polygon points="560.02 305.8 607.78 305.8 619.58 322.3 619.58 354.89 552.53 354.89 552.53 322.3 560.02 305.8" style="fill:url(#linear-gradient-19)"/><polygon points="603.26 322.35 550.84 322.35 558.76 304.66 611.17 304.66 603.26 322.35" style="fill:url(#linear-gradient-20)"/><polygon points="567.44 305.8 567.44 354.89 552.53 354.89 552.53 322.3 560.02 305.8 567.44 305.8" style="fill:#fff2bf"/><path d="M559.26,334a4.1,4.1,0,0,1,4.1,4.1v14.72h-8.2V338.12A4.09,4.09,0,0,1,559.26,334Z" style="fill:url(#linear-gradient-21)"/><path d="M611.18,328.64a2.72,2.72,0,0,1,2.72,2.72v6.14h-5.43v-6.14A2.71,2.71,0,0,1,611.18,328.64Z" style="fill:url(#linear-gradient-22)"/><path d="M599.29,328.64a2.71,2.71,0,0,1,2.71,2.72v6.14h-5.43v-6.14A2.72,2.72,0,0,1,599.29,328.64Z" style="fill:url(#linear-gradient-23)"/><path d="M587.63,328.64a2.71,2.71,0,0,1,2.71,2.72v6.14h-5.43v-6.14A2.72,2.72,0,0,1,587.63,328.64Z" style="fill:url(#linear-gradient-24)"/><path d="M575.73,328.64a2.72,2.72,0,0,1,2.72,2.72v6.14H573v-6.14A2.71,2.71,0,0,1,575.73,328.64Z" style="fill:url(#linear-gradient-25)"/><polygon points="567.17 322.35 621.56 322.35 613.65 304.66 559.26 304.66 567.17 322.35" style="fill:url(#linear-gradient-26)"/><g style="clip-path:url(#clip-path-4)"><rect x="576.09" y="342.46" width="35.78" height="16.4" style="fill:url(#linear-gradient-27)"/><g style="clip-path:url(#clip-path-5)"><rect x="570.42" y="344.65" width="46.21" height="1.49" style="fill:#6d3434;opacity:0.30000000000000004;mix-blend-mode:multiply"/><rect x="569.93" y="348.22" width="46.21" height="1.49" style="fill:#6d3434;opacity:0.30000000000000004;mix-blend-mode:multiply"/></g></g><g style="clip-path:url(#clip-path-6)"><polygon points="596.51 308.52 596.51 298.73 604.86 298.73 604.86 314.24 599.07 314.24 596.51 308.52" style="fill:url(#linear-gradient-28)"/><rect x="582.6" y="285.41" width="16.5" height="42.74" style="fill:url(#linear-gradient-29)"/></g><rect x="596.01" y="297.14" width="9.34" height="2.39" style="fill:url(#linear-gradient-30)"/><g style="clip-path:url(#clip-path)"><path d="M190.44,471.1H834.93V328.23C558.6,334.38,320.33,390.33,190.44,471.1Z" style="fill:url(#linear-gradient-31)"/><g style="clip-path:url(#clip-path-8)"><path d="M792.73,450.72c-.26.91-5.77.29-14.47-1.43s-20.53-4.76-33.72-7.71l-9.69-2.34-8.2-2c-1.54-.36-3.16-.79-4.87-1.16L716.4,435l-26-5.44c-2.44-.55-5-1-7.55-1.41l-7.94-1.4-16.89-3-4.43-.77c-1.49-.24-3-.44-4.51-.65L639.8,421l-19.29-2.73c-1.65-.26-3.31-.41-5-.6l-5-.54-10.24-1.1-10.44-1.12-5.28-.57-5.33-.41-21.69-1.6L552,412c-.92-.07-1.83-.16-2.76-.19l-2.76-.12-11.12-.45-11.18-.45-5.6-.23c-1.87-.08-3.75-.17-5.62-.16l-22.51-.17c-3.75,0-7.5-.1-11.24,0l-11.19.27-22.19.56-21.75,1.24-10.67.6c-.88.06-1.76.09-2.64.17l-2.63.23-5.22.46c-13.85,1.26-27.24,2.25-39.83,3.94l-18.36,2.2c-1.48.19-3,.32-4.41.55L336,421l-8.37,1.26L312,424.62c-2.48.4-4.92.7-7.25,1.14L297.91,427l-22.8,4.1-4.47.82-3.93.82L260.53,434l-5.14,1.08c-26.55,5.56-26.63,5.28-.14-.64l5.13-1.14,6.17-1.38,3.92-.87,4.46-.88,22.76-4.4,6.81-1.32c2.34-.47,4.77-.81,7.25-1.23l15.66-2.57,8.36-1.36,4.3-.71c1.45-.25,2.92-.4,4.4-.61l18.36-2.44c12.6-1.86,26-3,39.87-4.47l5.22-.53,2.63-.27c.88-.08,1.77-.13,2.65-.2l10.69-.74,21.79-1.53,22.25-.84,11.22-.42c3.76-.11,7.52-.06,11.28-.1l22.59-.12c1.88,0,3.76,0,5.64.09l5.63.15,11.23.32,11.17.31,2.78.08c.93,0,1.85.1,2.77.15l5.52.34,21.8,1.34,5.37.34,5.31.5,10.5,1,10.31,1,5.08.49c1.68.16,3.36.3,5,.53l19.43,2.51,9.32,1.2c1.53.2,3.05.38,4.55.6l4.45.72,17,2.78,8,1.3c2.6.43,5.15.81,7.61,1.33l26.23,5.18,5.43,1.07c1.73.36,3.36.77,4.91,1.12l8.27,1.92,9.77,2.29a318.12,318.12,0,0,1,33.39,9.68C788,447.57,793,449.82,792.73,450.72Zm-69.94,15a318.12,318.12,0,0,0-33.39-9.68l-9.77-2.29-8.27-1.92c-1.55-.35-3.18-.76-4.91-1.12L661,449.66l-26.23-5.18c-2.46-.52-5-.9-7.61-1.33l-8-1.31-17-2.77-4.46-.73c-1.5-.21-3-.39-4.55-.59l-9.32-1.21L564.4,434c-1.66-.24-3.34-.37-5-.53L554.3,433,544,432l-10.5-1-5.31-.51-5.37-.33L501,428.87l-5.52-.34c-.92,0-1.84-.13-2.77-.15l-2.78-.08L478.78,428l-11.24-.32-5.63-.15c-1.87-.06-3.75-.12-5.64-.09l-22.59.12c-3.76,0-7.52,0-11.27.1l-11.23.42-22.25.84-21.79,1.53-10.69.74c-.88.07-1.77.12-2.64.2l-2.63.27-5.23.53c-13.87,1.44-27.27,2.61-39.86,4.46l-18.37,2.45c-1.47.2-3,.36-4.39.61l-4.31.7-8.36,1.37L255,444.34c-2.48.42-4.91.76-7.25,1.22l-6.81,1.32-22.76,4.41-4.46.88-3.92.87-6.17,1.38-5.13,1.14c-26.49,5.92-26.41,6.2.14.64l5.14-1.08,6.18-1.29,3.93-.83,4.47-.81,22.8-4.11,6.82-1.22c2.34-.44,4.77-.75,7.25-1.14l15.67-2.35,8.37-1.26,4.31-.65c1.44-.23,2.92-.36,4.4-.55l18.36-2.2c12.59-1.69,26-2.68,39.84-3.94l5.22-.46,2.62-.24c.88-.07,1.76-.1,2.64-.16l10.67-.61,21.75-1.23,22.19-.56,11.19-.28c3.74-.05,7.49,0,11.24,0l22.51.17c1.87,0,3.75.08,5.62.16l5.61.23,11.18.45,11.11.45,2.77.11c.92,0,1.83.13,2.75.19l5.5.41,21.68,1.6,5.33.41L533,436l10.44,1.12,10.25,1.1,5,.54c1.68.18,3.34.34,5,.6l19.29,2.73,9.26,1.3c1.52.22,3,.42,4.52.65l4.42.78,16.9,3,7.93,1.39c2.59.46,5.12.87,7.55,1.42l26,5.44,5.39,1.13c1.71.37,3.32.79,4.86,1.16l8.2,2,9.7,2.34c13.19,2.95,25,6,33.71,7.71s14.21,2.34,14.47,1.43S731.2,468.66,722.79,465.74ZM839.2,421.36a318.12,318.12,0,0,0-33.39-9.68L796,409.39l-8.27-1.92c-1.55-.35-3.18-.76-4.91-1.12l-5.43-1.07L751.2,400.1c-2.46-.52-5-.9-7.61-1.33l-8-1.31-17-2.77-4.45-.73c-1.5-.21-3-.39-4.56-.59l-9.32-1.21-19.42-2.5c-1.66-.24-3.34-.37-5-.53l-5.08-.49-10.31-1-10.5-1-5.31-.51-5.37-.34-21.8-1.33-5.52-.34c-.92,0-1.85-.13-2.77-.15l-2.78-.08-11.17-.31L584,383.29l-5.63-.15c-1.88-.06-3.76-.12-5.64-.09l-22.59.12c-3.76,0-7.53,0-11.28.1l-11.22.42-22.25.84-21.79,1.53-10.69.74c-.88.07-1.77.12-2.65.2l-2.63.27-5.22.53c-13.87,1.44-27.27,2.61-39.87,4.46l-18.36,2.45c-1.48.21-2.95.36-4.4.61l-4.3.7-8.36,1.37L371.41,400c-2.48.42-4.91.76-7.25,1.22l-6.81,1.32-22.76,4.41-4.46.88-3.92.87L320,410l-5.13,1.14c-26.49,5.91-26.41,6.2.14.64l5.14-1.08,6.18-1.29,3.92-.83,4.48-.81,22.79-4.11,6.82-1.23c2.34-.43,4.78-.74,7.26-1.13L387.31,399l8.37-1.26,4.3-.65c1.45-.23,2.93-.36,4.4-.55l18.37-2.2c12.59-1.69,26-2.68,39.83-3.94l5.22-.46,2.63-.24c.88-.07,1.76-.1,2.64-.16l10.67-.61,21.75-1.23,22.19-.56,11.19-.28c3.74-.05,7.49,0,11.24,0l22.51.17c1.87,0,3.75.08,5.62.16l5.6.23,11.18.45,11.12.45,2.76.11c.92,0,1.84.13,2.76.19l5.49.41,21.69,1.6,5.33.41,5.28.57,10.44,1.12,10.24,1.1,5,.54c1.67.18,3.34.34,5,.6l19.29,2.73,9.25,1.3c1.52.22,3,.42,4.52.65l4.43.78,16.89,3,7.94,1.39c2.58.46,5.11.87,7.55,1.42l26,5.44,5.38,1.13c1.71.37,3.33.79,4.87,1.16l8.2,2,9.69,2.34c13.19,2.95,25,6,33.72,7.71s14.21,2.34,14.47,1.43S847.61,424.28,839.2,421.36ZM901,403.9a318.12,318.12,0,0,0-33.39-9.68l-9.77-2.29L849.61,390c-1.55-.35-3.18-.76-4.91-1.12l-5.43-1.07L813,382.64c-2.46-.52-5-.9-7.61-1.33l-8-1.31-17-2.77L776,376.5c-1.5-.21-3-.39-4.55-.6l-9.32-1.2-19.43-2.5c-1.66-.24-3.34-.37-5-.54l-5.08-.48-10.31-1-10.5-1-5.31-.51-5.37-.34L679.26,367l-5.52-.34c-.92-.05-1.84-.13-2.77-.15l-2.78-.08L657,366.15l-11.23-.32-5.63-.16c-1.87-.05-3.75-.12-5.64-.08l-22.59.12c-3.76,0-7.52,0-11.28.1l-11.22.42-22.25.84-21.79,1.52-10.69.75c-.88.07-1.77.12-2.64.2l-2.63.27-5.23.53c-13.87,1.44-27.27,2.61-39.87,4.46L466,377.24c-1.48.21-3,.37-4.4.62l-4.3.7-8.36,1.37-15.66,2.56c-2.48.43-4.91.76-7.25,1.23L419.19,385l-22.76,4.41-4.46.87-3.92.88-6.17,1.38-5.13,1.14c-26.49,5.91-26.41,6.2.14.64l5.14-1.08,6.18-1.3,3.93-.82,4.47-.81,22.8-4.11,6.82-1.23c2.34-.43,4.77-.74,7.25-1.13l15.67-2.35,8.37-1.26,4.31-.65c1.44-.23,2.92-.36,4.4-.55l18.36-2.2c12.59-1.69,26-2.68,39.83-3.94l5.22-.47,2.63-.23c.88-.07,1.76-.1,2.64-.16l10.67-.61,21.75-1.24,22.19-.55,11.19-.28c3.74-.05,7.49,0,11.24.05l22.51.17c1.87,0,3.75.08,5.62.16l5.6.22,11.18.46,11.12.45,2.77.11c.92,0,1.83.13,2.75.19l5.5.41,21.68,1.6,5.33.41,5.28.56,10.44,1.13,10.25,1.1,5,.54c1.68.18,3.34.34,5,.6l19.29,2.73,9.26,1.3c1.51.22,3,.42,4.52.65l4.42.78,16.9,3,7.93,1.39c2.59.46,5.12.87,7.55,1.41l26,5.45,5.39,1.12c1.71.38,3.32.8,4.86,1.17l8.2,2,9.69,2.34c13.2,3,25,6,33.72,7.7S914,410.89,914.23,410,909.45,406.82,901,403.9Zm48-18.19A318.12,318.12,0,0,0,915.67,376l-9.78-2.29-8.26-1.92c-1.55-.35-3.18-.76-4.91-1.12l-5.43-1.07-26.23-5.18c-2.46-.52-5-.9-7.61-1.33l-8-1.31-17-2.77-4.45-.73c-1.51-.21-3-.39-4.55-.59l-9.33-1.21L790.67,354c-1.66-.23-3.34-.37-5-.54l-5.08-.48-10.31-1-10.5-1-5.31-.51-5.37-.34-21.8-1.33-5.52-.34c-.92-.05-1.84-.13-2.77-.15l-2.78-.08L705,348l-11.23-.32-5.63-.15c-1.88-.06-3.76-.12-5.64-.09l-22.59.12c-3.76,0-7.53,0-11.28.1l-11.22.42-22.25.84-21.79,1.53-10.69.74c-.88.07-1.77.12-2.65.2l-2.63.27-5.22.53c-13.87,1.44-27.27,2.61-39.87,4.46L514,359.06c-1.48.21-2.95.36-4.4.61l-4.3.71-8.36,1.36-15.66,2.56c-2.48.43-4.91.77-7.25,1.23l-6.81,1.32-22.76,4.41-4.47.88-3.91.87-6.17,1.38-5.13,1.14c-26.49,5.92-26.41,6.2.14.64l5.14-1.08,6.18-1.29,3.92-.83,4.48-.81,22.79-4.11,6.82-1.22c2.34-.44,4.78-.75,7.26-1.14l15.67-2.35,8.37-1.26,4.3-.65c1.45-.23,2.93-.36,4.4-.55l18.37-2.2c12.59-1.69,26-2.68,39.83-3.94l5.22-.46,2.63-.24c.88-.07,1.76-.1,2.64-.16l10.67-.61L615.35,352l22.19-.56,11.19-.28c3.74-.05,7.49,0,11.24.05l22.51.17c1.87,0,3.74.08,5.62.16l5.6.23,11.18.45,11.12.45,2.76.11c.92,0,1.84.13,2.76.19l5.49.41L748.7,355l5.33.41,5.28.57,10.44,1.12,10.24,1.1,5,.54c1.67.18,3.34.34,5,.6l19.29,2.73,9.25,1.3c1.52.22,3,.42,4.52.65l4.43.78,16.89,3,7.94,1.39c2.58.46,5.11.87,7.55,1.42l26,5.44,5.38,1.13c1.71.37,3.33.8,4.87,1.16l8.2,2,9.69,2.34c13.19,3,25,6,33.72,7.71s14.21,2.34,14.47,1.43S957.46,388.63,949.06,385.71Zm19.64-18.19a316.69,316.69,0,0,0-33.39-9.68l-9.77-2.29-8.27-1.92c-1.55-.35-3.18-.76-4.9-1.12l-5.44-1.07-26.23-5.18c-2.45-.52-5-.9-7.61-1.33l-8-1.3-17-2.78-4.46-.72c-1.5-.22-3-.4-4.55-.6l-9.32-1.2-19.43-2.51c-1.66-.23-3.33-.37-5-.53l-5.08-.49-10.31-1-10.5-1-5.31-.51-5.36-.33-21.81-1.34-5.52-.34c-.92-.05-1.84-.13-2.77-.15l-2.78-.08-11.16-.31-11.23-.31-5.63-.16c-1.88-.06-3.76-.12-5.65-.09l-22.59.12c-3.76,0-7.52,0-11.27.1l-11.23.42-22.24.84-21.8,1.53-10.69.74c-.88.07-1.76.12-2.64.2l-2.63.27-5.23.53c-13.87,1.44-27.27,2.61-39.86,4.47l-18.36,2.44c-1.48.21-3,.36-4.4.61l-4.31.71-8.36,1.36-15.66,2.57c-2.48.42-4.91.76-7.25,1.23l-6.81,1.32-22.76,4.4-4.46.88-3.92.87-6.17,1.38-5.13,1.14c-26.49,5.92-26.41,6.2.14.64l5.14-1.08,6.19-1.29,3.92-.82,4.47-.82,22.8-4.1,6.82-1.23c2.34-.44,4.77-.74,7.25-1.14l15.67-2.35,8.37-1.26,4.31-.65c1.44-.23,2.92-.36,4.4-.55l18.36-2.2c12.59-1.69,26-2.68,39.84-3.94l5.22-.46,2.62-.23c.88-.08,1.76-.11,2.64-.17l10.68-.6L635,333.85l22.18-.56,11.2-.27c3.74-.06,7.48,0,11.23,0l22.51.17c1.88,0,3.75.08,5.62.16l5.61.23,11.18.45,11.11.45,2.77.11c.92,0,1.84.13,2.75.19l5.5.41,21.68,1.6,5.34.41,5.28.57,10.43,1.12,10.25,1.1,5,.54c1.68.19,3.34.34,5,.6L829,343.9l9.26,1.31c1.52.21,3,.41,4.52.65l4.42.77,16.9,3L872,351c2.59.45,5.12.86,7.55,1.41l26,5.44L911,359c1.71.37,3.32.8,4.86,1.16l8.2,2,9.7,2.34c13.19,3,25,6,33.71,7.71s14.21,2.34,14.47,1.44S977.11,370.45,968.7,367.52Z" style="fill:url(#linear-gradient-32)"/></g><path d="M212.62,471.1C341.29,394,569.78,340.3,834.93,332.53v-4.3c-276.33,6.15-514.6,62.1-644.49,142.87Z" style="fill:url(#linear-gradient-33)"/></g><g style="clip-path:url(#clip-path-9)"><path d="M5.1,317.61a11,11,0,0,1,4.4,2.19,16.88,16.88,0,0,1,16.34-5c.4.1.8.22,1.2.35,0-.23.07-.46.13-.69a11,11,0,0,1,21.21-.66,16.88,16.88,0,0,1,21.05,13.82A11,11,0,1,1,64.77,342a16.89,16.89,0,0,1-27.2-4.41,16.89,16.89,0,0,1-30.91.94A11,11,0,0,1,0,339,11,11,0,1,1,5.1,317.61Z" style="fill:#4a9038"/><path d="M18,325.68A6.64,6.64,0,0,1,20.66,327a10.13,10.13,0,0,1,9.81-3q.36.09.72.21a2.7,2.7,0,0,1,.08-.41,6.6,6.6,0,0,1,12.73-.4,10.15,10.15,0,0,1,12.64,8.3,6.6,6.6,0,1,1-2.8,8.61,10.14,10.14,0,0,1-16.33-2.65,10.13,10.13,0,0,1-18.55.56A6.61,6.61,0,1,1,18,325.68Z" style="fill:#4a9038;opacity:0.5;mix-blend-mode:multiply"/><path d="M141.78,338.74a11,11,0,0,1,4.4,2.19,16.87,16.87,0,0,1,16.33-5c.41.1.81.22,1.21.34,0-.22.07-.45.12-.68a11,11,0,0,1,21.22-.66,16.88,16.88,0,0,1,21.05,13.82,11,11,0,1,1-4.66,14.34,16.89,16.89,0,0,1-27.2-4.41,16.89,16.89,0,0,1-30.91.94,11,11,0,1,1-1.56-20.9Z" style="fill:#4a9038"/><path d="M154.69,346.81a6.62,6.62,0,0,1,2.65,1.32,10.13,10.13,0,0,1,9.81-3q.36.09.72.21c0-.14,0-.28.07-.41a6.6,6.6,0,0,1,12.74-.4,10.15,10.15,0,0,1,12.64,8.3,6.6,6.6,0,1,1-2.8,8.61,10.14,10.14,0,0,1-16.33-2.65,10.14,10.14,0,0,1-18.56.56,6.61,6.61,0,1,1-.94-12.55Z" style="fill:#4a9038;opacity:0.5;mix-blend-mode:multiply"/><path d="M257,354.78a9.8,9.8,0,0,0-4.39.86,15.37,15.37,0,0,0-13.14-8.32c-.38,0-.76,0-1.13,0,0-.21,0-.42,0-.63A10,10,0,0,0,219.92,341a15.38,15.38,0,0,0-21.82,7,10,10,0,1,0,.62,13.71,15.39,15.39,0,0,0,24.95,2.71,15.37,15.37,0,0,0,26.9,8.29,10,10,0,1,0,6.42-18Z" style="fill:#4a9038"/><path d="M243.7,358.74a6,6,0,0,0-2.64.52,9.2,9.2,0,0,0-7.88-5h-.69c0-.12,0-.25,0-.38a6,6,0,0,0-11.09-3.43,9.25,9.25,0,0,0-13.1,4.23A6,6,0,1,0,204,365a6,6,0,0,0,4.77-2.09,9.22,9.22,0,0,0,15,1.62,9.23,9.23,0,0,0,16.15,5,6,6,0,1,0,3.86-10.79Z" style="fill:#4a9038;opacity:0.5;mix-blend-mode:multiply"/><path d="M450.72,416.55a10.07,10.07,0,0,0-4.46-.43A15.36,15.36,0,0,0,436,404.42c-.37-.12-.73-.23-1.1-.32a6,6,0,0,0,.23-.59,10,10,0,0,0-16.07-10.72,15.39,15.39,0,0,0-22.92.55,10,10,0,1,0-3.3,13.33A15.37,15.37,0,0,0,416,416.35,15.38,15.38,0,0,0,439.45,432a10,10,0,1,0,11.27-15.4Z" style="fill:#4a9038"/><path d="M436.85,416.57a6.18,6.18,0,0,0-2.68-.25,9.24,9.24,0,0,0-6.14-7l-.66-.19c.05-.12.1-.23.14-.35a6,6,0,0,0-9.65-6.44,9.25,9.25,0,0,0-13.77.33,6,6,0,1,0-2,8,9.24,9.24,0,0,0,13.9,5.81,9.23,9.23,0,0,0,14.07,9.36,6,6,0,1,0,6.77-9.25Z" style="fill:#4a9038;opacity:0.5;mix-blend-mode:multiply"/><ellipse cx="-24.44" cy="570.54" rx="610.67" ry="234.41" style="fill:url(#linear-gradient-34)"/><path d="M-24.44,336.13c-46.7,0-92.18,2-135.87,5.83,37.08-2.7,75.34-4.12,114.46-4.12,337.27,0,610.67,105,610.67,234.41,0,111.54-202.93,204.88-474.79,228.59,282.55-20.57,496.2-115.86,496.2-230.3C586.23,441.08,312.83,336.13-24.44,336.13Z" style="fill:#595a5b"/><g style="clip-path:url(#clip-path-10)"><path d="M-61.47,613.7c6.86-8.21,16.49-19.38,28.34-29.8l8.65-7.84,7.33-6.6c1.38-1.23,2.81-2.58,4.36-3.89l4.94-4L16,542.07c2.21-1.89,4.62-3.58,7-5.38l7.46-5.49,15.87-11.68,4.16-3.06c1.41-1,2.88-1.92,4.33-2.89l8.9-5.88,18.55-12.26c1.57-1.08,3.22-2,4.87-3l5-2.93,10.07-5.94,10.26-6,5.19-3.06,5.36-2.81,21.78-11.36,5.52-2.88c.93-.47,1.83-1,2.78-1.42l2.84-1.3,11.4-5.21,11.47-5.24,5.75-2.63c1.92-.88,3.83-1.78,5.81-2.52L214,429.77c3.93-1.52,7.81-3.18,11.78-4.59l12-4,23.68-8L285,406.41l11.6-3.29c1-.26,1.92-.56,2.88-.79l2.91-.68,5.79-1.34c15.37-3.5,30.07-7.25,44.38-9.55l20.7-3.77c1.68-.29,3.31-.66,5-.86l4.94-.67,9.59-1.31,18-2.43c2.86-.36,5.61-.84,8.35-1.06l7.95-.73,26.56-2.43,5.22-.47,4.65-.23,7.32-.36,6.09-.3c31.43-1.57,31.54-1.07.27,1.09l-6.05.41-7.28.51-4.62.32L454,379,427.63,382l-7.9.88c-2.72.28-5.45.81-8.29,1.22l-17.84,2.78-9.53,1.48-4.9.77c-1.66.23-3.28.64-4.94.95l-20.54,4.17c-14.2,2.57-28.78,6.6-44,10.4L304,406.06l-2.89.73c-.95.26-1.9.57-2.85.86l-11.49,3.51-23.43,7.15-23.43,8.46L228,431c-3.93,1.48-7.77,3.21-11.66,4.8l-23.29,9.77c-2,.78-3.84,1.71-5.73,2.63L181.68,451l-11.33,5.45-11.25,5.42-2.81,1.35c-.93.45-1.82,1-2.74,1.47l-5.44,3-21.49,11.74-5.28,2.91-5.11,3.15-10.11,6.22-9.93,6.11-4.89,3c-1.62,1-3.25,2-4.79,3.07L68.25,516.41l-8.76,6c-1.44,1-2.88,1.95-4.27,3l-4.09,3.13L35.52,540.46l-7.34,5.61c-2.38,1.83-4.75,3.56-6.92,5.47L-2.2,571.36l-4.86,4.1c-1.53,1.33-2.93,2.7-4.29,3.94l-7.21,6.69L-27.1,594c-11.77,10.35-22,20.34-30,26.73s-13.23,9.79-14.1,8.43S-68.28,622-61.47,613.7ZM1.72,639.49c.87,1.36,6.19-2,14.1-8.43s18.2-16.38,30-26.73l8.55-7.89,7.2-6.69c1.36-1.24,2.77-2.61,4.3-3.94l4.86-4.1,23.46-19.82c2.17-1.91,4.53-3.64,6.92-5.47l7.33-5.61L124,538.88l4.09-3.13c1.39-1,2.83-2,4.27-3q4.31-3,8.76-6l18.26-12.57c1.54-1.11,3.17-2.07,4.79-3.07l4.89-3L179,502l10.11-6.22,5.12-3.15,5.28-2.91L221,478l5.44-3c.91-.49,1.81-1,2.74-1.47l2.8-1.35,11.26-5.42,11.33-5.45,5.67-2.73c1.9-.92,3.79-1.85,5.74-2.63l23.29-9.77c3.89-1.59,7.73-3.32,11.65-4.81l11.82-4.26,23.44-8.46,23.42-7.15,11.5-3.51c.95-.29,1.89-.6,2.85-.86l2.89-.73,5.73-1.44c15.23-3.79,29.8-7.83,44-10.4l20.54-4.17c1.66-.31,3.28-.72,4.94-.95l4.9-.77,9.53-1.48,17.84-2.78c2.84-.41,5.57-.95,8.29-1.22l7.9-.88,26.41-2.94,5.18-.56,4.62-.32L544,388l6.05-.41c31.27-2.16,31.16-2.66-.28-1.09l-6.09.3-7.32.36-4.64.23-5.22.47L500,390.28,492,391c-2.73.22-5.48.7-8.34,1.06l-18,2.43-9.59,1.31-4.94.67c-1.67.2-3.31.57-5,.86l-20.7,3.77c-14.32,2.3-29,6.05-44.39,9.55L375.32,412l-2.91.68c-1,.23-1.92.53-2.88.79l-11.6,3.29-23.67,6.72-23.68,8-11.95,4c-4,1.41-7.85,3.07-11.79,4.59l-23.56,9.34c-2,.74-3.89,1.64-5.81,2.52l-5.75,2.63-11.47,5.24-11.4,5.21-2.84,1.3c-.95.43-1.85.95-2.78,1.42l-5.52,2.88L195.93,482l-5.36,2.81-5.19,3.06-10.26,6-10.07,5.94-5,2.92c-1.64,1-3.3,1.91-4.86,3L136.67,518l-8.9,5.88c-1.46,1-2.92,1.91-4.34,2.89l-4.15,3.06L103.4,541.55,96,547c-2.43,1.8-4.83,3.49-7,5.37L65.05,571.88l-4.94,4c-1.56,1.31-3,2.66-4.37,3.89l-7.32,6.6-8.66,7.84c-11.84,10.42-21.47,21.59-28.33,29.8S.85,638.14,1.72,639.49Zm67.07,21c.87,1.36,6.2-2,14.1-8.43s18.21-16.38,30-26.73l8.54-7.89,7.21-6.69c1.36-1.24,2.76-2.61,4.29-3.94l4.86-4.1,23.46-19.82c2.17-1.91,4.53-3.64,6.92-5.47l7.33-5.61,15.62-11.93,4.09-3.13c1.39-1,2.83-2,4.27-3q4.31-3,8.76-6l18.26-12.57c1.54-1.11,3.17-2.07,4.79-3.07l4.89-3,9.93-6.11,10.11-6.22,5.11-3.15,5.28-2.91L288.08,499l5.44-3c.92-.49,1.81-1,2.74-1.47l2.81-1.35,11.25-5.42,11.33-5.45,5.68-2.73c1.89-.92,3.78-1.85,5.73-2.62l23.29-9.77c3.89-1.6,7.73-3.33,11.66-4.81l11.82-4.27,23.43-8.46,23.43-7.15L438.18,439c.95-.28,1.9-.6,2.85-.86l2.89-.73,5.73-1.44c15.23-3.79,29.8-7.83,44-10.4l20.54-4.17c1.66-.31,3.28-.72,4.94-.95l4.9-.76,9.53-1.49,17.84-2.78c2.84-.41,5.57-1,8.29-1.22l7.9-.88L594,410.37l5.19-.56,4.62-.32,7.28-.5,6-.42c31.27-2.16,31.16-2.66-.27-1.09l-6.09.3-7.33.36-4.64.24-5.22.46L567,411.27l-8,.73c-2.73.22-5.48.7-8.34,1.06l-18,2.44-9.59,1.3-4.94.67c-1.67.2-3.3.57-5,.86l-20.7,3.77c-14.31,2.3-29,6-44.38,9.55L442.39,433l-2.91.68c-1,.23-1.91.53-2.88.79L425,437.75l-23.66,6.72-23.69,8-11.95,4c-4,1.41-7.85,3.07-11.79,4.59l-23.56,9.34c-2,.74-3.89,1.64-5.81,2.52l-5.75,2.63-11.47,5.24-11.4,5.21-2.84,1.3c-.95.44-1.85.95-2.78,1.42l-5.52,2.88L263,503l-5.36,2.81q-2.59,1.55-5.19,3.06l-10.26,6-10.07,5.94-5,2.93c-1.64,1-3.29,1.9-4.86,3L203.74,539l-8.9,5.88c-1.45,1-2.92,1.91-4.33,2.89l-4.16,3.06-15.87,11.68L163,568c-2.43,1.8-4.83,3.49-7,5.38l-23.86,19.47-4.94,4c-1.55,1.31-3,2.66-4.36,3.89l-7.33,6.6-8.65,7.84C95,625.66,85.36,636.83,78.5,645S67.92,659.13,68.79,660.48Zm49.14,35.94c.87,1.36,6.2-2,14.1-8.44s18.21-16.38,30-26.73l8.54-7.89,7.21-6.69c1.36-1.24,2.76-2.61,4.29-3.94l4.86-4.1,23.46-19.81c2.17-1.92,4.54-3.64,6.92-5.48l7.34-5.6,15.61-11.94,4.09-3.12c1.39-1,2.83-2,4.27-3l8.76-6,18.26-12.57c1.54-1.11,3.17-2.07,4.79-3.07l4.89-3,9.93-6.1,10.11-6.23,5.11-3.15,5.28-2.9,21.49-11.75,5.44-3c.92-.48,1.81-1,2.74-1.46l2.81-1.35,11.25-5.42,11.33-5.45,5.68-2.74c1.89-.91,3.78-1.85,5.74-2.62l23.28-9.77c3.89-1.6,7.73-3.33,11.66-4.81L429,494l23.43-8.45,23.43-7.16,11.49-3.51c1-.28,1.9-.6,2.85-.85l2.89-.73,5.73-1.45c15.24-3.79,29.81-7.83,44-10.39l20.54-4.17c1.66-.32,3.28-.72,4.94-1l4.91-.76,9.52-1.49,17.84-2.78c2.84-.41,5.57-.94,8.29-1.22l7.9-.87,26.41-2.94,5.19-.57,4.62-.32,7.28-.5,6-.42c31.27-2.16,31.16-2.65-.27-1.09l-6.09.3-7.32.37-4.65.23-5.22.46-26.56,2.44-7.95.72c-2.74.23-5.49.71-8.35,1.06l-18,2.44-9.6,1.3-4.94.67c-1.67.21-3.3.58-5,.86L541.71,458c-14.32,2.29-29,6-44.39,9.55l-5.79,1.34-2.91.67c-1,.24-1.91.53-2.88.8l-11.6,3.29-23.66,6.71-23.69,8-12,4c-4,1.41-7.85,3.06-11.78,4.59l-23.57,9.33c-2,.74-3.89,1.64-5.81,2.52l-5.75,2.63-11.47,5.24L345.06,522l-2.84,1.3c-.94.43-1.85,1-2.78,1.42l-5.52,2.87-21.78,11.36-5.36,2.82-5.19,3-10.25,6.05-10.08,5.94-5,2.92c-1.65,1-3.3,1.91-4.87,3L252.88,575l-8.9,5.89c-1.45,1-2.92,1.9-4.33,2.89l-4.16,3-15.87,11.69L212.16,604c-2.42,1.79-4.83,3.49-7,5.37l-23.86,19.47-4.94,4c-1.55,1.32-3,2.66-4.36,3.89l-7.33,6.6L156,651.17c-11.85,10.42-21.48,21.6-28.34,29.81S117.06,695.06,117.93,696.42Zm-266.47-79.94c.87,1.35,6.19-2,14.1-8.44s18.21-16.38,30-26.73l8.55-7.89,7.21-6.69c1.36-1.24,2.76-2.61,4.29-3.94l4.86-4.1,23.46-19.81c2.17-1.92,4.53-3.65,6.92-5.48l7.33-5.61,15.62-11.93,4.09-3.13c1.39-1,2.83-2,4.27-3q4.31-3,8.76-6L9.15,491.18c1.54-1.11,3.17-2.07,4.79-3.07l4.89-3L28.76,479l10.11-6.22L44,469.62l5.28-2.91L70.75,455l5.44-3c.92-.48,1.81-1,2.74-1.47l2.81-1.35L93,443.76l11.33-5.46,5.68-2.73c1.89-.92,3.78-1.85,5.73-2.62L139,423.18c3.89-1.6,7.73-3.33,11.66-4.81l11.82-4.27,23.43-8.46,23.43-7.15L220.85,395c1-.28,1.89-.6,2.85-.85l2.89-.73,5.73-1.45c15.23-3.79,29.8-7.83,44-10.4l20.54-4.17c1.66-.31,3.28-.71,4.94-.95l4.9-.76,9.53-1.49,17.84-2.78c2.84-.41,5.57-.94,8.29-1.22l7.9-.88,26.41-2.94,5.19-.56,4.61-.32,7.29-.5,6.05-.42c31.27-2.16,31.16-2.66-.28-1.09l-6.08.3-7.33.36-4.64.24-5.22.46-26.57,2.43-7.95.73c-2.73.22-5.48.7-8.34,1.06l-18,2.44-9.59,1.3-4.94.67c-1.67.2-3.3.57-5,.86l-20.7,3.77c-14.31,2.3-29,6.05-44.38,9.55L225.06,389l-2.91.68c-1,.23-1.92.53-2.88.8l-11.6,3.29L184,400.46l-23.69,8-11.95,4c-4,1.42-7.85,3.07-11.78,4.59L113,426.44c-2,.74-3.89,1.64-5.81,2.52l-5.75,2.63L90,436.83,78.59,442l-2.84,1.3c-1,.44-1.85,1-2.78,1.42l-5.52,2.88L45.67,459l-5.36,2.81-5.19,3.06-10.26,6.05-10.07,5.93-5,2.93c-1.65,1-3.3,1.9-4.87,3L-13.59,495l-8.9,5.88c-1.45,1-2.92,1.91-4.34,2.89L-31,506.85l-15.87,11.68-7.46,5.5c-2.43,1.79-4.83,3.48-7,5.37l-23.86,19.47-4.94,4c-1.55,1.31-3,2.66-4.36,3.89l-7.33,6.6-8.66,7.84c-11.84,10.42-21.47,21.59-28.33,29.8S-149.41,615.12-148.54,616.48Zm-75.8-2.3c.87,1.36,6.2-2,14.1-8.43s18.21-16.38,30-26.73c1.44-1.34,4.35-4,8.54-7.89q3.14-2.93,7.21-6.69c1.36-1.24,2.76-2.61,4.29-4l4.86-4.09,23.46-19.82c2.18-1.91,4.54-3.64,6.92-5.47l7.34-5.61L-102,513.56l4.09-3.12c1.4-1,2.84-2,4.27-3l8.76-6,18.26-12.56c1.54-1.11,3.17-2.07,4.79-3.07l4.89-3L-47,476.7l10.11-6.22,5.12-3.15,5.27-2.91L-5,452.67l5.45-3c.91-.49,1.81-1,2.74-1.47l2.8-1.35,11.26-5.42L28.52,436l5.68-2.73c1.89-.92,3.78-1.85,5.74-2.63l23.29-9.77c3.89-1.59,7.72-3.32,11.65-4.81l11.82-4.26,23.43-8.46,23.43-7.16,11.49-3.51c1-.28,1.9-.59,2.86-.85l2.88-.73,5.73-1.45c15.24-3.79,29.81-7.82,44-10.39l20.54-4.17c1.67-.32,3.29-.72,4.94-1l4.91-.76,9.52-1.48,17.85-2.78c2.84-.41,5.57-.95,8.29-1.22l7.9-.88,26.4-2.94,5.19-.56,4.62-.32,7.28-.51,6.06-.42c31.26-2.16,31.15-2.65-.28-1.09l-6.09.31-7.32.36-4.65.23-5.22.47L273.91,365l-8,.73c-2.74.22-5.49.7-8.35,1.05l-18,2.44-9.6,1.31-4.94.67c-1.67.2-3.3.57-5,.85l-20.69,3.78c-14.32,2.3-29,6.05-44.39,9.55l-5.78,1.34-2.91.68c-1,.23-1.92.53-2.88.79l-11.61,3.29-23.66,6.71-23.68,8-12,4c-4,1.41-7.85,3.07-11.79,4.59l-23.57,9.34c-2,.74-3.89,1.63-5.8,2.52l-5.75,2.62L14.2,434.54,2.79,439.75,0,441.05c-.94.43-1.85.95-2.78,1.42l-5.51,2.88-21.79,11.36-5.35,2.81-5.19,3.06-10.26,6L-61,474.56l-5,2.92c-1.65,1-3.3,1.91-4.86,3l-18.55,12.26-8.9,5.88c-1.46,1-2.92,1.9-4.34,2.89l-4.16,3.06-15.87,11.68-7.46,5.49c-2.42,1.8-4.82,3.49-7,5.37L-161,546.57l-4.94,4c-1.56,1.31-3,2.66-4.37,3.88l-7.33,6.61-8.65,7.83c-11.85,10.42-21.48,21.6-28.34,29.81S-225.2,612.83-224.34,614.18Zm-61.9-9.3c.87,1.36,6.2-2,14.1-8.44s18.21-16.38,30-26.73l8.54-7.89,7.21-6.69c1.36-1.24,2.76-2.6,4.29-3.94l4.86-4.1,23.46-19.81c2.17-1.92,4.53-3.64,6.92-5.48l7.33-5.6,15.62-11.94,4.09-3.12c1.39-1,2.83-2,4.27-3l8.76-6,18.26-12.57c1.54-1.11,3.17-2.07,4.79-3.07l4.89-3,9.93-6.1,10.11-6.23,5.11-3.15,5.28-2.9,21.49-11.75,5.44-3c.92-.49,1.81-1,2.74-1.47l2.81-1.35,11.25-5.42,11.33-5.45L-27.7,424c1.89-.91,3.78-1.85,5.73-2.62l23.29-9.77c3.89-1.6,7.73-3.33,11.66-4.81L24.8,402.5l23.43-8.45,23.43-7.16,11.49-3.51c.95-.28,1.9-.6,2.85-.85l2.89-.73,5.73-1.45c15.23-3.79,29.8-7.83,44-10.39l20.54-4.17c1.66-.32,3.28-.72,4.94-1l4.9-.76,9.53-1.49,17.84-2.78c2.84-.41,5.57-.94,8.29-1.22l7.9-.87L239,354.77l5.19-.57,4.62-.32,7.28-.5,6.05-.42c31.27-2.16,31.16-2.65-.27-1.09l-6.09.3-7.32.37-4.65.23-5.22.46L212,355.67l-7.95.72c-2.74.23-5.49.71-8.35,1.06l-18,2.44-9.59,1.3-4.94.67c-1.67.21-3.3.58-5,.86l-20.7,3.78c-14.31,2.29-29,6.05-44.38,9.55l-5.79,1.34-2.91.67c-1,.24-1.91.54-2.88.8L70,382.15l-23.66,6.71-23.68,8-12,4.05c-4,1.41-7.85,3.06-11.78,4.59l-23.57,9.34c-2,.73-3.89,1.63-5.81,2.51L-36.24,420l-11.47,5.24-11.4,5.22-2.84,1.3c-.95.43-1.85.95-2.78,1.42L-70.25,436-92,447.4l-5.36,2.82-5.19,3.06-10.26,6-10.07,5.94-5,2.92c-1.65,1-3.3,1.91-4.87,3l-18.55,12.25-8.9,5.89c-1.45,1-2.92,1.9-4.34,2.89l-4.15,3.05-15.87,11.69-7.46,5.49c-2.43,1.79-4.83,3.49-7,5.37l-23.86,19.47-4.94,4c-1.55,1.32-3,2.66-4.36,3.89l-7.33,6.6-8.65,7.84c-11.85,10.42-21.48,21.6-28.34,29.81S-287.11,603.52-286.24,604.88Zm-32.4-21.26c.86,1.35,6.19-2,14.09-8.44s18.21-16.38,30-26.73l8.54-7.89,7.21-6.69c1.36-1.24,2.77-2.61,4.3-3.94s3.16-2.68,4.86-4.1L-226.2,506c2.17-1.92,4.53-3.65,6.92-5.48l7.33-5.61L-196.33,483l4.08-3.13c1.4-1,2.84-2,4.27-3l8.76-6,18.27-12.56c1.54-1.11,3.17-2.07,4.79-3.07l4.88-3,9.93-6.11,10.11-6.22,5.12-3.15,5.28-2.91,21.49-11.74,5.44-3c.91-.49,1.81-1,2.74-1.47l2.8-1.35q5.61-2.7,11.26-5.42l11.32-5.45,5.68-2.73c1.9-.92,3.78-1.85,5.74-2.63l23.29-9.77c3.89-1.59,7.73-3.32,11.65-4.8l11.82-4.27,23.43-8.46,23.43-7.15,11.5-3.51c1-.29,1.89-.6,2.85-.86l2.88-.73,5.73-1.44c15.24-3.79,29.81-7.83,44-10.4l20.53-4.17c1.67-.31,3.29-.72,5-.95l4.9-.77,9.53-1.48L164,338.54c2.84-.41,5.57-.94,8.29-1.22l7.9-.88,26.4-2.94,5.19-.56,4.62-.32,7.28-.5,6.06-.42c31.26-2.16,31.16-2.66-.28-1.09l-6.09.3-7.32.36-4.64.23-5.22.47L179.6,334.4l-7.95.73c-2.74.22-5.48.7-8.34,1.06l-18,2.44-9.59,1.3-4.94.67c-1.67.2-3.31.57-5,.86l-20.7,3.77c-14.32,2.3-29,6-44.39,9.55L55,356.12l-2.91.68c-1,.23-1.92.53-2.88.79l-11.61,3.29L13.9,367.6l-23.68,8-12,4c-4,1.41-7.85,3.07-11.79,4.59l-23.56,9.34c-2,.74-3.89,1.64-5.81,2.52l-5.75,2.63L-80.11,404l-11.41,5.21-2.83,1.3c-1,.44-1.86.95-2.78,1.42l-5.52,2.88-21.79,11.36-5.35,2.81L-135,432l-10.26,6L-155.31,444l-5,2.93c-1.64,1-3.3,1.9-4.86,3l-18.55,12.26-8.9,5.88c-1.46,1-2.92,1.91-4.34,2.89l-4.16,3.06L-217,485.67l-7.45,5.49c-2.43,1.8-4.83,3.49-7,5.38L-255.31,516l-4.94,4c-1.56,1.31-3,2.66-4.37,3.89l-7.32,6.6-8.66,7.84c-11.84,10.42-21.47,21.59-28.34,29.8S-319.51,582.26-318.64,583.62Z" style="fill:url(#linear-gradient-35)"/></g><ellipse cx="800.2" cy="663.85" rx="610.67" ry="234.41" style="fill:url(#linear-gradient-36)"/><path d="M189.53,627.24c1.86,1.19,9-1.21,19-6.1a363.8,363.8,0,0,0,36.18-21c3.34-2.14,13.3-8.79,28.48-18.5,3.8-2.43,7.92-5.06,12.38-7.82l6.9-4.29,7.41-4.47c5-3.1,10.52-6.2,16.17-9.52l8.82-4.94c3-1.69,6.07-3.39,9.27-5.06,12.63-6.83,26.64-13.73,41.82-20.49,7.55-3.43,15.56-6.65,23.73-9.94l25.43-9.57c34.91-12.41,73.77-23.26,113.43-32.11S618.72,457.69,657,452.65c4.79-.62,9.5-1.34,14.22-1.87l14-1.59,13.7-1.55c4.51-.52,9-.86,13.41-1.29l13.05-1.19c4.29-.38,8.51-.83,12.67-1.08l24.09-1.7c3.86-.3,7.65-.47,11.35-.65l10.84-.53,10.29-.5,4.93-.23,4.79-.13,17.6-.47c5.43-.16,10.42-.31,14.93-.28l20.91-.1c2.41,0,4.26,0,5.5,0l1.89,0c38.11.72,38.22.2,0-1.16l-1.89-.07c-1.25,0-3.1,0-5.51-.08l-21-.26c-4.52-.1-9.53,0-15,0l-17.67.18-4.81.05-5,.15-10.35.33-10.9.35c-3.72.11-7.54.23-11.42.47l-24.27,1.29c-4.2.19-8.45.57-12.78.88l-13.17,1c-4.45.36-9,.62-13.54,1.07l-13.84,1.33L670,446.42c-4.78.45-9.55,1.1-14.39,1.65-38.72,4.44-79.84,10.7-120.35,19s-80.4,18.67-116.58,30.78l-26.37,9.36c-8.51,3.24-16.88,6.43-24.78,9.83-15.9,6.71-30.57,13.57-43.75,20.37-3.35,1.66-6.57,3.35-9.69,5s-6.23,3.28-9.2,4.91c-5.89,3.29-11.62,6.38-16.85,9.45l-7.7,4.44-7.16,4.25c-4.64,2.74-8.9,5.33-12.82,7.74-15.7,9.61-25.89,16.16-29.26,18.32a317.24,317.24,0,0,0-32.16,23.48C191.39,621.48,187.65,626,189.53,627.24Z" style="fill:url(#linear-gradient-37)"/><path d="M342.45,573.29c1,.54,4.35-.71,9-3.15,2.34-1.22,5-2.74,7.84-4.48l2.16-1.35,2.35-1.35c1.58-.93,3.2-1.9,4.84-2.91l4.8-3c2.34-1.48,5.36-3.44,9.29-5.58l13.4-7.61L413.46,535c25.28-12.6,60.41-26.51,97.12-37.65,36.59-11.34,74.84-19.46,103.77-24.43l10.39-1.74c3.3-.56,6.43-1.09,9.4-1.48l15.35-2.17c4.24-.64,7.62-1,9.9-1.24l3.51-.41c18.11-2.09,18.08-2.35-.15-.56l-3.53.35c-2.3.24-5.7.52-10,1.08l-15.46,1.92c-3,.34-6.16.82-9.49,1.32l-10.5,1.57c-29.22,4.51-68,12-105.34,22.85C471,505,434.87,518.5,408.69,530.91l-17.95,8.76-13.93,7.55c-4.07,2.14-7.22,4.1-9.66,5.58l-5,3c-1.67,1-3.28,2-4.81,3-.76.5-1.52,1-2.23,1.49l-2,1.52c-2.57,2-4.77,3.83-6.52,5.43C343.14,570.53,341.48,572.76,342.45,573.29Z" style="fill:url(#linear-gradient-38)"/><path d="M1066.8,557.88c1.41-1.66-13.34-8.56-34.07-14-2.55-.72-10.43-2.71-22.41-5.35s-28.19-5.71-47.36-8.39-41.29-4.87-64.85-5.81l-8.88-.35c-3-.1-6-.13-9-.2-6-.17-12.12-.12-18.23-.15-12.24.1-24.6.36-36.87,1-49.17,2.28-96.66,8.84-131.6,14.52-17.48,2.85-31.88,5.47-41.93,7.33l-15.73,3c-21.14,4.15-21,4.44.29.65L652,547.37c10.11-1.7,24.6-4.06,42.15-6.62,35.07-5.09,82.63-10.82,131.36-12.28,12.16-.42,24.38-.48,36.44-.38,6,.13,12,.18,18,.44,3,.12,5.91.2,8.84.34l8.72.48c23.11,1.3,44.71,3.82,63.35,6.71s34.35,6.13,45.94,8.88,19.23,4.77,21.71,5.47C1048.61,555.71,1065.3,559.66,1066.8,557.88Z" style="fill:url(#linear-gradient-39)"/><path d="M1275.84,565.13c2-1.83-15.17-12.7-40-22.75-3.06-1.29-12.5-5-26.93-10.16s-34-11.52-57.36-17.87-50.41-12.56-79.44-17.44l-11-1.83c-3.68-.59-7.39-1.11-11.11-1.67-7.44-1.16-15-2.06-22.57-3.06-15.17-1.81-30.53-3.44-45.84-4.59-61.28-4.94-121.17-4.31-165.36-2.78-22.11.78-40.37,1.74-53.11,2.47l-20,1.21c-26.86,1.81-26.72,2.2.26.86l20.06-.87c12.79-.51,31.12-1.15,53.27-1.56,44.26-.76,104.1-.36,164.7,5.53,15.15,1.39,30.3,3.25,45.23,5.27,7.46,1.11,14.88,2.12,22.18,3.38,3.65.61,7.3,1.18,10.9,1.82l10.74,2c28.43,5.25,54.79,11.79,77.43,18.31s41.61,13,55.53,18.25,23.07,9,26,10.21C1253.65,559.58,1273.71,567.11,1275.84,565.13Z" style="fill:url(#linear-gradient-40)"/><path d="M800.2,429.43c46.7,0,92.18,2,135.87,5.83-37.08-2.7-75.34-4.11-114.47-4.11-337.26,0-610.67,105-610.67,234.41,0,111.54,202.94,204.87,474.8,228.59-282.55-20.57-496.2-115.86-496.2-230.3C189.53,534.38,462.93,429.43,800.2,429.43Z" style="fill:url(#linear-gradient-41)"/><path d="M673.91,479.48c0,4.14-13.79,7.49-30.8,7.49s-30.79-3.35-30.79-7.49,13.79-7.5,30.79-7.5S673.91,475.34,673.91,479.48Z" style="fill:#3cba59;opacity:0.5;mix-blend-mode:multiply"/><path d="M646.89,474.46a3.77,3.77,0,0,1-3.78,3.77h0a3.77,3.77,0,0,1-3.77-3.77V438.91a3.77,3.77,0,0,1,3.77-3.77h0a3.77,3.77,0,0,1,3.78,3.77Z" style="fill:url(#linear-gradient-42)"/><path d="M676.7,436.72c-2.33-3.36-7.06-4.28-9.16-7.78-2.44-4.06.51-9.37,1.74-13.35,1.17-3.77,1.13-7.5-1.41-10.69-1.36-1.71-3.18-3-4.66-4.61-2.49-2.71-1.82-5.82-.49-8.9a15.4,15.4,0,0,0,1-10.62c-2-7.62-7.95-13.68-11.75-20.4a23.1,23.1,0,0,1-3.24-9.72c-.24-3.58,1.59-6.58,2-10,.4-3.73-1.6-7.9-2.71-11.37-.77-2.4-1.81-4.7-2.47-7.13a22.17,22.17,0,0,0-2.19-6.09.41.41,0,0,0-.74.1c-1.08,5.94-3.72,11.34-5.84,16.95a17.65,17.65,0,0,0-1.37,7.34c.14,2.47,1.13,4.77,1.56,7.18,1.45,8.28-5,15.9-9.27,22.28-4,5.95-8.16,13.19-5.08,20.44,1.16,2.74,2.54,5.49,1.09,8.42-1.06,2.16-3.38,3.68-5,5.36-2.92,2.94-3.38,6.61-2.43,10.5.82,3.32,2.47,6.4,2.86,9.82.46,4.08-2.07,6.24-5.16,8.27-2.39,1.57-4.71,3.18-5.83,5.92-1.32,3.26-2.22,13.36,1.3,15.69,2.48,1.65,4.45.46,6.86,1.2,2,.62,1.7,1.16,3.39,2.38,2.83,2,3.94,3.22,7.75,3.25,6.44.05,12.41-3.83,18.79-3.73,4.59.07,8.66,2.72,13.18,3,5.4.33,7.92-5.44,12.22-4.7C681.92,457.47,680.1,441.66,676.7,436.72Z" style="fill:url(#linear-gradient-43)"/><g style="opacity:0.5"><path d="M676.7,436.72c-2.33-3.36-7.06-4.28-9.16-7.78l-.07-.14c2.28,6.43,2.28,17.61-6.56,16.1-4.31-.74-6.83,5-12.23,4.7-4.52-.27-8.59-2.92-13.18-3-6.38-.1-12.35,3.77-18.79,3.73-3.81,0-4.92-1.21-7.74-3.26-1.18-.85-1.38-1.36-2.08-1.81-.15,3.72.4,7.67,2.44,9,2.48,1.65,4.45.46,6.86,1.2,2,.62,1.7,1.16,3.39,2.38,2.83,2,3.94,3.22,7.75,3.25,6.44.05,12.41-3.83,18.79-3.73,4.59.07,8.66,2.72,13.18,3,5.4.33,7.92-5.44,12.22-4.7C681.92,457.47,680.1,441.66,676.7,436.72Z" style="mix-blend-mode:multiply;fill:url(#linear-gradient-44)"/><path d="M640,329.83c-.37,3.46-2.2,6.45-2,10a23.29,23.29,0,0,0,3.24,9.72c3.8,6.71,9.77,12.78,11.76,20.39a15.49,15.49,0,0,1-1,10.63c-1.33,3.08-2,6.18.5,8.9,1.47,1.6,3.29,2.9,4.65,4.6,2.54,3.19,2.58,6.92,1.41,10.7-1.23,4-4.18,9.28-1.74,13.34,2.1,3.5,6.84,4.42,9.16,7.79a10.63,10.63,0,0,1,.77,1.36c-1-3.78,1.36-8.25,2.43-11.71,1.17-3.77,1.13-7.5-1.41-10.69-1.36-1.71-3.18-3-4.66-4.61-2.49-2.71-1.82-5.82-.49-8.9a15.4,15.4,0,0,0,1-10.62c-2-7.62-7.95-13.68-11.75-20.4a23.1,23.1,0,0,1-3.24-9.72c-.24-3.58,1.59-6.58,2-10,.4-3.73-1.6-7.9-2.71-11.37-.77-2.4-1.81-4.7-2.47-7.13a22.17,22.17,0,0,0-2.19-6.09.41.41,0,0,0-.74.1,52.21,52.21,0,0,1-2.88,9.49A12.47,12.47,0,0,1,640,329.83Z" style="mix-blend-mode:multiply;fill:url(#linear-gradient-45)"/></g><path d="M647.44,380.59a3.47,3.47,0,1,1,1-3.13A4.46,4.46,0,0,1,647.44,380.59Z" style="opacity:0.5;mix-blend-mode:multiply;fill:url(#linear-gradient-46)"/><path d="M644.92,385.75a4.46,4.46,0,0,1-3-1.3,1.86,1.86,0,1,1,3,1.3Z" style="opacity:0.5;mix-blend-mode:multiply;fill:url(#linear-gradient-47)"/><path d="M628.71,414.1a3.48,3.48,0,1,1,3-1.39A4.46,4.46,0,0,1,628.71,414.1Z" style="opacity:0.5;mix-blend-mode:multiply;fill:url(#linear-gradient-48)"/><path d="M654.15,437.45a3.48,3.48,0,1,1,3-1.38A4.43,4.43,0,0,1,654.15,437.45Z" style="opacity:0.5;mix-blend-mode:multiply;fill:url(#linear-gradient-49)"/><path d="M746.81,506.88c0,4.14-13.78,7.5-30.79,7.5s-30.79-3.36-30.79-7.5S699,499.39,716,499.39,746.81,502.74,746.81,506.88Z" style="fill:#3cba59;opacity:0.5;mix-blend-mode:multiply"/><path d="M719.79,501.86a3.77,3.77,0,0,1-3.77,3.77h0a3.77,3.77,0,0,1-3.77-3.77V466.31a3.77,3.77,0,0,1,3.77-3.77h0a3.77,3.77,0,0,1,3.77,3.77Z" style="fill:url(#linear-gradient-50)"/><path d="M749.61,464.13c-2.33-3.37-7.06-4.29-9.16-7.79C738,452.28,741,447,742.19,443c1.17-3.78,1.13-7.51-1.41-10.7-1.36-1.71-3.19-3-4.66-4.61-2.49-2.71-1.82-5.81-.49-8.89a15.49,15.49,0,0,0,1-10.63c-2-7.61-8-13.68-11.75-20.4a23.11,23.11,0,0,1-3.24-9.71c-.25-3.59,1.58-6.59,2-10,.4-3.74-1.6-7.9-2.71-11.38-.77-2.4-1.81-4.7-2.47-7.13a22.17,22.17,0,0,0-2.19-6.09.41.41,0,0,0-.74.1c-1.08,5.94-3.72,11.34-5.84,17a17.69,17.69,0,0,0-1.37,7.35c.14,2.46,1.13,4.76,1.55,7.17,1.46,8.28-5,15.9-9.26,22.29-4,5.94-8.16,13.18-5.08,20.43,1.16,2.74,2.54,5.49,1.09,8.42-1.06,2.16-3.39,3.69-5,5.36-2.91,2.94-3.37,6.61-2.42,10.5.82,3.32,2.47,6.4,2.85,9.83.47,4.08-2.06,6.23-5.15,8.26-2.39,1.58-4.71,3.19-5.83,5.92-1.33,3.27-2.22,13.37,1.29,15.7,2.49,1.64,4.45.45,6.86,1.19,2.06.63,1.71,1.16,3.4,2.38,2.82,2,3.93,3.23,7.75,3.26,6.44,0,12.41-3.83,18.78-3.74,4.6.08,8.66,2.73,13.19,3,5.39.32,7.92-5.44,12.22-4.71C754.83,484.87,753,469.06,749.61,464.13Z" style="fill:url(#linear-gradient-51)"/><g style="opacity:0.5"><path d="M749.61,464.13c-2.33-3.37-7.06-4.29-9.16-7.79a.83.83,0,0,1-.07-.13c2.28,6.42,2.27,17.61-6.56,16.09-4.31-.74-6.83,5-12.23,4.7-4.52-.27-8.59-2.92-13.18-3-6.38-.1-12.35,3.78-18.79,3.73-3.81,0-4.92-1.21-7.75-3.25-1.17-.85-1.37-1.37-2.07-1.82-.15,3.73.4,7.68,2.43,9,2.49,1.64,4.45.45,6.86,1.19,2.06.63,1.71,1.16,3.4,2.38,2.82,2,3.93,3.23,7.75,3.26,6.44,0,12.41-3.83,18.78-3.74,4.6.08,8.66,2.73,13.19,3,5.39.32,7.92-5.44,12.22-4.71C754.83,484.87,753,469.06,749.61,464.13Z" style="mix-blend-mode:multiply;fill:url(#linear-gradient-52)"/><path d="M712.94,357.23c-.37,3.46-2.2,6.45-2,10a23.1,23.1,0,0,0,3.24,9.72c3.8,6.72,9.77,12.78,11.75,20.39A15.43,15.43,0,0,1,725,408c-1.33,3.08-2,6.18.49,8.9,1.48,1.6,3.3,2.9,4.66,4.6,2.54,3.2,2.58,6.93,1.41,10.7-1.23,4-4.18,9.29-1.74,13.35,2.1,3.5,6.83,4.41,9.16,7.78a10.63,10.63,0,0,1,.77,1.36c-1-3.77,1.36-8.25,2.43-11.7,1.17-3.78,1.13-7.51-1.41-10.7-1.36-1.71-3.19-3-4.66-4.61-2.49-2.71-1.82-5.81-.49-8.89a15.49,15.49,0,0,0,1-10.63c-2-7.61-8-13.68-11.75-20.4a23.11,23.11,0,0,1-3.24-9.71c-.25-3.59,1.58-6.59,2-10,.4-3.74-1.6-7.9-2.71-11.38-.77-2.4-1.81-4.7-2.47-7.13a22.17,22.17,0,0,0-2.19-6.09.41.41,0,0,0-.74.1,51.74,51.74,0,0,1-2.88,9.49A12.47,12.47,0,0,1,712.94,357.23Z" style="mix-blend-mode:multiply;fill:url(#linear-gradient-53)"/></g><path d="M720.35,408a3.48,3.48,0,1,1,1-3.14A4.47,4.47,0,0,1,720.35,408Z" style="opacity:0.5;mix-blend-mode:multiply;fill:url(#linear-gradient-54)"/><path d="M717.82,413.15a3.47,3.47,0,0,1-3.6-4.52,3.47,3.47,0,0,1,3.6,4.52Z" style="opacity:0.5;mix-blend-mode:multiply;fill:url(#linear-gradient-55)"/><path d="M701.62,441.5a3.48,3.48,0,1,1,3-1.38A4.46,4.46,0,0,1,701.62,441.5Z" style="opacity:0.5;mix-blend-mode:multiply;fill:url(#linear-gradient-56)"/><path d="M727.05,464.85a3.48,3.48,0,1,1,3-1.38A4.43,4.43,0,0,1,727.05,464.85Z" style="opacity:0.5;mix-blend-mode:multiply;fill:url(#linear-gradient-57)"/><g style="clip-path:url(#clip-path-10)"><path d="M-13.55,635.58C57.33,505.5,219.05,390.23,360.58,352.4l-9.17,2.27c-144.6,23.53-317,122.11-400.48,244.48Z" style="fill:#595a5b"/><path d="M-47.07,601.11C32.91,483.86,194.52,388.47,335.1,360q12.82-4.19,25.48-7.58l-9.17,2.27c-144.6,23.53-317,122.11-400.48,244.48l35.52,36.43,0-.06Z" style="mix-blend-mode:multiply;fill:url(#linear-gradient-58)"/></g></g><path d="M128.21,381.69c0,2.21-7.36,4-16.44,4s-16.43-1.79-16.43-4,7.35-4,16.43-4S128.21,379.48,128.21,381.69Z" style="fill:#3cba59;opacity:0.5;mix-blend-mode:multiply"/><path d="M113.79,379a2,2,0,0,1-2,2h0a2,2,0,0,1-2-2V360a2,2,0,0,1,2-2h0a2,2,0,0,1,2,2Z" style="fill:url(#linear-gradient-59)"/><path d="M129.7,358.87c-1.24-1.8-3.77-2.29-4.89-4.15-1.3-2.17.27-5,.93-7.13a5.9,5.9,0,0,0-.76-5.71c-.72-.91-1.69-1.6-2.48-2.45-1.33-1.45-1-3.11-.26-4.75a8.25,8.25,0,0,0,.51-5.68c-1.06-4.06-4.25-7.3-6.27-10.88a12.33,12.33,0,0,1-1.73-5.19c-.13-1.91.84-3.51,1-5.35.22-2-.85-4.22-1.44-6.08-.41-1.28-1-2.51-1.32-3.8a11.91,11.91,0,0,0-1.17-3.25c-.09-.15-.36-.15-.39.05-.58,3.17-2,6.05-3.12,9.05a9.42,9.42,0,0,0-.73,3.92,31.9,31.9,0,0,0,.83,3.83c.77,4.42-2.66,8.48-5,11.89-2.12,3.17-4.35,7-2.71,10.91.62,1.46,1.36,2.93.59,4.49-.57,1.15-1.81,2-2.7,2.86a5.6,5.6,0,0,0-1.29,5.61c.43,1.77,1.31,3.41,1.52,5.24.25,2.18-1.1,3.33-2.75,4.41a7.3,7.3,0,0,0-3.11,3.16c-.71,1.74-1.19,7.13.69,8.38,1.33.88,2.37.24,3.66.63,1.1.34.91.62,1.81,1.28,1.51,1.09,2.1,1.72,4.14,1.73,3.44,0,6.62-2,10-2,2.46,0,4.63,1.45,7,1.6,2.88.17,4.23-2.91,6.53-2.51C132.48,369.94,131.51,361.5,129.7,358.87Z" style="fill:url(#linear-gradient-60)"/><path d="M338.59,469c0,2.2-7.36,4-16.43,4s-16.44-1.8-16.44-4,7.36-4,16.44-4S338.59,466.83,338.59,469Z" style="fill:#3cba59;opacity:0.5;mix-blend-mode:multiply"/><path d="M324.17,466.35a2,2,0,0,1-2,2h0a2,2,0,0,1-2-2v-19a2,2,0,0,1,2-2h0a2,2,0,0,1,2,2Z" style="fill:url(#linear-gradient-61)"/><path d="M340.08,446.22c-1.24-1.8-3.77-2.29-4.89-4.16-1.3-2.17.27-5,.93-7.12a5.89,5.89,0,0,0-.75-5.71c-.73-.91-1.7-1.6-2.49-2.46-1.33-1.45-1-3.1-.26-4.75a8.22,8.22,0,0,0,.51-5.67c-1.05-4.06-4.24-7.3-6.27-10.89a12.43,12.43,0,0,1-1.73-5.18c-.13-1.92.85-3.52,1.05-5.36.21-2-.86-4.22-1.45-6.07-.41-1.28-1-2.51-1.32-3.81a12.13,12.13,0,0,0-1.16-3.25c-.1-.14-.37-.14-.4.06-.57,3.17-2,6-3.12,9a9.45,9.45,0,0,0-.73,3.92,35.26,35.26,0,0,0,.83,3.83c.78,4.42-2.66,8.49-4.94,11.9-2.13,3.17-4.36,7-2.72,10.9.63,1.47,1.36,2.93.59,4.5-.57,1.15-1.81,2-2.7,2.86a5.59,5.59,0,0,0-1.29,5.6c.44,1.77,1.32,3.42,1.52,5.25.25,2.17-1.1,3.32-2.75,4.41a7.35,7.35,0,0,0-3.11,3.16c-.71,1.74-1.18,7.13.69,8.37,1.33.88,2.38.25,3.66.64,1.1.33.91.62,1.82,1.27,1.5,1.09,2.1,1.72,4.13,1.74,3.44,0,6.63-2.05,10-2,2.45,0,4.62,1.45,7,1.59,2.88.18,4.23-2.9,6.53-2.51C342.87,457.29,341.9,448.85,340.08,446.22Z" style="fill:url(#linear-gradient-62)"/><path d="M308.59,427.36c0,2.21-7.36,4-16.43,4s-16.44-1.79-16.44-4,7.36-4,16.44-4S308.59,425.15,308.59,427.36Z" style="fill:#3cba59;opacity:0.5;mix-blend-mode:multiply"/><path d="M294.17,424.68a2,2,0,0,1-2,2h0a2,2,0,0,1-2-2v-19a2,2,0,0,1,2-2h0a2,2,0,0,1,2,2Z" style="fill:url(#linear-gradient-63)"/><path d="M310.08,404.54c-1.24-1.79-3.77-2.28-4.89-4.15-1.3-2.17.27-5,.93-7.12a5.86,5.86,0,0,0-.75-5.71c-.73-.91-1.7-1.61-2.49-2.46-1.33-1.45-1-3.11-.26-4.75a8.28,8.28,0,0,0,.52-5.67c-1.06-4.06-4.25-7.3-6.28-10.89a12.43,12.43,0,0,1-1.73-5.18c-.13-1.92.85-3.52,1.05-5.36.21-2-.85-4.22-1.45-6.07-.41-1.28-1-2.51-1.32-3.81a11.68,11.68,0,0,0-1.16-3.25.22.22,0,0,0-.4.05c-.57,3.17-2,6.06-3.11,9.05a9.28,9.28,0,0,0-.74,3.92,35.78,35.78,0,0,0,.83,3.83c.78,4.42-2.65,8.49-4.94,11.89-2.13,3.18-4.36,7-2.71,10.91.62,1.46,1.35,2.93.58,4.49-.57,1.16-1.81,2-2.69,2.87a5.58,5.58,0,0,0-1.3,5.6c.44,1.77,1.32,3.41,1.53,5.24.24,2.18-1.11,3.33-2.76,4.42a7.33,7.33,0,0,0-3.11,3.15c-.7,1.75-1.18,7.14.69,8.38,1.33.88,2.38.25,3.67.64,1.09.33.91.62,1.81,1.27,1.5,1.09,2.1,1.72,4.13,1.74,3.44,0,6.63-2.05,10-2,2.45,0,4.62,1.46,7,1.6,2.88.17,4.22-2.9,6.52-2.51C312.87,415.61,311.9,407.18,310.08,404.54Z" style="fill:url(#linear-gradient-64)"/><path d="M375,419.36c0,2.21-7.36,4-16.44,4s-16.43-1.79-16.43-4,7.36-4,16.43-4S375,417.15,375,419.36Z" style="fill:#3cba59;opacity:0.5;mix-blend-mode:multiply"/><path d="M360.58,416.68a2,2,0,0,1-2,2h0a2,2,0,0,1-2-2v-19a2,2,0,0,1,2-2h0a2,2,0,0,1,2,2Z" style="fill:url(#linear-gradient-65)"/><path d="M376.49,396.54c-1.24-1.79-3.77-2.28-4.89-4.15-1.3-2.17.27-5,.93-7.12a5.89,5.89,0,0,0-.75-5.71c-.73-.91-1.7-1.61-2.49-2.46-1.33-1.45-1-3.11-.26-4.75a8.22,8.22,0,0,0,.51-5.67c-1.06-4.06-4.24-7.3-6.27-10.89a12.43,12.43,0,0,1-1.73-5.18c-.13-1.92.85-3.52,1-5.36.21-2-.86-4.22-1.45-6.07-.41-1.28-1-2.51-1.32-3.81a12,12,0,0,0-1.16-3.25c-.1-.15-.37-.14-.4.05-.57,3.17-2,6.05-3.12,9.05a9.42,9.42,0,0,0-.73,3.92,33.5,33.5,0,0,0,.83,3.83c.78,4.42-2.66,8.49-4.94,11.89-2.13,3.18-4.36,7-2.72,10.91.63,1.46,1.36,2.93.59,4.49-.57,1.16-1.81,2-2.7,2.86a5.6,5.6,0,0,0-1.29,5.61c.44,1.77,1.32,3.41,1.52,5.24.25,2.18-1.1,3.33-2.75,4.41a7.3,7.3,0,0,0-3.11,3.16c-.71,1.75-1.18,7.14.69,8.38,1.33.88,2.38.24,3.66.64,1.1.33.91.62,1.82,1.27,1.5,1.09,2.1,1.72,4.13,1.73,3.44,0,6.63-2,10-2,2.45,0,4.62,1.46,7,1.6,2.88.17,4.23-2.9,6.53-2.51C379.28,407.61,378.3,399.18,376.49,396.54Z" style="fill:url(#linear-gradient-66)"/><path d="M63.86,473c0,2.2-7.36,4-16.43,4S31,475.24,31,473s7.36-4,16.44-4S63.86,470.83,63.86,473Z" style="fill:#3cba59;opacity:0.5;mix-blend-mode:multiply"/><path d="M49.44,470.35a2,2,0,0,1-2,2h0a2,2,0,0,1-2-2v-19a2,2,0,0,1,2-2h0a2,2,0,0,1,2,2Z" style="fill:url(#linear-gradient-67)"/><path d="M65.35,450.22c-1.24-1.8-3.77-2.29-4.89-4.16-1.3-2.17.27-5,.93-7.12a5.89,5.89,0,0,0-.75-5.71c-.73-.91-1.7-1.6-2.49-2.46-1.33-1.45-1-3.1-.26-4.75a8.22,8.22,0,0,0,.51-5.67c-1-4.06-4.24-7.3-6.27-10.89a12.43,12.43,0,0,1-1.73-5.18c-.13-1.92.85-3.52,1.05-5.36.21-2-.85-4.22-1.45-6.07-.41-1.28-1-2.51-1.32-3.81a11.79,11.79,0,0,0-1.16-3.25c-.09-.14-.37-.14-.4.06-.57,3.17-2,6-3.11,9a9.3,9.3,0,0,0-.74,3.92,35.26,35.26,0,0,0,.83,3.83c.78,4.42-2.66,8.49-4.94,11.9-2.13,3.17-4.36,7-2.71,10.9.62,1.47,1.35,2.93.58,4.5-.57,1.15-1.81,2-2.69,2.86a5.57,5.57,0,0,0-1.3,5.6c.44,1.77,1.32,3.42,1.52,5.25.25,2.17-1.1,3.32-2.75,4.41a7.35,7.35,0,0,0-3.11,3.16c-.71,1.74-1.18,7.13.69,8.37,1.33.88,2.38.25,3.66.64,1.1.33.91.62,1.82,1.27,1.5,1.09,2.1,1.72,4.13,1.74,3.44,0,6.63-2.05,10-2,2.45,0,4.62,1.45,7,1.59,2.88.18,4.23-2.9,6.53-2.51C68.14,461.29,67.17,452.85,65.35,450.22Z" style="fill:url(#linear-gradient-68)"/><path d="M108.86,413.57c0,2.2-7.36,4-16.44,4s-16.43-1.8-16.43-4,7.36-4,16.43-4S108.86,411.36,108.86,413.57Z" style="fill:#3cba59;opacity:0.5;mix-blend-mode:multiply"/><path d="M94.44,410.88a2,2,0,0,1-2,2h0a2,2,0,0,1-2-2v-19a2,2,0,0,1,2-2h0a2,2,0,0,1,2,2Z" style="fill:url(#linear-gradient-69)"/><path d="M110.35,390.75c-1.24-1.8-3.77-2.29-4.89-4.16-1.3-2.17.27-5,.93-7.12a5.92,5.92,0,0,0-.75-5.71c-.73-.91-1.7-1.6-2.49-2.46-1.33-1.45-1-3.1-.26-4.75a8.22,8.22,0,0,0,.51-5.67c-1.06-4.06-4.24-7.3-6.27-10.88a12.38,12.38,0,0,1-1.73-5.19c-.13-1.92.85-3.52,1-5.36s-.86-4.22-1.45-6.07c-.41-1.28-1-2.51-1.32-3.81a11.82,11.82,0,0,0-1.17-3.25c-.09-.14-.36-.14-.39.06-.58,3.17-2,6.05-3.12,9a9.45,9.45,0,0,0-.73,3.92,31.09,31.09,0,0,0,.83,3.83c.78,4.42-2.66,8.49-4.94,11.9-2.13,3.17-4.36,7-2.72,10.9.62,1.47,1.36,2.93.59,4.5-.57,1.15-1.81,2-2.7,2.86a5.59,5.59,0,0,0-1.29,5.6c.44,1.77,1.31,3.42,1.52,5.25.25,2.17-1.1,3.32-2.75,4.41a7.3,7.3,0,0,0-3.11,3.16c-.71,1.74-1.18,7.13.69,8.37,1.33.88,2.38.25,3.66.64,1.1.33.91.62,1.82,1.27,1.5,1.09,2.09,1.72,4.13,1.74,3.44,0,6.62-2,10-2,2.45,0,4.62,1.45,7,1.59,2.88.17,4.23-2.9,6.53-2.51C113.14,401.82,112.16,393.38,110.35,390.75Z" style="fill:url(#linear-gradient-70)"/><path d="M83.21,365.52c0,2.21-7.36,4-16.44,4s-16.43-1.79-16.43-4,7.36-4,16.43-4S83.21,363.31,83.21,365.52Z" style="fill:#3cba59;opacity:0.5;mix-blend-mode:multiply"/><path d="M68.79,362.84a2,2,0,0,1-2,2h0a2,2,0,0,1-2-2v-19a2,2,0,0,1,2-2h0a2,2,0,0,1,2,2Z" style="fill:url(#linear-gradient-71)"/><path d="M84.7,342.7c-1.24-1.79-3.77-2.28-4.89-4.15-1.3-2.17.27-5,.93-7.12a5.92,5.92,0,0,0-.75-5.71c-.73-.91-1.7-1.6-2.49-2.46-1.33-1.45-1-3.11-.26-4.75a8.22,8.22,0,0,0,.51-5.67c-1.06-4.06-4.24-7.3-6.27-10.89a12.29,12.29,0,0,1-1.73-5.18c-.13-1.92.85-3.52,1-5.36.21-2-.86-4.22-1.45-6.07-.41-1.28-1-2.51-1.32-3.81a11.82,11.82,0,0,0-1.17-3.25c-.09-.15-.36-.14-.39.05-.58,3.18-2,6.06-3.12,9.05a9.45,9.45,0,0,0-.73,3.92,31.49,31.49,0,0,0,.83,3.83c.78,4.42-2.66,8.49-4.94,11.9-2.13,3.17-4.36,7-2.72,10.9.62,1.46,1.36,2.93.59,4.49-.57,1.16-1.81,2-2.7,2.87a5.58,5.58,0,0,0-1.29,5.6c.44,1.77,1.32,3.41,1.52,5.24.25,2.18-1.1,3.33-2.75,4.42a7.25,7.25,0,0,0-3.11,3.16c-.71,1.74-1.18,7.13.69,8.37,1.33.88,2.38.25,3.66.64,1.1.33.91.62,1.82,1.27,1.5,1.09,2.09,1.72,4.13,1.74,3.44,0,6.62-2.05,10-2,2.45,0,4.62,1.46,7,1.6,2.88.17,4.23-2.9,6.53-2.51C87.49,353.78,86.51,345.34,84.7,342.7Z" style="fill:url(#linear-gradient-72)"/><ellipse cx="228.92" cy="350.25" rx="9.21" ry="11.34" transform="translate(-14.36 9.82) rotate(-2.38)" style="fill:#3a424d"/><ellipse cx="228.51" cy="349.21" rx="7.42" ry="4.92" transform="translate(-128.22 565.8) rotate(-88.06)" style="fill:#fcfcfc"/><path d="M233.81,346.16a.36.36,0,0,1,0-.1A.36.36,0,0,0,233.81,346.16Z" style="fill:#2d3541"/><path d="M265.07,357.86a15.16,15.16,0,0,0,.16,3.82,18.15,18.15,0,0,1-8.21,0L237.47,357a2.31,2.31,0,0,1-1.29-.88,4.67,4.67,0,0,0-2.31-1.57,6,6,0,0,0-2.09-.34,4.7,4.7,0,0,1-.63,0,6.64,6.64,0,0,1-3.48-1.41L220.21,347a2.42,2.42,0,0,1-.85-1.23,3.09,3.09,0,0,1,.42-2.26,2.22,2.22,0,0,1,2.65-1.36,3,3,0,0,1,.91.37l5.88,3.47a4,4,0,0,1,.7-1.27,1.34,1.34,0,0,1,.87-.46c1.06.89,2.12,1.72,3.17,2.49a10.47,10.47,0,0,0,5.17,6.2S251,359.36,257,358.43c0,0,4.12-1,6.73-7.44l.18-.44a3.51,3.51,0,0,0,1,1.91c.36.27.71-.45.71-.45a5.84,5.84,0,0,1,3.5-2.78A13.15,13.15,0,0,0,265.07,357.86Z" style="fill:#2d3541"/><ellipse cx="275.41" cy="359.39" rx="10.39" ry="12.64" transform="translate(-17.93 14.48) rotate(-2.92)" style="fill:#3a424d"/><ellipse cx="274.46" cy="359.19" rx="5.92" ry="7.88" style="fill:#fcfcfc"/><ellipse cx="274.03" cy="359.2" rx="3.06" ry="3.77" transform="translate(-14.42 11.47) rotate(-2.34)" style="fill:#3a424d"/><path d="M249.25,309.27a3.32,3.32,0,0,1-2.92,1.53c-.35,0-.35,0-.36.36a.56.56,0,0,0,0,.13,2.16,2.16,0,0,1-.67,1.83,4,4,0,0,1-2.12,1.08,14.94,14.94,0,0,1-4.58.18c-.16,0-.24,0-.25.18s0,.55,0,.82a6.53,6.53,0,0,1-1.08-.64,8.14,8.14,0,0,1-1.12-.71,1.19,1.19,0,0,0-.26-.11,1.59,1.59,0,0,0-.51-.16,15.9,15.9,0,0,1-3.34-1.38,2.59,2.59,0,0,1-1.34-2.52c.08-.51.14-1,.18-1.55.13-1.45.25-2.9.37-4.34a2.48,2.48,0,0,0,2.5,0A3.23,3.23,0,0,0,235,302.7a.31.31,0,0,1,.17-.17,11.71,11.71,0,0,1,2.33-.82,3.76,3.76,0,0,1,2.31.4,1.21,1.21,0,0,1,.91,1.2,4.15,4.15,0,0,0,.28,1.27,1.47,1.47,0,0,0,1.23,1.08c.7.11,1.41.17,2.11.25l.23,0c.42.08.53.19.59.61a18.3,18.3,0,0,1,.24,2.28,4.12,4.12,0,0,1,.85-1.62,1.27,1.27,0,0,1,1-.5,2.69,2.69,0,0,1,1,.06,1.82,1.82,0,0,1,.86.47A1.66,1.66,0,0,1,249.25,309.27Z" style="fill:#fbcab1"/><path d="M237.93,335v0l0,0Zm-4.06-3.23c0-.14.09-.27.12-.41Zm5.48-4.8,0-.08Zm0-.18a.33.33,0,0,1,0,.1A.33.33,0,0,0,239.39,326.75Zm-.79,1.06c0,.22-.1.43-.16.67h0l.2-.78A.28.28,0,0,0,238.6,327.81Zm-1.31,3.42a.25.25,0,0,0,0,.07s0,0,0,.05l.08-.15Zm.11-.11.08,0Zm-3.79.86c.07-.19.23-.17.24-.16C233.69,331.78,233.64,331.87,233.61,332Zm4.67-8.13h0a1.56,1.56,0,0,0,.43,0Z" style="fill:#e8f0f5"/><path d="M249.57,305.59a.71.71,0,0,1-.6.57.89.89,0,0,0-.74.57s0,0,0,0a2.69,2.69,0,0,0-1-.06,1.27,1.27,0,0,0-1,.5,4.12,4.12,0,0,0-.85,1.62,18.3,18.3,0,0,0-.24-2.28c-.06-.42-.17-.53-.59-.61l-.23,0c-.7-.08-1.41-.14-2.11-.25a1.47,1.47,0,0,1-1.23-1.08,4.15,4.15,0,0,1-.28-1.27,1.21,1.21,0,0,0-.91-1.2,3.76,3.76,0,0,0-2.31-.4,11.71,11.71,0,0,0-2.33.82.31.31,0,0,0-.17.17,3.23,3.23,0,0,1-1.31,1.23,2.48,2.48,0,0,1-2.5,0l-.32-.27a3.37,3.37,0,0,1-1.25-3.34,6.3,6.3,0,0,1,3-4.33,3.91,3.91,0,0,1,4.13-.15,1.9,1.9,0,0,0,1.53,0,5.78,5.78,0,0,1,1-.27,9.9,9.9,0,0,1,2.77,0h.1c.15,0,.3.06.46.07a3.58,3.58,0,0,1,1.12.36,6.13,6.13,0,0,1,1.26.93c.9.75,1.87,1.39,2.73,2.17a5.57,5.57,0,0,1,1.64,2.26A8,8,0,0,1,249.57,305.59Z" style="fill:#010101"/><path d="M254.7,350l-.18,0a52.94,52.94,0,0,1-15.5-4.34,13.32,13.32,0,0,0-3.18-14.4,32.28,32.28,0,0,0,5.3,2.55s8.64,3.66,13.22,2.58Z" style="fill:#0161ab"/><path d="M273.76,316.94l-.9,3-10.41-3.66-.65-.88-.75-1-1.19-1.62a21,21,0,0,0,2.6-8.27,45.25,45.25,0,0,1,2.43,4.17c.29.53.57,1.05.81,1.51.54,1,.92,1.76.92,1.76Z" style="fill:#2d3541"/><path d="M274,358.31c-.46,2.29-2.27,2-2.27,2l-.63-2.67-1.91-8.49a10.62,10.62,0,0,1,2.49-.41h0Z" style="fill:#2d3541"/><path d="M285.31,350.54a2.8,2.8,0,0,1-1.09.24,7.6,7.6,0,0,1-2-.07,31.49,31.49,0,0,1-5.34-1.22c-1.86-.74-8.94-1.93-11.31,2.52,0,0-.35.72-.71.45a3.51,3.51,0,0,1-1-1.91l.16-.45h0a16.85,16.85,0,0,1,1.33-2.28,20.06,20.06,0,0,1,1.62-2.06c2.67-2.93,7.1-5.72,13.14-2.48h0a5.85,5.85,0,0,1,.61.4h0a16.59,16.59,0,0,1,4.65,6.37S285.62,350.44,285.31,350.54Z" style="fill:#0494f7"/><path d="M254.7,350l-.18,0a52.71,52.71,0,0,1-19-6.14L222,334.86a.54.54,0,0,1-.23-.4,6.09,6.09,0,0,1,3.73-5.76,8.87,8.87,0,0,1,5.71-.49s5.91,4.16,10,5.53c0,0,8.64,3.66,13.22,2.58Z" style="fill:#0494f7"/><path d="M221.73,335.22h0l0,.65a1,1,0,0,1-.17.55l-3.83,5.18c-.91,1.36.26,1.31.26,1.31l.63-.11a6,6,0,0,0,2.38-1l4.06-2.88Z" style="fill:#2d3541"/><path d="M257.6,350.59l-.18.43a5.78,5.78,0,0,1-7.5,3c-4.24-1.62-12.76-5.11-16.18-8.24a6.14,6.14,0,0,0,.22,1A72.94,72.94,0,0,1,221.54,335a.17.17,0,0,1,.2-.28h0s13.75,9.08,13.75,9.08a52.71,52.71,0,0,0,19,6.14l.18,0Z" style="fill:#3a424d"/><path d="M273.81,322.32a9.28,9.28,0,0,0-5.33-1.32l-1.22.07a8.45,8.45,0,0,0-3.81,1.14h0l0,0-.08,0-.15-.06a11.46,11.46,0,0,1-1.44-5,3.11,3.11,0,0,1,.56-2.1c4.37-5.15,9.62-.89,9.62-.89C275.49,316.77,274.08,321.51,273.81,322.32Z" style="fill:#0494f7"/><path d="M254.36,336.32c-4.58,1.08-13.22-2.58-13.22-2.58-4.07-1.37-10-5.53-10-5.53a8.32,8.32,0,0,0-4.65.1c-.76-.7-1.89-2-1.47-3.55a1.16,1.16,0,0,1,.86-.75,3.31,3.31,0,0,0,1.75-1.05s.68-1.15,3.55-.73a10.9,10.9,0,0,1,1.19.24s11.38,7.08,20.21,7.79C252.6,330.26,256.44,331.12,254.36,336.32Z" style="fill:#2d3541"/><path d="M254.7,350l-.18,0a52.94,52.94,0,0,1-15.5-4.34,13.32,13.32,0,0,0-3.18-14.4,32.28,32.28,0,0,0,5.3,2.55s8.64,3.66,13.22,2.58Z" style="fill:#0680f5"/><path d="M256.76,354.32l-9.64-3.62.74-3.38,4.56,1.53a1.45,1.45,0,0,0,0,.16l1.87.93C257.72,352.18,257.33,353.64,256.76,354.32Z" style="fill:#0161ab"/><path d="M256.77,354.32a2,2,0,0,1-.53.45L247,351.33l.14-.63Z" style="fill:#fcfcfc"/><path d="M261.22,352.48l-4.36-1.35L257,349l.36-15.45c-.35-.54-2.19-.75-2.19-.75v.46c-.29,5.43-2.4,14.31-2.71,15.62l-4.56-1.53.12-.57.09-11.72c.52-3.56-.71-3.64-.71-3.64-12.34-1.34-9-8.4-9-8.4l.15-.72,0-.11.09-.46a25.76,25.76,0,0,0,5.08.86h0l1.42.1a30.53,30.53,0,0,1,5.56.88,6.4,6.4,0,0,1,1.69.72l4.43.26-.06.2.08,0c2.79,1,5.91,2.26,5.91,2.26Z" style="fill:#3a424d"/><path d="M280.18,342.68a1.94,1.94,0,0,1,0,.24c0,.12,0,.23,0,.35-6-3.24-10.47-.45-13.14,2.48a20.06,20.06,0,0,0-1.62,2.06,16.85,16.85,0,0,0-1.33,2.28h0c-.11.31-.22.61-.34.89-2.61,6.43-6.73,7.44-6.73,7.44-6,.93-17.83-5.48-17.83-5.48a10.13,10.13,0,0,1-5.39-7.2c3.42,3.13,11.94,6.62,16.18,8.24a5.78,5.78,0,0,0,7.5-3c2.2-5.07,2-13.61,1.74-16.33a23.9,23.9,0,0,1,.31-6.9v-.05a8.39,8.39,0,0,1,7.78-6.67l1.22-.07a9.72,9.72,0,0,1,9.11,5.37,25.23,25.23,0,0,1,2.71,10.56c.05.76.07,1.54.07,2.32C280.36,340.43,280.3,341.58,280.18,342.68Z" style="fill:#0494f7"/><ellipse cx="273.12" cy="328.68" rx="3.36" ry="4.57" transform="translate(-98.86 118.31) rotate(-20.78)" style="fill:#fcfcfc"/><path d="M280.23,342.15c0,.26,0,.52-.07.77s0,.23,0,.35c-6-3.24-10.47-.45-13.14,2.48a20.06,20.06,0,0,0-1.62,2.06,16.85,16.85,0,0,0-1.33,2.28h0l-.16.45h0a.77.77,0,0,0-.07.16l-.07.19a.36.36,0,0,0,0,.09c-2.61,6.43-6.73,7.44-6.73,7.44a10.26,10.26,0,0,1-2.55,0c3-.83,6.09-2.92,7.62-7.71C262,350.75,266.5,334.6,280.23,342.15Z" style="fill:#0680f5"/><path d="M263.73,350.9l0,.09h0A.36.36,0,0,1,263.73,350.9Z" style="fill:#0161ab"/><path d="M221.73,335.22q1.68,2,3.35,3.7Z" style="fill:#2d3541"/><path d="M282.44,314.82c-1,1.45-2.75,1.95-3.83,1.12l-.11-.09a.3.3,0,0,0-.39,0l-2.1,1.73a1.65,1.65,0,0,0-.56,1h0a1.24,1.24,0,0,0,.74,1.28l3.52,1.54a.63.63,0,0,1,.38.83c-.09.29-.07,1.07-.81.95L274.5,321l-.69,1.28.35-1.43a8.71,8.71,0,0,0,.15-1.85h0a.31.31,0,0,0,.44-.19l.19-.58a2.61,2.61,0,0,1,.92-1.32l1.77-1.34a.7.7,0,0,0,.22-.77,3.41,3.41,0,0,1,.52-3.08c1-1.44,2.43-1.93,3.51-1.1A3.09,3.09,0,0,1,282.44,314.82Z" style="fill:#3a424d"/><path d="M226.77,333.1a.25.25,0,0,1-.37.09.31.31,0,0,1-.12-.4.26.26,0,0,1,.38-.09A.31.31,0,0,1,226.77,333.1Z" style="fill:#fff"/><path d="M226.91,332.2a.8.8,0,0,0-.54-.13l.13-.25a.2.2,0,0,0,0-.13.15.15,0,0,0-.08-.11.16.16,0,0,0-.23.06l-.44.86h0a1,1,0,0,0,.39,1.22.79.79,0,0,0,1.14-.31,1,1,0,0,0-.38-1.21Zm-.63,1.22a.59.59,0,0,1-.22-.75.49.49,0,0,1,.7-.18.59.59,0,0,1,.23.75.48.48,0,0,1-.7.18Z" style="fill:#fff"/><path d="M228.76,334.07a.48.48,0,0,0-.06-.26.54.54,0,0,0-.18-.19.28.28,0,0,0-.12,0,.25.25,0,0,0-.12,0h0l.15-.3a.12.12,0,0,0,0-.1.14.14,0,0,0-.16-.1.12.12,0,0,0-.08.06l-.52,1a.12.12,0,0,0,0,.1.15.15,0,0,0,.06.09.12.12,0,0,0,.1,0,.09.09,0,0,0,.06,0v0a.75.75,0,0,0,.07.12l.12.1a.39.39,0,0,0,.24.06.48.48,0,0,0,.23-.07.51.51,0,0,0,.17-.21A.46.46,0,0,0,228.76,334.07Zm-.63.26a.27.27,0,0,1-.1-.11.31.31,0,0,1,0-.13.24.24,0,0,1,0-.15.27.27,0,0,1,.09-.12.28.28,0,0,1,.13,0,.22.22,0,0,1,.13,0,.32.32,0,0,1,.1.1.32.32,0,0,1-.11.4.17.17,0,0,1-.12,0A.19.19,0,0,1,228.13,334.33Z" style="fill:#fff"/><path d="M229.86,334.49a.14.14,0,0,0-.07-.08.12.12,0,0,0-.1,0l-.05,0h0a.51.51,0,0,0-.19-.22.44.44,0,0,0-.24-.07.4.4,0,0,0-.23.08.51.51,0,0,0-.18.2.54.54,0,0,0-.07.27.48.48,0,0,0,.07.26.52.52,0,0,0,.17.19l.13.05h.16a.2.2,0,0,0,0,.07.13.13,0,0,0,.16.09.09.09,0,0,0,.07-.06l.36-.68A.17.17,0,0,0,229.86,334.49Zm-.51.43a.17.17,0,0,1-.12,0,.2.2,0,0,1-.13,0,.24.24,0,0,1-.1-.1.32.32,0,0,1,0-.14.23.23,0,0,1,0-.14.27.27,0,0,1,.09-.12.28.28,0,0,1,.13,0,.22.22,0,0,1,.13,0,.25.25,0,0,1,.13.24.42.42,0,0,1,0,.15.35.35,0,0,1-.1.11Z" style="fill:#fff"/><path d="M230.67,335.45l-.22.41a.1.1,0,0,1-.07.07.14.14,0,0,1-.16-.1.11.11,0,0,1,0-.1l.21-.42a.17.17,0,0,0,0-.1.08.08,0,0,0,0-.08.15.15,0,0,0-.08-.08.21.21,0,0,0-.11,0l-.09,0a.18.18,0,0,0-.07.08l-.21.41a.16.16,0,0,1-.08.06.13.13,0,0,1-.16-.1.12.12,0,0,1,0-.1l.34-.66s.05-.06.08-.06a.13.13,0,0,1,.16.09.14.14,0,0,1,0,.09l.08,0h.11l.12.05a.36.36,0,0,1,.16.17.34.34,0,0,1,0,.2A.68.68,0,0,1,230.67,335.45Z" style="fill:#fff"/><path d="M231.15,336.2a.11.11,0,0,1,0,.08.08.08,0,0,1-.1.05.28.28,0,0,1-.13,0l-.08-.06a.24.24,0,0,1-.06-.08.2.2,0,0,1,0-.11.28.28,0,0,1,0-.15l.22-.43-.06,0a.16.16,0,0,1-.06-.08.17.17,0,0,1,0-.1.13.13,0,0,1,.07-.05.1.1,0,0,1,.09,0l.06,0,0-.09a.13.13,0,0,1,.18,0h0a.16.16,0,0,1,.06.08.11.11,0,0,1,0,.1l0,.09.1.06a.16.16,0,0,1,.06.08.1.1,0,0,1,0,.09.09.09,0,0,1-.06.06.16.16,0,0,1-.1,0l-.09-.06L231,336a.05.05,0,0,0,0,.06l0,0h0l0,0A.07.07,0,0,1,231.15,336.2Z" style="fill:#fff"/><path d="M232.4,336.19l-.21.41a.41.41,0,0,1-.25.22.45.45,0,0,1-.34-.07.51.51,0,0,1-.23-.28.49.49,0,0,1,0-.35l.21-.41a.12.12,0,0,1,.08-.06.1.1,0,0,1,.09,0,.13.13,0,0,1,.07.08.11.11,0,0,1,0,.1l-.21.41a.25.25,0,0,0,0,.16.2.2,0,0,0,.09.12.22.22,0,0,0,.15,0s.07-.05.1-.11l.22-.41a.11.11,0,0,1,.07-.06.12.12,0,0,1,.1,0,.15.15,0,0,1,.06.09A.12.12,0,0,1,232.4,336.19Z" style="fill:#fff"/><path d="M233,336.12l0,0a.13.13,0,0,1-.07.06.19.19,0,0,1-.1,0,.15.15,0,0,1-.07-.07.12.12,0,0,1,0-.1v0a.12.12,0,0,1,.08-.06.16.16,0,0,1,.09,0,.19.19,0,0,1,.08.07A.12.12,0,0,1,233,336.12Z" style="fill:#fff"/><path d="M232.79,336.43l-.34.66a.14.14,0,0,1-.08.07.15.15,0,0,1-.09,0,.18.18,0,0,1-.07-.08.2.2,0,0,1,0-.11l.35-.66a.11.11,0,0,1,.07-.06.12.12,0,0,1,.1,0,.15.15,0,0,1,.06.09A.12.12,0,0,1,232.79,336.43Z" style="fill:#fff"/><path d="M233.61,337.27l-.21.41a.12.12,0,0,1-.18,0s-.05-.05-.06-.08a.12.12,0,0,1,0-.1l.21-.41a.42.42,0,0,0,0-.1.28.28,0,0,0,0-.09l-.08-.08a.28.28,0,0,0-.12,0,.16.16,0,0,0-.09,0,.23.23,0,0,0-.07.07l-.21.42a.11.11,0,0,1-.07.06.12.12,0,0,1-.1,0,.18.18,0,0,1-.07-.08.16.16,0,0,1,0-.1l.35-.67a.11.11,0,0,1,.07-.06.12.12,0,0,1,.1,0,.1.1,0,0,1,.06.08.11.11,0,0,1,0,.08h.2l.11.05a.39.39,0,0,1,.17.17.35.35,0,0,1,0,.2A.86.86,0,0,1,233.61,337.27Z" style="fill:#fff"/><path d="M276.35,321.86c-3.13.48-3.49-1.93-3.49-1.93l.9-3c.86-.87,3.1-.19,3.1-.19C280.77,319.42,276.35,321.86,276.35,321.86Z" style="fill:#d88c68"/><path d="M273.81,322.32a9.28,9.28,0,0,0-5.33-1.32l-1.22.07a8.45,8.45,0,0,0-3.81,1.14h0l0,0-.08,0-.15-.06a19,19,0,0,1-.8-1.83,11,11,0,0,1,11.89-.59A10.13,10.13,0,0,1,273.81,322.32Z" style="fill:#0161ab"/><path d="M273.81,322.32a9.28,9.28,0,0,0-5.33-1.32l-1.22.07a8.45,8.45,0,0,0-3.81,1.14h0l0,0-.08,0-.15-.06a19,19,0,0,1-.8-1.83,11,11,0,0,1,11.89-.59A10.13,10.13,0,0,1,273.81,322.32Z" style="fill:#0680f5"/><path d="M263.87,350.55a1.43,1.43,0,0,1,.08-.22,2,2,0,0,0-.08.22Z" style="fill:#0983cd"/><path d="M262.46,304.47a21,21,0,0,1-2.6,8.27l-.05-.05a9.44,9.44,0,0,0-2.79-2.07c-.26-.14-.54-.27-.82-.4l1.32-7a1.3,1.3,0,0,0,.59-.11l.12-.05.09-.05.12-.07a6,6,0,0,0,1.2-1l2.51,2.17A1.24,1.24,0,0,1,262.46,304.47Z" style="fill:#0494f7"/><line x1="257.94" y1="311.62" x2="257.94" y2="311.64" style="fill:none;stroke:#0494f7;stroke-miterlimit:10"/><path d="M256.79,303l-1.33,6.88a25.63,25.63,0,0,0-2.51-.86h0a42.84,42.84,0,0,0-7.15-1.38,15.46,15.46,0,0,0-1.75-8.47,14.38,14.38,0,0,1,5.15-1.14l.2-.05h0a5.19,5.19,0,0,1,4.37,2.41l.11.16,0,0,.37.47,0,.06.11.12.29.31.05.06.29.27.06.06.1.09.07.05a.27.27,0,0,0,.08.07l.12.1.07,0,.07.06.22.15.14.09h0l.14.08.33.18.08,0,.09,0,.08,0Z" style="fill:#0494f7"/><path d="M245.8,307.67l-1.44,3.49c-4,.17-4.9,2-5,3.42a4.14,4.14,0,0,0,.14,1.47h0a3.89,3.89,0,0,1-1-.84l-.06-.07a4.78,4.78,0,0,1-.78-3.85,10.75,10.75,0,0,1,1-3.1c1.36-3.18,3.66-7.2,3.66-7.2a3.4,3.4,0,0,1,1.8-1.8A15.46,15.46,0,0,1,245.8,307.67Z" style="fill:#2d3541"/><path d="M255.45,317.73A8.17,8.17,0,0,0,251,320a2.63,2.63,0,0,0-.49-.07l-.59-.15a10.44,10.44,0,0,1,4-2.66C254.43,317.37,255,317.57,255.45,317.73Z" style="fill:none;stroke:#0494f7;stroke-miterlimit:10"/><path d="M244.55,317.39l-.76,5.17h0a25.76,25.76,0,0,1-5.08-.86l0-.15.36-1.68.59-2.84.17-.8,4.45,1.09Z" style="fill:#0494f7"/><path d="M259.71,301.89l-.07.08a6,6,0,0,1-1.2,1l-.12.07-.09.05-.12.05a1.3,1.3,0,0,1-.59.11l-.09,0-.06,0a2.49,2.49,0,0,1-.37-.09l-.2-.07h0l0,0-.08,0-.09,0-.08,0-.33-.18-.14-.08h0l-.14-.09-.22-.15-.07-.06-.07,0-.12-.1a.27.27,0,0,1-.08-.07l-.07-.05-.1-.09-.06-.06-.29-.27-.05-.06-.29-.31-.11-.12,0-.06-.37-.47,0,0-.11-.16a5.19,5.19,0,0,0-4.37-2.41h0a6.16,6.16,0,0,0,1.3-.43h0a2.9,2.9,0,0,0,1.2-.87,28.44,28.44,0,0,0,7.75,5.15h0Z" style="fill:#2d3541"/><path d="M257.44,303.25l-1.32,7-.31-.14-.34-.14-.09,0,1.33-6.88h0l.2.06a2.49,2.49,0,0,0,.37.09l0,0Z" style="fill:#3a424d"/><path d="M266.1,291.86a21.21,21.21,0,0,1-2.33,7l-.29-.07-.28-.06-.19,0-.21-.06-.24-.06-.94-.26-.24-.07h0l-.23-.07-.22-.08c-.24-.08-.47-.16-.69-.25l-.22-.08-.21-.09-.21-.09-.2-.09-.15-.06-.24-.12-.19-.09c-.42-.21-.81-.42-1.17-.64l-.63-.41,0-.26a25.72,25.72,0,0,1,.89-6.63l.66.23.19.06.23.08.22.07,0,0,.35.11.17.06.71.23.07,0,.28.09.17.06.35.1.09,0,.25.08.45.14c1.17.36,2.23.68,3,.89l.07,0,.16.05.09,0,.17.06.07,0,.3.08.07,0,.06,0h0Z" style="fill:#d88c68"/><path d="M257,295.92l0,.26c-2.9-2-3.38-4.19-3.38-4.19-.1-3.12,1.56-3.74,1.56-3.74a28,28,0,0,0,2.67,1A25.72,25.72,0,0,0,257,295.92Z" style="fill:#3a424d"/><path d="M267.59,291.77a.4.4,0,0,1-.11.2l-1.38-.11h0l-.06,0-.07,0-.3-.08-.07,0-.17-.06-.09,0-.16-.05-.07,0c-.74-.21-1.8-.53-3-.89l-.45-.14-.25-.08-.09,0-.35-.1-.17-.06-.28-.09-.07,0-.71-.23-.17-.06-.35-.11,0,0-.22-.07-.23-.08-.19-.06-.66-.23a28,28,0,0,1-2.67-1s-1.66.62-1.56,3.74c0,0,.48,2.17,3.38,4.19l.63.41c.36.22.75.43,1.17.64l.19.09.24.12.15.06.2.09.21.09.21.09.22.08c.22.09.45.17.69.25l.22.08.23.07h0l.24.07.94.26.24.06.21.06.19,0,.28.06.29.07,1.31.23a6.26,6.26,0,0,1-.44.86,4.5,4.5,0,0,1-1.14,1.25,4.34,4.34,0,0,1-.46.28,4,4,0,0,1-1,.38,5.65,5.65,0,0,1-.68.11,5.18,5.18,0,0,1-1.59-.1h0l-.13,0h0a28.44,28.44,0,0,1-7.75-5.15l0,0a7.94,7.94,0,0,1-1-1.41,2.39,2.39,0,0,0-.13-.21l-.06-.13a8.55,8.55,0,0,1-.14-8.12c.08-.15.15-.29.24-.44a8.38,8.38,0,0,1,8.54-4.3,7.42,7.42,0,0,1,.95.15C267.52,284.4,267.59,291.77,267.59,291.77Z" style="fill:#0494f7"/><path d="M251.51,315.45a10.44,10.44,0,0,0-4,2.66l-.65-.16-.46-.11-1.77-.43-.1,0-.29-.07-4.45-1.09a2.55,2.55,0,0,1-.33-.17h0a4.14,4.14,0,0,1-.14-1.47c.12-1.37,1-3.25,5-3.42l0,0,0,0,.07.05.06.05.94.67.13.08.39.27.12.08.11.08.12.08.25.16h0l.23.15.75.47a2.26,2.26,0,0,0,.26.16c.26.17.54.33.82.49l.64.36C250,314.76,250.78,315.13,251.51,315.45Z" style="fill:#0494f7"/><path d="M259.81,312.69l-2.9,12.06-.08,0,.06-.2-4.43-.26a6.4,6.4,0,0,0-1.69-.72,30.53,30.53,0,0,0-5.56-.88l-1.42-.1.76-5.17.1,0,1.77.43.46.11.65.16.59.14a3.85,3.85,0,0,1,.49.07,3.44,3.44,0,0,1,2.16,1.74,5.64,5.64,0,0,1,.6,1.52l.33,0a13.23,13.23,0,0,0,4.1-.51c1.67-2.88.14-4.08-.9-4.54a4.45,4.45,0,0,0-.64-.22l-.16,0a9.29,9.29,0,0,1-1-.26c-.5-.16-1-.36-1.55-.59-.73-.32-1.47-.69-2.18-1.09l-.64-.36c-.28-.16-.56-.32-.82-.49a2.26,2.26,0,0,1-.26-.16l-.75-.47-.23-.15h0l-.25-.16-.12-.08-.11-.08-.12-.08-.39-.27-.13-.08-.94-.67-.06-.05-.07-.05,0,0,0,0,1.44-3.49a42.84,42.84,0,0,1,7.15,1.38h0a25.63,25.63,0,0,1,2.51.86l.09,0,.34.14.31.14c.28.13.56.26.82.4A9.44,9.44,0,0,1,259.81,312.69Z" style="fill:#2d3541"/><path d="M253.06,316a8.17,8.17,0,0,0-4.45,2.28,3.85,3.85,0,0,0-.49-.07l-.59-.14a10.44,10.44,0,0,1,4-2.66C252,315.68,252.56,315.88,253.06,316Z" style="fill:#2d3541"/><path d="M263.43,322.23a8.27,8.27,0,0,0-2.12,1.78l-.69-3.59-4.42.51L251,322a1.6,1.6,0,0,1-1,.47,1.85,1.85,0,0,1-1.94-2.08,1.57,1.57,0,0,1,1.45-1.36h.07l5.87-1a1.11,1.11,0,0,0,.92-1l.06-.71a1.41,1.41,0,0,0-.83-1.39L252,313.34a.68.68,0,0,0-.79.16,2.94,2.94,0,0,1-2.75.94,3.16,3.16,0,0,1-2.88-3.11c.12-1.47,2-2.39,3.77-2.14,2.29.34,2.71,1.62,2.45,3.06h0a.62.62,0,0,0,.35.67l4,1.8a1.46,1.46,0,0,1,.83,1l.23,1.2a.75.75,0,0,0,.8.61l3.69-.37a11.46,11.46,0,0,0,1.44,5l.15.06Z" style="fill:#3a424d"/><path d="M255.8,321.1a13.23,13.23,0,0,1-4.1.51l-.33,0a5.64,5.64,0,0,0-.6-1.52,3.44,3.44,0,0,0-2.16-1.74,8.17,8.17,0,0,1,4.45-2.28,9.29,9.29,0,0,0,1,.26l.16,0a4.45,4.45,0,0,1,.64.22C255.94,317,257.47,318.22,255.8,321.1Z" style="fill:#d88c68"/><path d="M241,317.59s0,.07-.08.11a.19.19,0,0,0,0,.08c-.37.62-.8,1.2-1.13,1.85l-.09.12-.09.12h0c-.13,0-.19-.26-.32-.2s-.15.21-.23.32c-.29.42-.57.85-.88,1.25-.16.2-.19.35.07.49,0,.37-.15.71-.14,1.08-.09.1-.07.24-.09.36-.05.34-.13.42-.47.48l-.37,0h0a1.45,1.45,0,0,1-.46-.09,29.62,29.62,0,0,1-4.17-1.5,7.66,7.66,0,0,1-1.14-.74,1.52,1.52,0,0,1-.63-1.39c0-.08,0-.17,0-.24a7.45,7.45,0,0,1,.36-1,7.82,7.82,0,0,1,2.43-2.8,6.19,6.19,0,0,1,.52-.36,6,6,0,0,1,1.47-.76.23.23,0,0,0,.18-.15c.07-.25.14-.5.22-.75a1.19,1.19,0,0,1,.26.11,8.14,8.14,0,0,0,1.12.71,6.53,6.53,0,0,0,1.08.64l.87.69c.55.47,1.17.86,1.75,1.3a.15.15,0,0,1,.07.07A.2.2,0,0,1,241,317.59Z" style="fill:#fdf5f1"/><path d="M238.71,323.82a1.56,1.56,0,0,1-.43,0h0Z" style="fill:#ebf3f7"/><path d="M238.06,326.18h0v0s0,0,0,0l-.4-.56-.54-1.9a1.79,1.79,0,0,1-.46-.09,28.46,28.46,0,0,1-4.17-1.51,6.88,6.88,0,0,1-1.14-.73,1.52,1.52,0,0,1-.63-1.39c0-.08,0-.17,0-.24a5.08,5.08,0,0,0-.06,2.13h0a.17.17,0,0,1,0,.17.09.09,0,0,1,0,.11,13.78,13.78,0,0,0,1.44,3.35h0l.58.93,0,0,.5.75a.85.85,0,0,0,.53.42h0a.31.31,0,0,1,.27.26c0-.2.16-.27.36-.3A12.23,12.23,0,0,0,237,327a4.69,4.69,0,0,0,.46-.21h0a1.19,1.19,0,0,0,.15-.09l0,0,.05,0,0,0,.05,0,.09-.09a.94.94,0,0,0,.1-.1l0,0a.21.21,0,0,0,0-.07A.22.22,0,0,0,238.06,326.18Z" style="fill:#9e0000"/><path d="M237.93,335v0l0,0Zm-4.32-3c.07-.19.23-.17.24-.16C233.69,331.78,233.64,331.87,233.61,332Z" style="fill:#010101"/><path d="M236.87,333.84a.56.56,0,0,1-.88.32l-.9-.59-2.34-1.51,0,0h0a2,2,0,0,1,0-.24,1.37,1.37,0,0,0,.08-.35,1.59,1.59,0,0,0,.15-.29c.05-.14.09-.28.14-.42l0-.05h0a.2.2,0,0,1,.21-.14c.21.24.28.59.58.75,0,0,.07,0,.1,0,.32.07.49-.17.7-.32a1.16,1.16,0,0,1,.94.38s-.2.76-.07.78a1.74,1.74,0,0,1,.3.13.3.3,0,0,0,0,.1c.15.17.7.47.93.87h0v0h0A.67.67,0,0,1,236.87,333.84Z" style="fill:#010101"/><path d="M238,335l0,0v0Z" style="fill:#e8f0f5"/><path d="M236.19,330.16l-.26.62c-.13,0-.14.25-.22.36s-.07.15-.11.23a1.16,1.16,0,0,0-.94-.38c-.21.15-.38.39-.7.32,0,0-.06,0-.1,0-.3-.16-.37-.51-.58-.75l0-.07a2.68,2.68,0,0,0,.1-.35h0l.11-.36.17-.6.5.28a7.22,7.22,0,0,0,1.65.75l.21.06h.11l0,0h0Z" style="fill:#ebf3f7"/><path d="M238.71,323.82a1.56,1.56,0,0,1-.43,0h0Z" style="fill:#010101"/><path d="M237.48,326.77h0l-.06.23a.19.19,0,0,0,0,.09c0,.19-.09.37-.14.58h0l-.14.55-.12.46-.59,1.09-.13.25h0s0,0,0,0,0,0,0,.06l0,0v0l0,0h0l0,0H236l-.21-.06a7.22,7.22,0,0,1-1.65-.75l-.5-.28a2.88,2.88,0,0,1,.17-.64,6.4,6.4,0,0,0,.2-.62c0-.2.16-.27.36-.3A12.23,12.23,0,0,0,237,327,4.69,4.69,0,0,0,237.48,326.77Z" style="fill:#fbcab1"/><path d="M246.54,322.66s.11,2.28-1.13,1.74a3.42,3.42,0,0,1-1.11-.7,1.81,1.81,0,0,1-.25-.3,1.71,1.71,0,0,1-.29-.59l-1.8-1.53c-.53-.34-1-.74-1.58-1-.18-.11-.34-.26-.52-.37a.75.75,0,0,0-.2-.1h0l.09-.12c.33-.65.76-1.23,1.13-1.85a.19.19,0,0,1,0-.08c0,.05.1.12.17.14h0a.26.26,0,0,0,.12.17l1.64,1.53,1.42,1.34h0l.28.25.07.06a2.66,2.66,0,0,0,.71.5,6.45,6.45,0,0,0,1.24.47S247,322.73,246.54,322.66Z" style="fill:#fbcab1"/></g></g></svg>