<svg id="Layer_1" data-name="Layer 1" xmlns="http://www.w3.org/2000/svg" viewBox="0 0 24 24">
  <title>icon</title>
  <path d="M18.8,5.93,13.35,4A4.07,4.07,0,0,0,12,3.74,4.13,4.13,0,0,0,10.66,4L5.2,5.93A3.34,3.34,0,0,0,3,9.05V17a3.3,3.3,0,0,0,3.31,3.31H10V14.49a1.17,1.17,0,0,1,1-1.27H13a1.17,1.17,0,0,1,1,1.27v5.77H17.7A3.3,3.3,0,0,0,21,17V9.05A3.31,3.31,0,0,0,18.8,5.93Zm.69,11a1.81,1.81,0,0,1-1.79,1.81H15.49V14.49A2.86,2.86,0,0,0,13,11.4H11.05a2.86,2.86,0,0,0-2.54,3.09v4.27H6.32A1.81,1.81,0,0,1,4.51,17V9.05a1.8,1.8,0,0,1,1.2-1.7l5.45-2A2.71,2.71,0,0,1,12,5.24a2.65,2.65,0,0,1,.84.15l5.45,2a1.8,1.8,0,0,1,1.19,1.7Z" fill="#231f20"/>
</svg>
