<svg id="Layer_1" data-name="Layer 1" xmlns="http://www.w3.org/2000/svg" xmlns:xlink="http://www.w3.org/1999/xlink" viewBox="0 0 100 100">
  <defs>
    <clipPath id="clip-path">
      <circle cx="50" cy="50" r="43.16" style="fill: none"/>
    </clipPath>
  </defs>
  <title>kenderaan</title>
  <circle cx="50" cy="50" r="43.16" style="fill: #ecf5ff"/>
  <g style="clip-path: url(#clip-path)">
    <g>
      <path d="M90.79,76.56a2.28,2.28,0,0,1-.35-.17,2.28,2.28,0,0,0,.35.17.1.1,0,0,1,0,0A.1.1,0,0,0,90.79,76.56Z" style="fill: #18b14b"/>
      <path d="M114.78,75.52a21,21,0,0,0-9.09-4.76c-1.06-.29-2.14-.47-3.23-.68a1.06,1.06,0,0,1,.51-.48c.88-.55,1.77-1.06,2.64-1.61a2,2,0,0,0,.76-2.88A12.35,12.35,0,0,0,105,63.23c-1-1.23-2.07-2.44-3.12-3.65a.28.28,0,0,1-.28-.28s0,0,0-.06h0a.05.05,0,0,1-.06,0,23.77,23.77,0,0,1-2.27-2c-1.88-1.34-3.78-2.64-5.74-3.86a18.51,18.51,0,0,1-4.75-2.9,1.48,1.48,0,0,0-1.75-.3c-.2.09-.46.37-.71.09a.77.77,0,0,1-.17-.87c.15-.29.3-.63.75-.62.69,0,1.37,0,2.06,0a2.93,2.93,0,0,0,1.76-.44l0-.51a14.65,14.65,0,0,1-3.44-3.41c-.38-.43-.71-.89-1.07-1.33a.94.94,0,0,1,0-1.46c.27-.3.7-.49.72-1l-.14,0c-.09.13-.17.12-.25,0a9.08,9.08,0,0,1-1.88-.09h-.27a.29.29,0,0,1-.39,0,24.52,24.52,0,0,0-2.84-.06c.19.6.37,1.22.58,1.82s-.11.8-.57.89a1,1,0,0,1-1.33-1,2.39,2.39,0,0,0-.21-1l-1.24,1s0,.1.06.11c.91.36,1,.67.4,1.5a.41.41,0,0,0-.05.19.66.66,0,0,1,.85.23,2.94,2.94,0,0,0,2,.91,3.44,3.44,0,0,1,1,.42,1.58,1.58,0,0,1,.3,2.76,21.23,21.23,0,0,0,1.65,2.54c.25.37.22.56-.19.77-1.59.86-1.48,1.28-.69,2.84,1.22,2.42,3.09,4.33,4.76,6.39a19,19,0,0,1,2,2.59,6.69,6.69,0,0,1,.51,4.71c-.25,1.24-1,2.33-1.3,3.54a9.63,9.63,0,0,0-.56,2.66,2.38,2.38,0,0,0,.63,1.62,2,2,0,0,0,.26.24,2.11,2.11,0,0,0,.31.21,2.28,2.28,0,0,0,.35.17.1.1,0,0,1,0,0,.1.1,0,0,0,0,0l.16.25.82.1h0a.52.52,0,0,0,.07.18l0,0h0s0,0,0,0,.41.06.6.13l.07,0,.2.24a8.47,8.47,0,0,1,2.29.35.8.8,0,0,0,1-.46c.65-1.09,1.37-2.15,2.08-3.2.36-.55.49-.54.73,0,.62,1.52,1.71,2.76,2.46,4.19.11.23.33.23.55.29A15.35,15.35,0,0,1,105,79.94l.94,0a5.25,5.25,0,0,1,3.51-2.37,8.58,8.58,0,0,1,2-.42,15.87,15.87,0,0,1,2.35-.42,2.14,2.14,0,0,0,.83-.23C115.23,76.25,115.28,76,114.78,75.52ZM99.45,65.18a3.45,3.45,0,0,1-2.59-1.11c-1.52-1.53-3.06-3-4.57-4.56-.23-.24-.71-.45-.53-.82s.65-.17,1-.14a11.89,11.89,0,0,1,1.31.21,4.68,4.68,0,0,1,3.63,1.29l3.53,3.09,1.18,1,.18.12a3.7,3.7,0,0,1,.33.21l0,0,0,0,.05.05a.22.22,0,0,1,0,.08s0,0,0,0l0,0h0s0,0,0,.06a.48.48,0,0,1,0,.17c-.12.39-.67.17-1,.18C101.23,65.2,100.34,65.17,99.45,65.18Z" style="fill: #66b6ff"/>
      <polygon points="64.07 42.7 64.07 42.7 64.08 42.71 64.07 42.7" style="fill: #139948"/>
      <path d="M78.9,43.77a.41.41,0,0,0-.05.19L78,45.69c-.69.63-.81,1-.48,1.6.46.86.31,1.11-.72,1.2a17.87,17.87,0,0,1-2.58-.79c-1.65-.63-3.29-1.28-4.94-1.92a28.83,28.83,0,0,1-2.87-1.61,17.34,17.34,0,0,0-2.28-1.42.11.11,0,0,0-.1,0c-.18-.35-.6-.42-.87-.67s-.34-.13-.38.19c-.11.83-.29,1.66-.36,2.5A68.06,68.06,0,0,1,61.41,52h0l-.24,0-.24,0-.27,0h-.1l-.35,0-.48-.07-.24,0L59,51.65h-.12l-.33,0h0l-.31,0-.37,0h-.32c-.36,0-.46-.2-.39-.53.28-1.61.59-3.22.84-4.84s.14-2.33-1.56-2.72a2.12,2.12,0,0,0-2.94,1.94c-.27,1.65-.53,3.31-.78,5,0,.37-.16.63-.57.53-.82-.19-1.69,0-2.5-.27A15.33,15.33,0,0,0,49.41,47a4.24,4.24,0,0,0,1.2-2,.77.77,0,0,0,.22-.59c.05-.79.07-1.58.15-2.36.05-.45-.14-.59-.54-.57L51,38.89a.37.37,0,0,0,.05-.11s0,0,0-.06c.16-.07.18-.22.18-.37.68-2.24,1.28-4.51,2.06-6.71a11.54,11.54,0,0,1,3.51-5.12.84.84,0,0,1,.47-.19,3.69,3.69,0,0,0,.9.42l3.67,1.46a2,2,0,0,0-.17.92L61.18,29a3.19,3.19,0,0,0-3.39,1.4,2.43,2.43,0,0,0,.18,3c1.22,1.75,2.63,3.35,4,5,.24.3.34.3.67.16a7.64,7.64,0,0,0,3.85-3.83c.22.09.31.3.45.46a20.29,20.29,0,0,0,1.93,2.11,6,6,0,0,0,3.08,2.4c2.2.74,4.36,1.63,6.53,2.46,0,0,0,.1.06.11C79.41,42.63,79.49,42.94,78.9,43.77Z" style="fill: #66b6ff"/>
      <path d="M63.8,19.68a4.84,4.84,0,0,0-5.41-3.93,6.08,6.08,0,0,0-2.64,3.49,5.43,5.43,0,0,0,1.52,5.85c.19.14.23.25.13.43.07.12.07.28.31.16a2.06,2.06,0,0,1,1-.28c.4-.21.83,0,1.25-.13a4.82,4.82,0,0,0,3.66-3,4.11,4.11,0,0,0-.1-1.44,1,1,0,0,1,.24-1ZM59.09,22.5a2,2,0,1,1,0-3.91,2,2,0,1,1,0,3.91Z" style="fill: #10131e"/>
      <path d="M48.82,19.93a1.28,1.28,0,0,0-.29.13C47,21.34,46.88,24.53,48,26c-.06.15-.13.3-.18.45a2.94,2.94,0,0,1-1.68,1.07c-.29.08-.47,0-.47-.32a3.68,3.68,0,0,0,1-2A8.64,8.64,0,0,0,47.06,22c0-1.41-1-2-2.24-1.34a7.37,7.37,0,0,1-2.39-.07,1.09,1.09,0,0,0-1.21.84,7,7,0,0,0-.31,3.2v.21a.16.16,0,0,0,.05.26,1.79,1.79,0,0,0,.25.84c-.07.33.22.51.31.78,0,.08,0,.16-.05.25-1.28.29-2.24-1.35-2.25-2.59a1.27,1.27,0,0,0,.62-.34,3.91,3.91,0,0,0,.76-3.89c-.18-.47-.38-.94-1-1.05a2.37,2.37,0,0,1,.79-1.2A5.85,5.85,0,0,1,45,16.75,4.53,4.53,0,0,1,48.82,19.93Z" style="fill: #66b6ff"/>
      <path d="M51,42.09c-.08.78-.1,1.57-.15,2.36a.77.77,0,0,1-.22.59,3.44,3.44,0,0,1-.35-.3A5.52,5.52,0,0,0,47.61,43c-.56-.15-1.25-.28-1.38-1.06s-.17-1.85-.25-2.77c0-.18-.53-3.89-.6-4.83a10.43,10.43,0,0,0-1.2-4c-.11-.52.6-.38.63-.78.17-.2.39-.14.6-.11-.17.19,1,1.38,1.45,1.78a1.65,1.65,0,0,1,.57,1.28C47.64,34.84,51,41.64,51,42.09Z" style="fill: #f5c942"/>
      <path d="M90.81,47.28a2.53,2.53,0,0,1-.08.52,14.65,14.65,0,0,1-3.44-3.41c-.38-.43-.71-.89-1.07-1.33a.94.94,0,0,1,0-1.46c.27-.3.7-.49.72-1,1.68.35,2.41,1.65,3,3.07A11.89,11.89,0,0,1,90.81,47.28Z" style="fill: #c8d1d8"/>
      <path d="M57.4,25.52c.07.12.07.28.31.16a2.06,2.06,0,0,1,1-.28,23.63,23.63,0,0,0,3.55.56l.47,1c-.44.33-.53.9-.9,1.27l-3.67-1.46a3.69,3.69,0,0,1-.9-.42C57.29,26.06,57.24,26.15,57.4,25.52Z" style="fill: #f6d7b6"/>
      <path d="M48,26c-1.07-1.46-1-4.65.58-5.93a1.28,1.28,0,0,1,.29-.13,6.9,6.9,0,0,1-.12,4.31A5.9,5.9,0,0,1,48,26Z" style="fill: #10131e"/>
      <path d="M47,27.56c-.72.16-1,.77-1.28,1.38-.08.18,0,.49-.33.49s-.43-.09-.6.11c-.2,0-.42,0-.4-.31,0-.47-.1-1,.19-1.41l1-.63c0,.35.18.4.47.32a2.94,2.94,0,0,0,1.68-1.07C47.84,27.13,47.61,27.43,47,27.56Z" style="fill: #606060"/>
      <path d="M86.84,40.6c-.09.13-.17.12-.25,0C86.67,40.46,86.76,40.47,86.84,40.6Z" style="fill: #c8d1d8"/>
      <path d="M89.25,90a4,4,0,0,1-3.06,1,3.37,3.37,0,0,0-3-2.15c-2.57-.13-5.15,0-7.73,0a60.5,60.5,0,0,1-8.3,0,13.23,13.23,0,0,1-7-2.92,2.09,2.09,0,0,0-1.36-.55c-2.39-.09-4.77-.34-7.15-.62-.07-.29-.29-.21-.48-.19h-.72a.88.88,0,0,0-1.19.11A3.6,3.6,0,0,0,48,87.12c0,.23,0,.45-.34.46a.43.43,0,0,1-.48-.31,28.49,28.49,0,0,0-2.27-4.12,15.91,15.91,0,0,0-3.09-3.4A7.32,7.32,0,0,0,38,77.91a20.59,20.59,0,0,0-2.72-.06,10.37,10.37,0,0,0-1.36.05c-1,.12-2,.38-2.87-.47,0,0-.09,0-.11-.06-.7-.84-.58-1.16.5-1.4a13.77,13.77,0,0,1,2.2-.42c.41,0,4.52,0,5.51.17,1.83.35,3.18,1.46,5,1.89.17,0,.21.18.6.33s.64-.06.91.16.65.08.8-.34a1.1,1.1,0,0,1,.6-.58,7.56,7.56,0,0,1,3.19-.8,11.85,11.85,0,0,1,1,5.51c0,.27-.12.57.17.78-.24.17-.72,0-.74.51s.33.25.48.25c2,0,3.91,0,5.87,0h1a.36.36,0,0,1-.32.14H51.23c-.13,0-.41-.14-.41.16s.24.22.42.22c.56,0,1.11,0,1.67,0,2.91-.12,5.85.33,8.75-.38.73-.18.87-.33.46-.88.28-.64-.36-.23-.48-.42-.35-.31-.83-.21-1.23-.4C59,81.2,57.69,80.31,56,80.37A1.39,1.39,0,0,1,54.93,79c0-.8-.11-1.59-.14-2.38l6.31.2,1.26,0c.19,0,.44.17.54,0s-.11-.36-.23-.51a30.18,30.18,0,0,0-3.84-3.91c-1.38-1.25-2.79-2.48-4.18-3.72A4,4,0,0,0,57,68.58,11.75,11.75,0,0,1,59.35,68c1.52-.24,3-.69,4.5-.92s3.09-.7,4.63-1.07c.34-.09.53,0,.46.37L68.31,70a8,8,0,0,0-1.06,1.81,2.83,2.83,0,0,0-.73,2,6,6,0,0,0,.73,2.77c.11.29.11.5-.27.59s-.91.29-1.38.37-.42.25-.19.52l1.16,1.36c-.14.41-.3.82-.4,1.24-.06.24-.53.26-.32.62a.65.65,0,0,0,.51.86c.77.21,1.53.43,2.31.62,1.55.37,3.16.34,4.72.73a4.65,4.65,0,0,0,2.51,0,8,8,0,0,1,2.75-.31c.33,0,.67,0,1,0l0,0c.08.32.33.25.54.25q.8,0,1.59,0c.22,0,.46.06.57-.22l1.07,0a.16.16,0,0,0,.11,0,10.58,10.58,0,0,0,4,5.35C88.07,89.05,88.89,89.24,89.25,90Z" style="fill: #26292b"/>
      <path d="M54.57,92.54a1.57,1.57,0,0,1-.14-.82,3.66,3.66,0,0,0-2-.09,20.92,20.92,0,0,1-2.5.23A3,3,0,0,1,48,91a.57.57,0,0,1-.15-.49,8.13,8.13,0,0,0,0-2.56c.31.23.32.59.48.87a3.43,3.43,0,0,0,2.81,2,3.26,3.26,0,0,0,3.07-1.5.91.91,0,0,0,.15-.5c-1.25-1.21-2.51-2.42-3.75-3.65-.15-.14-.5-.24-.26-.57a.88.88,0,0,0-1.19.11A3.6,3.6,0,0,0,48,87.12c0,.23,0,.45-.34.46a.43.43,0,0,1-.48-.31,28.49,28.49,0,0,0-2.27-4.12,15.91,15.91,0,0,0-3.09-3.4A7.32,7.32,0,0,0,38,77.91a20.59,20.59,0,0,0-2.72-.06,10.37,10.37,0,0,0-1.36.05c-1,.12-2,.38-2.87-.47-.1.22-.32.27-.52.36a12.33,12.33,0,0,0-5.5,5,10.38,10.38,0,0,0-1.57,5.06,1.06,1.06,0,0,0-.06.8,1,1,0,0,0,0,.92.58.58,0,0,0,0,.57c0,1.26,1.63,5.12,1.77,5.33a7.86,7.86,0,0,0,.93,1.34l.63.68A8,8,0,0,0,28.46,99a11.21,11.21,0,0,0,5.69,2.17,6.89,6.89,0,0,1,2.93,0,6.35,6.35,0,0,0,2.52-.52,12.25,12.25,0,0,0,7-6,.73.73,0,0,1,.82-.47A14.72,14.72,0,0,0,51.63,94c.12-.38.4-.22.64-.18l.15,0c.12-.21.26-.24.41,0a10.93,10.93,0,0,0,2.14,0A2.63,2.63,0,0,0,54.57,92.54Zm-11-5.3c-.15.13-.3,0-.43-.06a3.7,3.7,0,0,1-.28-.28c-.29.49-.4.13-.54-.1a35.81,35.81,0,0,0-3.21-1.63.44.44,0,0,1-.27-.26A10.46,10.46,0,0,1,36.54,84a9.61,9.61,0,0,1-1.75-.55,4.71,4.71,0,0,0-3.16-.24c-.56.44-1.27.72-1.64,1.39a.18.18,0,0,1-.15.18c-.11.35-.1.8-.63.83,0,.08,0,.16,0,.24l.06.06h0l0-.05a2.07,2.07,0,0,0-.37,1.11,1.76,1.76,0,0,0,.13.66.46.46,0,0,1,0,.38,7.17,7.17,0,0,0,1.69,1c.24.11.61.21.6.61a4.47,4.47,0,0,0,3,3.19,1,1,0,0,1,.46.2l1.4-.06a7.16,7.16,0,0,0,1.17-.36s.1,0,.13,0a1.72,1.72,0,0,1,2-.16,15,15,0,0,0,1.92.66c.39.12.27.3.14.51l.2,0a1.87,1.87,0,0,0,.28-.16.29.29,0,0,1,.42,0c.16.13.05.27,0,.4a8.34,8.34,0,0,1-6.23,3.4,8.17,8.17,0,0,1-6-2.1.82.82,0,0,0-.47-.2L30,94.5,29.62,94l-.47,0a2.82,2.82,0,0,1-1-1.74c0-.4-.12-.64-.53-.68.07-.76-.29-1.46-.29-2.23a8,8,0,0,1,3.58-7.12A7.78,7.78,0,0,1,37.64,81a8.48,8.48,0,0,1,4.52,3,10.81,10.81,0,0,1,1.4,2.75C43.62,87,43.67,87.12,43.54,87.24Zm-6.38-1.69c-.3,0-.4-.26-.43-.5a.36.36,0,0,1,.33-.41c.3,0,.51.17.54.43A.42.42,0,0,1,37.16,85.55Z" style="fill: #26292b"/>
      <path d="M50.2,76.38a7.56,7.56,0,0,0-3.19.8,1.1,1.1,0,0,0-.6.58c-.15.42-.45.42-.8.34a2.7,2.7,0,0,1-.91-.16,6.29,6.29,0,0,0-.61-.3c-1.81-.42-3.14-1.57-5-1.92l-3.5-2.12c-.08-.06-.21,0-.23-.18l.65-.21c-1.11-.72-2.16-1.39-3.2-2.08L28.13,68c-.25-.67-.76-1.2-1-1.89a15.25,15.25,0,0,0,2-.57c.57-.26,1-.58.9-1.29a1.33,1.33,0,0,0-.8-1.12c-.83-.5-1.82-.37-2.68-.72A4.58,4.58,0,0,1,27.85,62a1.59,1.59,0,0,0,1.58-1.56c.32.26.63.52,1,.76a24.81,24.81,0,0,0,6.53,2.78.66.66,0,0,0,.56,0,.34.34,0,0,0,.06-.06.69.69,0,0,0,.07-.53c.44.21.87.43,1.31.63a7.62,7.62,0,0,1,2.94,1.69,10,10,0,0,0,2.18,1.69c1.18.73,2.4,1.29,3.74.35C48.6,70.59,49.4,73.49,50.2,76.38Z" style="fill: #66b6ff"/>
      <path d="M27.2,71.17A3.47,3.47,0,0,0,28,68.46a.41.41,0,0,1,.1-.42l4.71,3.09L36,73.21l-.65.21a3.64,3.64,0,0,1-1.73-.13,3.74,3.74,0,0,0-3.59,1.08C28,76.6,26,78.92,24,81.16A11.69,11.69,0,0,1,19.63,84a1.68,1.68,0,0,1-.32.09c-.34,0-.74,0-.86-.29s.32-.47.58-.59a7.75,7.75,0,0,0,3.32-3.19C23.73,77.79,27.21,71.33,27.2,71.17Z" style="fill: #26292b"/>
      <path d="M32.61,34.89a2.85,2.85,0,0,1,.41-2.8,23.76,23.76,0,0,1,2.86-3.91,2.8,2.8,0,0,0,.55-.73.34.34,0,0,0,.15-.29v0c.22,0,.25-.17.3-.32a10.23,10.23,0,0,0,1.94-3.19l0,0s0-.06,0-.09l.17,0,.2.87c0,1.24,1,2.88,2.25,2.59a21.32,21.32,0,0,1-.73,2.31,6.36,6.36,0,0,0-4.31.6A6.09,6.09,0,0,0,34,32.6,8.9,8.9,0,0,1,32.61,34.89Z" style="fill: #606060"/>
      <path d="M39.22,24.4l-.2-.87a16.5,16.5,0,0,1,0-2.63c.09,0,.08-.09.06-.16a2.4,2.4,0,0,1,.55-1.62c.59.11.79.58,1,1.05a4,4,0,0,1-.75,3.89A1.44,1.44,0,0,1,39.22,24.4Z" style="fill: #10131e"/>
      <path d="M38.85,23.55s0,.06,0,.09l0,0A.14.14,0,0,1,38.85,23.55Z" style="fill: #c8d1d8"/>
      <path d="M39.08,20.74c0,.07,0,.13-.06.16S39,20.76,39.08,20.74Z" style="fill: #7d7e84"/>
      <path d="M85.11,81.7h0Zm.13.27h0ZM89,78.9Zm.27.27h0Zm1.19-2.78a2.28,2.28,0,0,0,.35.17h0A2.28,2.28,0,0,1,90.44,76.39Z" style="fill: #10131e"/>
      <path d="M118.25,86c-.21-.64-.39-1.29-.62-1.93a4.27,4.27,0,0,1-.55-1.52c-.06.08-.11.21-.21,0a12.27,12.27,0,0,0-2.31-3.06,18.27,18.27,0,0,0-3.15-2.32,8.58,8.58,0,0,0-2,.42A5.25,5.25,0,0,0,105.9,80a8.73,8.73,0,0,1,6.94,4,8.17,8.17,0,0,1,1.29,6.09,8.53,8.53,0,0,1-2,4.36,8.72,8.72,0,0,1-3.56,2.43,9,9,0,0,1-5.09.29,8,8,0,0,1-4.52-2.83,8.4,8.4,0,0,1-2.07-5.84,8.86,8.86,0,0,1,3-6.32c.15-.13.38-.39.55-.18s-.15.34-.31.48a8.18,8.18,0,0,0-2.83,6,8,8,0,0,0,3.34,6.86,7.91,7.91,0,0,0,6.49,1.51,8.64,8.64,0,0,0,5.17-3.17,7.29,7.29,0,0,0,1.55-3.9,7.93,7.93,0,0,0-3.7-8.06,7.83,7.83,0,0,0-6.82-1c-.28.09-.75.42-.85.07s.49-.3.8-.38l1.73-.43a15.35,15.35,0,0,0-3.07-1.15c-.22-.06-.44-.06-.55-.29-.75-1.43-1.84-2.67-2.46-4.19-.24-.59-.37-.6-.73,0-.53.79-1.07,1.58-1.58,2.39l-.5.81-.3.49c-3.09.3-4.66-.64-5.37-1.34l.24.3a2.71,2.71,0,0,1-1.39-2.8h0a10.9,10.9,0,0,1,.55-2.44c.34-1.21,1-2.3,1.3-3.54a6.69,6.69,0,0,0-.51-4.71,19,19,0,0,0-2-2.59c-1.67-2.06-3.54-4-4.76-6.39-.79-1.56-.9-2,.69-2.84.41-.21.44-.4.19-.77A21.23,21.23,0,0,1,83,48.28,1.46,1.46,0,0,1,81.38,48c-.46-.24-1.07.1-1.47-.37a4.83,4.83,0,0,1-1.77-1.26c-.2-.17-.06-.42-.1-.63-.69.63-.81,1-.48,1.6.46.86.31,1.11-.72,1.2a12.87,12.87,0,0,0,2.27,3.06.67.67,0,0,1,.16.34.48.48,0,0,1,.32.3l.06.15.15.09.07.06a1,1,0,0,1,.2.37c.14,0,.19.17.25.29a.31.31,0,0,1,.14.45c-.32.55,0,1,.18,1.47,1,1.29,1.73,2.72,2.59,4.1a35.09,35.09,0,0,1,2,3.4,13.24,13.24,0,0,1,1,6.16,25.62,25.62,0,0,1-.94,6.62c-.23.87-.41,1.75-.61,2.62-.23,1.06-.46,2.13-.68,3.19a5,5,0,0,0-.4,1.73.52.52,0,0,1,0,.11.31.31,0,0,1-.14.25,10.58,10.58,0,0,0,4,5.35c.6.45,1.42.64,1.78,1.39.24,0,.3-.25.38-.43a49.48,49.48,0,0,1,5.24-9.44,10.08,10.08,0,0,1,2.75-2.81c.15-.09.28-.24.44-.07a3.24,3.24,0,0,1,.28.47c-.42.24-.39.77-.78,1.09a12.23,12.23,0,0,0-4.36,6.93,12.42,12.42,0,0,0,2.48,11,13.09,13.09,0,0,0,11.44,4.69c.22,0,1.23-.21,1.35-.21s.77-.25.88-.24a.29.29,0,0,1,.34-.15c.16,0,1.63-.64,1.7-.66s.15-.18.29-.17a12.11,12.11,0,0,0,1.43-.84l.86-.72a9.8,9.8,0,0,0,1.89-2l.51-.76c.19-.27,1.17-2.17,1.31-2.48a13.67,13.67,0,0,0,.75-2.85A19.71,19.71,0,0,0,118.25,86ZM101,82.8a17.5,17.5,0,0,1,1.47,2.77c.79,1.05,1.29,2.26,2,3.36.34.54.62,1.12.94,1.67s.56.63,1.17.31c1.74-.92,1.14-1,.48-2.14-.89-1.56-1.82-3.11-2.74-4.65-.48-.76-1-1.5-1.43-2.27-.16-.27,0-.42.27-.51a7.83,7.83,0,0,1,3.53-.31,7.73,7.73,0,0,1,3.38,1.35,7.55,7.55,0,0,1,2.27,2.5,7.94,7.94,0,0,1,.92,4.87,5.63,5.63,0,0,1-1,2.67,6.45,6.45,0,0,1-3.44,3.2,4.54,4.54,0,0,1-2.84.74,7.3,7.3,0,0,1-6.3-2.63A7.48,7.48,0,0,1,98,90.38c-.06,0-.17-.06-.17-.08a11.6,11.6,0,0,1,.39-3.94v-.3c-.06-.18,0-.31.18-.35a8.11,8.11,0,0,1,2-2.8C100.6,82.77,100.82,82.46,101,82.8Z" style="fill: #26292b"/>
      <path d="M86.19,91c-2.26.07-4.52.15-6.78.2-3.17.07-6.34,0-9.51.17a26.1,26.1,0,0,1-3.31-.14s0-.1-.07-.1A15.27,15.27,0,0,0,63.21,91c-.08,0-.17.12-.25.18-1.13,0-2.26-.06-3.39-.14a4.85,4.85,0,0,1-1.89-.31,19.24,19.24,0,0,1-3.24-1.93c-1.25-1.21-2.51-2.42-3.75-3.65-.15-.14-.5-.24-.26-.57h.72c.09.23.28.23.48.19,2.38.28,4.76.53,7.15.62a2.09,2.09,0,0,1,1.36.55,13.23,13.23,0,0,0,7,2.92,60.5,60.5,0,0,0,8.3,0c2.58,0,5.16-.16,7.73,0A3.37,3.37,0,0,1,86.19,91Z" style="fill: #66b6ff"/>
      <path d="M66.59,91.18h0a.06.06,0,0,0-.09,0,3.81,3.81,0,0,1-3.38,2.14c-.06-.19-.22-.18-.38-.18h-7c-.19,0-.42,0-.47.25s0,.42-.28.33a2.63,2.63,0,0,0-.4-1.22,1.57,1.57,0,0,1-.14-.82c2,0,4.08,0,6.12,0,.49,0,1,.26,1.48,0,.21.21.24,0,.27-.13a.51.51,0,0,0,.66-.45c.08-.06.17-.18.25-.18a15.27,15.27,0,0,1,3.31.13S66.56,91.15,66.59,91.18Z" style="fill: #26292b"/>
      <path d="M55.26,93.43c0-.29.27-.25.46-.25h7c.16,0,.32,0,.39.18a1.65,1.65,0,0,1-.79.08Z" style="fill: #26292b"/>
      <path d="M52.27,93.78a.72.72,0,0,1-.64.18C51.75,93.58,52,93.74,52.27,93.78Z" style="fill: #26292b"/>
      <path d="M52.83,93.74h-.41C52.54,93.54,52.68,93.51,52.83,93.74Z" style="fill: #26292b"/>
      <path d="M66.47,91.22a.06.06,0,0,1,.09,0l0,0Z" style="fill: #18b14b"/>
      <path d="M114.13,90.05a8.53,8.53,0,0,1-2,4.36,8.72,8.72,0,0,1-3.56,2.43,9,9,0,0,1-5.09.29,8,8,0,0,1-4.52-2.83,8.4,8.4,0,0,1-2.07-5.84,8.86,8.86,0,0,1,3-6.32c.15-.13.38-.39.55-.18s-.15.34-.31.48a8.18,8.18,0,0,0-2.83,6,8,8,0,0,0,3.34,6.86,7.91,7.91,0,0,0,6.49,1.51,8.64,8.64,0,0,0,5.17-3.17,7.29,7.29,0,0,0,1.55-3.9,7.93,7.93,0,0,0-3.7-8.06,7.83,7.83,0,0,0-6.82-1c-.28.09-.75.42-.85.07s.49-.3.8-.38l1.73-.43.94,0a8.73,8.73,0,0,1,6.94,4A8.17,8.17,0,0,1,114.13,90.05Z" style="fill: #1f2546"/>
      <path d="M102.4,64.17A4.65,4.65,0,0,1,98,63.39c-1.45-1.2-2.64-2.72-4-4.06-.33-.33-.18-.42.09-.57a4.68,4.68,0,0,1,3.63,1.29l3.53,3.09Z" style="fill: #c8d1d8"/>
      <path d="M103.14,65c-.12.39-.67.17-1,.18-.89,0-1.78,0-2.67,0a3.45,3.45,0,0,1-2.59-1.11c-1.52-1.53-3.06-3-4.57-4.56-.23-.24-.71-.45-.53-.82s.65-.17,1-.14a11.89,11.89,0,0,1,1.31.21c-.27.15-.42.24-.09.57,1.34,1.34,2.53,2.86,4,4.06a4.65,4.65,0,0,0,4.45.78l.18.12a3.7,3.7,0,0,1,.33.21l0,0,0,0,.05.05a.22.22,0,0,1,0,.08s0,0,0,0l0,0h0s0,0,0,.06A.48.48,0,0,1,103.14,65Z" style="fill: #d3e1f1"/>
      <path d="M83,48.28A1.46,1.46,0,0,1,81.38,48c.08-.25.25-.19.42-.12a.59.59,0,0,0,.68-.1c.53-.38.63-.78.3-1.26a.87.87,0,0,0-1.32-.29.6.6,0,0,0-.32.72c.32.85-.23.71-.7.69h-.53a4.83,4.83,0,0,1-1.77-1.26c-.2-.17-.06-.42-.1-.63L78.85,44a.66.66,0,0,1,.85.23,2.94,2.94,0,0,0,2,.91,3.44,3.44,0,0,1,1,.42A1.58,1.58,0,0,1,83,48.28Z" style="fill: #f6d7b6"/>
      <path d="M81.22,43.13a1,1,0,0,1-1.33-1,2.39,2.39,0,0,0-.21-1c0-.62-.4-1.08-.56-1.62.15-.5.43-.62.77-.56L80,39l.19.06.07,0,.07,0c.06.28-.17.76.45.67.14.21.19.48.43.63.19.6.37,1.22.58,1.82S81.68,43,81.22,43.13Z" style="fill: #10131e"/>
      <polygon points="91.78 76.91 91.78 76.91 91.78 76.91 91.78 76.91" style="fill: #7d7e84"/>
      <polygon points="91.78 76.91 91.78 76.91 91.78 76.91 91.78 76.91" style="fill: #c8d1d8"/>
      <path d="M90.79,76.56a.1.1,0,0,1,0,0,.1.1,0,0,0,0,0Z" style="fill: #c8d1d8"/>
      <polygon points="91.78 76.91 91.78 76.91 91.78 76.91 91.78 76.91" style="fill: #c8d1d8"/>
      <path d="M84.44,40.49a.29.29,0,0,1-.39,0C84.19,40.31,84.32,40.32,84.44,40.49Z" style="fill: #c8d1d8"/>
      <path d="M48,52.36h0Zm0,0h0Zm0,0h0Zm0,0h0Zm0,0h0Zm0,0h0Zm0,0h0Zm0,0h0Zm0,0h0ZM61.41,52l-.24,0,.24,0ZM48,52.36h0Zm0,0h0Zm0,0h0Zm0,0h0Zm0,0h0Zm0,0h0Zm0,0h0Zm0,0h0Zm0,0h0Z" style="fill: #0f111c"/>
      <path d="M76.91,64.69c-1.3,3.93-2.38,8-3.57,11.92-.4,1.33-.43,1.32-1.7,1.36l-4-.39c-.26,0-.44,0-.4.36.09.64-.46,1-.68,1.5l-1.16-1.36c-.23-.27-.25-.44.19-.52s.92-.26,1.38-.37.38-.3.27-.59A8.33,8.33,0,0,0,67.67,74a.42.42,0,0,0,.11-.47c0-.18,0-.36.07-.54a.9.9,0,0,0,.14-.66c0-.08,0-.17,0-.25a16.28,16.28,0,0,0,.3-2.08l.63-3.64c.07-.4-.12-.46-.46-.37-1.54.37-3.06.83-4.63,1.07s-3,.68-4.5.92a11.75,11.75,0,0,0-2.36.57,4,4,0,0,1-2.34.07c-.23-.09-.35-.35-.63-.35a1.34,1.34,0,0,1-.18-.76,35.5,35.5,0,0,0-.68-4.92c.4.09.59-.2.68-.48s-.09-.55-.35-.71a4.23,4.23,0,0,0-1.57-.65,7.49,7.49,0,0,1-1.78-.61,17.13,17.13,0,0,1-2.61-1.53l.29-.12c.51,0,1,.3,1.48.22,0-.07,0-.12,0-.14a1.67,1.67,0,0,0-.23-.23,3.64,3.64,0,0,1-1.37-3.12c.09-1,.25-1.92.37-2.88,0,0,.07,0,.08,0a.05.05,0,0,0,0,0,.13.13,0,0,0,0-.06,2.53,2.53,0,0,0,1.48-1.6c.81.23,1.68.08,2.5.27.41.1.52-.16.57-.53.25-1.66.51-3.32.78-5a2.12,2.12,0,0,1,2.94-1.94c1.7.39,1.8,1.12,1.56,2.72s-.56,3.23-.84,4.84c-.07.33,0,.53.39.53h.32l.37,0,.31,0h0l.33,0H59l.49.07.24,0,.48.07.35,0h.1l.27,0,.24,0,.24,0a13.56,13.56,0,0,0,2.61.87,48.16,48.16,0,0,0,4.66,1.72h0a.31.31,0,0,0,.37.19l2.39,1c.12.09.2.24.39.21l.05,0H72a.58.58,0,0,0,.18.17A10.89,10.89,0,0,1,76,58.61v0A6.36,6.36,0,0,1,76.91,64.69Z" style="fill: #26292b"/>
      <path d="M66.45,34.73a7.68,7.68,0,0,1-3.85,3.83c-.32.14-.43.15-.67-.16-1.33-1.67-2.73-3.27-4-5a2.43,2.43,0,0,1-.18-3A3.17,3.17,0,0,1,61.18,29l.45.11,2.11,2.22Z" style="fill: #0f111c"/>
      <path d="M50.61,45a4.24,4.24,0,0,1-1.2,2,1.58,1.58,0,0,1-1.6-.21,1.35,1.35,0,0,0-1-.47,1.12,1.12,0,0,0-.49-.42c-.8-.46-1.58-1-2.37-1.43-1.36-.81-2.67-1.73-4.06-2.48-.94-.5-1.46-1-1.24-2.1.11-.55.32-.76.85-.61s.69.09.57-.55c-.07-.35,0-.71.31-.77s.3.38.41.62c0,0,0,.09,0,.13A3.37,3.37,0,0,0,42.41,41c1.06.55,2.24.78,3.29,1.34.35.18.47-.09.53-.38.13.78.82.91,1.38,1.06a5.52,5.52,0,0,1,2.65,1.76A3.44,3.44,0,0,0,50.61,45Z" style="fill: #f6d7b6"/>
      <path d="M49.62,50.62a2.53,2.53,0,0,1-1.48,1.6,1.71,1.71,0,0,1-.11.14l-.37,0c0-.26,0-.54-.1-.79a41.28,41.28,0,0,1-.73-5.19,1.35,1.35,0,0,1,1,.47,1.58,1.58,0,0,0,1.6.21A15.33,15.33,0,0,1,49.62,50.62Z" style="fill: #f5c942"/>
      <path d="M64.17,42.75l-.08.06,0-.11A.11.11,0,0,1,64.17,42.75Z" style="fill: #eaf3fa"/>
      <path d="M80.35,39.12c-.54-.23-1-.31-1.23.41-.25-.18-.49,0-.67.08a7.25,7.25,0,0,1-2,.51c-.55.12-.82-.2-1-.67a3.55,3.55,0,0,1,1.85-4.11.83.83,0,0,1,1.09.35,5.48,5.48,0,0,1,1.51,2.64C79.93,38.61,80.19,38.86,80.35,39.12Z" style="fill: #0f111c"/>
      <path d="M80.78,39.79c-.62.09-.39-.39-.45-.67a.12.12,0,0,1,.12,0C80.45,39.42,80.74,39.55,80.78,39.79Z" style="fill: #0f111c"/>
      <path d="M59.09,22.5a2,2,0,1,1,0-3.91,2,2,0,1,1,0,3.91Z" style="fill: #66b6ff"/>
      <path d="M63.93,24.07A2,2,0,0,1,62.23,26a23.63,23.63,0,0,1-3.55-.56c.4-.21.83,0,1.25-.13a4.82,4.82,0,0,0,3.66-3c0,.11.07.23.11.34A6.62,6.62,0,0,0,63.93,24.07Z" style="fill: #66b6ff"/>
      <path d="M66.13,24.35a1.17,1.17,0,0,1-1.07-.17l-.24-.08c-.3-.38-.77-.65-.8-1.21-.13-.07-.13-.28-.32-.29s-.07-.23-.11-.34a4.11,4.11,0,0,0-.1-1.44,1,1,0,0,1,.24-1l.07-.11a6.79,6.79,0,0,1,1.61-.34c.28.07.66.32.65.6s.74,3,.86,3.62S66.19,24.35,66.13,24.35Z" style="fill: #aedcff"/>
      <path d="M46.63,25.17a3.68,3.68,0,0,1-1,2l-1,.63a2.64,2.64,0,0,1-2.46-.93l-.62-.15c-.09-.27-.38-.45-.31-.78a1.79,1.79,0,0,1-.25-.84c.13-.11.07-.19-.05-.26v-.21a7,7,0,0,1,.31-3.2,1.09,1.09,0,0,1,1.21-.84,7.37,7.37,0,0,0,2.39.07c1.28-.64,2.23-.07,2.24,1.34A8.64,8.64,0,0,1,46.63,25.17Z" style="fill: #f6d7b6"/>
      <path d="M44.81,29.54c0,.4-.74.26-.63.78A14.7,14.7,0,0,1,40.62,30c-.11-.24,0-.44.12-.65A21.32,21.32,0,0,0,41.47,27c0-.09,0-.17.05-.25l.62.15a2.64,2.64,0,0,0,2.46.93c-.29.44-.15.94-.19,1.41C44.39,29.52,44.61,29.52,44.81,29.54Z" style="fill: #f6d7b6"/>
      <path d="M41,25.12a.16.16,0,0,1-.05-.26C41,24.93,41.09,25,41,25.12Z" style="fill: #7d7e84"/>
      <path d="M49.3,58.74c-.52.08-1-.25-1.48-.22l-.2-.16c-.87,0-1.31-.71-1.89-1.18a1.08,1.08,0,0,1-.5-.42c-1-.49-1.09-1.46-1.25-2.4a1.84,1.84,0,0,0-.32-1.54c-.78-1.18-.75-1.2-2-.65a9,9,0,0,0-1.94-1.45,4.9,4.9,0,0,1-2.17-1.54c-.31-.42-.67-.81-1-1.22l.09-1.21a.24.24,0,0,0,.13-.22.46.46,0,0,0-.06-.22c0-.37,0-.73.07-1.09a38.61,38.61,0,0,1,.79-4.63c.5-2.36,1.14-4.68,1.85-7,.38-1.22.78-2.44,1.17-3.66a14.7,14.7,0,0,0,3.56.37,10.43,10.43,0,0,1,1.2,4,14,14,0,0,1,.25,2.82c.13.11.32.2.15.42V38a.21.21,0,0,1,0,.27.56.56,0,0,1,0,.42c.2.13.12.33.12.51.08.92.16,1.85.25,2.77-.06.29-.18.56-.53.38-1.05-.56-2.23-.79-3.29-1.34a3.37,3.37,0,0,1-1.59-2.21s0-.09,0-.13c-.11-.24,0-.7-.41-.62s-.38.42-.31.77c.12.64,0,.73-.57.55s-.74.06-.85.61c-.22,1.11.3,1.6,1.24,2.1,1.39.75,2.7,1.67,4.06,2.48.79.47,1.57,1,2.37,1.43a1.12,1.12,0,0,1,.49.42,41.28,41.28,0,0,0,.73,5.19c.06.25.06.53.1.79l.37,0h0c-.12,1-.28,1.91-.37,2.88A3.64,3.64,0,0,0,49,58.37a1.67,1.67,0,0,1,.23.23S49.28,58.67,49.3,58.74Z" style="fill: #eaf3fa"/>
      <path d="M36.74,46.31a.46.46,0,0,1,.06.22.6.6,0,0,0-.06-.22h0c0-.37,0-.73.07-1.09C36.78,45.58,36.75,45.94,36.74,46.31Z" style="fill: #fefefe"/>
      <path d="M67.21,18.08c0,.25,0,.51,0,.77h0c-.52.43-1.24.13-1.78.49a6.61,6.61,0,0,0-1.6.34,4.86,4.86,0,0,0-5.42-3.93,5.78,5.78,0,0,1,7.19.41A24.35,24.35,0,0,1,67.21,18.08Z" style="fill: #66b6ff"/>
      <path d="M67.2,18.85c0-.26,0-.52,0-.77C67.62,18.39,67.62,18.59,67.2,18.85Z" style="fill: #66b6ff"/>
      <path d="M64.07,26.77a1.32,1.32,0,0,0-.71,0c-.1,0-.2,0-.24.12l-.43,0c-.15-.33-.31-.65-.46-1a2,2,0,0,0,1.7-1.89,1.68,1.68,0,0,0,.89,0l.24.08a1.17,1.17,0,0,0,1.07.17A1.82,1.82,0,0,1,64.07,26.77Z" style="fill: #12172b"/>
      <path d="M37.56,63.88l-.06.06a.66.66,0,0,1-.56,0,24.81,24.81,0,0,1-6.53-2.78c-.35-.24-.66-.5-1-.76a3.19,3.19,0,0,1-.8-1.27c.24-1,.13-2.11.3-3.16.1-.08.36-2.91.42-3.54,0-.19.95-3.66,1.36-5.25.18,0,.28.07.4.18a34.49,34.49,0,0,0,3.86,3,4,4,0,0,1,1.53,1.92c.39,1.13.59,2.3,1,3.42,0,.46-.07.93-.07,1.39a33.93,33.93,0,0,0,.21,6.21A.69.69,0,0,1,37.56,63.88Z" style="fill: #f5c942"/>
      <path d="M40.62,30c-.39,1.22-.79,2.44-1.17,3.66-.71,2.3-1.35,4.62-1.85,7a38.61,38.61,0,0,0-.79,4.63c0,.36-.06.72-.07,1.09h0c-.18.12-.22.27-.07.44L36.58,48c-1.15-1.18-2.27-2.39-3.46-3.54-.33-.33-.44-.7-.25-1,.65-1.07.07-1.61-.77-2.11A15.81,15.81,0,0,0,30,40c-.14-.65.35-1.07.61-1.56.63-1.18,1.46-2.26,2-3.5A9.07,9.07,0,0,0,34,32.6a6,6,0,0,1,2.44-2.7,6.36,6.36,0,0,1,4.31-.6C40.66,29.51,40.51,29.71,40.62,30Z" style="fill: #f5c942"/>
      <path d="M41.23,55.56c0,.37-.17.7-.5.58-.66-.25-1.33.08-2-.14-.4-.14-.88,0-1.26-.25-.4-1.12-.6-2.29-1-3.42A4,4,0,0,0,35,50.41a34.49,34.49,0,0,1-3.86-3c-.12-.11-.22-.22-.4-.18-.21-.77-.9-1.22-1.3-1.87s-.64-1.25-.94-1.88c-.23-.48.19-.92.36-1.37A4.73,4.73,0,0,1,30,40a15.81,15.81,0,0,1,2.08,1.36c.84.5,1.42,1,.77,2.11-.19.3-.08.67.25,1,1.19,1.15,2.31,2.36,3.46,3.54.33.41.69.8,1,1.22a4.9,4.9,0,0,0,2.17,1.54,9,9,0,0,1,1.94,1.45,10.11,10.11,0,0,1-1,.65.55.55,0,0,0-.28.77Z" style="fill: #f6d7b6"/>
      <path d="M28.93,56c-.17,1.05-.06,2.12-.3,3.16A6.59,6.59,0,0,0,26.7,58a2.76,2.76,0,0,0-.38-.92.31.31,0,0,1,.06-.36c.1-.13.21-.11.35-.05,1,.42,1.11.36,1.56-.64l.52,0,.06,0Z" style="fill: #10131e"/>
      <path d="M56,80.37c0,.21-.11.3-.27.4-.77.53-1.53,1.08-2.3,1.62-.14.1-.29.18-.29.39a6.67,6.67,0,0,1-1.78-.11c-.29-.21-.2-.51-.17-.78a11.85,11.85,0,0,0-1-5.51c-.8-2.89-1.6-5.79-2.4-8.67a15.42,15.42,0,0,0-.42-2.15,2.14,2.14,0,0,1,.91-2.44,7.32,7.32,0,0,1,3.5-1.42.89.89,0,0,1,1.05.43l.32.49a35.5,35.5,0,0,1,.68,4.92,1.34,1.34,0,0,0,.18.76,2.8,2.8,0,0,0,0,.4c.16,1.91.32,3.82.5,5.73.07.73.2,1.44.3,2.16s.11,1.58.14,2.38A1.39,1.39,0,0,0,56,80.37Z" style="fill: #f6d7b6"/>
      <path d="M62.9,76.79c-.1.21-.35,0-.54,0l-1.26,0-6.31-.2c-.1-.72-.23-1.43-.3-2.16-.18-1.91-.34-3.82-.5-5.73a2.8,2.8,0,0,1,0-.4c.28,0,.4.26.63.35,1.39,1.24,2.8,2.47,4.18,3.72a30.18,30.18,0,0,1,3.84,3.91C62.79,76.43,63,76.6,62.9,76.79Z" style="fill: #66b6ff"/>
      <path d="M77.78,82.42a1,1,0,0,1-.54.37A5.25,5.25,0,0,1,74,83c-1.41-.28-2.85-.41-4.26-.67-1.21-.22-2.48-.28-3.46-1.17-.28-.26-.29.11-.44.14-.21-.36.26-.38.32-.62.1-.42.26-.83.4-1.24s.77-.86.68-1.5c0-.32.14-.38.4-.36-.14.71,0,1,.72,1.19a1.85,1.85,0,0,0,.78,0l2.48-.45a4.66,4.66,0,0,0,1.9,1.54c1.25.78,2.44,1.74,4,1.85C77.93,81.79,78,82.12,77.78,82.42Z" style="fill: #12172b"/>
      <path d="M61.64,82.28l-.38.09a49.62,49.62,0,0,1-8.08.41c0-.21.15-.29.29-.39.77-.54,1.53-1.09,2.3-1.62.16-.1.3-.19.27-.4,1.65-.06,3,.83,4.37,1.51C60.81,82.07,61.29,82,61.64,82.28Z" style="fill: #12172b"/>
      <path d="M61.66,83.58c-2.9.71-5.84.26-8.75.38-.56,0-1.11,0-1.67,0-.18,0-.41,0-.42-.22s.28-.15.41-.16H57.7a.36.36,0,0,0,.32-.14H57c-2,0-3.91,0-5.87,0-.15,0-.55.25-.48-.25a61.84,61.84,0,0,0,11.46-.48C62.53,83.25,62.39,83.4,61.66,83.58Z" style="fill: #1f2546"/>
      <path d="M79.65,83.15c-.33,0-.67,0-1,0a8,8,0,0,0-2.75.31,4.65,4.65,0,0,1-2.51,0c-1.56-.39-3.17-.36-4.72-.73-.78-.19-1.54-.41-2.31-.62a.65.65,0,0,1-.51-.86c.15,0,.16-.4.44-.14,1,.89,2.25,1,3.46,1.17,1.41.26,2.85.39,4.26.67a5.25,5.25,0,0,0,3.23-.21,5.8,5.8,0,0,0,1.81.12C79.27,82.94,79.56,82.81,79.65,83.15Z" style="fill: #d3e1f1"/>
      <path d="M62.12,82.7a61.84,61.84,0,0,1-11.46.48c0-.5.5-.34.74-.51a6.67,6.67,0,0,0,1.78.11,49.62,49.62,0,0,0,8.08-.41l.38-.09C61.76,82.47,62.4,82.06,62.12,82.7Z" style="fill: #eaf3fa"/>
      <path d="M82.33,83.22c-.11.28-.35.22-.57.22q-.8,0-1.59,0c-.21,0-.46.07-.54-.25Z" style="fill: #10131e"/>
      <path d="M51.63,84.73c-.2,0-.39,0-.48-.19C51.34,84.52,51.56,84.44,51.63,84.73Z" style="fill: #0f111c"/>
      <path d="M63,91.13a.51.51,0,0,1-.66.45.29.29,0,0,0-.27.13c-.49.26-1,0-1.48,0-2,0-4.08,0-6.12,0a3.66,3.66,0,0,0-2-.09,20.92,20.92,0,0,1-2.5.23A3,3,0,0,1,48,91a.57.57,0,0,1-.15-.49,8.13,8.13,0,0,0,0-2.56c.31.23.32.59.48.87a3.43,3.43,0,0,0,2.81,2,3.26,3.26,0,0,0,3.07-1.5.91.91,0,0,0,.15-.5,19.24,19.24,0,0,0,3.24,1.93,4.85,4.85,0,0,0,1.89.31C60.7,91.07,61.83,91.09,63,91.13Z" style="fill: #26292b"/>
      <polygon points="29.26 93.02 29.24 93.02 29.25 93.01 29.26 93.02" style="fill: #26292b"/>
      <polygon points="29.51 93.43 29.51 93.43 29.5 93.42 29.51 93.43" style="fill: #26292b"/>
      <polygon points="30.84 83.21 30.84 83.2 30.85 83.2 30.84 83.21" style="fill: #1f2546"/>
      <polygon points="41.98 85.21 41.98 85.21 41.98 85.22 41.98 85.21" style="fill: #26292b"/>
      <path d="M43.54,87.24c-.15.13-.3,0-.43-.06a3.7,3.7,0,0,1-.28-.28c0-.17.05-.37,0-.52-.2-.43-.17-1-.83-1.17a1.27,1.27,0,0,0,0-.28l0-.15s0-.09,0-.13a.14.14,0,0,0,0-.06l-.06-.12,0-.06-.07-.09h0l-.09-.08h0l-.08-.06-.11-.05-.11,0h-.16l0,0c.16-.38,0-.49-.36-.39h0c.11-.2,0-.32-.14-.46a7.38,7.38,0,0,0-4.26-1.87,7.26,7.26,0,0,0-4.17.74l-.4.18-.2.1a.78.78,0,0,0-.18.11l-.11.08-.08.07a1,1,0,0,0-.27.36.61.61,0,0,0-.05.12s0,.08,0,.12l-.18,0-.15,0a1.39,1.39,0,0,0-.48.32l-.08.08a2.14,2.14,0,0,0-.13.19,2,2,0,0,0-.1.21,1.28,1.28,0,0,0-.07.34h0a1,1,0,0,0-.77,1.22l-.05,0,.05,0c-.3-.12-.3.14-.39.3A5.55,5.55,0,0,0,27.93,88a7,7,0,0,0,.81,4.5l0,0a0,0,0,0,0,0,0l.09.21.05.07h0l0,.06a.27.27,0,0,0,.16.08h0a.11.11,0,0,0,.08,0,.5.5,0,0,0,0,.3s0,0,0,0a.15.15,0,0,0,.1.07h.15c0,.18.07.36.11.54l-.47,0a2.82,2.82,0,0,1-1-1.74c0-.4-.12-.64-.53-.68.07-.76-.29-1.46-.29-2.23a8,8,0,0,1,3.58-7.12A7.78,7.78,0,0,1,37.64,81a8.48,8.48,0,0,1,4.52,3,10.81,10.81,0,0,1,1.4,2.75C43.62,87,43.67,87.12,43.54,87.24Z" style="fill: #26292b"/>
      <path d="M39.61,95.08a3.62,3.62,0,0,1-2.43.92c-.76-.06-1.15-.63-1.56-1.16A4.87,4.87,0,0,1,34.71,93l1.4-.06a7.16,7.16,0,0,0,1.17-.36c-.15.21-.06.37.1.52a15,15,0,0,0,1.52,1.34C39.16,94.6,39.55,94.67,39.61,95.08Z" style="fill: #26292b"/>
      <path d="M42.28,93.79a8.34,8.34,0,0,1-6.23,3.4,8.17,8.17,0,0,1-6-2.1.82.82,0,0,0-.47-.2L30,94.5c.22,0,.35.15.5.28a7.9,7.9,0,0,0,3.75,1.85,7.51,7.51,0,0,0,5.86-1.41c.2-.13.41-.23.23-.51l0,0c.57.06.79-.24.79-.77h0c.32.14.43,0,.48-.31a1.87,1.87,0,0,0,.28-.16.29.29,0,0,1,.42,0C42.49,93.52,42.38,93.66,42.28,93.79Z" style="fill: #26292b"/>
      <path d="M38.81,84.91A10.46,10.46,0,0,1,36.54,84,10.61,10.61,0,0,0,36,81.6c.57.12,1.13.28,1.71.36a1.78,1.78,0,0,1,1.15.64v0c-.12.07-.1.11,0,.13A3.37,3.37,0,0,1,38.81,84.91Z" style="fill: #26292b"/>
      <path d="M31.21,89.58c-.48-.16-.66.44-1.09.42l-.25.15-.15,0c-.52.12-.8.57-1.21,1a7.59,7.59,0,0,1-.2-2.74c.18-.16.33-.36.61-.36a7.17,7.17,0,0,0,1.69,1C30.85,89.08,31.22,89.18,31.21,89.58Z" style="fill: #26292b"/>
      <path d="M29.84,84.75c-.11.35-.1.8-.63.83-.13-.08-.22,0-.33.06a1,1,0,0,1,.77-1.22C29.66,84.56,29.47,84.82,29.84,84.75Z" style="fill: #26292b"/>
      <path d="M42.83,86.9c-.29.49-.4.13-.54-.1.21,0,.35,0,.22-.26s-.35-.89-.53-1.33h0c.66.12.63.74.83,1.17C42.88,86.53,42.82,86.73,42.83,86.9Z" style="fill: #26292b"/>
      <path d="M37.16,85.55c-.3,0-.4-.26-.43-.5a.36.36,0,0,1,.33-.41c.3,0,.51.17.54.43A.42.42,0,0,1,37.16,85.55Z" style="fill: #26292b"/>
      <path d="M41.63,93.59c-.05.27-.16.45-.48.31.06-.14.07-.32.28-.35Z" style="fill: #26292b"/>
      <path d="M29.25,85.88h0l0-.05Z" style="fill: #26292b"/>
      <path d="M30,84.57a.18.18,0,0,1-.15.18Z" style="fill: #12172b"/>
      <path d="M53.84,62.14c-.09.28-.28.57-.68.48l-.32-.49a.89.89,0,0,0-1.05-.43,7.32,7.32,0,0,0-3.5,1.42,2.14,2.14,0,0,0-.91,2.44,15.42,15.42,0,0,1,.42,2.15c-1.34.94-2.56.38-3.74-.35a10,10,0,0,1-2.18-1.69A7.62,7.62,0,0,0,38.94,64c-.44-.2-.87-.42-1.31-.63a33.93,33.93,0,0,1-.21-6.21c0-.46,0-.93.07-1.39.38.3.86.11,1.26.25.65.22,1.32-.11,2,.14.33.12.53-.21.5-.58.9-.13,1.5-.84,2.24-1.27.34-.2.34.12.51.07.16.94.25,1.91,1.25,2.4a1.08,1.08,0,0,0,.5.42c.58.47,1,1.18,1.89,1.18l.2.16-.29.12a17.13,17.13,0,0,0,2.61,1.53,7.49,7.49,0,0,0,1.78.61,4.23,4.23,0,0,1,1.57.65C53.75,61.59,54,61.84,53.84,62.14Z" style="fill: #12172b"/>
      <path d="M27.17,66.15a5.52,5.52,0,0,1-1.3-2.68c-.07-.51.27-.8.69-1,.86.35,1.85.22,2.68.71a1.37,1.37,0,0,1,.8,1.13c.06.71-.33,1-.9,1.29A15.25,15.25,0,0,1,27.17,66.15Z" style="fill: #7d7e84"/>
      <path d="M102.06,85.84a16.12,16.12,0,0,0-.84,2.42,9.93,9.93,0,0,0-2.67,1.06A.81.81,0,0,0,98,90.38c-.06,0-.17-.06-.17-.08a11.6,11.6,0,0,1,.39-3.94A6.77,6.77,0,0,1,102.06,85.84Z" style="fill: #1f2546"/>
      <path d="M85.24,82Zm-.13-.27h0Z" style="fill: #7d7e84"/>
      <path d="M89.11,79Zm0,0Zm0,0Zm0,0Zm0,0Zm.13.13h0ZM89.11,79Zm.13.13h0ZM89.11,79Zm.13.13h0ZM89.11,79Zm.13.13h0Zm0,0h0ZM89.11,79Zm.13.13h0ZM89.11,79Zm.13.13h0ZM89.11,79Zm.13.13h0ZM89.11,79Zm.13.13h0ZM89.11,79Zm0,0Zm0,0Zm0,0Zm.14.14Zm0,0h0ZM89.11,79ZM89,78.9h0Z" style="fill: #7d7e84"/>
      <path d="M85.11,81.71a.18.18,0,0,0,0,.16A.21.21,0,0,1,85.11,81.71Zm.13.26h0Z" style="fill: #7d7e84"/>
      <path d="M89.24,79.17h0ZM89.12,79h0ZM89,78.9Z" style="fill: #7d7e84"/>
      <path d="M82.48,47.73a.59.59,0,0,1-.68.1c-.17-.07-.34-.13-.42.12-.46-.24-1.07.1-1.47-.37h.53c.47,0,1,.16.7-.69a.6.6,0,0,1,.32-.72A6.71,6.71,0,0,1,82.48,47.73Z" style="fill: #1f2546"/>
      <path d="M98.24,86.06c-.06-.18,0-.31.18-.35A.3.3,0,0,1,98.24,86.06Z" style="fill: #1f2546"/>
      <path d="M62,91.72a.28.28,0,0,1,.27-.14C62.27,91.75,62.24,91.92,62,91.72Z" style="fill: #26292b"/>
      <path d="M82.48,47.73a6.71,6.71,0,0,0-1-1.55.87.87,0,0,1,1.32.29C83.11,47,83,47.35,82.48,47.73Z" style="fill: #66b6ff"/>
      <polygon points="48.03 52.37 48.03 52.37 48.02 52.37 48.03 52.37 48.03 52.37" style="fill: #eaf3fa"/>
      <path d="M71.63,78.37l-2.48.45a1.85,1.85,0,0,1-.78,0c-.68-.17-.86-.48-.72-1.19l4,.39C71.26,78.1,71.76,78.24,71.63,78.37Z" style="fill: #f6d7b6"/>
      <path d="M48.14,52.22a.13.13,0,0,1,0,.06.05.05,0,0,1,0,0s0,0-.08,0h0A1.71,1.71,0,0,0,48.14,52.22Z" style="fill: #eaf3fa"/>
      <path d="M64.82,24.1a1.68,1.68,0,0,1-.89,0,6.62,6.62,0,0,1-.23-1.47c.19,0,.19.22.32.29C64.05,23.45,64.52,23.72,64.82,24.1Z" style="fill: #f6d7b6"/>
      <path d="M44,54.36c-.17,0-.17-.27-.51-.07-.74.43-1.34,1.14-2.24,1.27l-.78-2a.55.55,0,0,1,.28-.77,10.11,10.11,0,0,0,1-.65c1.22-.55,1.19-.53,2,.65A1.84,1.84,0,0,1,44,54.36Z" style="fill: #1f2546"/>
      <path d="M36.8,46.53a.24.24,0,0,1-.13.22c-.15-.17-.11-.32.07-.44h0A.46.46,0,0,1,36.8,46.53Z" style="fill: #f6d7b6"/>
      <path d="M40.09,95.22a7.51,7.51,0,0,1-5.86,1.41,7.9,7.9,0,0,1-3.75-1.85c-.15-.13-.28-.28-.5-.28L29.62,94c0-.18-.08-.36-.11-.54h0c.64.37,1,1,1.63,1.46a7.52,7.52,0,0,0,5.33,1.45c.27,0,.59,0,.71-.34a3.62,3.62,0,0,0,2.43-.92c.3,0,.43-.34.71-.37C40.5,95,40.29,95.09,40.09,95.22Z" style="fill: #26292b"/>
      <path d="M29.14,90.76c-.66.7-.69.75-.23,1.57.13.22.37.39.35.68h0a.11.11,0,0,1-.08,0h0a.27.27,0,0,1-.16-.08l0-.06h0l-.05-.07-.09-.21a0,0,0,0,1,0,0l0,0a7,7,0,0,1-.81-4.5,5.55,5.55,0,0,1,.56-2.08c.09-.16.09-.42.39-.3a15.9,15.9,0,0,0-.58,1.93c0,.26-.13.51,0,.76a7.59,7.59,0,0,0,.2,2.74c.41-.39.69-.84,1.21-1C29.68,90.46,29.33,90.55,29.14,90.76Z" style="fill: #26292b"/>
      <path d="M29.51,93.43c-.32,0-.31-.2-.26-.42C29.45,93.08,29.48,93.26,29.51,93.43Z" style="fill: #26292b"/>
      <path d="M29.87,90.15l.25-.15C30.07,90.11,30,90.21,29.87,90.15Z" style="fill: #26292b"/>
      <path d="M31.08,83.18l-.24,0c.16-.71.82-.9,1.33-1.15a7.26,7.26,0,0,1,4.17-.74,7.53,7.53,0,0,1,4.27,1.87c.14.14.24.26.13.46-.5-.3-.89-.74-1.42-1-.17-.08-.3-.17-.47,0A1.77,1.77,0,0,0,37.7,82c-.58-.09-1.14-.25-1.71-.37A7.05,7.05,0,0,0,31.08,83.18Z" style="fill: #12172b"/>
      <path d="M30.85,83.2l-1.2,1.22A1.35,1.35,0,0,1,30.85,83.2Z" style="fill: #12172b"/>
      <path d="M42,85.22a6.19,6.19,0,0,1-.85-1.13C41.64,84.08,42,84.52,42,85.22Z" style="fill: #26292b"/>
      <path d="M41.11,84.05a.5.5,0,0,1-.36-.39C41.12,83.56,41.27,83.67,41.11,84.05Z" style="fill: #12172b"/>
      <path d="M38.88,82.76c-.12,0-.14-.06,0-.13Z" style="fill: #12172b"/>
      <path d="M41.14,93.91c0,.53-.22.83-.79.77A2.64,2.64,0,0,1,41.14,93.91Z" style="fill: #26292b"/>
      <path d="M85.28,81.87a.22.22,0,0,1,0,.1h-.07s-.05,0-.06-.08a.18.18,0,0,1,0-.16h.08l0,0A.18.18,0,0,1,85.28,81.87Z" style="fill: #26292b"/>
      <path d="M47.62,58.36c.08.17-.27.16-.79,0A4.26,4.26,0,0,1,44,54.26l3.53,3.45,1.77,1s-2.19-.1-2-.42" style="fill: #eaf3fa"/>
      <path d="M98.43,73.61l-1.86,3-.5.81-.3.49a8.48,8.48,0,0,1-5.13-1,2.71,2.71,0,0,1-1.39-2.8h0L93,72.15Z" style="fill: #66b6ff"/>
    </g>
  </g>
</svg>
