<svg id="Layer_1" data-name="Layer 1" xmlns="http://www.w3.org/2000/svg" xmlns:xlink="http://www.w3.org/1999/xlink" viewBox="0 0 100 100">
  <defs>
    <linearGradient id="linear-gradient" x1="4.36" y1="49.55" x2="90.64" y2="49.55" gradientUnits="userSpaceOnUse">
      <stop offset="0" stop-color="#c2ecff"/>
      <stop offset="1" stop-color="#e6f9ff"/>
    </linearGradient>
  </defs>
  <title>Untitled-2</title>
  <g>
    <path d="M90.64,49.56a128.69,128.69,0,0,1-4.21,33.2h0c-.25.93-.51,1.82-.78,2.73h0l0,.07-.05.07h0l-.1.16-.19.27-.07.09c-.14.18-.29.36-.45.53a4.18,4.18,0,0,1-.44.4l-.21.18a3.62,3.62,0,0,1-.32.22l-.32.2c-.91.27-1.82.53-2.75.78h0a128.64,128.64,0,0,1-33.2,4.21,128.77,128.77,0,0,1-33.21-4.21h0c-.92-.25-1.84-.51-2.75-.78a6.44,6.44,0,0,1-1.21-.92l-.16-.17a1,1,0,0,1-.14-.15,4.64,4.64,0,0,1-.46-.61,3.45,3.45,0,0,1-.2-.32c-.28-.91-.54-1.83-.79-2.77h0A128.67,128.67,0,0,1,4.36,49.56,128.77,128.77,0,0,1,8.57,16.35h0c.25-.92.51-1.84.78-2.73h0a1.4,1.4,0,0,1,.1-.16l.09-.15a1.3,1.3,0,0,1,.1-.15l0,0,.15-.21s0,0,0,0l.18-.22a3.45,3.45,0,0,1,.26-.28l.16-.16.15-.14a4.39,4.39,0,0,1,.36-.28,1.44,1.44,0,0,1,.25-.18l.32-.2c.92-.28,1.84-.54,2.78-.79h0A128.75,128.75,0,0,1,47.5,6.41a128.69,128.69,0,0,1,33.2,4.21h0c.93.25,1.85.51,2.77.79l.32.2.31.22.37.31.25.23.26.28.24.3a3.46,3.46,0,0,1,.22.31c0,.06.07.12.11.17l.09.18h0c.26.89.52,1.8.77,2.71v0A128.71,128.71,0,0,1,90.64,49.56Z" fill="url(#linear-gradient)"/>
    <g>
      <circle cx="47.5" cy="49.55" r="35.97" fill="#0096f9"/>
      <g>
        <path d="M44.1,36.57A7.19,7.19,0,0,1,33.93,46.73c-2.81-2.81-5.37-9.92-2.57-12.73S41.29,33.76,44.1,36.57Z" fill="#fefefe"/>
        <path d="M52.3,36.57A7.19,7.19,0,0,0,62.47,46.73C65.28,43.92,67.84,36.81,65,34S55.11,33.76,52.3,36.57Z" fill="#fefefe"/>
        <path d="M44.1,64.17A7.19,7.19,0,0,0,33.93,54c-2.81,2.81-5.37,9.93-2.57,12.74S41.29,67,44.1,64.17Z" fill="#fefefe"/>
        <path d="M52.3,64.17A7.19,7.19,0,0,1,62.47,54c2.81,2.81,5.37,9.93,2.57,12.74S55.11,67,52.3,64.17Z" fill="#fefefe"/>
      </g>
    </g>
  </g>
</svg>
