<svg id="Layer_1" data-name="Layer 1" xmlns="http://www.w3.org/2000/svg" xmlns:xlink="http://www.w3.org/1999/xlink" viewBox="0 0 100 100">
  <defs>
    <clipPath id="clip-path">
      <circle cx="50" cy="50" r="43.16" style="fill: none"/>
    </clipPath>
  </defs>
  <title>umur</title>
  <circle cx="50" cy="50" r="43.16" style="fill: #ecf5ff"/>
  <g style="clip-path: url(#clip-path)">
    <g>
      <path d="M90,56.57c-1.24,2.06-3.23,2.58-5.42,2.75-1.68.09-3.45-.51-5,.86a25.18,25.18,0,0,1-3.58,2.69,3.44,3.44,0,0,0-2,3.74c.1.65.07,1.19.84,1.46A2.31,2.31,0,0,1,76.42,70c0,1,.11,2,.08,3,0,.72.33,1,1,1,.35,0,.7,0,1,0a2,2,0,0,0,.35,0h0l2.46.72a1,1,0,0,0,.59.17l.65.19a2.77,2.77,0,0,0,2.11.6c.4,0,.8.16.84.67a.74.74,0,0,1-.33.81.84.84,0,0,1-1.08-.14,2.77,2.77,0,0,0-.82-.64C80.58,75.3,77.67,75.24,74.8,75c-.71-.07-1.38.36-2.1.22A29.63,29.63,0,0,0,67.05,75h-.49c-.8-.16-1.84-.8-2.21.36a24.42,24.42,0,0,0-.63,4c-.07.52.13.74.69.85a25.74,25.74,0,0,1,4.3,1.15,8.51,8.51,0,0,1,4.43,7.3,21.21,21.21,0,0,1-.64,5.71c-5.09,0-10.18,0-15.27,0-6.3,0-12.62-.12-18.93-.17-.67,0-1.32.06-1.16-.94a17,17,0,0,0,1.19-3.55A65.64,65.64,0,0,1,42,81.44a10.05,10.05,0,0,1,5.18-3h3l.1,0c.42.08.92.51,1.14-.26,0-.22,0-.44,0-.65l2.1.32a5.56,5.56,0,0,0,5.74-8.46c-2.1-3.08-5.51-2.76-8.62-3.12a3.24,3.24,0,0,0-1.72.31,5.72,5.72,0,0,0-3.38,5.85A3.24,3.24,0,0,1,43.32,71c-.13-.26-.35-.27-.58-.3l-2-.41A13.59,13.59,0,0,0,36,70c-.39,0-1.1.44-1.15-.29s.7-.41,1.11-.5A31.8,31.8,0,0,1,41.16,69c.76.32,1.73.77,2.06-.3a7.73,7.73,0,0,1,1.5-2.32,3.23,3.23,0,0,1,2.21-.1c.33.09.88.22.85-.27-.1-1.6.39-3.33-.9-4.72a38,38,0,0,1-3-3.36,3.89,3.89,0,0,0-3.17-1.75C38.27,55.27,37.24,54,37.38,52a2.23,2.23,0,0,1,2.28-2.21l1.06,0a11.16,11.16,0,0,1,3,1.51c1.27,1.12,2,3.52,1.15,4.3-1.09,1-.54,1.53.16,2.24.41.41.79.87,1.19,1.29,1.54,1.66,3,3.31,2.8,5.84-.09,1,.42,1.33,1.39,1a38.26,38.26,0,0,1,4.29-1h2.08c1.49.05,2.76,1,4.23,1.1a1.59,1.59,0,0,0,.64.47,10.41,10.41,0,0,0,5.84.92h.23c1.31,0,2.62,0,3.92.07.78,0,1.07-.18,1.16-1,.14-1.32.18-2.69,1.55-3.61s2.81-2.28,4.23-3.41c.66-.52,1-1,.51-1.87a2.72,2.72,0,0,1,0-2.41,7.14,7.14,0,0,1,4.78-4.51,25.72,25.72,0,0,1,2.81-.27C90.39,50.45,92,53.43,90,56.57Z" style="fill: #dedee3"/>
      <path d="M87.85,70.88c-1.42.66-1.65,2.08-2,3.38l-.5.3-2.39-.14c-.5-1.12,0-2.2.14-3.3a5.15,5.15,0,0,0-.51,3.34.92.92,0,0,1-.29,0l-2.88-.85a1.18,1.18,0,0,0-.09-.57A4.39,4.39,0,0,1,79.17,70a3.1,3.1,0,0,0,.48-.79c.28-1.15,1-1.35,2.11-1.38a16,16,0,0,1,2.62.49c.45.14.91.27,1.35.43a3.64,3.64,0,0,1,2.18,1.49C88,70.42,88.32,70.66,87.85,70.88Z" style="fill: #e8ba47"/>
      <path d="M87.73,42.42c-.18.07-.43.08-.53.21a13.94,13.94,0,0,0-3.29,7.94,6.83,6.83,0,0,0-4.07,3.09,8.45,8.45,0,0,0-.71,1.41,2.72,2.72,0,0,0,0,2.41c.51.88.14,1.35-.51,1.87-1.42,1.12-2.74,2.4-4.23,3.41S73,65.05,72.83,66.38c-.09.85-.38,1.06-1.16,1-1.3-.06-2.61,0-3.91-.06.24-3,.53-6.1.78-9.14.13-1.51.16-3,.27-4.54,0-.09,0-.18,0-.27a36.17,36.17,0,0,0,.27-7,19.74,19.74,0,0,0-.41,3.34c0,1.32,0,2.63-.12,3.94,0,.65-.07,1.3-.13,2-.36,3.91-.77,7.81-.92,11.73a10.24,10.24,0,0,1-5.84-.92,1.53,1.53,0,0,1-.64-.48c-.25-2.81-.13-5.62-.2-8.43.21-.92-.25-1.78-.2-2.69,0-.39,0-.78,0-1.16,0-3.19-.29-6.38-.26-9.57,0-.45,0-.89-.56-1,2.9-1,5.68-2.28,8.64-3.06h.45l.24,0,.25,0,0,.49c-.88,1.55-.88,3.09,0,4.05v0c0,.28-.16.93.48.54,2.77-1.69,5.69-3.14,8.35-5,.44-.32,1.11-.51,1.15-1.24l7.83,3.11A.9.9,0,0,1,87.73,42.42Z" style="fill: #26292b"/>
      <path d="M59.85,43.07c.58.13.56.57.56,1,0,3.58.39,7.15.23,10.73,0,.91.41,1.77.2,2.69l-4-1.5a9.21,9.21,0,0,0-2.11-.87c-1.63-.68-3.27-1.33-4.88-2-3.13-1.41-6.59-2.17-9.13-4.71-1-1.28-.35-2.41.29-3.54,1.3-1.63,2.29-3.51,3.81-5,2-2.11,4.13-4.21,6.14-6.37a1.14,1.14,0,0,1,1.58-.35,13.1,13.1,0,0,0,3.08,2.62c.35.37.51.71.07,1.16-1.22,1.28-1.83,3-2.87,4.35-.73,1-1.91,1.76-2.39,3.19l2.4-.44L59,43.09Z" style="fill: #66b6ff"/>
      <path d="M28.12,83.71l2.59.05h0c.12.18.18.14.22-.05,2.55-3.95,5.17-4,9.5-3.26.51.33,1,.66,1.54,1a67.39,67.39,0,0,0-3.65,8.3,17.12,17.12,0,0,1-1.18,3.54,2.27,2.27,0,0,1-1.26.22c-6.4,0-12.79,0-19.19,0-1,0-1.21-.29-1.18-1.21A4.77,4.77,0,0,1,21.13,88a1.09,1.09,0,0,0,1.47-.6A7.18,7.18,0,0,1,28.12,83.71Z" style="fill: #57a2d1"/>
      <path d="M55.62,35.77a13.1,13.1,0,0,1-3.08-2.62,5.53,5.53,0,0,1,1.9-2.21c1.26-.88,2.21-2.1,3.46-3,.23-.16.43-.4.68-.45,2-.42,3.71-1.89,5.9-1.64.19,0,.41-.19.62-.3l.27,0,1,0c.4.38,1.1.27,1.39.78a1.9,1.9,0,0,0,2.49.77,2.09,2.09,0,0,1,2.57.15c.76.55,1.77.05,2.62.37.43-1,1.33-.48,2-.59.88.72.43,1.65.39,2.5-.07,1.45-.39,2.87-.32,4.33a8.28,8.28,0,0,1-6.47,4.59c-.65.11-1.17-.46-1.76-.1a1.21,1.21,0,0,0-.79-.84,20.11,20.11,0,0,1-2-3.92l0-1.2c0-.82,0-1.64,0-2.45,0-.34.11-.87-.3-.89a1,1,0,0,0-.93.83,6.8,6.8,0,0,1-.17.9A2.85,2.85,0,0,1,64,32.27l-.25.21h0c-.34,0-3.72,2.4-4.77,2.33C57.53,34,56.63,35.08,55.62,35.77Z" style="fill: #e8ba47"/>
      <path d="M72.5,94.37a21.17,21.17,0,0,0,.64-5.71,8.52,8.52,0,0,0-4.43-7.3c.21-.34.55-.27.85-.22a22,22,0,0,0,6.38.47c2.41-.29,4.86-.24,7.25-.58,1.18-.16,2.47.18,3.54-.6a5.57,5.57,0,0,1,1,5.11c-1.52-.2-2.29.62-2.7,2a5.61,5.61,0,0,1-.6,1.29A5.72,5.72,0,0,0,84,94.1,83.7,83.7,0,0,1,72.5,94.37Z" style="fill: #5a5e60"/>
      <path d="M83.91,50.57a13.94,13.94,0,0,1,3.29-7.94c.1-.13.35-.14.53-.21a6.69,6.69,0,0,1,2.58,4.2c.88,5.56,1.71,11.13,2.53,16.71a18.5,18.5,0,0,1,.07,2.36,13.11,13.11,0,0,1-1.67,3,8.54,8.54,0,0,0-1.71,2.16c-.55.32-.32.78-.26,1.25.2,1.55-.34,2.14-1.86,2.12-.28,0-.55,0-.82,0l-.8,0c.4-1.3.64-2.71,2.06-3.38.47-.22.16-.46.06-.65a3.53,3.53,0,0,0-2.18-1.49c-.44-.17-.9-.3-1.35-.45a19.16,19.16,0,0,0,.24-9c2.18-.17,4.17-.69,5.42-2.75,1.91-3.15.34-6.12-3.33-6.28A22,22,0,0,0,83.91,50.57Z" style="fill: #66b6ff"/>
      <path d="M65.21,24.65c.88-4,4.39-6.44,8.72-6.13a7.84,7.84,0,0,1,7.44,7.09,5.89,5.89,0,0,1-2-.35,32.76,32.76,0,0,0-8.18-1.34A35,35,0,0,0,65.21,24.65Z" style="fill: #66b6ff"/>
      <path d="M87.72,85.54A6.47,6.47,0,0,1,90,88l.6,5.44A65.86,65.86,0,0,1,84,94.1a5.72,5.72,0,0,1,.39-5.31A5.61,5.61,0,0,0,85,87.5C85.43,86.16,86.2,85.34,87.72,85.54Z" style="fill: #e8ba47"/>
      <path d="M77.52,33.9c-.07-1.46.25-2.88.32-4.33,0-.85.49-1.78-.39-2.5,0-.83-.6-1-1.17-1.28a13.43,13.43,0,0,0-5.64-1.08,7.23,7.23,0,0,0-4.29.88l-1,0c.16-.6.72-.56,1.14-.67a22.71,22.71,0,0,1,8.77-.16c2.11.28,4.11,1,6.2,1.33,0,2.47-.84,4.78-1.35,7.15-.16.79-1,.88-1.62,1.2C78.41,33.79,77.94,33.91,77.52,33.9Z" style="fill: #66b6ff"/>
      <path d="M79.43,38.82c0,.73-.71.92-1.15,1.24-2.66,1.88-5.58,3.33-8.35,5-.64.39-.43-.26-.48-.54.28-.13.34-.39.46-.65.64-1.35,1.08-2.77,2.63-3.54,1.91-1,3.72-2.13,5.57-3.21.73-.57,1.07-.39,1.11.53A9.62,9.62,0,0,0,79.43,38.82Z" style="fill: #66b6ff"/>
      <path d="M78.11,37.14c-1.85,1.08-3.66,2.26-5.57,3.21-1.55.77-2,2.19-2.63,3.54-.12.26-.18.52-.46.65v0a7.2,7.2,0,0,1,.19-1.72,2.73,2.73,0,0,0-.17-2.33l0-.49c0-.23,0-.46,0-.69a8.37,8.37,0,0,0,6.27-1.48c.77-.59,1.44-1.32,2.16-2C78,36.29,77.82,36.75,78.11,37.14Z" style="fill: #e8ba47"/>
      <path d="M77.9,35.87c-.72.66-1.39,1.39-2.16,2a8.37,8.37,0,0,1-6.27,1.48l-.18-.94c.59-.36,1.11.21,1.76.1a8.28,8.28,0,0,0,6.47-4.59c.42,0,.89-.11,1,.51S78.06,35.37,77.9,35.87Z" style="fill: #26292b"/>
      <path d="M81.48,26.06c-2.09-.35-4.09-1-6.2-1.33a22.71,22.71,0,0,0-8.77.16c-.42.11-1,.07-1.14.67l-.27,0a.68.68,0,0,1,.11-.93,35,35,0,0,1,6-.73,32.76,32.76,0,0,1,8.18,1.34,5.89,5.89,0,0,0,2,.35C81.41,25.76,81.44,25.91,81.48,26.06Z" style="fill: #8fc6f9"/>
      <path d="M45.54,72.52c-.06-2.64.9-4.68,3.39-5.85a3.27,3.27,0,0,1,1.72-.32c3.11.36,6.52,0,8.61,3.12a5.56,5.56,0,0,1-5.73,8.46l-2.1-.32c-.55-.64-1.34-.19-2-.46A6,6,0,0,1,45.54,72.52Z" style="fill: #fdfefd"/>
      <path d="M86.59,74.3c0,1.71,0,3.42-.08,5.13a1.64,1.64,0,0,0,.22,1c-1.07.78-2.36.44-3.54.6-2.39.34-4.84.29-7.25.58a22,22,0,0,1-6.38-.47c-.3,0-.64-.12-.85.22a25.74,25.74,0,0,0-4.3-1.15c-.57-.11-.76-.33-.69-.85a23.72,23.72,0,0,1,.63-4c.37-1.16,1.42-.52,2.22-.36.19,1-.3,2-.18,3.36.57-1.25.34-2.36.66-3.35a30.54,30.54,0,0,1,5.65.22c.72.14,1.39-.29,2.1-.22,2.87.28,5.78.34,8.51,1.45a2.77,2.77,0,0,1,.82.64.86.86,0,0,0,1.08.15.74.74,0,0,0,.33-.82c0-.51-.44-.64-.84-.66-.81,0-1.66,0-2.23-.75.21-.34.48,0,.72-.08.7-.09,1.52.48,2.11-.33l.49-.3Z" style="fill: #26292b"/>
      <path d="M84.62,59.32a19.16,19.16,0,0,1-.24,9,17.08,17.08,0,0,0-2.62-.48c-1.09,0-1.83.23-2.11,1.38a2.88,2.88,0,0,1-.49.79,5.8,5.8,0,0,1-.71-3.06,4.76,4.76,0,0,0,.09,3H76.42A2.3,2.3,0,0,0,75,68.07c-.75-.27-.73-.81-.83-1.46a3.44,3.44,0,0,1,1.94-3.74,24.1,24.1,0,0,0,3.58-2.69C81.17,58.82,82.94,59.41,84.62,59.32Z" style="fill: #26292b"/>
      <path d="M40.73,65.78l4,.6a7.19,7.19,0,0,0-1.5,2.32c-.34,1.07-1.31.62-2.07.29-.74-.82-1.82-.48-2.72-.75a1.37,1.37,0,0,1-1.11-1.68,1.11,1.11,0,0,1,1.24-1C39.29,65.59,40,65.71,40.73,65.78Z" style="fill: #26292b"/>
      <path d="M76.42,70h2.12a4.76,4.76,0,0,1-.09-3A5.8,5.8,0,0,0,79.16,70a4.39,4.39,0,0,0,.13,3.09c.24.76,0,1-.76,1-.35,0-.7,0-1.06,0-.64,0-1-.3-1-1C76.53,72,76.45,71,76.42,70Z" style="fill: #26292b"/>
      <path d="M67.52,67.34c.15-3.92.56-7.82.92-11.73.17-2,.23-3.92.25-5.89a19.74,19.74,0,0,1,.41-3.34,36.17,36.17,0,0,1-.27,7c-.13,1.59-.15,3.21-.29,4.81-.25,3-.54,6.09-.78,9.14Z" style="fill: #66b6ff"/>
      <path d="M85.3,74.56c-.59.81-1.41.24-2.11.33-.24,0-.51-.26-.72.08-.56-.08-1.23.07-1.42-.73h0a2.47,2.47,0,0,0,1.49.22l.37,0Z" style="fill: #26292b"/>
      <path d="M82.91,74.42l-.37,0a5.16,5.16,0,0,1,.51-3.34C83,72.22,82.41,73.3,82.91,74.42Z" style="fill: #26292b"/>
      <path d="M67.05,75c-.32,1-.09,2.1-.66,3.35-.12-1.32.37-2.33.18-3.36Z" style="fill: #66b6ff"/>
      <path d="M47.16,78.48a5,5,0,0,1,3,0Z" style="fill: #fdfefd"/>
      <path d="M50.27,78.52c.4,0,.84.16,1.14-.27C51.19,79,50.69,78.6,50.27,78.52Z" style="fill: #fdfefd"/>
      <path d="M81.05,74.24l-.07,0,.07,0Z" style="fill: #629849"/>
      <path d="M69.46,40.51a2.73,2.73,0,0,1,.17,2.33,7.2,7.2,0,0,0-.19,1.72C68.58,43.6,68.58,42.06,69.46,40.51Z" style="fill: #007aff"/>
      <path d="M68.49,40c0-.82,0-1.64,0-2.46a1.21,1.21,0,0,1,.79.84l.18.94c0,.23,0,.46,0,.69l-.25,0c-.09-.1-.16-.08-.24,0Z" style="fill: #fdfefd"/>
      <path d="M30.72,83.76a.59.59,0,0,1,.22-.05C30.9,83.9,30.84,83.94,30.72,83.76Z" style="fill: #c5e7f0"/>
      <path d="M66.35,25.59a7.23,7.23,0,0,1,4.29-.88,13.43,13.43,0,0,1,5.64,1.08c.57.27,1.22.45,1.17,1.28-.7.11-1.6-.44-2,.59-.85-.32-1.86.18-2.62-.37a2.09,2.09,0,0,0-2.57-.15,1.9,1.9,0,0,1-2.49-.77C67.45,25.86,66.75,26,66.35,25.59Z" style="fill: #26292b"/>
      <path d="M66.54,32.43c-.61,0-.84-.44-.9-1,0-.29,0-.64-.47-.62a6.8,6.8,0,0,0,.17-.9,1,1,0,0,1,.93-.83c.41,0,.3.55.3.89C66.57,30.79,66.55,31.61,66.54,32.43Z" style="fill: #26292b"/>
      <path d="M64,32.27l-.25.21Z" style="fill: #79af65"/>
      <path d="M91.24,68.74v.47c0,1.72,0,1.72-1.71,1.69A8.54,8.54,0,0,1,91.24,68.74Z" style="fill: #fdfefd"/>
      <path d="M89.12,76.28a7.63,7.63,0,0,0,0-1.07c-.15-1,.31-1.3,1.27-1.23.64,0,.76.16.77.89,0,1,0,2,.1,3,0,.86-.48.83-1.07.83s-1.14,0-1.07-.82C89.15,77.38,89.12,76.83,89.12,76.28Z" style="fill: #fdfefd"/>
      <polygon points="82.59 75.11 81.94 74.92 81.35 74.75 78.89 74.03 78.88 74.02 78.55 73.4 79.37 73.64 82.25 74.5 82.48 74.57 82.59 75.11" style="fill: #26292b"/>
      <path d="M87.73,42.42c-.18.07-.43.08-.53.21a13.94,13.94,0,0,0-3.29,7.94,6.83,6.83,0,0,0-4.07,3.09h-11c0-.09,0-.18,0-.27a36.17,36.17,0,0,0,.27-7,19.74,19.74,0,0,0-.41,3.34c0,1.32,0,2.63-.12,3.94h-7.9c0-3.19-.29-6.38-.26-9.57,0-.45,0-.89-.56-1,2.9-1,5.68-2.28,8.64-3.06h.45l.24,0,.25,0,0,.49c-.88,1.55-.88,3.09,0,4.05v0c0,.28-.16.93.48.54,2.77-1.69,5.69-3.14,8.35-5,.44-.32,1.11-.51,1.15-1.24l7.83,3.11A.9.9,0,0,1,87.73,42.42Z" style="fill: #66b6ff"/>
    </g>
  </g>
</svg>
