<svg id="Layer_1" data-name="Layer 1" xmlns="http://www.w3.org/2000/svg" viewBox="0 0 24 24">
  <title>icon</title>
  <path d="M12,6.2A2.64,2.64,0,1,1,9.37,8.83,2.63,2.63,0,0,1,12,6.2m0-1.5a4.14,4.14,0,1,0,4.13,4.13A4.13,4.13,0,0,0,12,4.7Z" fill="#231f20"/>
  <path d="M15.35,15.83a1.59,1.59,0,0,1,1.59,1.59v1.89H7.06v-1.9a1.59,1.59,0,0,1,1.59-1.59h6.7m0-1.5H8.65a3.09,3.09,0,0,0-3.09,3.09v1.9a1.49,1.49,0,0,0,1.49,1.49H17a1.49,1.49,0,0,0,1.49-1.49v-1.9a3.09,3.09,0,0,0-3.09-3.09Z" fill="#231f20"/>
</svg>
